<svg width="866" height="683" viewBox="0 0 866 683" fill="none" xmlns="http://www.w3.org/2000/svg">
<path d="M621.388 597.908C622.016 568.152 541.91 542.327 442.466 540.227C343.021 538.127 261.896 560.546 261.268 590.302C260.639 620.058 340.745 645.883 440.19 647.983C539.634 650.083 620.759 627.664 621.388 597.908Z" fill="#DE2562"/>
<path opacity="0.7" d="M621.388 597.908C622.016 568.152 541.91 542.327 442.466 540.227C343.021 538.127 261.896 560.546 261.268 590.302C260.639 620.058 340.745 645.883 440.19 647.983C539.634 650.083 620.759 627.664 621.388 597.908Z" fill="white"/>
<path opacity="0.3" d="M394.8 218.93L296.33 226.5C295.791 226.543 295.25 226.474 294.739 226.297C294.229 226.121 293.76 225.84 293.363 225.474C292.966 225.108 292.648 224.664 292.431 224.169C292.214 223.674 292.101 223.14 292.1 222.6L291.91 117.29C291.909 116.573 292.049 115.862 292.323 115.199C292.597 114.536 292.999 113.934 293.506 113.426C294.014 112.919 294.616 112.517 295.279 112.243C295.942 111.969 296.653 111.829 297.37 111.83H393.46C394.7 111.827 395.891 112.312 396.776 113.181C397.661 114.049 398.169 115.23 398.19 116.47L399.81 213.42C399.835 214.804 399.33 216.145 398.398 217.169C397.467 218.193 396.18 218.823 394.8 218.93V218.93Z" fill="white"/>
<path d="M296 227C295.419 227.003 294.844 226.891 294.306 226.67C293.769 226.45 293.28 226.125 292.869 225.715C292.457 225.306 292.13 224.819 291.908 224.282C291.685 223.746 291.57 223.171 291.57 222.59L291.38 117.28C291.372 116.49 291.522 115.706 291.82 114.974C292.119 114.243 292.561 113.578 293.119 113.019C293.678 112.461 294.343 112.019 295.074 111.72C295.806 111.422 296.59 111.272 297.38 111.28H393.47C394.838 111.285 396.151 111.824 397.128 112.782C398.105 113.74 398.669 115.042 398.7 116.41L400.32 213.41C400.34 214.919 399.784 216.379 398.766 217.494C397.749 218.608 396.345 219.293 394.84 219.41V218.91V219.41L296.36 227H296ZM297.34 112.32C296.014 112.32 294.742 112.847 293.804 113.784C292.867 114.722 292.34 115.994 292.34 117.32L292.53 222.63C292.532 223.1 292.631 223.564 292.82 223.994C293.01 224.424 293.285 224.811 293.63 225.13C293.975 225.452 294.384 225.699 294.83 225.854C295.276 226.009 295.749 226.069 296.22 226.03L394.69 218.46C395.944 218.366 397.114 217.795 397.96 216.865C398.806 215.935 399.264 214.717 399.24 213.46L397.62 116.51C397.596 115.403 397.141 114.349 396.35 113.573C395.56 112.798 394.497 112.362 393.39 112.36L297.34 112.32Z" fill="#DE2562"/>
<path opacity="0.3" d="M285.93 282.12V387.83C285.931 389.186 285.459 390.5 284.596 391.546C283.733 392.592 282.532 393.304 281.2 393.56L161.31 416.67C160.895 416.75 160.467 416.736 160.058 416.631C159.648 416.526 159.267 416.332 158.941 416.063C158.615 415.794 158.353 415.455 158.173 415.073C157.993 414.69 157.9 414.273 157.9 413.85V297C157.901 295.845 158.327 294.73 159.099 293.871C159.87 293.011 160.932 292.466 162.08 292.34L282.6 279.13C283.02 279.084 283.445 279.126 283.847 279.255C284.249 279.385 284.62 279.597 284.934 279.88C285.249 280.162 285.5 280.507 285.671 280.893C285.843 281.28 285.931 281.697 285.93 282.12V282.12Z" fill="white"/>
<path d="M160.76 417.22C159.979 417.218 159.223 416.946 158.62 416.45C158.237 416.134 157.928 415.737 157.717 415.287C157.506 414.838 157.398 414.347 157.4 413.85V297C157.4 295.72 157.873 294.486 158.727 293.534C159.582 292.581 160.758 291.978 162.03 291.84L282.55 278.69C283.039 278.635 283.534 278.684 284.003 278.834C284.472 278.984 284.904 279.231 285.27 279.56C285.637 279.889 285.929 280.291 286.129 280.741C286.329 281.191 286.432 281.678 286.43 282.17V387.83C286.429 389.302 285.915 390.728 284.977 391.863C284.039 392.998 282.736 393.771 281.29 394.05L161.4 417.16C161.189 417.2 160.975 417.22 160.76 417.22V417.22ZM282.92 279.62H282.65L162.13 292.78C161.095 292.894 160.14 293.39 159.45 294.17C158.761 294.95 158.386 295.959 158.4 297V413.9C158.4 414.249 158.477 414.593 158.625 414.909C158.773 415.224 158.989 415.503 159.257 415.726C159.526 415.948 159.84 416.109 160.177 416.196C160.515 416.283 160.867 416.295 161.21 416.23L281.1 393.07C282.318 392.835 283.416 392.184 284.206 391.228C284.997 390.272 285.429 389.07 285.43 387.83V282.12C285.43 281.791 285.365 281.465 285.239 281.161C285.112 280.857 284.927 280.581 284.694 280.349C284.461 280.116 284.184 279.932 283.88 279.807C283.575 279.682 283.249 279.619 282.92 279.62V279.62Z" fill="#DE2562"/>
<path opacity="0.3" d="M291.25 283.24V388.05C291.25 388.568 291.365 389.079 291.587 389.547C291.809 390.015 292.132 390.427 292.533 390.755C292.934 391.082 293.403 391.316 293.906 391.44C294.409 391.564 294.933 391.574 295.44 391.47L395.34 371.05C396.344 370.847 397.247 370.303 397.896 369.51C398.545 368.717 398.9 367.724 398.9 366.7V271C398.899 270.338 398.758 269.684 398.486 269.081C398.213 268.477 397.815 267.939 397.319 267.501C396.822 267.063 396.239 266.736 395.606 266.541C394.974 266.346 394.307 266.288 393.65 266.37L295.35 278.63C294.224 278.771 293.187 279.316 292.433 280.164C291.679 281.012 291.258 282.105 291.25 283.24Z" fill="white"/>
<path d="M294.74 392C293.679 392 292.662 391.579 291.912 390.828C291.161 390.078 290.74 389.061 290.74 388V283.24C290.74 281.98 291.2 280.763 292.035 279.818C292.869 278.873 294.019 278.266 295.27 278.11L393.56 265.84C394.292 265.746 395.035 265.809 395.741 266.026C396.446 266.243 397.097 266.607 397.65 267.096C398.203 267.584 398.645 268.186 398.947 268.859C399.249 269.532 399.403 270.262 399.4 271V366.72C399.389 367.864 398.986 368.97 398.258 369.852C397.53 370.735 396.521 371.341 395.4 371.57L295.54 392C295.274 392.025 295.006 392.025 294.74 392ZM394.22 266.8H393.71L295.41 279.07C294.402 279.199 293.476 279.69 292.805 280.452C292.133 281.214 291.762 282.194 291.76 283.21V388.05C291.762 388.492 291.862 388.928 292.052 389.327C292.242 389.726 292.518 390.078 292.86 390.358C293.202 390.638 293.602 390.839 294.03 390.947C294.459 391.054 294.906 391.065 295.34 390.98L395.24 370.56C396.128 370.369 396.924 369.882 397.499 369.179C398.073 368.476 398.391 367.598 398.4 366.69V271C398.397 269.893 397.956 268.832 397.172 268.051C396.389 267.269 395.327 266.83 394.22 266.83V266.8Z" fill="#DE2562"/>
<path d="M398.89 354.68V366.68C398.892 367.705 398.54 368.699 397.893 369.493C397.246 370.288 396.344 370.835 395.34 371.04L300.89 390.31C301.89 377.31 307.11 369.31 307.11 369.31C311.368 363.825 316.988 359.55 323.41 356.91C328.383 354.741 333.656 353.339 339.05 352.75L342.11 352.17L364.39 347.91L389.11 344.76C396.32 345.21 398.89 354.68 398.89 354.68Z" fill="#DE2562"/>
<path opacity="0.2" d="M332.76 383.82C325.62 376.32 329.05 353.76 329.05 353.76H331.05C331.05 353.76 333.26 373.13 340.58 382.23L332.76 383.82Z" fill="black"/>
<path d="M342.11 333.33V352.83L338.9 353.33C338.9 353.33 344.9 365.33 349.9 369.33C349.9 369.33 357.9 356.51 364.4 347.92L364.9 322.08C364.9 322.08 358.05 333.76 342.11 333.33Z" fill="#F9B499"/>
<path d="M342.11 332.33V340.25C342.11 340.25 352.05 341.84 357.48 329.58C357.48 329.58 352.33 333.33 342.11 332.33Z" fill="#F7A48B"/>
<path d="M255.34 366.9L275.81 366.46C276.617 366.441 277.418 366.603 278.154 366.936C278.89 367.268 279.541 367.762 280.06 368.38L284.3 373.38C285.331 374.611 285.898 376.164 285.9 377.77V388.9C285.9 388.9 286.9 392.33 277.9 394.33L257.76 397.57L167.9 415.33C167.9 415.33 164.79 383.97 206.84 375.15L255.34 366.9Z" fill="#DE2562"/>
<path d="M342.11 332.32V352.18L339.05 352.76C333.656 353.349 328.383 354.751 323.41 356.92V336.54L319.82 335L318.65 307.37C325.4 331.32 342.11 332.32 342.11 332.32Z" fill="#28262C"/>
<path d="M382.4 345.7L364.4 347.92L364.9 322.08C367.877 318.038 370.171 313.535 371.69 308.75C371.69 308.75 377.9 311.9 382.4 304.61V345.7Z" fill="#28262C"/>
<path opacity="0.2" d="M382.4 345.7L364.4 347.92L364.9 322.08C367.877 318.038 370.171 313.535 371.69 308.75C371.69 308.75 377.9 311.9 382.4 304.61V345.7Z" fill="black"/>
<path d="M393.4 208.83C393.165 207.567 392.652 206.372 391.9 205.33C391.9 205.33 388.4 204.83 388.35 207.93L393.4 208.83Z" fill="#28262C"/>
<path opacity="0.2" d="M393.4 208.83C393.165 207.567 392.652 206.372 391.9 205.33C391.9 205.33 388.4 204.83 388.35 207.93L393.4 208.83Z" fill="black"/>
<path d="M301.05 225.76L395 218.67C396.338 218.579 397.591 217.983 398.507 217.003C399.422 216.022 399.931 214.731 399.93 213.39V205.32C399.93 204.147 399.539 203.007 398.82 202.08L391.33 192.42C391.211 192.267 391.059 192.142 390.886 192.054C390.714 191.966 390.524 191.917 390.33 191.91L370.92 191.33L334.43 190.63C334.43 190.63 302.05 197.76 301.05 225.76Z" fill="#DE2562"/>
<path d="M341.9 172.32V182.39L348.9 188.32L363.96 180.32V161.04L341.9 172.32Z" fill="#F9B499"/>
<path d="M341.9 172.33V182.39C341.9 182.39 359.53 178.81 363.97 163.32L341.9 172.33Z" fill="#F7A48B"/>
<path d="M551.71 549C548.12 549.9 541.52 550.59 535.33 551.08C527.71 551.7 520.71 552 520.71 552C520.352 551.475 520.041 550.92 519.78 550.34C513.1 536.34 506.71 477 506.71 477C500.71 424 494.71 391 494.71 391C494.71 399 484.71 491 484.71 491L475.92 550.59L475.71 552C471.546 552.462 467.36 552.692 463.17 552.69C456.644 552.747 450.128 552.181 443.71 551V550L445.71 493C444.71 438 458.15 341 458.15 341H533.35C537.99 347 542.71 392 542.71 392L548.71 476L551.65 547.66L551.71 549Z" fill="#28262C"/>
<path opacity="0.2" d="M494.71 391C494.71 399 484.71 491 484.71 491L475.71 552C471.546 552.462 467.36 552.692 463.17 552.69C464.74 542.23 465.88 529.39 466.4 523.01C466.58 520.623 466.58 518.227 466.4 515.84C465.908 507.663 467.386 499.487 470.71 492C473.71 484 475.71 476 475.71 476L477.71 458L486.21 388.81C489.71 365.57 494.71 391 494.71 391Z" fill="black"/>
<path opacity="0.2" d="M551.71 549C548.12 549.9 541.52 550.59 535.33 551.08C530.87 536.89 531.71 521 531.71 521C532.71 492 528.71 479 528.71 479C523.71 443 523.54 406.5 523.54 406.5C524.37 382.01 520.71 377 520.71 377C506.92 358.8 503.02 347.48 502.3 341H533.35C537.99 347 542.71 392 542.71 392L548.71 476L551.71 549Z" fill="black"/>
<path d="M454.08 258.41C448.305 258.55 442.543 257.795 437 256.17V256.17C434.859 255.575 432.761 254.837 430.72 253.96C435.64 222.46 449.28 208.4 449.72 207.96C456.4 229.83 454.08 258.41 454.08 258.41Z" fill="#DE2562"/>
<path opacity="0.2" d="M454.08 258.41C448.305 258.55 442.543 257.795 437 256.17V256.17C434.859 255.575 432.761 254.837 430.72 253.96C435.64 222.46 449.28 208.4 449.72 207.96C456.4 229.83 454.08 258.41 454.08 258.41Z" fill="black"/>
<path opacity="0.2" d="M437.25 256.22L437.02 256.17C434.879 255.575 432.781 254.837 430.74 253.96C435.66 222.46 449.3 208.4 449.74 207.96C449.3 208.85 435.82 238.76 437.25 256.22Z" fill="black"/>
<path d="M556.71 230C556.71 263 550.71 260 550.71 260L545.71 261L540.24 281.93L533.35 341H457.3C456.876 341 456.469 340.835 456.165 340.54C455.86 340.245 455.683 339.844 455.67 339.42L453.67 268C455.67 234 449.67 208 449.67 208C457.67 200 468.37 195.28 468.37 195.28L512.16 191.37C523.71 192.37 534.55 197.17 540 199.97C544.991 202.487 549.115 206.44 551.84 211.32C554.833 217.107 556.496 223.489 556.71 230V230Z" fill="#DE2562"/>
<path opacity="0.2" d="M540.24 281.88L533.35 341H506.84C510.78 339 516.76 334.87 518.71 327.43C518.71 327.43 523.9 314.2 530.3 306.6C530.3 306.6 535.81 295.42 532.3 287.21L540.24 281.88Z" fill="black"/>
<path d="M505.21 169.95C508.248 169.95 510.71 166.592 510.71 162.45C510.71 158.308 508.248 154.95 505.21 154.95C502.172 154.95 499.71 158.308 499.71 162.45C499.71 166.592 502.172 169.95 505.21 169.95Z" fill="#F9B499"/>
<path d="M486.471 185.745C498.384 184.86 507.029 170.524 505.781 153.726C504.533 136.927 493.863 124.027 481.95 124.913C470.037 125.798 461.392 140.133 462.64 156.932C463.888 173.73 474.558 186.63 486.471 185.745Z" fill="#F9B499"/>
<path d="M459.31 134.18C459.31 134.18 459.71 127.95 462.71 125.95C462.71 125.95 461.29 126.95 458.5 125.95C458.5 125.95 465.25 124.31 468.74 121.02C470.362 119.511 472.215 118.272 474.23 117.35C478.43 115.399 483.05 114.523 487.672 114.803C492.295 115.082 496.775 116.507 500.71 118.95C500.71 118.95 502.71 114.95 500.71 113.45C500.71 113.45 509.71 116.95 511.71 124.95C511.71 124.95 527.19 127.16 518.45 144.06C516.186 143.255 513.803 142.839 511.4 142.83C511.4 142.83 509.48 133 498.1 133H464.71C462.87 133.183 461.058 133.579 459.31 134.18V134.18Z" fill="#28262C"/>
<path opacity="0.2" d="M510.4 143.83C510.4 143.83 515.19 142.16 518.45 144.06C518.45 144.06 520.6 139.96 520.66 138.45C520.66 138.45 515.71 131.95 509.71 132.95C509.71 132.95 509.71 124.95 505.71 122.95C505.71 122.95 506.43 127.56 505.07 128.75C505.07 128.75 489.5 118.21 477.07 126.08C477.07 126.08 471.67 126.95 470.67 125.95C470.67 125.95 470.67 127.95 475.67 127.95C475.67 127.95 470.67 130.95 470.67 132.95H498.06C498.06 132.95 507.33 134.83 510.4 143.83Z" fill="black"/>
<path d="M510.71 142H512.64C513.831 142 515.011 142.235 516.111 142.69C517.211 143.146 518.211 143.814 519.053 144.657C519.896 145.499 520.564 146.499 521.02 147.599C521.475 148.699 521.71 149.879 521.71 151.07V152.93C521.71 154.121 521.475 155.301 521.02 156.401C520.564 157.501 519.896 158.501 519.053 159.343C518.211 160.186 517.211 160.854 516.111 161.31C515.011 161.765 513.831 162 512.64 162H510.71V142Z" fill="#DE2562"/>
<path opacity="0.2" d="M510.71 142H512.64C513.831 142 515.011 142.235 516.111 142.69C517.211 143.146 518.211 143.814 519.053 144.657C519.896 145.499 520.564 146.499 521.02 147.599C521.475 148.699 521.71 149.879 521.71 151.07V152.93C521.71 154.121 521.475 155.301 521.02 156.401C520.564 157.501 519.896 158.501 519.053 159.343C518.211 160.186 517.211 160.854 516.111 161.31C515.011 161.765 513.831 162 512.64 162H510.71V142Z" fill="black"/>
<path d="M512.71 193.55C512.71 193.55 497.35 212.88 476.03 201.92V182.92C495.35 193.92 503.83 169.71 503.83 169.71C504.362 169.951 504.946 170.054 505.528 170.008C506.111 169.963 506.672 169.771 507.16 169.45L509.69 180.45L512.71 193.55Z" fill="#F9B499"/>
<path d="M509.69 180.46C503.96 186.12 492.31 195.12 476.03 195.23V182.92C495.35 193.92 503.83 169.71 503.83 169.71C504.362 169.951 504.946 170.054 505.528 170.008C506.111 169.963 506.672 169.771 507.16 169.45L509.69 180.46Z" fill="#F7A48B"/>
<path d="M550.71 260C550.71 260 527.63 320 509.69 299C492.69 279.07 481.47 225.17 481.47 225.17C473.23 223.41 471.71 210.93 471.71 210.93C470.751 210.695 469.806 210.404 468.88 210.06C468.184 209.799 467.583 209.334 467.156 208.726C466.73 208.117 466.497 207.393 466.49 206.65C466.489 206.097 466.619 205.552 466.87 205.06C467.828 203.416 469.14 202.005 470.71 200.93C470.71 200.93 466.71 198.54 468.71 194.47C469.159 193.594 469.798 192.828 470.58 192.23L474.7 188.93C474.7 188.93 472.7 182.93 476.7 180.93C476.7 180.93 480.7 178.93 487.7 189.93C487.7 189.93 494 197.79 492.85 218.86C492.85 218.86 493.7 229.93 499.7 235.93L515.39 256.81L518.7 250.93C526.213 252.064 533.636 253.735 540.91 255.93C544.295 256.983 547.575 258.345 550.71 260V260Z" fill="#F9B499"/>
<path d="M550.71 260C550.71 260 527.63 320 509.69 299C492.69 279.07 481.47 225.17 481.47 225.17C473.23 223.41 471.71 210.93 471.71 210.93C470.751 210.695 469.806 210.404 468.88 210.06C468.184 209.799 467.583 209.334 467.156 208.726C466.73 208.117 466.497 207.393 466.49 206.65C466.49 206.65 472.35 209.22 476.03 208.57C476.03 208.57 474.69 218.22 484.2 222.07C484.2 222.07 495.71 290.93 516.71 288.93C516.71 288.93 535.12 284.93 540.92 255.93C544.301 256.983 547.579 258.346 550.71 260V260Z" fill="#F7A48B"/>
<path d="M470.71 201C471.641 200.775 472.615 200.806 473.53 201.09C474.445 201.359 475.307 201.782 476.08 202.34C476.841 202.906 477.514 203.579 478.08 204.34C478.367 204.709 478.634 205.093 478.88 205.49C479.09 205.91 479.31 206.32 479.48 206.75C479.12 206.44 478.81 206.11 478.48 205.75L477.48 204.82C476.843 204.225 476.176 203.665 475.48 203.14C474.07 202.079 472.44 201.348 470.71 201V201Z" fill="#F7A48B"/>
<path d="M474.71 189C475.809 189.087 476.881 189.383 477.87 189.87C478.869 190.344 479.797 190.953 480.63 191.68C481.46 192.411 482.189 193.248 482.8 194.17C483.413 195.079 483.888 196.073 484.21 197.12C483.51 196.27 482.89 195.42 482.21 194.64C481.527 193.855 480.788 193.12 480 192.44C479.224 191.746 478.395 191.115 477.52 190.55C476.621 189.967 475.682 189.449 474.71 189V189Z" fill="#F7A48B"/>
<path d="M502.1 287.41L464.71 301C449.71 305 441.71 303.52 441.71 303.52C421.76 298.05 431.71 261.37 431.71 261.37C433.34 261.72 434.97 262.01 436.56 262.25C442.296 263.106 448.091 263.498 453.89 263.42L453.78 271.83C456.88 270.67 493.35 267.25 493.35 267.25C494.45 270.67 497.81 278.25 500.02 283.06C501.25 285.6 502.1 287.41 502.1 287.41Z" fill="#F9B499"/>
<path d="M502.1 287.41L464.71 301C449.71 305 441.71 303.52 441.71 303.52C421.76 298.05 431.71 261.37 431.71 261.37C433.34 261.72 434.97 262.01 436.56 262.25L435.71 281C437.71 305 470.71 293 470.71 293L500.06 283C501.25 285.6 502.1 287.41 502.1 287.41Z" fill="#F7A48B"/>
<path d="M518.71 246C518.71 246 545.28 249.37 554 256.69C554 256.69 561.06 228.69 551.89 211.32C551.89 211.27 528.71 204 518.71 246Z" fill="#DE2562"/>
<path opacity="0.2" d="M518.71 246C518.71 246 545.28 249.37 554 256.69C554 256.69 561.06 228.69 551.89 211.32C551.89 211.27 528.71 204 518.71 246Z" fill="black"/>
<path d="M518.71 246C518.088 247.609 518.088 249.391 518.71 251C518.71 251 542.71 255 550.71 260C550.71 260 553.28 260.37 554 256.69C554 256.64 544.71 249 518.71 246Z" fill="#28262C"/>
<path d="M513.4 253.92C513.4 253.92 517.48 245.92 535.1 252.92C535.1 252.92 543.73 255.65 540.72 261.28C540.72 261.28 542.59 266.28 537.65 268.1C537.65 268.1 540.24 271.32 536.78 275.72C536.267 276.402 535.504 276.854 534.659 276.976C533.814 277.098 532.955 276.88 532.27 276.37C531.501 275.728 530.854 274.952 530.36 274.08C529.658 272.991 528.869 271.961 528 271L513.4 253.92Z" fill="#F9B499"/>
<path d="M530.31 261.32C531.132 261.581 531.918 261.944 532.65 262.4C533.386 262.842 534.082 263.347 534.73 263.91C536.081 265.018 537.093 266.484 537.65 268.14C537.06 267.5 536.49 266.91 535.9 266.33C535.31 265.75 534.7 265.21 534.07 264.66C532.84 263.57 531.55 262.52 530.31 261.32Z" fill="#F7A48B"/>
<path d="M531.63 255.07C533.424 255.606 535.132 256.397 536.7 257.42C537.496 257.923 538.249 258.491 538.95 259.12C539.681 259.728 540.283 260.476 540.72 261.32C539.998 260.751 539.247 260.22 538.47 259.73L536.16 258.26C534.589 257.287 533.076 256.221 531.63 255.07V255.07Z" fill="#F7A48B"/>
<path d="M513.4 253.92C513.4 253.92 527 269.28 530.4 274.12C530.4 274.12 531.86 275.86 532.31 276.41C532.31 276.41 531.75 267.95 526.75 263.95L514.93 252.28C514.338 252.744 513.821 253.297 513.4 253.92V253.92Z" fill="#F7A48B"/>
<path d="M478.71 555.13V571.77C478.71 572.781 478.413 573.77 477.857 574.614C477.301 575.458 476.509 576.121 475.58 576.52C474.935 576.806 474.236 576.953 473.53 576.95H441.89C440.517 576.947 439.201 576.401 438.23 575.43C437.259 574.459 436.713 573.143 436.71 571.77V555.13C436.71 553.756 437.256 552.439 438.227 551.467C439.199 550.496 440.516 549.95 441.89 549.95H443.74V550.95C450.158 552.131 456.674 552.697 463.2 552.64C467.39 552.642 471.576 552.412 475.74 551.95L475.95 550.54C476.786 550.979 477.485 551.64 477.972 552.449C478.459 553.258 478.714 554.186 478.71 555.13V555.13Z" fill="#DE2562"/>
<path opacity="0.2" d="M478.71 555.13V571.77C478.71 573.144 478.164 574.461 477.193 575.433C476.221 576.404 474.904 576.95 473.53 576.95H461.6C459.84 570.26 463.17 566.36 463.17 566.36C464.63 560.78 463.17 559.36 463.17 559.36C460.63 553.82 463.17 552.59 463.17 552.59C467.36 552.592 471.546 552.362 475.71 551.9L475.92 550.49C476.769 550.929 477.48 551.595 477.972 552.415C478.465 553.234 478.72 554.174 478.71 555.13Z" fill="black"/>
<path d="M557.45 569.91C557.5 570.515 557.308 571.114 556.916 571.577C556.524 572.04 555.964 572.329 555.36 572.38L536.21 574L519.07 575.45C518.465 575.5 517.866 575.308 517.403 574.916C516.94 574.524 516.651 573.964 516.6 573.36L514.88 553C514.83 552.395 515.022 551.796 515.414 551.333C515.806 550.87 516.365 550.581 516.97 550.53L519.78 550.29C520.041 550.87 520.352 551.425 520.71 551.95C520.71 551.95 526.93 551.68 534.02 551.13L535.33 551.03C541.52 550.54 548.12 549.85 551.71 548.95L551.65 547.61L553.27 547.47C553.875 547.42 554.474 547.612 554.937 548.004C555.4 548.396 555.689 548.956 555.74 549.56L557.45 569.91Z" fill="#DE2562"/>
<path opacity="0.2" d="M557.45 569.91C557.5 570.515 557.308 571.114 556.916 571.577C556.524 572.04 555.964 572.329 555.36 572.38L536.21 574C536.13 567.26 534.67 555.89 534.02 551.14L535.33 551.04C541.52 550.55 548.12 549.86 551.71 548.96L551.65 547.62L553.27 547.48C553.875 547.43 554.474 547.622 554.937 548.014C555.4 548.406 555.689 548.966 555.74 549.57L557.45 569.91Z" fill="black"/>
<path d="M543.37 605H510.11C509.184 605 508.275 604.759 507.472 604.299C506.668 603.84 505.999 603.178 505.53 602.38C504.763 601.076 504.382 599.582 504.43 598.07C504.59 590.84 513.71 584 513.71 584C520.71 580 521.79 575.26 521.79 575.26L542.54 573.51L551.71 572.74L556.71 585C556.77 585.15 556.83 585.3 556.88 585.45C557.71 587.636 557.996 589.991 557.713 592.312C557.431 594.633 556.589 596.85 555.26 598.774C553.931 600.697 552.154 602.269 550.083 603.353C548.012 604.438 545.708 605.003 543.37 605V605Z" fill="#28262C"/>
<path opacity="0.2" d="M543.37 605H510.11C509.184 605 508.275 604.759 507.472 604.299C506.668 603.84 505.999 603.178 505.53 602.38C504.763 601.076 504.382 599.582 504.43 598.07C516.5 603.23 536.71 600 536.71 600C551.71 597 545.71 587.07 545.71 587.07L542.51 573.51L551.68 572.74L556.68 585C556.74 585.15 556.8 585.3 556.85 585.45C557.679 587.634 557.965 589.986 557.684 592.304C557.404 594.623 556.564 596.838 555.239 598.761C553.913 600.684 552.14 602.256 550.073 603.343C548.006 604.43 545.705 604.998 543.37 605V605Z" fill="black"/>
<path d="M475.71 595C476.71 603 464.71 601.82 464.71 601.82H426C413.26 601.63 413.73 596 413.73 596C413.73 595.41 413.73 594.84 413.78 594.3C414.56 582 423.73 582 423.73 582C431.73 581 438.26 575.5 438.26 575.5C439.227 576.462 440.536 577.002 441.9 577H473.54C474.246 577.003 474.945 576.856 475.59 576.57L475.78 577L475.71 595Z" fill="#28262C"/>
<path opacity="0.2" d="M475.71 595C476.71 603 464.71 601.82 464.71 601.82H426C413.26 601.63 413.73 596 413.73 596C413.73 595.41 413.73 594.84 413.78 594.3C421.22 594.98 440.73 596.38 454.89 594C454.89 594 468.73 594 467.73 584V577H473.52C474.226 577.003 474.925 576.856 475.57 576.57L475.76 577L475.71 595Z" fill="black"/>
<path d="M219.9 374.32V348.63L244.38 341.55V368.29L229.9 380.32L219.9 374.32Z" fill="#F9B499"/>
<path d="M219.9 370.44L213.9 373.32L224.9 404.32L235.9 402.32L247.9 369.32L244.38 366.4V368.29L229.9 380.32L219.9 374.32V370.44Z" fill="#DE2562"/>
<path opacity="0.56" d="M219.9 370.44L213.9 373.32L224.9 404.32L235.9 402.32L247.9 369.32L244.38 366.4V368.29L229.9 380.32L219.9 374.32V370.44Z" fill="white"/>
<path d="M219.9 348.63V360.94C219.9 360.94 237.85 358.78 244.37 341.55L219.9 348.63Z" fill="#F7A48B"/>
<path d="M219.9 364C219.9 364 203.82 374.35 204.9 380.35L202.9 408.35L224.9 404.35L213.9 373.35L219.9 370.46V364Z" fill="#28262C"/>
<path d="M247.9 369.33L244.37 366.4V360.94L255.37 366.94C255.847 367.201 256.25 367.578 256.544 368.036C256.838 368.494 257.011 369.018 257.05 369.56L258.93 397.37L235.93 402.37L247.9 369.33Z" fill="#28262C"/>
<path d="M374.9 288.33C374.9 313.18 363.05 332.76 345.4 333.33C328.06 333.88 315.9 313.18 315.9 288.33C315.9 263.48 329.11 243.33 345.4 243.33C361.69 243.33 374.9 263.47 374.9 288.33Z" fill="#F9B499"/>
<path d="M388.549 292.669C391.902 281.838 390.343 271.733 385.067 270.1C379.792 268.467 372.797 275.924 369.444 286.755C366.091 297.586 367.65 307.691 372.926 309.324C378.202 310.957 385.197 303.5 388.549 292.669Z" fill="#F9B499"/>
<path d="M323.54 258.11C323.54 258.11 331.9 253.33 340.9 262.33C340.9 262.33 351.9 249.33 364.9 258.33V331.52L371.9 329.33L374 277.05C374 277.05 380.29 267.89 385.11 270.11C385.11 270.11 388.21 244.19 361.73 238.85C357.139 237.966 352.436 237.824 347.8 238.43C338.24 239.59 321.85 243.68 323.54 258.11Z" fill="#28262C"/>
<path d="M342.11 340.25C342.11 340.25 333.9 337.33 328.9 339.33C328.9 339.33 330.26 370.13 340.58 382.23L364.4 377.37C364.4 377.37 380.76 347.72 378.33 331.52C378.33 331.52 369.33 333.21 364.59 337.77L364.4 347.92L349.9 369.33C345.395 364.625 341.68 359.222 338.9 353.33L342.11 352.83V340.25Z" fill="#DE2562"/>
<path opacity="0.56" d="M342.11 340.25C342.11 340.25 333.9 337.33 328.9 339.33C328.9 339.33 330.26 370.13 340.58 382.23L364.4 377.37C364.4 377.37 380.76 347.72 378.33 331.52C378.33 331.52 369.33 333.21 364.59 337.77L364.4 347.92L349.9 369.33C345.395 364.625 341.68 359.222 338.9 353.33L342.11 352.83V340.25Z" fill="white"/>
<path opacity="0.56" d="M371.1 340.32C368.337 343.327 365.771 346.511 363.42 349.85C361.05 353.18 358.68 356.5 356.42 359.91C354.16 363.32 351.92 366.72 349.85 370.23C348.85 371.99 347.85 373.77 346.99 375.62C346.033 377.42 345.422 379.384 345.19 381.41C345.151 380.379 345.279 379.349 345.57 378.36C345.843 377.364 346.177 376.385 346.57 375.43C347.352 373.529 348.234 371.669 349.21 369.86C351.15 366.23 353.37 362.78 355.62 359.35C357.87 355.92 360.32 352.63 362.83 349.35C364.09 347.74 365.35 346.11 366.75 344.61C368.15 343.11 369.58 341.7 371.1 340.32Z" fill="white"/>
<path opacity="0.56" d="M336 344.77C336.75 347.019 337.615 349.229 338.59 351.39C339.59 353.54 340.59 355.66 341.79 357.7C342.938 359.764 344.193 361.767 345.55 363.7C346.88 365.7 348.4 367.47 349.9 369.34C349.01 368.54 348.12 367.74 347.29 366.87C346.46 366 345.68 365.11 344.94 364.16C343.436 362.297 342.098 360.306 340.94 358.21C339.77 356.119 338.766 353.939 337.94 351.69C337.53 350.56 337.16 349.43 336.82 348.28C336.477 347.127 336.204 345.955 336 344.77Z" fill="white"/>
<path opacity="0.2" d="M364.4 377.37L372.72 375.67C372.72 375.67 380.32 354.35 378.11 346.34H377C377 346.34 371.9 364.41 364.4 377.37Z" fill="black"/>
<path d="M341.9 182.39L348.9 188.33L363.97 180.33V174.68C372.03 174.04 370.9 176.33 370.9 176.33V183.67C375.9 188.02 370.9 191.33 370.9 191.33L346.42 211.44C341.06 206.56 335.99 194.6 334.42 190.63C334.271 190.262 334.252 189.854 334.366 189.474C334.481 189.094 334.722 188.764 335.05 188.54L337.45 186.9C337.706 186.72 337.884 186.448 337.945 186.141C338.006 185.834 337.947 185.515 337.78 185.25L336.56 183.34C336.38 183.06 336.308 182.724 336.357 182.394C336.407 182.065 336.575 181.765 336.83 181.55L341.91 177.33L341.9 182.39Z" fill="#DE2562"/>
<path opacity="0.56" d="M341.9 182.39L348.9 188.33L363.97 180.33V174.68C372.03 174.04 370.9 176.33 370.9 176.33V183.67C375.9 188.02 370.9 191.33 370.9 191.33L346.42 211.44C341.06 206.56 335.99 194.6 334.42 190.63C334.271 190.262 334.252 189.854 334.366 189.474C334.481 189.094 334.722 188.764 335.05 188.54L337.45 186.9C337.706 186.72 337.884 186.448 337.945 186.141C338.006 185.834 337.947 185.515 337.78 185.25L336.56 183.34C336.38 183.06 336.308 182.724 336.357 182.394C336.407 182.065 336.575 181.765 336.83 181.55L341.91 177.33L341.9 182.39Z" fill="white"/>
<path opacity="0.56" d="M339.9 180.33C341.49 181.55 343.07 182.8 344.6 184.09C346.13 185.38 347.69 186.66 349.21 187.97L348.67 187.92C351.67 186.22 354.67 184.54 357.67 182.92C359.19 182.11 360.73 181.35 362.25 180.56C363.77 179.77 365.33 179.03 366.89 178.31C365.45 179.25 364 180.17 362.53 181.05C361.06 181.93 359.59 182.84 358.1 183.69C355.1 185.42 352.1 187.08 349.1 188.69L348.8 188.86L348.56 188.64C347.07 187.29 345.61 185.91 344.16 184.52C342.71 183.13 341.3 181.76 339.9 180.33Z" fill="white"/>
<path opacity="0.56" d="M345.9 196.33C342.331 193.903 339.16 190.938 336.5 187.54C338.279 188.727 339.952 190.065 341.5 191.54C343.106 193.003 344.578 194.606 345.9 196.33V196.33Z" fill="white"/>
<path opacity="0.56" d="M345.9 200.68C347.091 201.22 348.429 201.347 349.7 201.04C350.943 200.749 352.102 200.178 353.09 199.37C353.59 198.967 354.067 198.536 354.52 198.08L355.96 196.71L358.86 194.02C360.86 192.24 362.78 190.46 364.79 188.74L367.79 186.17C368.79 185.34 369.79 184.48 370.88 183.67C369.98 184.67 369.04 185.58 368.12 186.53L365.29 189.31C363.41 191.16 361.47 192.95 359.53 194.74L356.59 197.4L355.1 198.71C354.612 199.182 354.083 199.61 353.52 199.99C352.404 200.788 351.116 201.312 349.76 201.52C348.414 201.706 347.047 201.408 345.9 200.68V200.68Z" fill="white"/>
<path d="M334.41 190.63C334.41 190.63 316.06 189.33 315.48 196.33C315.48 196.33 311.96 216.48 313.93 224.4L339.93 222.57C339.93 222.57 329.91 201.94 334.41 190.63Z" fill="#28262C"/>
<path d="M358.4 221.26C358.4 221.26 369.9 202.33 370.9 191.33C370.9 191.33 373.14 190.2 373.02 186.76H385.02C385.999 186.692 386.977 186.896 387.847 187.35C388.718 187.803 389.445 188.489 389.95 189.33C389.95 189.33 385.38 188.33 386.16 196.33V219.33L358.4 221.26Z" fill="#28262C"/>
<path d="M580.9 179.32L593.9 147.32L606.9 180.32L593.9 192.88L580.9 179.32Z" fill="#DE2562"/>
<path opacity="0.2" d="M580.9 179.32L593.9 176.47L606.9 180.32L593.9 192.88L580.9 179.32Z" fill="black"/>
<path opacity="0.2" d="M593.9 147.32V192.88L580.9 179.32L593.9 147.32Z" fill="black"/>
<path d="M635.26 487.32L622.38 495.02L621.89 495.32L621.38 495.05L606.89 487.32L620.65 457.38L621.08 456.44L621.66 457.7L635.26 487.32Z" fill="#DE2562"/>
<path d="M620.91 480L607.52 487C607.462 487.032 607.413 487.079 607.379 487.136C607.345 487.193 607.327 487.258 607.327 487.325C607.327 487.392 607.345 487.457 607.379 487.514C607.413 487.571 607.462 487.618 607.52 487.65L621.72 495.23C621.777 495.26 621.841 495.275 621.905 495.275C621.969 495.275 622.033 495.26 622.09 495.23L634.71 487.67C634.769 487.64 634.818 487.594 634.852 487.537C634.887 487.481 634.905 487.416 634.905 487.35C634.905 487.284 634.887 487.219 634.852 487.163C634.818 487.106 634.769 487.06 634.71 487.03L621.28 480.03C621.228 479.99 621.165 479.965 621.099 479.96C621.034 479.955 620.968 479.969 620.91 480Z" stroke="#28262C" stroke-miterlimit="10"/>
<path d="M622.39 495.31L621.39 495.33L621.38 495.05L620.65 457.38L621.08 456.44L621.66 457.7L622.38 495.02L622.39 495.31Z" fill="#28262C"/>
<path d="M635.26 492.07L621.62 516.95L621.08 517.93L620.61 517.08L606.89 492.07L620.96 499.62L621.48 499.9L621.96 499.63L635.26 492.07Z" fill="#DE2562"/>
<path d="M621.96 499.63L621.62 516.95L621.08 517.93L620.61 517.08L620.96 499.62L621.48 499.9L621.96 499.63Z" fill="#28262C"/>
<path d="M464.71 133C464.71 133 450.71 134 450.71 145C450.71 145 447.71 165 456.71 166C456.71 166 470.71 169 474.71 164C474.71 164 479.71 160 485.71 165C485.71 165 486.71 166.79 492.21 166.89H504.69C504.69 166.89 512.69 167 512.69 159V144.59C512.69 144.59 513 133 496.36 133H464.71Z" fill="#DE2562"/>
<path opacity="0.56" d="M495.81 161.6C494.766 161.436 493.732 161.219 492.71 160.95L490.85 160.21L487.71 159C486.242 158.258 484.695 157.681 483.1 157.28C479.41 156.33 474.1 155.93 469.61 159.28C468.831 159.828 467.926 160.172 466.98 160.28L465.8 160.41C462.94 160.63 459.24 160.29 457.21 156.48C456.229 154.447 455.723 152.217 455.73 149.96C455.73 149.64 455.73 149.31 455.73 148.96C455.73 148.96 454.88 140.44 467.34 138.35C468.462 138.159 469.594 138.029 470.73 137.96C470.73 137.96 472.73 137.77 476.05 137.64C478.73 137.53 482.27 137.46 486.29 137.56C488.74 137.62 491.37 137.75 494.09 137.96C496.056 138.012 498.008 138.311 499.9 138.85C502.56 139.5 504.957 140.948 506.77 143C507.741 144.232 508.382 145.691 508.63 147.24C508.63 147.47 508.71 147.71 508.73 147.96C508.71 148 511.37 163.92 495.81 161.6Z" fill="white"/>
<path opacity="0.18" d="M476 137.63L457.2 156.46C456.219 154.427 455.713 152.197 455.72 149.94L467.32 138.34C468.442 138.149 469.574 138.019 470.71 137.95C470.71 137.95 472.72 137.76 476 137.63Z" fill="white"/>
<path opacity="0.18" d="M499.88 138.84L483.1 157.23C479.41 156.28 474.1 155.88 469.61 159.23C468.831 159.778 467.926 160.122 466.98 160.23L465.8 160.36L486.27 137.52C488.72 137.58 491.35 137.71 494.07 137.92C496.038 137.981 497.99 138.291 499.88 138.84V138.84Z" fill="white"/>
<path opacity="0.18" d="M508.61 147.23L495.81 161.6C494.766 161.436 493.732 161.219 492.71 160.95L490.85 160.21L506.75 143C507.72 144.229 508.36 145.685 508.61 147.23Z" fill="white"/>
<path d="M474.71 189C473.43 186 473.61 181.09 477.37 180.39C481.53 179.95 484.55 184.62 486.23 187.8C484.42 185.64 482.57 183.3 480.07 181.92C479.347 181.487 478.511 181.282 477.67 181.33C474.22 182.01 474.34 186.18 474.67 189H474.71Z" fill="#F7A48B"/>
<path d="M430.71 254C429.565 255.957 429.171 258.264 429.6 260.49C429.633 260.643 429.71 260.782 429.823 260.89C429.935 260.999 430.076 261.072 430.23 261.1C432.9 261.6 445.23 263.79 453.94 263.42L454.08 258.42C446.073 258.516 438.128 257.014 430.71 254V254Z" fill="#28262C"/>
<path opacity="0.2" d="M430.71 254C430.71 254 434.8 255.55 437.26 256.27V262.27L430.26 261.13C430.26 261.13 429.19 261.49 429.47 258.76C429.44 258.68 429.71 255 430.71 254Z" fill="black"/>
<path d="M377.08 128.17C374.8 155.03 359.22 175.63 342.29 174.17C325.36 172.71 313.87 149.84 315.76 123C316.4 113.87 317.4 107.87 320.76 101.66C327.76 88.86 335.53 78.79 345.76 77.16C351.53 81.81 358.52 79.38 358.52 79.38C368.44 84.71 375.52 98.17 377.06 114.68C377.47 119.167 377.477 123.682 377.08 128.17V128.17Z" fill="#F9B499"/>
<path d="M386.29 121.76C376.138 112.497 363.48 106.434 349.9 104.33C336.9 102.96 326.2 102.06 320.78 101.62L316.9 101.33L318.9 94.33C323.9 74.33 332.42 71.91 338.1 72.9C340.736 73.4228 343.166 74.6934 345.1 76.56C345.31 76.7577 345.531 76.9446 345.76 77.12C351.53 81.77 358.52 79.34 358.52 79.34C371.31 73.19 376.52 90.77 378.21 99.16C378.845 102.295 379.786 105.359 381.02 108.31L386.6 121.56C386.627 121.601 386.636 121.651 386.625 121.699C386.615 121.747 386.586 121.788 386.545 121.815C386.504 121.842 386.454 121.851 386.406 121.84C386.358 121.83 386.317 121.801 386.29 121.76Z" fill="#DE2562"/>
<path d="M320.78 101.62L304 100.4C303.676 100.379 303.354 100.465 303.085 100.646C302.815 100.827 302.613 101.092 302.51 101.4C300.9 105.82 296.1 122.89 315.51 127.28C315.52 127.26 315.67 111.92 320.78 101.62Z" fill="#DE2562"/>
<path opacity="0.2" d="M320.78 101.62L304 100.4C303.676 100.379 303.354 100.465 303.085 100.646C302.815 100.827 302.613 101.092 302.51 101.4C300.9 105.82 296.1 122.89 315.51 127.28C315.52 127.26 315.67 111.92 320.78 101.62Z" fill="black"/>
<path d="M351.9 104.62C351.9 104.62 378.9 106.11 387.39 100.62C387.914 100.285 388.544 100.154 389.158 100.254C389.772 100.354 390.329 100.676 390.72 101.16C393.44 104.47 397.18 112.05 386.9 122.34C377.116 113.282 364.992 107.144 351.9 104.62V104.62Z" fill="#DE2562"/>
<path opacity="0.2" d="M351.9 104.62C351.9 104.62 378.9 106.11 387.39 100.62C387.914 100.285 388.544 100.154 389.158 100.254C389.772 100.354 390.329 100.676 390.72 101.16C393.44 104.47 397.18 112.05 386.9 122.34C377.116 113.282 364.992 107.144 351.9 104.62V104.62Z" fill="black"/>
<path d="M387.367 140.327C390.058 129.945 387.381 120.269 381.388 118.716C375.395 117.162 368.355 124.32 365.664 134.702C362.973 145.084 365.65 154.76 371.643 156.313C377.636 157.867 384.676 150.709 387.367 140.327Z" fill="#F9B499"/>
<path d="M369 110.13L369.52 125.69C369.52 125.69 372.29 118.69 380.07 118.52V116.73C380.07 116.73 374.19 111.94 369 110.13Z" fill="#28262C"/>
<path d="M336.9 147.33C336.9 147.33 339.47 152.33 343.19 147.33C343.19 147.33 345.9 140.33 357.9 144.33C361.469 145.526 365.331 145.526 368.9 144.33C368.9 144.33 360.9 162.33 344.9 156.33C344.9 156.33 342.9 154.33 341.9 156.33C341.9 156.33 330.67 166.18 320.78 152.75C320.78 152.75 322.9 153.33 326.9 149.33C326.9 149.33 331.9 141.33 336.9 147.33Z" fill="#28262C"/>
<path d="M221.9 352.83C241.23 352.83 256.9 331.228 256.9 304.58C256.9 277.932 241.23 256.33 221.9 256.33C202.57 256.33 186.9 277.932 186.9 304.58C186.9 331.228 202.57 352.83 221.9 352.83Z" fill="#F9B499"/>
<path d="M271.904 312.136C276.323 302.012 274.981 291.657 268.907 289.005C262.833 286.354 254.327 292.412 249.908 302.535C245.49 312.659 246.832 323.014 252.906 325.666C258.98 328.317 267.486 322.259 271.904 312.136Z" fill="#F9B499"/>
<path d="M202.9 274.33C202.9 274.33 200.64 286.33 219.27 274.33C219.27 274.33 220.9 283.33 234.9 270.33C234.9 270.33 236.9 280.33 246.9 277.33C246.9 277.33 246.9 293.55 250.9 300.44C250.9 300.44 257.9 285.66 268.9 289C268.9 289 276.9 260.33 254.9 252.33C254.9 252.33 239.9 244.33 216.9 248.33C216.9 248.33 200.58 248.33 207.74 256.33C207.74 256.33 178.98 271.02 184.67 278.33C185.179 278.942 185.847 279.401 186.601 279.656C187.354 279.912 188.164 279.955 188.94 279.78C191.21 279.29 195.56 278 202.9 274.33Z" fill="#28262C"/>
<path d="M328.84 518.2C324.07 515.212 318.679 513.358 313.08 512.78C310.55 512.51 307.68 512.59 305.62 514.14C305.38 514.278 305.183 514.478 305.047 514.719C304.912 514.96 304.844 515.234 304.85 515.51C304.98 515.892 305.238 516.217 305.58 516.43C308.927 518.819 312.863 520.246 316.963 520.558C321.063 520.87 325.17 520.055 328.84 518.2" fill="#DE2562"/>
<path d="M328.44 517.71C324.783 515.023 321.376 512.01 318.26 508.71C315.123 505.412 312.918 501.34 311.87 496.91C311.667 496.256 311.606 495.565 311.692 494.886C311.779 494.206 312.01 493.553 312.37 492.97C320.49 499.29 326.87 507.5 328.44 517.67" fill="#DE2562"/>
<path d="M328.75 518.1C327.998 513.669 328.062 509.138 328.94 504.73C329.857 500.303 332.397 496.379 336.06 493.73C337.47 497.01 336.86 500.79 335.87 504.22C334.339 509.522 331.959 514.541 328.82 519.08" fill="#DE2562"/>
<path d="M336.71 532.36C331.928 533.112 327.503 535.347 324.06 538.75C320.437 542.049 317.913 546.381 316.83 551.16C321.56 550.87 325.58 547.53 328.5 543.79C331.42 540.05 333.43 535.93 336.63 532.41" fill="#DE2562"/>
<path d="M338.44 534.64C336.536 529.818 335.864 524.596 336.485 519.449C337.107 514.302 339.002 509.39 342 505.16C344.76 514.94 343.75 525.99 338.41 534.64" fill="#DE2562"/>
<path d="M348.93 547.15C344.525 546.889 340.141 547.926 336.32 550.132C332.498 552.338 329.407 555.616 327.43 559.56C327.257 559.801 327.152 560.085 327.128 560.381C327.103 560.677 327.159 560.974 327.29 561.24C327.476 561.422 327.703 561.555 327.953 561.628C328.202 561.701 328.465 561.712 328.72 561.66C332.96 561.39 336.72 558.84 339.83 555.92C342.94 553 345.65 549.66 349.08 547.14" fill="#DE2562"/>
<path d="M348.61 546.47C346.351 539.187 346.209 531.411 348.2 524.05C349 521.15 350.33 518.11 353 516.76C353.147 516.644 353.332 516.589 353.518 516.606C353.704 516.623 353.876 516.71 354 516.85C354.079 516.942 354.134 517.052 354.16 517.17C355.052 519.19 355.437 521.397 355.28 523.6C355.133 525.798 354.798 527.979 354.28 530.12C353.44 534.12 353.02 538.38 350.81 541.8C350.294 542.611 349.833 543.457 349.43 544.33C349.01 545.2 349.01 545.52 348.63 546.2" fill="#DE2562"/>
<path d="M376.43 550.61C375.504 546.518 375.476 542.273 376.35 538.169C377.224 534.066 378.977 530.2 381.49 526.84C381.86 526.36 382.34 525.84 382.93 525.92C383.85 525.99 384.09 527.18 384.05 528.12C383.68 536.18 381.05 543.974 376.46 550.61" fill="#DE2562"/>
<path d="M378.94 552.35C383.806 553.496 388.864 553.574 393.763 552.578C398.662 551.582 403.288 549.536 407.32 546.58C402.566 544.181 397.126 543.506 391.93 544.67C386.79 545.84 382.11 548.14 378.93 552.33" fill="#DE2562"/>
<path d="M381.05 547.1C383.866 542.764 387.668 539.156 392.145 536.57C396.622 533.983 401.647 532.493 406.81 532.22C405.64 536.35 402.22 539.58 398.39 541.52C394.447 543.292 390.277 544.51 386 545.14C384.36 545.46 382.11 545.81 381 547.14" fill="#DE2562"/>
<path d="M377 521.77C378.611 516.87 379.71 511.816 380.28 506.69C380.844 501.526 379.796 496.314 377.28 491.77C372.28 501.42 371.79 512.68 376.83 522.29" fill="#DE2562"/>
<path d="M393.74 513.3C399.57 502.7 411.44 494.24 423.48 493.06C418.84 504.61 406.19 513.54 393.74 513.3Z" fill="#DE2562"/>
<path d="M390.07 515.37C398.77 516.7 406.17 522.24 414.29 525.61C415.994 526.417 417.881 526.762 419.76 526.61C420.641 526.605 421.498 526.329 422.216 525.819C422.934 525.309 423.477 524.59 423.771 523.76C424.065 522.93 424.096 522.029 423.86 521.181C423.623 520.333 423.131 519.578 422.45 519.02C421.289 517.96 419.93 517.141 418.45 516.61C409.6 512.93 400.12 512.81 390.79 515.06" fill="#DE2562"/>
<path d="M385.05 521.47C387.05 522.02 387.68 523.05 389.25 524.37C394.56 528.891 400.844 532.121 407.61 533.81C408.31 533.99 409.23 534.05 409.61 533.42C409.718 533.12 409.731 532.793 409.647 532.486C409.563 532.178 409.386 531.903 409.14 531.7C406.174 528.231 402.325 525.629 398 524.17C393.76 522.59 390.1 520.69 385 521.1" fill="#DE2562"/>
<path d="M379.37 484.65C382.932 487.933 387.141 490.436 391.727 491.998C396.313 493.56 401.174 494.146 406 493.72C406.461 493.73 406.909 493.569 407.26 493.27C407.93 492.55 407.12 491.43 406.34 490.75C398.51 484.65 389.02 482.11 379.4 484.59" fill="#DE2562"/>
<path d="M386.1 482.18C390.82 478.714 396.291 476.41 402.068 475.456C407.846 474.502 413.767 474.925 419.35 476.69C415.006 480.742 409.421 483.209 403.5 483.69C397.659 484.229 391.768 483.731 386.1 482.22" fill="#DE2562"/>
<path d="M383.43 465.27C382.66 457.44 383.15 451.27 382.61 443.42C382.61 442.8 382.43 442.04 381.85 441.81C381.02 441.5 380.34 442.51 380.08 443.34C378.939 446.981 378.647 450.836 379.226 454.607C379.805 458.379 381.24 461.968 383.42 465.1" fill="#DE2562"/>
<path d="M382.86 466.13C387.962 462.83 392.363 458.555 395.81 453.55C398.34 450.05 400.53 445.85 399.95 441.55C398.149 441.597 396.38 442.036 394.765 442.836C393.151 443.635 391.729 444.776 390.6 446.18C388.371 449.012 386.751 452.273 385.84 455.76C384.84 459.21 384.07 462.76 382.84 466.12" fill="#DE2562"/>
<path d="M395.58 462.55C407.244 458.235 418.043 451.871 427.47 443.76C423.67 442.23 419.3 443.15 415.47 444.68C406.816 447.976 399.674 454.335 395.4 462.55" fill="#DE2562"/>
<path d="M386.44 470.41C392.308 471.25 398.264 471.28 404.14 470.5C409.89 469.5 415.31 467.26 420.67 465.01C421.139 464.871 421.541 464.565 421.8 464.15C421.886 463.902 421.893 463.634 421.822 463.382C421.75 463.13 421.603 462.906 421.4 462.74C420.979 462.42 420.495 462.192 419.98 462.07C414.055 460.652 407.841 461.028 402.13 463.15C396.664 465.015 391.408 467.448 386.45 470.41" fill="#DE2562"/>
<path d="M352.83 484.91C350.941 480.86 349.94 476.453 349.894 471.984C349.847 467.516 350.756 463.089 352.56 459C355 462.72 355.29 467.46 354.84 471.89C354.39 476.32 353.05 480.89 352.96 485.32" fill="#DE2562"/>
<path d="M336.8 476.83C331.786 476.761 326.814 477.738 322.199 479.699C317.585 481.661 313.43 484.563 310 488.22C315.065 488.818 320.193 487.87 324.71 485.5C329.193 483.113 333.427 480.286 337.35 477.06" fill="#DE2562"/>
<path d="M326 473.22C321.09 472.82 316.38 472.22 311.66 473.66C309.279 474.328 307.069 475.502 305.183 477.102C303.297 478.701 301.778 480.689 300.73 482.93C305.359 483.311 310.006 482.437 314.18 480.4C318.327 478.37 322.283 475.97 326 473.23" fill="#DE2562"/>
<path d="M342 473.38C337.59 470.5 333.06 467.55 327.93 466.38C322.8 465.21 316.83 466.06 313.25 469.93C317.42 472.38 322.46 472.67 327.25 472.65C332.04 472.63 337.98 472.65 342.53 474.21" fill="#DE2562"/>
<path d="M342 473.62C334.41 466.21 331.6 452.92 334.64 442.79C340.581 451.908 343.181 462.802 342 473.62" fill="#DE2562"/>
<path d="M362.75 452.64C364.17 449.32 365.17 445.86 366.44 442.52C367.606 439.103 369.396 435.933 371.72 433.17C374.081 430.398 377.434 428.661 381.06 428.33C379.904 433.433 377.694 438.238 374.572 442.436C371.449 446.635 367.484 450.134 362.93 452.71" fill="#DE2562"/>
<path d="M359 457C356.65 453.75 353.94 449.42 350.74 446.95C347.54 444.48 343.4 443.07 339.5 443.95C341.512 447.492 344.322 450.516 347.707 452.781C351.092 455.046 354.959 456.491 359 457" fill="#DE2562"/>
<path d="M359.74 452.9C358.056 449.051 356.809 445.026 356.02 440.9C355.246 436.72 355.913 432.402 357.91 428.65C362.05 436.48 363.38 444.87 359.91 453.03" fill="#DE2562"/>
<path d="M362.84 428.61C365.18 420.86 372.29 415.14 379.95 412.52C380.9 412.132 381.928 411.978 382.95 412.07C383.459 412.125 383.939 412.329 384.333 412.657C384.726 412.984 385.013 413.42 385.16 413.91C385.44 415.18 384.35 416.44 383.33 417.29C377.342 422.433 370.371 426.305 362.84 428.67" fill="#DE2562"/>
<path d="M362.84 422.26C363.14 417.26 363.46 412.14 365.08 407.45C366.7 402.76 369.84 398.27 374.4 396.19C375.18 401.25 372.96 406.31 370.26 410.61C367.56 414.91 364.33 419.06 362.67 423.92" fill="#DE2562"/>
<path d="M362.75 425.71C360.8 420.06 360.61 412.88 357.22 407.94C354.86 404.5 351.06 402.16 349.03 398.51C347.799 402.008 347.971 405.846 349.51 409.22C351.059 412.575 353.2 415.624 355.83 418.22C358.36 420.9 360.49 422.91 362.83 425.74" fill="#DE2562"/>
<path d="M362.84 592.19C362.69 592.19 362.55 554.49 362.55 507.97C362.55 461.45 362.65 423.74 362.8 423.74C362.95 423.74 363.08 461.44 363.09 507.97C363.1 554.5 362.94 592.19 362.84 592.19Z" fill="#28262C"/>
<path d="M395.72 479.22C395.261 479.441 394.782 479.618 394.29 479.75L390.4 481C387.11 482.12 382.58 483.74 377.67 485.75C372.76 487.76 368.24 489.55 365.67 491.8C364.629 492.665 363.804 493.761 363.26 495C362.88 495.89 362.81 496.43 362.76 496.42C362.71 496.41 362.76 496.28 362.76 496.02C362.819 495.645 362.913 495.277 363.04 494.92C363.553 493.645 364.366 492.513 365.41 491.62C366.981 490.286 368.74 489.191 370.63 488.37C372.72 487.37 375.04 486.37 377.5 485.37C382.42 483.37 386.97 481.79 390.3 480.76C391.97 480.24 393.3 479.86 394.3 479.61C394.761 479.439 395.236 479.308 395.72 479.22Z" fill="#28262C"/>
<path d="M406.55 452.69C406.432 452.85 406.294 452.994 406.14 453.12L404.94 454.26L400.41 458.36L385.41 471.75C379.54 476.97 374.47 481.97 370.95 485.75C369.19 487.63 367.81 489.18 366.86 490.27L365.76 491.53C365.645 491.683 365.511 491.821 365.36 491.94C365.451 491.768 365.562 491.607 365.69 491.46C366.001 491.02 366.335 490.596 366.69 490.19C367.59 489.07 368.93 487.47 370.69 485.55C375.209 480.583 379.985 475.856 385 471.39C390.88 466.18 396.24 461.5 400.18 458.13L404.82 454.13L406.08 453.06C406.219 452.915 406.377 452.791 406.55 452.69V452.69Z" fill="#28262C"/>
<path d="M379 477.06C378.85 476.98 380.07 474.15 381.3 470.57C382.53 466.99 383.11 463.97 383.3 464C383.17 466.312 382.68 468.589 381.85 470.75C381.32 472.294 380.709 473.81 380.02 475.29C379.772 475.929 379.428 476.526 379 477.06V477.06Z" fill="#28262C"/>
<path d="M362.84 499.89C362.513 499.564 362.212 499.213 361.94 498.84L359.63 495.84C357.68 493.31 354.98 489.84 351.97 486.05C348.96 482.26 346.18 478.84 344.17 476.36L341.81 473.44C341.494 473.094 341.216 472.715 340.98 472.31C341.343 472.612 341.678 472.947 341.98 473.31L344.51 476.13C346.6 478.53 349.42 481.91 352.44 485.72C355.46 489.53 358.11 493.04 360.03 495.61C360.96 496.87 361.71 497.95 362.2 498.69C362.459 499.064 362.674 499.467 362.84 499.89V499.89Z" fill="#28262C"/>
<path d="M355.59 490.61C354.142 488.994 353.112 487.047 352.59 484.94C352.019 483.09 351.782 481.153 351.89 479.22H352.13C352.03 479.65 351.96 479.88 351.91 479.88C351.86 479.88 351.91 479.63 351.91 479.19H352.15C352.277 481.075 352.612 482.939 353.15 484.75C353.814 486.762 354.63 488.721 355.59 490.61V490.61Z" fill="#28262C"/>
<path d="M346.26 478.87C345.613 478.36 344.904 477.933 344.15 477.6C342.247 477.039 340.247 476.882 338.28 477.14C336.286 477.313 334.31 477.647 332.37 478.14C331.574 478.387 330.762 478.581 329.94 478.72C330.66 478.268 331.446 477.93 332.27 477.72C334.221 477.117 336.234 476.738 338.27 476.59C340.314 476.317 342.393 476.544 344.33 477.25C345.142 477.549 345.825 478.122 346.26 478.87Z" fill="#28262C"/>
<path d="M344.06 476C344.06 476.09 342.79 475.51 340.82 474.83C335.572 473.029 329.953 472.592 324.49 473.56C322.4 473.93 321.14 474.32 321.11 474.23C321.377 474.067 321.667 473.946 321.97 473.87C322.772 473.59 323.59 473.36 324.42 473.18C327.16 472.578 329.973 472.382 332.77 472.6C335.571 472.816 338.326 473.436 340.95 474.44C341.738 474.73 342.509 475.064 343.26 475.44C343.547 475.595 343.816 475.783 344.06 476V476Z" fill="#28262C"/>
<path d="M362.75 464C361.791 461.319 360.999 458.58 360.38 455.8C359.591 453.066 358.979 450.283 358.55 447.47C359.511 450.148 360.302 452.883 360.92 455.66C361.7 458.4 362.311 461.185 362.75 464V464Z" fill="#28262C"/>
<path d="M362.9 464C362.144 462.303 361.269 460.662 360.28 459.09C359.179 457.592 357.885 456.247 356.43 455.09C356.98 455.22 357.491 455.481 357.92 455.85C359.01 456.651 359.959 457.628 360.73 458.74C361.899 460.275 362.647 462.088 362.9 464V464Z" fill="#28262C"/>
<path d="M362.84 572.09C362.84 572.09 362.66 571.18 362.24 569.56C361.611 567.303 360.764 565.113 359.71 563.02C356.083 556.196 351.593 549.868 346.35 544.19C343.35 540.78 340.46 537.57 338.01 534.48C335.792 531.772 333.786 528.897 332.01 525.88C330.838 523.859 329.835 521.745 329.01 519.56C328.73 518.77 328.53 518.16 328.42 517.73C328.35 517.522 328.3 517.308 328.27 517.09C328.27 517.09 328.59 517.95 329.21 519.48C330.097 521.664 331.15 523.777 332.36 525.8C334.153 528.768 336.158 531.602 338.36 534.28C340.83 537.33 343.73 540.53 346.72 543.94C351.991 549.646 356.468 556.037 360.03 562.94C361.061 565.068 361.859 567.301 362.41 569.6C362.551 570.22 362.658 570.848 362.73 571.48C362.783 571.68 362.82 571.884 362.84 572.09V572.09Z" fill="#28262C"/>
<path d="M392.56 538.44C392.062 538.769 391.541 539.059 391 539.31C389.607 540.111 388.271 541.007 387 541.99C385.105 543.468 383.327 545.09 381.68 546.84C379.81 548.84 377.89 551.1 375.93 553.55C372.01 558.47 368.34 562.84 366.14 566.31C365.03 568.03 364.22 569.49 363.69 570.51C363.43 571.05 363.14 571.57 362.83 572.08C362.845 571.925 362.893 571.775 362.97 571.64C363.11 571.36 363.24 570.93 363.5 570.37C364.181 568.887 364.952 567.448 365.81 566.06C368.808 561.602 372.053 557.316 375.53 553.22C377.53 550.77 379.45 548.48 381.34 546.51C383.015 544.753 384.838 543.143 386.79 541.7C388.107 540.737 389.506 539.891 390.97 539.17C391.379 538.964 391.799 538.784 392.23 538.63C392.333 538.555 392.444 538.492 392.56 538.44V538.44Z" fill="#28262C"/>
<path d="M393.19 549.37C392.101 549.6 390.999 549.76 389.89 549.85C387.238 550.123 384.617 550.638 382.06 551.39C379.538 552.215 377.172 553.455 375.06 555.06C373.44 556.32 372.68 557.35 372.6 557.28C372.723 557.003 372.888 556.746 373.09 556.52C373.607 555.884 374.183 555.298 374.81 554.77C376.898 553.023 379.306 551.698 381.9 550.87C384.504 550.097 387.188 549.627 389.9 549.47C390.991 549.33 392.093 549.297 393.19 549.37V549.37Z" fill="#28262C"/>
<path d="M373.52 556.14C373.36 556.04 374.79 553.78 376.05 550.72C377.31 547.66 377.32 544.94 377.58 544.96C377.66 545.553 377.64 546.154 377.52 546.74C377.348 548.164 377.012 549.563 376.52 550.91C376.021 552.238 375.381 553.509 374.61 554.7C374.335 555.241 373.966 555.729 373.52 556.14Z" fill="#28262C"/>
<path d="M402.21 509.16C402.044 509.273 401.867 509.367 401.68 509.44L400.14 510.15C399.45 510.44 398.63 510.8 397.69 511.3C396.75 511.8 395.69 512.3 394.54 512.95L392.75 513.95C392.093 514.334 391.459 514.754 390.85 515.21C389.59 516.02 388.2 517.01 386.78 518.02C380.702 522.548 375.4 528.032 371.08 534.26C370.08 535.71 369.17 537.08 368.42 538.43C368.02 539.1 367.62 539.7 367.29 540.37C366.96 541.04 366.63 541.63 366.29 542.2C365.64 543.35 365.19 544.45 364.73 545.4C364.27 546.35 363.94 547.18 363.67 547.93L363.01 549.5C362.941 549.686 362.857 549.867 362.76 550.04C362.781 549.84 362.831 549.645 362.91 549.46L363.47 547.85C363.71 547.15 364.02 546.3 364.47 545.32C364.92 544.34 365.33 543.24 365.95 542.06C366.26 541.47 366.57 540.8 366.89 540.2C367.21 539.6 367.62 538.94 368 538.2C368.75 536.83 369.69 535.45 370.65 533.97C374.959 527.667 380.305 522.139 386.46 517.62C387.9 516.62 389.24 515.62 390.59 514.84C391.25 514.43 391.86 514.02 392.51 513.66L394.35 512.66C395.5 511.99 396.6 511.53 397.55 511.07C398.38 510.669 399.232 510.311 400.1 510L401.69 509.4C401.849 509.292 402.025 509.211 402.21 509.16Z" fill="#28262C"/>
<path d="M378.63 524.94C378.847 524.18 379.29 523.503 379.9 523C381.353 521.744 383.2 521.036 385.12 521C387.003 520.997 388.869 521.364 390.61 522.08C391.352 522.309 392.056 522.646 392.7 523.08C391.945 522.93 391.206 522.713 390.49 522.43C388.766 521.847 386.96 521.544 385.14 521.53C383.329 521.575 381.579 522.191 380.14 523.29C379.606 523.811 379.101 524.362 378.63 524.94V524.94Z" fill="#28262C"/>
<path d="M375.12 528.59C375.811 527.044 376.308 525.418 376.6 523.75C376.706 522.076 376.595 520.395 376.27 518.75C376.581 519.162 376.79 519.642 376.88 520.15C377.201 521.352 377.289 522.605 377.14 523.84C376.997 525.078 376.624 526.279 376.04 527.38C375.57 528.19 375.17 528.62 375.12 528.59Z" fill="#28262C"/>
<path d="M336.73 577.49C337.54 591.91 341.89 606.58 348.57 621.38H377.66C383.98 606.71 388.07 592.08 388.79 577.49H336.73Z" fill="#28262C"/>
<path d="M384.05 600.82C384.05 600.97 374.49 601.09 362.69 601.09C350.89 601.09 341.32 600.97 341.32 600.82C341.32 600.67 350.89 600.55 362.69 600.55C374.49 600.55 384.05 600.66 384.05 600.82Z" fill="#FAFAFA"/>
<path d="M383.4 606C383.4 606.15 374.4 606.28 363.4 606.28C352.4 606.28 343.4 606.15 343.4 606C343.4 605.85 352.4 605.72 363.4 605.72C374.4 605.72 383.4 605.89 383.4 606Z" fill="#FAFAFA"/>
<path d="M349 587C349.37 591.452 349.37 595.928 349 600.38C348.65 595.927 348.65 591.453 349 587Z" fill="#FAFAFA"/>
<path d="M364.61 587C364.97 591.633 364.97 596.287 364.61 600.92C364.23 596.288 364.23 591.632 364.61 587V587Z" fill="#FAFAFA"/>
<path d="M379.28 586.84C379.65 591.546 379.65 596.274 379.28 600.98C378.93 596.273 378.93 591.547 379.28 586.84Z" fill="#FAFAFA"/>
<path d="M387.83 587C387.83 587.16 376.61 587.28 362.77 587.28C348.93 587.28 337.77 587.16 337.77 587C337.77 586.84 348.99 586.74 362.77 586.74C376.55 586.74 387.83 586.8 387.83 587Z" fill="#FAFAFA"/>
</svg>
