<svg width="866" height="683" viewBox="0 0 866 683" fill="none" xmlns="http://www.w3.org/2000/svg">
<rect width="866" height="683" fill="transparent"/>
<path d="M92.69 268.26C92.69 268.26 89.4 282.94 94.93 291.38L106.57 319C106.57 319 108.03 326.28 103.95 328C103.95 328 96.95 330 98.95 341.39C98.95 341.39 100.12 353.61 103.03 353.61C103.03 353.61 105.65 355.07 102.45 340.52C102.45 340.52 105.65 350.12 109.72 346.63C109.72 346.63 112.92 334.12 110.59 324.8C110.59 324.8 104.33 314.28 112.92 296.87L112.66 288.25C112.66 288.25 107.36 290.14 108.83 277.79C108.83 277.79 103.05 281.79 97.83 272.02C97.85 272.06 96.18 271.46 92.69 268.26Z" fill="#F9B499"/>
<path d="M377.84 186.24H156.15V343.73H377.84V186.24Z" fill="#EBEBEB"/>
<path d="M385.52 181.31H148.47V190.09H385.52V181.31Z" fill="#BCBEC0"/>
<path d="M271.16 208.65V217.8H281.74V208.65H284.59V230.51H281.74V220.26H271.16V230.51H268.34V208.65H271.16Z" fill="#BCBEC0"/>
<path d="M288.48 230.51V228.76L290.72 226.59C296.1 221.46 298.53 218.74 298.57 215.59C298.57 213.45 297.57 211.47 294.38 211.47C292.729 211.531 291.151 212.16 289.91 213.25L289 211.25C290.684 209.85 292.81 209.091 295 209.11C299.54 209.11 301.45 212.22 301.45 215.24C301.45 219.13 298.63 222.24 294.19 226.56L292.5 228.12V228.18H301.97V230.55L288.48 230.51Z" fill="#BCBEC0"/>
<path d="M305.73 227.07C307.259 227.99 309.006 228.483 310.79 228.5C313.68 228.5 315.37 226.97 315.37 224.77C315.37 222.77 314.2 221.56 311.25 220.42C307.68 219.16 305.47 217.31 305.47 214.23C305.47 210.82 308.3 208.29 312.54 208.29C314.218 208.235 315.882 208.603 317.38 209.36L316.6 211.66C315.321 210.987 313.895 210.643 312.45 210.66C309.45 210.66 308.33 212.44 308.33 213.93C308.33 215.93 309.66 216.93 312.67 218.15C316.37 219.58 318.25 221.36 318.25 224.57C318.25 227.95 315.76 230.87 310.6 230.87C308.65 230.893 306.728 230.411 305.02 229.47L305.73 227.07Z" fill="#BCBEC0"/>
<path d="M335.12 219.74C335.12 226.91 332.46 230.87 327.79 230.87C323.67 230.87 320.88 227.01 320.79 220.03C320.7 213.05 323.84 209.03 328.12 209.03C332.59 209.07 335.12 213 335.12 219.74ZM323.67 220.07C323.67 225.55 325.35 228.66 327.95 228.66C330.87 228.66 332.26 225.26 332.26 219.87C332.26 214.68 330.93 211.27 327.98 211.27C325.48 211.27 323.67 214.32 323.67 220.07V220.07Z" fill="#BCBEC0"/>
<path d="M346.57 230.51V224.77H336.77V222.89L346.18 209.43H349.26V222.53H352.21V224.77H349.26V230.51H346.57ZM346.57 222.51V215.51C346.57 214.41 346.57 213.31 346.66 212.2H346.57C345.92 213.44 345.4 214.34 344.81 215.32L339.66 222.49V222.55L346.57 222.51Z" fill="#BCBEC0"/>
<path d="M325.59 277.77C329.412 277.77 332.51 274.672 332.51 270.85C332.51 267.028 329.412 263.93 325.59 263.93C321.768 263.93 318.67 267.028 318.67 270.85C318.67 274.672 321.768 277.77 325.59 277.77Z" fill="#D1D3D4"/>
<path d="M294.38 291.28C298.202 291.28 301.3 288.182 301.3 284.36C301.3 280.538 298.202 277.44 294.38 277.44C290.558 277.44 287.46 280.538 287.46 284.36C287.46 288.182 290.558 291.28 294.38 291.28Z" fill="#D1D3D4"/>
<path d="M355.19 301.26C359.012 301.26 362.11 298.162 362.11 294.34C362.11 290.518 359.012 287.42 355.19 287.42C351.368 287.42 348.27 290.518 348.27 294.34C348.27 298.162 351.368 301.26 355.19 301.26Z" fill="#D1D3D4"/>
<path d="M332.99 325.71C336.812 325.71 339.91 322.612 339.91 318.79C339.91 314.968 336.812 311.87 332.99 311.87C329.168 311.87 326.07 314.968 326.07 318.79C326.07 322.612 329.168 325.71 332.99 325.71Z" fill="#D1D3D4"/>
<path d="M300.33 287.42L320.6 295.46" stroke="#D1D3D4" stroke-miterlimit="10"/>
<path d="M325.59 277.77V292.57" stroke="#D1D3D4" stroke-miterlimit="10"/>
<path d="M348.27 294.34L329.93 296.91" stroke="#D1D3D4" stroke-miterlimit="10"/>
<path d="M330.9 312.52L327.04 300.93" stroke="#D1D3D4" stroke-miterlimit="10"/>
<path d="M385.52 339.89H148.47V348.67H385.52V339.89Z" fill="#BCBEC0"/>
<path d="M272.2 353.7H265.19V471.54H272.2V353.7Z" fill="#BCBEC0"/>
<path d="M356.46 489.83C355.606 490.203 354.639 490.221 353.771 489.882C352.903 489.543 352.205 488.873 351.83 488.02L293.83 354.88L300.24 352.04L358.24 485.22C358.611 486.068 358.632 487.028 358.299 487.891C357.965 488.755 357.305 489.451 356.46 489.83Z" fill="#BCBEC0"/>
<path d="M185.32 490.25C184.893 490.075 184.504 489.817 184.177 489.491C183.85 489.165 183.591 488.777 183.414 488.351C183.238 487.924 183.147 487.466 183.148 487.005C183.149 486.543 183.242 486.086 183.42 485.66L239.33 351.66L245.81 354.32L189.89 488.36C189.532 489.214 188.85 489.892 187.994 490.247C187.138 490.601 186.177 490.602 185.32 490.25V490.25Z" fill="#BCBEC0"/>
<path d="M118.66 288.61C118.66 288.61 103.85 305.13 109.97 323.09C111.231 326.74 111.728 330.61 111.43 334.46C110.63 344.51 108.54 363.14 103.62 375.11C103.62 375.11 94.56 403.63 89.36 412.49C89.272 412.636 89.2186 412.8 89.204 412.969C89.1895 413.139 89.214 413.309 89.2759 413.468C89.3378 413.626 89.4352 413.768 89.5608 413.883C89.6863 413.998 89.8366 414.082 90 414.13C93.6 415.23 103.16 418.58 108.58 424.36C108.795 424.585 109.054 424.763 109.341 424.883C109.628 425.003 109.937 425.062 110.248 425.056C110.559 425.05 110.866 424.98 111.148 424.85C111.431 424.72 111.683 424.533 111.89 424.3L128.19 406.2L129.69 283.84C129.69 283.84 122.17 285.85 118.66 288.61Z" fill="#28262C"/>
<path opacity="0.2" d="M118.66 288.61C118.66 288.61 103.85 305.13 109.97 323.09C111.231 326.74 111.728 330.61 111.43 334.46C110.63 344.51 108.54 363.14 103.62 375.11C103.62 375.11 94.56 403.63 89.36 412.49C89.272 412.636 89.2186 412.8 89.204 412.969C89.1895 413.139 89.214 413.309 89.2759 413.468C89.3378 413.626 89.4352 413.768 89.5608 413.883C89.6863 413.998 89.8366 414.082 90 414.13C93.6 415.23 103.16 418.58 108.58 424.36C108.795 424.585 109.054 424.763 109.341 424.883C109.628 425.003 109.937 425.062 110.248 425.056C110.559 425.05 110.866 424.98 111.148 424.85C111.431 424.72 111.683 424.533 111.89 424.3L128.19 406.2L129.69 283.84C129.69 283.84 122.17 285.85 118.66 288.61Z" fill="black"/>
<path d="M91.38 412.75C91.38 412.75 83.89 425.92 81.55 428.26C81.55 428.26 89.67 432.32 92.86 439.32C92.92 439.44 93.05 439.5 93.14 439.41L110 423C104.812 417.993 98.3855 414.456 91.38 412.75V412.75Z" fill="#F9B499"/>
<path d="M81.55 428.26C77.7917 430.834 73.683 432.855 69.35 434.26C69.35 434.26 77.87 436.43 75.53 451.31C75.53 451.31 72.53 475.04 76.2 479.89C78.0606 482.394 80.0886 484.77 82.27 487C82.2805 487.007 82.2929 487.011 82.3055 487.01C82.3182 487.01 82.3303 487.005 82.3403 486.998C82.3503 486.99 82.3576 486.979 82.3611 486.967C82.3646 486.955 82.3642 486.942 82.36 486.93C81.26 484.93 75.99 474.69 79.06 467.3C79.6 465.98 80.17 464.67 80.61 463.3C82.31 457.96 86.88 445.15 93.14 439.41C93.14 439.41 87.9 430.77 81.55 428.26Z" fill="#D81E5B"/>
<path d="M70.3 434.75C69.7121 434.418 69.045 434.252 68.37 434.27C64.59 434.35 51.37 435.98 56.81 454.84C56.81 454.84 60.16 465.53 58.48 472.39C58.48 472.39 55.31 487.6 66.48 488.27C66.48 488.27 79.48 489.27 82.24 486.99C82.24 486.99 73.33 481.25 74.33 470.88L75.33 453.33C75.33 453.33 78.64 439.47 70.3 434.75Z" fill="#D1D3D4"/>
<path opacity="0.2" d="M64.5 454C68.1948 454 71.19 450.333 71.19 445.81C71.19 441.287 68.1948 437.62 64.5 437.62C60.8052 437.62 57.81 441.287 57.81 445.81C57.81 450.333 60.8052 454 64.5 454Z" fill="black"/>
<path d="M122.92 431C122.92 431 124.51 445.32 127.35 452C128.324 454.673 128.779 457.507 128.69 460.35L147.41 460.19L150.48 430.42C150.48 430.42 135.63 432.66 122.92 431Z" fill="#F9B499"/>
<path d="M128.69 460.35C128.69 460.35 129.19 472.35 127.18 477.57C127.18 477.57 125.34 482.57 126.68 484.57L185.85 485.41C185.85 485.41 185.08 479.98 170.85 479.58C169.353 479.541 167.873 479.24 166.48 478.69C162.06 476.94 153.14 472.11 147.41 460.17L128.69 460.35Z" fill="#D81E5B"/>
<path d="M187.02 484.59H126.68V488.1H187.02V484.59Z" fill="#D1D3D4"/>
<path d="M215.84 259.74L215.31 246.29" stroke="#D1D3D4" stroke-miterlimit="10"/>
<path d="M303.3 345.81H233.21V356.76H303.3V345.81Z" fill="#D1D3D4"/>
<path d="M215.42 246.29C217.767 246.29 219.67 244.387 219.67 242.04C219.67 239.693 217.767 237.79 215.42 237.79C213.073 237.79 211.17 239.693 211.17 242.04C211.17 244.387 213.073 246.29 215.42 246.29Z" fill="#D1D3D4"/>
<path d="M222.63 226.12C226.369 226.12 229.4 223.089 229.4 219.35C229.4 215.611 226.369 212.58 222.63 212.58C218.891 212.58 215.86 215.611 215.86 219.35C215.86 223.089 218.891 226.12 222.63 226.12Z" fill="#D1D3D4"/>
<path d="M245.8 250.18C249.539 250.18 252.57 247.149 252.57 243.41C252.57 239.671 249.539 236.64 245.8 236.64C242.061 236.64 239.03 239.671 239.03 243.41C239.03 247.149 242.061 250.18 245.8 250.18Z" fill="#D1D3D4"/>
<path d="M215.68 273.29C219.419 273.29 222.45 270.259 222.45 266.52C222.45 262.781 219.419 259.75 215.68 259.75C211.941 259.75 208.91 262.781 208.91 266.52C208.91 270.259 211.941 273.29 215.68 273.29Z" fill="#D1D3D4"/>
<path d="M184.94 259.92C188.679 259.92 191.71 256.889 191.71 253.15C191.71 249.411 188.679 246.38 184.94 246.38C181.201 246.38 178.17 249.411 178.17 253.15C178.17 256.889 181.201 259.92 184.94 259.92Z" fill="#D1D3D4"/>
<path d="M219.5 225.11L216.18 242.63" stroke="#D1D3D4" stroke-miterlimit="10"/>
<path d="M238.82 242.61L219.22 242.14" stroke="#D1D3D4" stroke-miterlimit="10"/>
<path d="M191.17 250.92L212.18 242.63" stroke="#D1D3D4" stroke-miterlimit="10"/>
<path d="M121.17 432.77C121.17 432.77 120.17 395.67 123.67 380.12C123.67 380.12 128.67 343.01 122.67 325.97C122.67 325.97 108.28 305.77 127.83 284.21C127.83 284.21 144.73 274.82 160.03 277.83C160.03 277.83 171.18 284.7 174.86 321.83C175.228 327.293 174.848 332.78 173.73 338.14C172.722 342.681 171.967 347.275 171.47 351.9L162.28 430.79C162.28 430.79 141.22 436.78 121.17 432.77Z" fill="#28262C"/>
<path d="M185 263.46L213.92 250.58C213.92 250.58 220.68 248.8 221.04 239.58C221.04 239.58 222.46 227.13 230.29 226.06L245.94 225.71C245.94 225.71 251.28 228.91 233.85 228.55C233.85 228.55 242.39 231.75 240.96 233.89C240.96 233.89 243.1 240.29 237.05 240.29L231.71 239.58C231.71 239.58 231.27 250.58 218.46 258.4C218.46 258.4 202.1 272.4 192.14 275.95C192.14 275.95 186.14 278.95 174.14 275.04C174.19 275 178.42 273 185 263.46Z" fill="#F9B499"/>
<path d="M112.89 235.7C112.89 235.7 108.36 231.35 101.49 236.14C98.8597 238.017 96.7864 240.57 95.49 243.53C92.09 251.07 85.41 269.1 97.85 272.06C97.85 272.06 102.11 281.34 108.85 277.83L108.6 244.48C108.6 244.48 109.13 236.46 112.89 235.7Z" fill="#D81E5B"/>
<path opacity="0.2" d="M112.89 235.7C112.89 235.7 108.36 231.35 101.49 236.14C98.8597 238.017 96.7864 240.57 95.49 243.53C92.09 251.07 85.41 269.1 97.85 272.06C97.85 272.06 102.11 281.34 108.85 277.83L108.6 244.48C108.6 244.48 109.13 236.46 112.89 235.7Z" fill="black"/>
<path d="M155.51 231.44C155.51 231.44 161.03 233.44 164.29 236.96C164.29 236.96 179.58 245.23 183.6 258.52L185.04 261.94C185.217 262.359 185.285 262.816 185.24 263.268C185.195 263.721 185.036 264.154 184.78 264.53C182.66 267.63 176.88 275.42 172.06 275.82C172.06 275.82 166.06 274.32 163.06 269.3C163 269.3 163.79 242.73 155.51 231.44Z" fill="#D81E5B"/>
<path opacity="0.2" d="M155.51 231.44C155.51 231.44 161.03 233.44 164.29 236.96C164.29 236.96 179.58 245.23 183.6 258.52L185.04 261.94C185.217 262.359 185.285 262.816 185.24 263.268C185.195 263.721 185.036 264.154 184.78 264.53C182.66 267.63 176.88 275.42 172.06 275.82C172.06 275.82 166.06 274.32 163.06 269.3C163 269.3 163.79 242.73 155.51 231.44Z" fill="black"/>
<path d="M136.65 224.18V229.84H124.6V213.67L124.96 213.49C126.51 219.58 130.63 224.26 135.48 224.26C135.871 224.264 136.263 224.237 136.65 224.18V224.18Z" fill="#F9B499"/>
<path d="M136.64 226.4V224.18C133.789 223.3 131.176 221.781 129 219.74C129 219.74 131.1 225.73 136.64 226.4Z" fill="#F7A48B"/>
<path d="M146.66 208.52C146.66 216.67 142.27 223.36 136.66 224.18C136.273 224.237 135.881 224.264 135.49 224.26C130.64 224.26 126.49 219.92 124.97 213.84C124.535 212.1 124.316 210.313 124.32 208.52C124.32 199.84 129.32 192.8 135.49 192.8C141.66 192.8 146.66 199.84 146.66 208.52Z" fill="#F9B499"/>
<path d="M141.47 229.69C141.47 229.69 141.72 226.18 136.21 226.43L124.68 225.93C124.68 225.93 119.41 225.93 119.68 231.93C119.68 231.93 108.68 233.69 108.68 245.72V284.08C108.68 284.08 107.93 291.86 118.68 288.6C118.68 288.6 145 274.06 160.05 277.82C160.05 277.82 163.56 277.82 163.05 269.29C163.05 269.29 163.55 243.7 157.52 233.49C156.767 232.234 155.693 231.201 154.408 230.498C153.123 229.795 151.674 229.447 150.21 229.49L141.47 229.69Z" fill="#D81E5B"/>
<path d="M113.64 256.77H116.9C116.9 256.77 116.79 213.91 120.05 212.66C120.05 212.66 113.23 201.56 123.92 192.58L132.2 186.31C132.2 186.31 125.68 174.03 116.2 186.06C116.2 186.06 108.67 195.18 105.52 226.26C105.3 228.41 105.15 230.57 105.11 232.73L104.67 257.52L113.64 256.77Z" fill="#28262C"/>
<path opacity="0.2" d="M113.64 256.77H116.9C116.9 256.77 116.79 213.91 120.05 212.66C120.05 212.66 113.23 201.56 123.92 192.58L132.2 186.31C132.2 186.31 125.68 174.03 116.2 186.06C116.2 186.06 108.67 195.18 105.52 226.26C105.3 228.41 105.15 230.57 105.11 232.73L104.67 257.52L113.64 256.77Z" fill="black"/>
<path d="M129.591 192.746C132.376 191.413 133.98 188.968 133.175 187.284C132.369 185.6 129.458 185.315 126.673 186.648C123.888 187.98 122.284 190.426 123.09 192.11C123.895 193.794 126.806 194.078 129.591 192.746Z" fill="#D81E5B"/>
<path d="M127.54 205.44C127.54 205.44 133.13 193.68 144.01 198.09C144.01 198.09 149.89 196.03 137.83 190.15C134.015 189.038 129.928 189.318 126.3 190.94C123.884 192.158 121.833 193.992 120.355 196.257C118.876 198.523 118.022 201.139 117.88 203.84C117.54 208.25 118.34 213.84 124.59 217.32V213.67L127.54 205.44Z" fill="#28262C"/>
<path d="M124.6 213.68C126.55 213.68 128.13 211.374 128.13 208.53C128.13 205.686 126.55 203.38 124.6 203.38C122.65 203.38 121.07 205.686 121.07 208.53C121.07 211.374 122.65 213.68 124.6 213.68Z" fill="#F9B499"/>
<path d="M325.59 302.48C328.666 302.48 331.16 299.986 331.16 296.91C331.16 293.834 328.666 291.34 325.59 291.34C322.514 291.34 320.02 293.834 320.02 296.91C320.02 299.986 322.514 302.48 325.59 302.48Z" fill="#D1D3D4"/>
<path d="M224.08 498.89L189.98 617.9H200.01L233.44 500.23L224.08 498.89Z" fill="#D1D3D4"/>
<path d="M290.27 617.23L256.84 498.22H267.54L302.31 616.56L290.27 617.23Z" fill="#D1D3D4"/>
<path d="M492.06 321.98L492.12 339.55L521.68 336.86L526.52 302.46L517.92 297.63L492.06 321.98Z" fill="#F9B499"/>
<path d="M492.12 339.55L492.28 324.18C492.28 324.18 509.17 322.62 515.03 317.93C515 317.93 512.45 339.2 492.12 339.55Z" fill="#F7A48B"/>
<path d="M697.38 589V618.4H707.86V589.87L697.38 589Z" fill="#BCBEC0"/>
<path d="M596.05 562.52L608.41 617.21H638.61L638.32 592.43L672 592C672 592 694.58 586.68 694.76 567.72C694.76 567.72 674.16 545.66 669.76 541.31C669.72 541.34 640.53 575.91 596.05 562.52Z" fill="#28262C"/>
<path opacity="0.2" d="M596.05 562.52L608.41 617.21H638.61L638.32 592.43L672 592C672 592 694.58 586.68 694.76 567.72C694.76 567.72 674.16 545.66 669.76 541.31C669.72 541.34 640.53 575.91 596.05 562.52Z" fill="black"/>
<path d="M620.39 502.9L578.57 507.84C569.457 508.905 561.135 513.53 555.419 520.707C549.704 527.884 547.058 537.03 548.06 546.15C549.84 562.07 555.35 585.03 567.82 618.09L608.41 617.21L596.05 562.52C596.05 562.52 633.99 581.52 669.72 541.34C669.72 541.34 651 520.55 620.39 502.9Z" fill="#28262C"/>
<path d="M616.92 591.84C616.92 591.84 596.59 580.92 595.35 561.42C595.35 561.42 594.15 575.11 588.8 581.79C588.8 581.79 594.52 595.19 616.92 591.84Z" fill="#BCBEC0"/>
<path d="M599.23 242C597.56 241.87 592.75 241.14 594.05 236.81C594.05 236.81 596.57 232.91 608.23 235.54L617.63 239.05L618.01 247.2L599.2 247.7C598.662 247.847 598.092 247.836 597.56 247.667C597.028 247.499 596.556 247.18 596.2 246.75C595.856 246.195 595.743 245.527 595.885 244.89C596.027 244.253 596.413 243.697 596.96 243.34C597.66 242.871 598.416 242.492 599.21 242.21C599.233 242.205 599.254 242.193 599.27 242.176C599.286 242.158 599.296 242.136 599.298 242.112C599.301 242.089 599.295 242.065 599.283 242.045C599.271 242.025 599.252 242.009 599.23 242Z" fill="#F7A48B"/>
<path d="M626.2 273.14L659 330.9L687.62 332.51C676.833 339.485 669.247 350.447 666.52 363C666.52 363 657.37 360.84 648.68 358.17C636.29 354.36 628.22 348.53 625.94 335.77L608.36 269.77C608.36 269.77 603.52 259.21 604.55 250.86C604.696 249.758 604.433 248.641 603.81 247.72C601.27 243.99 595.21 234.47 598.81 233.66C598.81 233.66 601.65 230.49 611.18 245.03C611.417 245.344 611.715 245.606 612.055 245.802C612.396 245.998 612.773 246.123 613.164 246.17C613.554 246.217 613.95 246.184 614.327 246.074C614.704 245.964 615.056 245.779 615.36 245.53C615.36 245.53 618.36 243.02 612.51 238.53C612.51 238.53 595.97 228.17 599.14 225.16C599.14 225.16 600.98 219.81 616.69 232.68C616.69 232.68 626.22 237.36 626.05 255.91L625.45 270.18C625.427 271.216 625.686 272.24 626.2 273.14V273.14Z" fill="#F9B499"/>
<path d="M717.51 335.37L687.08 331.16C676.268 339.521 668.847 351.513 666.19 364.92C666.135 365.21 666.151 365.509 666.238 365.791C666.324 366.073 666.478 366.33 666.685 366.54C666.893 366.749 667.148 366.905 667.43 366.994C667.711 367.083 668.01 367.102 668.3 367.05L690.69 370.22C690.69 370.22 704.93 340.49 718.39 339.4L717.51 335.37Z" fill="#D81E5B"/>
<path opacity="0.2" d="M717.51 335.37L687.08 331.16C676.268 339.521 668.847 351.513 666.19 364.92C666.135 365.21 666.151 365.509 666.238 365.791C666.324 366.073 666.478 366.33 666.685 366.54C666.893 366.749 667.148 366.905 667.43 366.994C667.711 367.083 668.01 367.102 668.3 367.05L690.69 370.22C690.69 370.22 704.93 340.49 718.39 339.4L717.51 335.37Z" fill="white"/>
<path d="M715 330.4L717.5 339.26C717.5 339.26 739.73 333.41 749.1 335.08L740.4 319.2L727.53 311.2C727.53 311.2 724.65 325.93 715 330.4Z" fill="#F9B499"/>
<path d="M620.39 502.9C620.39 502.9 677.22 343.61 717.5 339.26C717.5 339.26 758.29 324.39 777.84 346.95C777.84 346.95 800.91 364 805.93 408.13L711.49 587.13C711.49 587.13 658.33 523 620.39 502.9Z" fill="#D81E5B"/>
<path d="M645.07 430.53L635.66 450.89C635.095 452.144 634.225 453.236 633.13 454.067C632.035 454.899 630.749 455.443 629.39 455.65L593.22 461.19L589.39 484.12L627.82 490.47C630.55 490.756 633.292 490.046 635.54 488.47L674.75 462C674.75 462 653 450.69 645.07 430.53Z" fill="#F9B499"/>
<path d="M413.66 503.47L350.66 511.38C341.549 512.447 333.229 517.073 327.516 524.25C321.802 531.427 319.158 540.572 320.16 549.69C321.94 565.61 325.96 584.34 338.43 617.41L399.36 617.75L387 563.05C387 563.05 421.07 582.14 456.8 542.05C456.79 542 441.52 520.16 413.66 503.47Z" fill="#28262C"/>
<path d="M387 563.05L399.35 617.75H429.55L429.19 591.61L464.65 591.34C464.65 591.34 471.89 584.6 474.4 569.56C474.4 569.56 461.59 545.81 457.15 541.47C457.14 541.49 426 580.15 387 563.05Z" fill="#28262C"/>
<path opacity="0.2" d="M387 563.05L399.35 617.75H429.55L429.19 591.61L464.65 591.34C464.65 591.34 471.89 584.6 474.4 569.56C474.4 569.56 461.59 545.81 457.15 541.47C457.14 541.49 426 580.15 387 563.05Z" fill="black"/>
<path d="M730.21 391.58L833 392C834.004 392.008 834.989 392.277 835.857 392.781C836.725 393.285 837.447 394.007 837.952 394.875C838.456 395.743 838.726 396.727 838.734 397.731C838.743 398.735 838.49 399.724 838 400.6C832.93 409.69 825.68 426.17 822 450.72L810.7 498.22C808.056 509.536 806.112 521.005 804.88 532.56C802.51 554.2 790.76 596.8 734.72 591.15L685.31 591.41C685.31 591.41 711.79 578 707.1 534.08C705.603 520.795 705.482 507.39 706.74 494.08C709.88 462.4 716.92 410 730.21 391.58Z" fill="#D1D3D4"/>
<path d="M589.39 484.12C589.39 484.12 695.61 498.89 705.64 514.94L707.1 534.08C707.1 534.08 711.02 560.41 699.59 578.84C696.943 583.041 693.395 586.601 689.203 589.261C685.01 591.921 680.278 593.615 675.35 594.22C664.59 595.61 643.66 596.46 606.57 591.81L666.74 592.56C666.74 592.56 689.09 592.49 694.74 567.75C694.74 567.75 701.27 553.6 697 522.75C697 522.75 698.75 512.62 673.35 504.26C673.35 504.26 649.89 496.26 589.05 489.61L589.39 484.12Z" fill="#BCBEC0"/>
<path d="M744.78 391.6H740.09C740.09 391.6 752.94 414.26 759.29 457.39L763.17 457.26C763.17 457.26 757.48 423 744.78 391.6Z" fill="#28262C"/>
<path d="M598.36 589.84C599.64 590.54 601.83 590.84 603.88 591.34C606.623 592.056 609.477 592.242 612.29 591.89L618.38 617.59L608.38 617.21L598.36 589.84Z" fill="#BCBEC0"/>
<path d="M782.84 619.09H793.72L788.08 595.42L778.81 605.99L782.84 619.09Z" fill="#BCBEC0"/>
<path d="M413.66 503.47C413.66 503.47 457.73 537.33 472.78 567.47L580.27 430.91C580.27 430.91 576.5 372.33 553.39 346.53C553.39 346.53 510.39 312.67 466.33 356.21C466.33 356.21 445.9 470.15 413.66 503.47Z" fill="#D81E5B"/>
<path d="M433.54 445.42L396.28 431.55L372.81 448.11L433.34 490.69C436.646 493.068 440.54 494.493 444.6 494.81C448.6 495.08 453.11 494.25 456.28 490.18L433.54 445.42Z" fill="#F9B499"/>
<path d="M438.33 435C438.33 435 426.79 438 425.33 438C420.975 437.943 416.625 438.278 412.33 439L358.1 451.59L299.81 402.09L302.81 399.42L359 448.22L410.15 435.86C410.15 435.86 420.15 428.5 426.53 435.19L439.9 430.19L438.33 435Z" fill="#28262C"/>
<path d="M362 437.19L359 448.19L302.84 399.39L302.18 391.12H302.24L362 437.19Z" fill="#E6E7E8"/>
<path d="M362 437.19C362 437.19 407.12 421.27 410.14 435.86L359 448.22L362 437.19Z" fill="#D1D3D4"/>
<path d="M426.51 435.19C426.51 435.19 422.94 432.19 418.68 432.47L446.52 414L439.88 430.16L426.51 435.19Z" fill="#BCBEC0"/>
<path d="M302.15 391.06C302.15 391.06 303.86 386.18 311.63 384.17L361.78 421.28C361.78 421.28 410.78 417.38 419.05 432.43C415.843 432.836 412.782 434.013 410.13 435.86C410.13 435.86 409.13 430.3 393.62 430.8C393.62 430.8 381.25 430.29 361.99 437.19L302.15 391.06Z" fill="#BCBEC0"/>
<path d="M306.62 380.16L361.78 421.28C361.78 421.28 408.62 417.11 418.62 431.81C418.651 431.858 418.694 431.897 418.746 431.921C418.798 431.946 418.856 431.955 418.912 431.948C418.969 431.94 419.023 431.917 419.067 431.88C419.11 431.843 419.143 431.795 419.16 431.74C419.76 429.74 420.63 422.53 408.76 408.08C403.301 401.433 397.082 395.449 390.23 390.25C386.45 387.09 382.23 383.84 377.67 380.58C373.48 377.58 369.42 374.98 365.54 372.64C360.61 371.39 354.75 370.38 306.62 380.16Z" fill="#E6E7E8"/>
<path d="M365.54 372.64C365.54 372.64 403.4 357.09 429.22 354.59L463.82 377.9L446.52 414L418.84 432.44L418.77 432.38C419.52 431.09 422.87 423.06 404.4 403.21C404.4 403.22 396.63 393.45 365.54 372.64Z" fill="#D1D3D4"/>
<path d="M278.07 503.9H213.55C213.199 503.898 212.854 503.811 212.544 503.646C212.234 503.481 211.969 503.243 211.772 502.952C211.576 502.662 211.452 502.327 211.414 501.979C211.375 501.63 211.422 501.277 211.55 500.95L217.87 484.87C218.03 484.469 218.306 484.125 218.662 483.881C219.018 483.637 219.438 483.505 219.87 483.5L278.06 482.96C278.347 482.957 278.631 483.012 278.897 483.119C279.162 483.227 279.404 483.387 279.607 483.588C279.811 483.79 279.973 484.03 280.083 484.295C280.193 484.56 280.25 484.843 280.25 485.13V501.73C280.25 502.016 280.194 502.299 280.084 502.563C279.974 502.827 279.813 503.066 279.611 503.268C279.408 503.47 279.168 503.629 278.903 503.738C278.639 503.846 278.356 503.901 278.07 503.9V503.9Z" fill="#BCBEC0"/>
<path d="M715 330.4L716.11 334.19C716.11 334.19 727.2 325.72 727.53 311.19C727.53 311.18 720.38 324.66 715 330.4Z" fill="#F7A48B"/>
<path d="M710.95 331.45C721.156 331.45 729.43 316.04 729.43 297.03C729.43 278.02 721.156 262.61 710.95 262.61C700.744 262.61 692.47 278.02 692.47 297.03C692.47 316.04 700.744 331.45 710.95 331.45Z" fill="#F9B499"/>
<path d="M725.14 296.63C724.76 286.42 716.37 288.77 716.37 288.77L707.51 296.77C707.419 296.851 707.31 296.908 707.192 296.935C707.074 296.963 706.951 296.961 706.833 296.929C706.716 296.898 706.609 296.837 706.521 296.754C706.433 296.67 706.367 296.565 706.33 296.45L701.58 280.9C684.02 285.06 691.42 249.48 691.42 249.48C691.42 249.48 702.63 258.48 710.15 257.84C710.15 258.51 720.15 255.84 726.03 264.84C726.03 264.84 752.44 257.99 752.94 284.06C752.94 284.06 755.78 308.3 740.4 319.16L717.86 305.28C717.86 305.28 724.76 304.81 725.14 296.63Z" fill="#28262C"/>
<path d="M718.34 305.12C721.913 305.12 724.81 301.395 724.81 296.8C724.81 292.205 721.913 288.48 718.34 288.48C714.767 288.48 711.87 292.205 711.87 296.8C711.87 301.395 714.767 305.12 718.34 305.12Z" fill="#F9B499"/>
<path d="M644.56 429C647.315 437.04 651.865 444.347 657.863 450.367C663.861 456.388 671.151 460.964 679.18 463.75C679.872 463.99 680.622 464.003 681.322 463.787C682.021 463.571 682.634 463.138 683.07 462.55C692.39 449.82 741.73 379.02 710.98 346.55C709.961 345.48 708.642 344.744 707.196 344.437C705.751 344.13 704.246 344.267 702.88 344.83C693.69 348.59 672.43 364.07 644.65 427.45C644.432 427.938 644.4 428.49 644.56 429V429Z" fill="#D81E5B"/>
<path opacity="0.2" d="M644.56 429C647.315 437.04 651.865 444.347 657.863 450.367C663.861 456.388 671.151 460.964 679.18 463.75C679.872 463.99 680.622 464.003 681.322 463.787C682.021 463.571 682.634 463.138 683.07 462.55C692.39 449.82 741.73 379.02 710.98 346.55C709.961 345.48 708.642 344.744 707.196 344.437C705.751 344.13 704.246 344.267 702.88 344.83C693.69 348.59 672.43 364.07 644.65 427.45C644.432 427.938 644.4 428.49 644.56 429V429Z" fill="black"/>
<path d="M589.08 489.59C589.08 489.59 693.41 495.67 697 522.73C697 522.73 708.32 590.38 666.71 592.56L612.26 591.89C606.33 591.81 599.37 592.05 594.82 588.25C592.287 586.248 590.37 583.573 589.29 580.53" stroke="#D1D3D4" stroke-width="2" stroke-miterlimit="10"/>
<path d="M564.73 592.16C569.32 593.066 574.077 592.56 578.374 590.709C582.671 588.858 586.306 585.748 588.8 581.79C588.8 581.79 594.8 575.79 597.16 553.38C597.16 553.38 602.16 515.94 586.79 509.92C586.79 509.92 587.31 526.81 589.45 536.19C590.332 539.901 590.808 543.696 590.87 547.51C590.93 557 589.62 572.73 581.11 580.79C581.11 580.79 572.08 590.49 564.73 592.16Z" fill="#BCBEC0"/>
<path d="M761.92 456.34C761.49 452.76 758.11 427.07 744.78 391.6L754.96 391.68C754.96 391.68 767.96 435.37 772.09 454.05C772.266 454.847 772.643 455.585 773.186 456.194C773.729 456.804 774.419 457.264 775.19 457.53C784.19 460.7 814.37 474.72 817.5 509.11L787 601.52C787 601.52 780.65 613.52 767.94 606.52L703.8 572.1C703.8 572.1 689.09 563.41 697.45 548.36L720.85 489.86C720.85 489.86 732.76 460.41 761.53 456.86C761.591 456.854 761.65 456.836 761.703 456.806C761.757 456.776 761.803 456.735 761.84 456.686C761.876 456.637 761.902 456.581 761.916 456.521C761.93 456.462 761.931 456.4 761.92 456.34V456.34Z" fill="#D81E5B"/>
<path opacity="0.2" d="M761.92 456.34C761.49 452.76 758.11 427.07 744.78 391.6L754.96 391.68C754.96 391.68 767.96 435.37 772.09 454.05C772.266 454.847 772.643 455.585 773.186 456.194C773.729 456.804 774.419 457.264 775.19 457.53C784.19 460.7 814.37 474.72 817.5 509.11L787 601.52C787 601.52 780.65 613.52 767.94 606.52L703.8 572.1C703.8 572.1 689.09 563.41 697.45 548.36L720.85 489.86C720.85 489.86 732.76 460.41 761.53 456.86C761.591 456.854 761.65 456.836 761.703 456.806C761.757 456.776 761.803 456.735 761.84 456.686C761.876 456.637 761.902 456.581 761.916 456.521C761.93 456.462 761.931 456.4 761.92 456.34V456.34Z" fill="white"/>
<path d="M738.23 575.44C738.23 575.44 723.23 569.76 730.54 553.71L748.24 510.81C750.939 504.116 755.287 498.213 760.88 493.65C767.23 488.57 776.4 484.31 788.26 486.54C797.198 488.366 805.257 493.159 811.13 500.14C816.53 506.39 822.32 515.87 822.69 528.03C822.799 533.792 821.685 539.511 819.42 544.81L799.74 592.16C799.74 592.16 796.74 605.53 782.02 598.84L738.23 575.44Z" fill="#28262C"/>
<path opacity="0.2" d="M756.05 527.63L802.78 553.9C803.522 554.319 804.094 554.984 804.398 555.78C804.701 556.576 804.716 557.454 804.44 558.26L793.78 589.42C793.605 589.918 793.324 590.372 792.957 590.751C792.589 591.13 792.144 591.424 791.651 591.615C791.159 591.805 790.631 591.886 790.104 591.852C789.578 591.819 789.064 591.671 788.6 591.42L741.6 566.05C741.18 565.835 740.86 565.467 740.703 565.023C740.547 564.578 740.567 564.09 740.76 563.66L753.48 528.46C753.589 528.232 753.743 528.029 753.934 527.862C754.124 527.696 754.346 527.57 754.587 527.492C754.827 527.415 755.081 527.387 755.332 527.41C755.584 527.434 755.828 527.509 756.05 527.63Z" stroke="white" stroke-miterlimit="10"/>
<path opacity="0.2" d="M774.56 521.93L799.92 536.86C800.258 537.071 800.634 537.212 801.027 537.276C801.421 537.34 801.822 537.325 802.21 537.232C802.597 537.139 802.962 536.97 803.283 536.734C803.604 536.499 803.875 536.201 804.08 535.86C807.38 530.44 813.65 517.33 804.68 507.5C803.504 506.25 802.103 505.232 800.55 504.5C794.98 501.77 781.55 497.89 773.27 518.19C773.01 518.865 772.996 519.611 773.232 520.295C773.468 520.98 773.939 521.559 774.56 521.93V521.93Z" stroke="white" stroke-miterlimit="10"/>
<path d="M729.2 493.21C733.019 485.503 738.542 478.766 745.35 473.51C748.78 470.89 752.582 468.797 756.63 467.3C760.7 465.822 764.981 465.008 769.31 464.89C773.625 464.838 777.927 465.369 782.1 466.47C786.273 467.506 790.304 469.05 794.1 471.07C797.882 473.12 801.345 475.711 804.38 478.76L806.55 481.13C807.21 481.98 807.82 482.85 808.46 483.71C808.77 484.15 809.1 484.57 809.4 485.01L810.19 486.4L811.76 489.19L810.04 486.5L809.2 485.15C808.88 484.72 808.54 484.31 808.2 483.9C807.53 483.07 806.89 482.23 806.2 481.42L804 479.17C800.943 476.246 797.477 473.784 793.71 471.86C789.937 469.966 785.962 468.507 781.86 467.51C777.775 466.461 773.566 465.974 769.35 466.06C765.14 466.137 760.969 466.893 757 468.3C755.023 469.023 753.098 469.881 751.24 470.87C749.394 471.887 747.608 473.009 745.89 474.23C742.472 476.736 739.349 479.621 736.58 482.83C733.761 486.02 731.287 489.499 729.2 493.21V493.21Z" fill="#28262C"/>
<path d="M703.88 532.24L713.53 508.1C712.937 481.056 715.403 454.031 720.88 427.54C723.48 415.03 726.34 401.91 730.21 391.54C719.474 404.672 711.765 420.009 707.63 436.46C707.49 437.04 707.34 437.6 707.2 438.16C703.545 452.088 701.607 466.411 701.43 480.81C701.27 498.16 701.6 515.5 703.88 532.2" fill="#28262C"/>
<path d="M719.15 494C719.15 494 719.69 416.62 730.21 391.54C730.21 391.54 704.89 432.73 705.28 496.31L705.74 527.9L719.15 494Z" fill="#D81E5B"/>
<path opacity="0.2" d="M719.15 494C719.15 494 719.69 416.62 730.21 391.54C730.21 391.54 704.89 432.73 705.28 496.31L705.74 527.9L719.15 494Z" fill="white"/>
<path d="M498.04 328.26C510.803 328.26 521.15 313.342 521.15 294.94C521.15 276.538 510.803 261.62 498.04 261.62C485.277 261.62 474.93 276.538 474.93 294.94C474.93 313.342 485.277 328.26 498.04 328.26Z" fill="#F9B499"/>
<path d="M477.61 279.89C477.61 279.89 475.46 256.78 496.96 256.78C496.96 256.78 522.22 248.72 536.73 277.78C536.73 277.78 551.73 291.22 552.86 333.67C552.86 333.67 554.47 370.76 551.24 391.18L512.55 390.11C512.55 390.11 522.66 323.92 524.32 303L520.61 287.45C520.61 287.45 516.09 291.97 510.37 281.55C508.928 278.977 506.723 276.916 504.06 275.65C497.07 272.21 484.09 268.07 477.61 279.89Z" fill="#28262C"/>
<path d="M524.32 302.97C527.893 302.97 530.79 299.245 530.79 294.65C530.79 290.055 527.893 286.33 524.32 286.33C520.747 286.33 517.85 290.055 517.85 294.65C517.85 299.245 520.747 302.97 524.32 302.97Z" fill="#F9B499"/>
<path d="M497.5 428.23C488.5 457.07 466.2 482.57 460.27 489.01C459.771 489.548 459.136 489.942 458.432 490.15C457.728 490.357 456.981 490.371 456.27 490.19C437.27 485.62 433.52 445.42 433.52 445.42L447 412.17C449.192 406.811 450.358 401.089 450.44 395.3C450.55 384.54 452.77 365.24 466.32 356.21C466.32 356.21 495.32 336.32 502.32 367.49C502.33 367.49 510.93 385.23 497.5 428.23Z" fill="#D81E5B"/>
<path opacity="0.2" d="M497.5 428.23C488.5 457.07 466.2 482.57 460.27 489.01C459.771 489.548 459.136 489.942 458.432 490.15C457.728 490.357 456.981 490.371 456.27 490.19C437.27 485.62 433.52 445.42 433.52 445.42L447 412.17C449.192 406.811 450.358 401.089 450.44 395.3C450.55 384.54 452.77 365.24 466.32 356.21C466.32 356.21 495.32 336.32 502.32 367.49C502.33 367.49 510.93 385.23 497.5 428.23Z" fill="black"/>
<path d="M618.35 396.58C612.52 406.3 599.42 433.5 588.9 494.38C588.6 496.08 588.27 497.76 587.9 499.45C587.13 502.86 586.38 512.04 588.9 529.85C589.16 531.69 589.5 533.54 589.9 535.35C592.05 544.18 598.62 580.24 566 592.24L463 591.15C463 591.15 489 574.85 481.92 523.23C480.43 512.889 479.768 502.446 479.94 492C480.59 464.44 492.18 414.82 509.86 389.51L615.8 392C616.327 392.018 616.841 392.172 617.291 392.447C617.741 392.722 618.112 393.109 618.369 393.57C618.625 394.031 618.758 394.55 618.755 395.077C618.752 395.605 618.612 396.122 618.35 396.58V396.58Z" fill="#D1D3D4"/>
<path d="M369.26 490.27C369.26 490.27 350.44 494.55 357.71 518.92L378.71 577.92C378.71 577.92 385.55 590.75 395.81 592.46C395.81 592.46 377.43 596.73 367.17 578.77L346.22 521.06C346.22 521.06 337.19 486.42 369.26 490.27Z" fill="#BCBEC0"/>
<path d="M420.56 496.26C420.56 496.26 481.7 501.39 485.98 520.63C485.98 520.63 495.38 589.46 461.18 592.46H449.53C449.53 592.46 473.58 587.32 476.14 553.11L475.42 527.81C475.349 524.346 474.471 520.946 472.857 517.881C471.243 514.815 468.936 512.168 466.12 510.15C461.91 507.317 457.178 505.352 452.2 504.37C452.2 504.37 434.67 498.39 420.56 496.26Z" fill="#BCBEC0"/>
<path d="M365 490.27C409 489.84 452.22 504.38 452.22 504.38C457.231 505.373 461.992 507.363 466.22 510.23C468.96 512.204 471.219 514.772 472.828 517.742C474.436 520.711 475.353 524.006 475.51 527.38L476.57 548C476.92 575.67 460.48 587.67 454.18 591.25C452.76 592.05 451.16 592.473 449.53 592.48L389.35 592.89C372.68 592.04 367.12 578.78 367.12 578.78L349.59 529.62C340.18 509.09 347.88 497.98 347.88 497.98C347.88 497.98 354.29 489 365 490.27Z" stroke="#D1D3D4" stroke-width="2" stroke-miterlimit="10"/>
<path d="M430.85 479.01H208.21V485.56H430.85V479.01Z" fill="#D1D3D4"/>
</svg>
