<svg width="866" height="683" viewBox="0 0 866 683" fill="none" xmlns="http://www.w3.org/2000/svg">
<rect width="866" height="683" fill="transparent"/>
<path d="M433.937 341.45V332.723H436.886C437.57 332.723 438.13 332.846 438.565 333.093C439.002 333.338 439.326 333.669 439.536 334.086C439.746 334.504 439.852 334.97 439.852 335.484C439.852 335.998 439.746 336.466 439.536 336.886C439.329 337.307 439.008 337.642 438.573 337.892C438.139 338.139 437.582 338.263 436.903 338.263H434.789V337.325H436.869C437.337 337.325 437.714 337.244 437.998 337.082C438.282 336.92 438.488 336.701 438.616 336.426C438.746 336.147 438.812 335.834 438.812 335.484C438.812 335.135 438.746 334.822 438.616 334.547C438.488 334.271 438.281 334.055 437.994 333.899C437.707 333.74 437.326 333.66 436.852 333.66H434.994V341.45H433.937ZM444.006 341.586C443.416 341.586 442.897 341.446 442.451 341.165C442.008 340.883 441.661 340.49 441.411 339.984C441.164 339.478 441.041 338.888 441.041 338.211C441.041 337.53 441.164 336.934 441.411 336.426C441.661 335.917 442.008 335.522 442.451 335.241C442.897 334.96 443.416 334.819 444.006 334.819C444.597 334.819 445.114 334.96 445.558 335.241C446.004 335.522 446.35 335.917 446.597 336.426C446.847 336.934 446.972 337.53 446.972 338.211C446.972 338.888 446.847 339.478 446.597 339.984C446.35 340.49 446.004 340.883 445.558 341.165C445.114 341.446 444.597 341.586 444.006 341.586ZM444.006 340.683C444.455 340.683 444.825 340.568 445.114 340.338C445.404 340.108 445.619 339.805 445.758 339.43C445.897 339.055 445.967 338.649 445.967 338.211C445.967 337.774 445.897 337.366 445.758 336.988C445.619 336.611 445.404 336.305 445.114 336.072C444.825 335.839 444.455 335.723 444.006 335.723C443.558 335.723 443.188 335.839 442.898 336.072C442.609 336.305 442.394 336.611 442.255 336.988C442.116 337.366 442.046 337.774 442.046 338.211C442.046 338.649 442.116 339.055 442.255 339.43C442.394 339.805 442.609 340.108 442.898 340.338C443.188 340.568 443.558 340.683 444.006 340.683ZM448.507 341.45V334.905H449.479V335.927H449.564C449.701 335.578 449.921 335.307 450.225 335.113C450.529 334.917 450.894 334.819 451.32 334.819C451.752 334.819 452.111 334.917 452.398 335.113C452.688 335.307 452.914 335.578 453.076 335.927H453.144C453.311 335.589 453.563 335.321 453.898 335.122C454.233 334.92 454.635 334.819 455.104 334.819C455.689 334.819 456.168 335.003 456.54 335.369C456.912 335.733 457.098 336.299 457.098 337.069V341.45H456.093V337.069C456.093 336.586 455.961 336.241 455.696 336.034C455.432 335.826 455.121 335.723 454.763 335.723C454.303 335.723 453.946 335.862 453.694 336.14C453.441 336.416 453.314 336.765 453.314 337.189V341.45H452.292V336.967C452.292 336.595 452.171 336.295 451.929 336.068C451.688 335.838 451.377 335.723 450.996 335.723C450.735 335.723 450.49 335.792 450.263 335.932C450.039 336.071 449.857 336.264 449.718 336.511C449.581 336.755 449.513 337.038 449.513 337.359V341.45H448.507ZM461.596 341.586C461.005 341.586 460.487 341.446 460.041 341.165C459.598 340.883 459.251 340.49 459.001 339.984C458.754 339.478 458.63 338.888 458.63 338.211C458.63 337.53 458.754 336.934 459.001 336.426C459.251 335.917 459.598 335.522 460.041 335.241C460.487 334.96 461.005 334.819 461.596 334.819C462.187 334.819 462.704 334.96 463.147 335.241C463.593 335.522 463.94 335.917 464.187 336.426C464.437 336.934 464.562 337.53 464.562 338.211C464.562 338.888 464.437 339.478 464.187 339.984C463.94 340.49 463.593 340.883 463.147 341.165C462.704 341.446 462.187 341.586 461.596 341.586ZM461.596 340.683C462.045 340.683 462.414 340.568 462.704 340.338C462.994 340.108 463.208 339.805 463.348 339.43C463.487 339.055 463.556 338.649 463.556 338.211C463.556 337.774 463.487 337.366 463.348 336.988C463.208 336.611 462.994 336.305 462.704 336.072C462.414 335.839 462.045 335.723 461.596 335.723C461.147 335.723 460.778 335.839 460.488 336.072C460.199 336.305 459.984 336.611 459.845 336.988C459.706 337.366 459.636 337.774 459.636 338.211C459.636 338.649 459.706 339.055 459.845 339.43C459.984 339.805 460.199 340.108 460.488 340.338C460.778 340.568 461.147 340.683 461.596 340.683ZM468.569 341.586C468.023 341.586 467.542 341.449 467.124 341.173C466.707 340.895 466.38 340.503 466.144 339.997C465.908 339.488 465.791 338.888 465.791 338.194C465.791 337.507 465.908 336.91 466.144 336.405C466.38 335.899 466.708 335.508 467.129 335.233C467.549 334.957 468.035 334.819 468.586 334.819C469.012 334.819 469.349 334.89 469.596 335.032C469.846 335.172 470.036 335.331 470.167 335.51C470.3 335.686 470.404 335.831 470.478 335.944H470.563V332.723H471.569V341.45H470.597V340.444H470.478C470.404 340.564 470.299 340.714 470.163 340.896C470.026 341.075 469.832 341.236 469.579 341.378C469.326 341.517 468.989 341.586 468.569 341.586ZM468.705 340.683C469.109 340.683 469.45 340.578 469.728 340.368C470.006 340.155 470.218 339.861 470.363 339.486C470.508 339.108 470.58 338.672 470.58 338.177C470.58 337.689 470.509 337.261 470.367 336.895C470.225 336.525 470.015 336.238 469.737 336.034C469.458 335.826 469.114 335.723 468.705 335.723C468.279 335.723 467.924 335.832 467.64 336.051C467.359 336.267 467.147 336.561 467.005 336.933C466.866 337.302 466.796 337.717 466.796 338.177C466.796 338.643 466.867 339.066 467.009 339.447C467.154 339.825 467.367 340.126 467.648 340.351C467.933 340.572 468.285 340.683 468.705 340.683ZM476.21 341.586C475.619 341.586 475.1 341.446 474.654 341.165C474.211 340.883 473.864 340.49 473.614 339.984C473.367 339.478 473.244 338.888 473.244 338.211C473.244 337.53 473.367 336.934 473.614 336.426C473.864 335.917 474.211 335.522 474.654 335.241C475.1 334.96 475.619 334.819 476.21 334.819C476.8 334.819 477.318 334.96 477.761 335.241C478.207 335.522 478.553 335.917 478.8 336.426C479.05 336.934 479.175 337.53 479.175 338.211C479.175 338.888 479.05 339.478 478.8 339.984C478.553 340.49 478.207 340.883 477.761 341.165C477.318 341.446 476.8 341.586 476.21 341.586ZM476.21 340.683C476.658 340.683 477.028 340.568 477.318 340.338C477.607 340.108 477.822 339.805 477.961 339.43C478.1 339.055 478.17 338.649 478.17 338.211C478.17 337.774 478.1 337.366 477.961 336.988C477.822 336.611 477.607 336.305 477.318 336.072C477.028 335.839 476.658 335.723 476.21 335.723C475.761 335.723 475.391 335.839 475.102 336.072C474.812 336.305 474.597 336.611 474.458 336.988C474.319 337.366 474.249 337.774 474.249 338.211C474.249 338.649 474.319 339.055 474.458 339.43C474.597 339.805 474.812 340.108 475.102 340.338C475.391 340.568 475.761 340.683 476.21 340.683ZM480.711 341.45V334.905H481.682V335.893H481.75C481.87 335.569 482.086 335.307 482.398 335.105C482.711 334.903 483.063 334.802 483.455 334.802C483.529 334.802 483.621 334.804 483.732 334.807C483.843 334.809 483.927 334.814 483.983 334.819V335.842C483.949 335.834 483.871 335.821 483.749 335.804C483.63 335.784 483.503 335.774 483.37 335.774C483.052 335.774 482.767 335.841 482.517 335.974C482.27 336.105 482.074 336.287 481.929 336.52C481.787 336.75 481.716 337.013 481.716 337.308V341.45H480.711ZM487.635 341.586C487.044 341.586 486.526 341.446 486.08 341.165C485.637 340.883 485.29 340.49 485.04 339.984C484.793 339.478 484.669 338.888 484.669 338.211C484.669 337.53 484.793 336.934 485.04 336.426C485.29 335.917 485.637 335.522 486.08 335.241C486.526 334.96 487.044 334.819 487.635 334.819C488.226 334.819 488.743 334.96 489.186 335.241C489.632 335.522 489.979 335.917 490.226 336.426C490.476 336.934 490.601 337.53 490.601 338.211C490.601 338.888 490.476 339.478 490.226 339.984C489.979 340.49 489.632 340.883 489.186 341.165C488.743 341.446 488.226 341.586 487.635 341.586ZM487.635 340.683C488.084 340.683 488.454 340.568 488.743 340.338C489.033 340.108 489.248 339.805 489.387 339.43C489.526 339.055 489.596 338.649 489.596 338.211C489.596 337.774 489.526 337.366 489.387 336.988C489.248 336.611 489.033 336.305 488.743 336.072C488.454 335.839 488.084 335.723 487.635 335.723C487.186 335.723 486.817 335.839 486.527 336.072C486.238 336.305 486.023 336.611 485.884 336.988C485.745 337.366 485.675 337.774 485.675 338.211C485.675 338.649 485.745 339.055 485.884 339.43C486.023 339.805 486.238 340.108 486.527 340.338C486.817 340.568 487.186 340.683 487.635 340.683ZM498.358 334.905V335.757H494.966V334.905H498.358ZM495.955 333.336H496.96V339.575C496.96 339.859 497.001 340.072 497.084 340.214C497.169 340.353 497.277 340.447 497.408 340.495C497.541 340.541 497.682 340.564 497.83 340.564C497.94 340.564 498.031 340.558 498.102 340.547C498.173 340.532 498.23 340.521 498.273 340.513L498.477 341.416C498.409 341.441 498.314 341.467 498.192 341.493C498.07 341.521 497.915 341.535 497.727 341.535C497.443 341.535 497.165 341.474 496.892 341.352C496.622 341.23 496.398 341.044 496.219 340.794C496.043 340.544 495.955 340.228 495.955 339.848V333.336ZM502.545 341.586C501.914 341.586 501.37 341.447 500.913 341.169C500.458 340.888 500.107 340.495 499.86 339.993C499.616 339.487 499.494 338.899 499.494 338.228C499.494 337.558 499.616 336.967 499.86 336.456C500.107 335.941 500.451 335.541 500.891 335.254C501.335 334.964 501.852 334.819 502.443 334.819C502.783 334.819 503.12 334.876 503.452 334.99C503.785 335.103 504.087 335.288 504.36 335.544C504.633 335.797 504.85 336.132 505.012 336.549C505.174 336.967 505.255 337.481 505.255 338.092V338.518H500.21V337.649H504.232C504.232 337.28 504.158 336.95 504.011 336.66C503.866 336.37 503.658 336.142 503.389 335.974C503.121 335.807 502.806 335.723 502.443 335.723C502.042 335.723 501.695 335.822 501.403 336.021C501.113 336.217 500.89 336.473 500.734 336.788C500.577 337.103 500.499 337.441 500.499 337.802V338.382C500.499 338.876 500.585 339.295 500.755 339.639C500.928 339.98 501.168 340.24 501.475 340.419C501.782 340.595 502.139 340.683 502.545 340.683C502.809 340.683 503.048 340.646 503.261 340.572C503.477 340.495 503.663 340.382 503.819 340.231C503.975 340.078 504.096 339.888 504.181 339.66L505.153 339.933C505.05 340.263 504.879 340.552 504.637 340.802C504.396 341.049 504.097 341.243 503.742 341.382C503.387 341.518 502.988 341.586 502.545 341.586ZM509.444 341.586C508.83 341.586 508.302 341.441 507.859 341.152C507.416 340.862 507.075 340.463 506.836 339.954C506.597 339.446 506.478 338.865 506.478 338.211C506.478 337.547 506.6 336.96 506.844 336.451C507.092 335.94 507.435 335.541 507.876 335.254C508.319 334.964 508.836 334.819 509.427 334.819C509.887 334.819 510.302 334.905 510.671 335.075C511.041 335.245 511.343 335.484 511.579 335.791C511.815 336.098 511.961 336.456 512.018 336.865H511.012C510.935 336.566 510.765 336.302 510.501 336.072C510.239 335.839 509.887 335.723 509.444 335.723C509.052 335.723 508.708 335.825 508.413 336.03C508.12 336.231 507.891 336.517 507.727 336.886C507.565 337.253 507.484 337.683 507.484 338.177C507.484 338.683 507.563 339.123 507.722 339.498C507.884 339.873 508.112 340.165 508.404 340.372C508.7 340.579 509.046 340.683 509.444 340.683C509.705 340.683 509.943 340.638 510.156 340.547C510.369 340.456 510.549 340.325 510.697 340.155C510.844 339.984 510.95 339.78 511.012 339.541H512.018C511.961 339.927 511.82 340.275 511.596 340.585C511.374 340.892 511.08 341.136 510.714 341.318C510.35 341.497 509.927 341.586 509.444 341.586ZM514.494 337.513V341.45H513.488V332.723H514.494V335.927H514.579C514.732 335.589 514.962 335.321 515.269 335.122C515.579 334.92 515.991 334.819 516.505 334.819C516.951 334.819 517.342 334.909 517.677 335.088C518.012 335.264 518.272 335.535 518.457 335.902C518.644 336.265 518.738 336.728 518.738 337.291V341.45H517.732V337.359C517.732 336.839 517.597 336.437 517.327 336.153C517.06 335.866 516.69 335.723 516.215 335.723C515.886 335.723 515.59 335.792 515.329 335.932C515.07 336.071 514.866 336.274 514.715 336.541C514.568 336.808 514.494 337.132 514.494 337.513ZM521.583 337.513V341.45H520.578V334.905H521.549V335.927H521.635C521.788 335.595 522.021 335.328 522.333 335.126C522.646 334.922 523.049 334.819 523.544 334.819C523.987 334.819 524.375 334.91 524.707 335.092C525.039 335.271 525.298 335.544 525.483 335.91C525.667 336.274 525.76 336.734 525.76 337.291V341.45H524.754V337.359C524.754 336.845 524.62 336.444 524.353 336.157C524.086 335.868 523.72 335.723 523.254 335.723C522.933 335.723 522.646 335.792 522.393 335.932C522.143 336.071 521.946 336.274 521.801 336.541C521.656 336.808 521.583 337.132 521.583 337.513ZM527.597 341.45V334.905H528.603V341.45H527.597ZM528.109 333.814C527.913 333.814 527.744 333.747 527.602 333.613C527.462 333.48 527.393 333.319 527.393 333.132C527.393 332.944 527.462 332.784 527.602 332.65C527.744 332.517 527.913 332.45 528.109 332.45C528.305 332.45 528.472 332.517 528.612 332.65C528.754 332.784 528.825 332.944 528.825 333.132C528.825 333.319 528.754 333.48 528.612 333.613C528.472 333.747 528.305 333.814 528.109 333.814ZM534.911 343.905V340.444H534.826C534.752 340.564 534.647 340.714 534.51 340.896C534.374 341.075 534.179 341.236 533.927 341.378C533.674 341.517 533.337 341.586 532.917 341.586C532.371 341.586 531.89 341.449 531.472 341.173C531.054 340.895 530.728 340.503 530.492 339.997C530.256 339.488 530.138 338.888 530.138 338.194C530.138 337.507 530.256 336.91 530.492 336.405C530.728 335.899 531.056 335.508 531.476 335.233C531.897 334.957 532.382 334.819 532.934 334.819C533.36 334.819 533.696 334.89 533.944 335.032C534.194 335.172 534.384 335.331 534.515 335.51C534.648 335.686 534.752 335.831 534.826 335.944H534.945V334.905H535.917V343.905H534.911ZM533.053 340.683C533.456 340.683 533.797 340.578 534.076 340.368C534.354 340.155 534.566 339.861 534.711 339.486C534.856 339.108 534.928 338.672 534.928 338.177C534.928 337.689 534.857 337.261 534.715 336.895C534.573 336.525 534.363 336.238 534.084 336.034C533.806 335.826 533.462 335.723 533.053 335.723C532.627 335.723 532.272 335.832 531.988 336.051C531.706 336.267 531.495 336.561 531.353 336.933C531.213 337.302 531.144 337.717 531.144 338.177C531.144 338.643 531.215 339.066 531.357 339.447C531.502 339.825 531.715 340.126 531.996 340.351C532.28 340.572 532.632 340.683 533.053 340.683ZM541.882 338.774V334.905H542.888V341.45H541.882V340.342H541.814C541.661 340.674 541.422 340.957 541.098 341.19C540.775 341.42 540.365 341.535 539.871 341.535C539.462 341.535 539.098 341.446 538.78 341.267C538.462 341.085 538.212 340.812 538.03 340.449C537.848 340.082 537.757 339.62 537.757 339.064V334.905H538.763V338.995C538.763 339.473 538.897 339.853 539.164 340.138C539.434 340.422 539.777 340.564 540.195 340.564C540.445 340.564 540.699 340.5 540.958 340.372C541.219 340.244 541.438 340.048 541.614 339.784C541.793 339.52 541.882 339.183 541.882 338.774ZM547.474 341.586C546.844 341.586 546.3 341.447 545.842 341.169C545.388 340.888 545.037 340.495 544.79 339.993C544.545 339.487 544.423 338.899 544.423 338.228C544.423 337.558 544.545 336.967 544.79 336.456C545.037 335.941 545.381 335.541 545.821 335.254C546.264 334.964 546.781 334.819 547.372 334.819C547.713 334.819 548.05 334.876 548.382 334.99C548.715 335.103 549.017 335.288 549.29 335.544C549.563 335.797 549.78 336.132 549.942 336.549C550.104 336.967 550.185 337.481 550.185 338.092V338.518H545.139V337.649H549.162C549.162 337.28 549.088 336.95 548.94 336.66C548.795 336.37 548.588 336.142 548.318 335.974C548.051 335.807 547.736 335.723 547.372 335.723C546.972 335.723 546.625 335.822 546.332 336.021C546.043 336.217 545.82 336.473 545.663 336.788C545.507 337.103 545.429 337.441 545.429 337.802V338.382C545.429 338.876 545.514 339.295 545.685 339.639C545.858 339.98 546.098 340.24 546.405 340.419C546.712 340.595 547.068 340.683 547.474 340.683C547.739 340.683 547.977 340.646 548.19 340.572C548.406 340.495 548.592 340.382 548.749 340.231C548.905 340.078 549.026 339.888 549.111 339.66L550.082 339.933C549.98 340.263 549.808 340.552 549.567 340.802C549.325 341.049 549.027 341.243 548.672 341.382C548.317 341.518 547.918 341.586 547.474 341.586Z" fill="black"/>
<path d="M275.7 580.61H824.86V592.87C824.865 594.724 824.505 596.56 823.799 598.274C823.093 599.988 822.056 601.546 820.747 602.859C819.438 604.172 817.883 605.213 816.171 605.924C814.459 606.634 812.624 607 810.77 607H275.7V580.61Z" fill="#909091"/>
<path d="M404.59 136.46H724.78C741.566 136.46 757.664 143.128 769.533 154.997C781.402 166.866 788.07 182.964 788.07 199.75V591H341.29V199.76C341.29 182.974 347.958 166.876 359.827 155.007C371.696 143.138 387.794 136.47 404.58 136.47L404.59 136.46Z" fill="#CCCCCC"/>
<path d="M422.56 136.46H732.15C750.341 136.46 767.787 143.686 780.65 156.55C793.514 169.413 800.74 186.859 800.74 205.05V591H354V205C354.013 186.823 361.241 169.394 374.097 156.542C386.952 143.691 404.383 136.468 422.56 136.46Z" fill="#E6E6E6"/>
<path d="M727.34 433.26L694.92 575.81H616.56L625.38 415.58H713.24C713.507 415.58 713.777 415.58 714.05 415.58C716.154 415.697 718.206 416.272 720.064 417.265C721.922 418.258 723.541 419.645 724.807 421.329C726.073 423.013 726.955 424.954 727.393 427.014C727.83 429.075 727.812 431.207 727.34 433.26Z" fill="#3F4347"/>
<path d="M727.34 433.26L694.92 575.81H666.31L701.41 426.81C702.113 423.742 703.781 420.98 706.17 418.93C708.388 417.038 711.145 415.891 714.05 415.65V415.65C716.146 415.769 718.191 416.342 720.043 417.331C721.895 418.32 723.51 419.701 724.774 421.376C726.039 423.052 726.924 424.983 727.367 427.035C727.81 429.088 727.801 431.212 727.34 433.26V433.26Z" fill="#2E3135"/>
<path d="M616.56 575.81H653.68C653.68 575.81 662.11 523.81 651.07 499.93L616.56 575.81Z" fill="#2E3135"/>
<path d="M526.1 213.12H555.96" stroke="#CCCCCC" stroke-width="4" stroke-miterlimit="10"/>
<path d="M525.91 233.32H555.77" stroke="#CCCCCC" stroke-width="4" stroke-miterlimit="10"/>
<path d="M526.54 271.21H556.4" stroke="#CCCCCC" stroke-width="4" stroke-miterlimit="10"/>
<path d="M431.33 316.85C431.33 316.85 418.58 339 410 382.31C410 382.31 401.28 430.19 399.09 473.22C399.09 473.22 393.51 553.01 393.25 563.54V576.34H467L474 571.82L477.64 526.66L478.4 429.99C478.4 429.99 477.68 375.44 490.77 332.23L467 328.68L448 323.28L431.33 316.85Z" fill="#E6E6E6"/>
<path d="M409.8 257C409.8 257 368.39 299 392.23 330.4C392.23 330.4 416.46 312.71 436.23 308C435.899 306.294 435.659 304.571 435.51 302.84V284.45C435.51 284.45 418.64 281.44 409.8 257Z" fill="#28262C"/>
<path d="M396.06 224.22L410.44 220.07C410.605 220.024 410.779 220.014 410.948 220.041C411.118 220.068 411.28 220.131 411.423 220.226C411.566 220.321 411.687 220.445 411.778 220.591C411.869 220.736 411.928 220.9 411.95 221.07V221.07C411.996 221.36 411.935 221.657 411.779 221.905C411.623 222.153 411.381 222.336 411.1 222.42L396.45 226.63L396.06 224.22Z" fill="#D81E5B"/>
<path d="M409.67 248.38C417.292 248.38 423.47 242.116 423.47 234.39C423.47 226.664 417.292 220.4 409.67 220.4C402.048 220.4 395.87 226.664 395.87 234.39C395.87 242.116 402.048 248.38 409.67 248.38Z" fill="#F29681"/>
<path d="M491.1 235.33V301.33C491.1 308.571 488.273 315.526 483.222 320.715C478.171 325.903 471.294 328.915 464.055 329.109C456.817 329.304 449.788 326.665 444.466 321.755C439.144 316.844 435.948 310.051 435.56 302.82C435.56 302.33 435.56 301.82 435.56 301.33V235.33H491.1Z" fill="#F9B499"/>
<path d="M479.3 269.32C467.48 303.87 439.55 303.16 435.56 302.87C435.56 302.38 435.56 301.87 435.56 301.38V278.29L479.3 269.32Z" fill="#F29681"/>
<g opacity="0.2">
<path d="M401.49 324.35C401.455 324.35 401.421 324.341 401.391 324.324C401.361 324.306 401.336 324.281 401.32 324.25C399.109 320.02 397.776 315.388 397.4 310.63C397.088 306.655 397.36 302.656 398.21 298.76C399.033 294.722 400.431 290.822 402.36 287.18C402.372 287.159 402.388 287.14 402.407 287.126C402.426 287.111 402.447 287.1 402.471 287.093C402.494 287.087 402.518 287.085 402.542 287.088C402.566 287.091 402.589 287.098 402.61 287.11C402.631 287.122 402.649 287.138 402.664 287.157C402.679 287.176 402.69 287.197 402.697 287.22C402.703 287.244 402.705 287.268 402.702 287.292C402.699 287.316 402.692 287.339 402.68 287.36C400.78 290.979 399.396 294.847 398.57 298.85C396.635 307.363 397.728 316.285 401.66 324.08C401.681 324.124 401.685 324.174 401.67 324.221C401.655 324.268 401.623 324.307 401.58 324.33C401.553 324.346 401.521 324.353 401.49 324.35V324.35Z" fill="black"/>
</g>
<path d="M378.68 333.25C378.641 333.252 378.602 333.242 378.57 333.22C378.537 333.198 378.513 333.167 378.5 333.13C378.5 333.02 374.63 322.18 376.5 307.13C377.622 298.238 380.468 289.651 384.88 281.85C390.46 271.85 398.64 262.76 409.19 254.7C409.227 254.666 409.275 254.648 409.325 254.648C409.375 254.648 409.423 254.666 409.46 254.7C409.493 254.735 409.511 254.782 409.511 254.83C409.511 254.878 409.493 254.925 409.46 254.96C385.67 273.13 378.63 293.36 376.91 307.14C375.05 322.06 378.86 332.81 378.91 332.92C378.926 332.966 378.924 333.017 378.904 333.062C378.883 333.107 378.846 333.142 378.8 333.16L378.68 333.25Z" fill="#28262C"/>
<path d="M436.28 308C436.28 308 397.69 316.41 362.37 359C362.37 359 331.63 394.75 315.32 453.22L353.71 563.5H393.23C393.23 563.5 397.75 484.21 400.76 453.97C400.76 454 408.17 353.89 436.28 308Z" fill="#D81E5B"/>
<g opacity="0.2">
<path d="M318.31 461.33H318.25C318.227 461.323 318.205 461.312 318.186 461.296C318.168 461.281 318.152 461.262 318.141 461.241C318.13 461.219 318.123 461.196 318.121 461.171C318.119 461.147 318.122 461.123 318.13 461.1C323.307 444.965 329.387 429.133 336.34 413.68C342.278 400.215 349.183 387.198 357 374.73C365.8 361 374.73 350.56 383.56 343.73C383.578 343.712 383.599 343.698 383.622 343.688C383.645 343.679 383.67 343.674 383.695 343.674C383.72 343.674 383.745 343.679 383.768 343.688C383.791 343.698 383.812 343.712 383.83 343.73C383.848 343.747 383.861 343.767 383.871 343.789C383.881 343.812 383.885 343.836 383.885 343.86C383.885 343.884 383.881 343.908 383.871 343.931C383.861 343.953 383.848 343.973 383.83 343.99C363.9 359.46 347.21 390.49 336.71 413.81C329.758 429.249 323.681 445.067 318.51 461.19C318.498 461.233 318.472 461.271 318.435 461.296C318.399 461.322 318.354 461.334 318.31 461.33Z" fill="black"/>
</g>
<g opacity="0.2">
<path d="M395.12 335.51C395.091 335.512 395.062 335.507 395.036 335.494C395.01 335.482 394.987 335.463 394.97 335.44C394.952 335.422 394.938 335.401 394.928 335.378C394.919 335.355 394.914 335.33 394.914 335.305C394.914 335.28 394.919 335.255 394.928 335.232C394.938 335.209 394.952 335.188 394.97 335.17C395.03 335.17 400.28 331.25 407.4 326.94C413.98 322.94 423.54 317.82 431.76 315.85C431.784 315.844 431.808 315.843 431.832 315.847C431.856 315.851 431.879 315.86 431.9 315.873C431.921 315.886 431.938 315.903 431.952 315.923C431.966 315.943 431.975 315.966 431.98 315.99C431.988 316.014 431.99 316.039 431.988 316.063C431.985 316.088 431.977 316.112 431.965 316.133C431.953 316.155 431.937 316.174 431.917 316.189C431.897 316.204 431.874 316.214 431.85 316.22C416.21 319.97 395.41 335.32 395.2 335.47C395.178 335.491 395.15 335.505 395.12 335.51V335.51Z" fill="black"/>
</g>
<path opacity="0.2" d="M396.36 329.3C396.31 329.35 391.7 334.3 386.36 344.24C383.062 350.374 380.266 356.765 378 363.35C374.956 372.224 372.684 381.345 371.21 390.61L361 435.35C358.634 442.851 355.688 450.156 352.19 457.2C346.19 469.7 337.7 483.36 327.45 488.01L346.4 542.59C347.84 526.37 349.72 509.557 352.04 492.15C354.473 474.15 357.22 456.843 360.28 440.23L371.55 390.68C375.04 369.07 381.67 353.6 386.61 344.43C391.96 334.49 396.55 329.6 396.61 329.56L396.36 329.3Z" fill="black"/>
<path d="M591.14 359.65C627.58 404.74 645.92 463.92 645.92 463.92C670.39 545.23 621.08 576.22 621.08 576.22L467 576.47C479.54 548.99 457.21 534.06 457.21 534.06L477.66 526.66L478.42 435.19C476.92 385.76 489 338.33 489 338.33C495.59 320.33 491.14 302.07 490.38 301.7C490.34 301.7 552.29 311.59 591.14 359.65Z" fill="#D81E5B"/>
<g opacity="0.2">
<path d="M495.24 558.21C495.191 558.21 495.144 558.191 495.109 558.158C495.074 558.124 495.053 558.079 495.05 558.03C495.049 558.006 495.052 557.981 495.061 557.958C495.069 557.935 495.082 557.914 495.099 557.896C495.116 557.878 495.136 557.864 495.159 557.855C495.181 557.845 495.206 557.84 495.23 557.84L581 555.51C582.29 555.51 583.59 555.51 584.88 555.58C586.88 555.713 588.853 555.78 590.8 555.78C606.35 555.78 618.38 551.48 626.62 542.96C633.94 535.38 636.82 525.8 637.94 519.1C638.675 514.852 638.903 510.532 638.62 506.23V506.23C637.52 462.13 622.14 425.28 609.43 402.13C595.62 377 581.93 362.2 581.8 362.05C581.782 362.032 581.768 362.011 581.758 361.988C581.749 361.965 581.744 361.94 581.744 361.915C581.744 361.89 581.749 361.865 581.758 361.842C581.768 361.819 581.782 361.798 581.8 361.78C581.835 361.747 581.882 361.729 581.93 361.729C581.978 361.729 582.025 361.747 582.06 361.78C582.2 361.93 595.91 376.78 609.71 401.92C617.706 416.44 624.222 431.727 629.16 447.55C635.12 466.555 638.431 486.291 639 506.2C639.277 510.529 639.046 514.875 638.31 519.15C637.638 523.277 636.466 527.306 634.82 531.15C632.92 535.594 630.233 539.659 626.89 543.15C618.58 551.74 606.46 556.08 590.8 556.08C588.873 556.08 586.893 556.017 584.86 555.89C583.58 555.8 582.29 555.78 581.01 555.81L495.28 558.14L495.24 558.21Z" fill="black"/>
</g>
<g opacity="0.2">
<path d="M545.93 427.6C545.886 427.601 545.843 427.587 545.808 427.559C545.773 427.532 545.749 427.493 545.74 427.45C544.185 417.6 544.525 407.543 546.74 397.82C548.695 389.121 552.684 381.009 558.38 374.15C565.31 365.98 574.8 360.03 586.6 356.47C586.648 356.458 586.698 356.464 586.741 356.489C586.784 356.513 586.816 356.553 586.83 356.6C586.838 356.623 586.841 356.647 586.839 356.671C586.837 356.696 586.83 356.719 586.819 356.741C586.808 356.762 586.792 356.781 586.774 356.796C586.755 356.812 586.733 356.823 586.71 356.83C560.16 364.83 550.52 383.59 547.11 397.9C544.901 407.573 544.561 417.579 546.11 427.38C546.119 427.429 546.108 427.48 546.08 427.521C546.052 427.562 546.009 427.59 545.96 427.6H545.93Z" fill="black"/>
</g>
<g opacity="0.2">
<path d="M576 356.21C575.954 356.224 575.906 356.224 575.86 356.21C557.29 336.98 535.62 325.61 520.71 319.46C511.625 315.608 502.187 312.647 492.53 310.62C492.502 310.62 492.475 310.614 492.45 310.603C492.425 310.591 492.403 310.574 492.385 310.553C492.367 310.532 492.354 310.508 492.346 310.481C492.339 310.455 492.337 310.427 492.342 310.4C492.346 310.372 492.356 310.346 492.372 310.324C492.387 310.301 492.408 310.281 492.431 310.267C492.455 310.253 492.481 310.244 492.509 310.241C492.536 310.238 492.564 310.241 492.59 310.25C502.274 312.283 511.739 315.25 520.85 319.11C530.234 322.976 539.267 327.643 547.85 333.06C558.142 339.542 567.628 347.222 576.11 355.94C576.128 355.958 576.142 355.979 576.152 356.002C576.161 356.025 576.166 356.05 576.166 356.075C576.166 356.1 576.161 356.125 576.152 356.148C576.142 356.171 576.128 356.192 576.11 356.21C576.074 356.221 576.036 356.221 576 356.21Z" fill="black"/>
</g>
<path d="M524.97 372.84H501.13C498.844 372.84 496.99 374.694 496.99 376.98C496.99 379.266 498.844 381.12 501.13 381.12H524.97C527.256 381.12 529.11 379.266 529.11 376.98C529.11 374.694 527.256 372.84 524.97 372.84Z" fill="white"/>
<path d="M470.69 563.12C460.32 567.85 447.81 563.04 447.81 563.04L432.68 557.33L418.58 552C417.728 551.409 416.741 551.042 415.71 550.932C414.68 550.822 413.638 550.973 412.68 551.37C408.17 552.5 403.15 553.37 403.15 553.37C400.424 553.894 397.769 554.736 395.24 555.88L382.82 562.28C380.651 563.251 378.284 563.7 375.91 563.59C373.536 563.481 371.221 562.816 369.15 561.65C362.37 566.17 356.85 560.65 356.85 560.65C354.72 563.16 353.47 562.84 353.47 562.84L351.16 556.23L365.38 541.33L359.48 544.97C356.285 547.417 352.25 548.496 348.26 547.97L346.13 541.61L371.28 527.61L393.28 524.73C406.58 522.22 415.28 524.6 415.28 524.6L448.4 533.51C455.05 536.39 457.31 534.01 457.31 534.01C473.66 546.36 470.69 563.12 470.69 563.12Z" fill="#F9B499"/>
<path d="M470.69 563.12C460.32 567.85 447.81 563.04 447.81 563.04L432.68 557.33L432.62 557.21C458.84 556.64 457.22 534.06 457.22 534.06C473.66 546.36 470.69 563.12 470.69 563.12Z" fill="#F29681"/>
<path d="M366.76 540.14C366.724 540.149 366.686 540.149 366.65 540.14C366.617 540.105 366.599 540.058 366.599 540.01C366.599 539.962 366.617 539.915 366.65 539.88C366.71 539.79 372.65 531.52 379.7 530.77L396.84 528C396.866 527.991 396.894 527.988 396.921 527.991C396.949 527.994 396.975 528.003 396.999 528.017C397.022 528.031 397.043 528.051 397.058 528.074C397.074 528.096 397.084 528.122 397.088 528.15C397.093 528.177 397.091 528.205 397.084 528.231C397.076 528.258 397.063 528.282 397.045 528.303C397.027 528.324 397.005 528.341 396.98 528.353C396.955 528.364 396.928 528.37 396.9 528.37L379.71 531.13C372.84 531.87 366.97 540 366.92 540.13C366.895 540.143 366.869 540.15 366.841 540.152C366.813 540.153 366.786 540.149 366.76 540.14V540.14Z" fill="#F29681"/>
<path d="M356.85 560.85C356.825 560.851 356.8 560.846 356.778 560.835C356.755 560.825 356.736 560.809 356.72 560.79C356.701 560.773 356.685 560.752 356.675 560.729C356.664 560.706 356.659 560.681 356.659 560.655C356.659 560.63 356.664 560.604 356.675 560.581C356.685 560.558 356.701 560.537 356.72 560.52L376.1 541.6C377.56 540.156 379.374 539.122 381.36 538.6L402.72 533.09C402.744 533.084 402.77 533.083 402.794 533.087C402.819 533.091 402.843 533.099 402.864 533.112C402.885 533.125 402.904 533.142 402.919 533.163C402.934 533.183 402.944 533.206 402.95 533.23C402.962 533.278 402.956 533.328 402.932 533.371C402.907 533.414 402.867 533.446 402.82 533.46L381.46 539C379.538 539.499 377.78 540.492 376.36 541.88L357 560.79C356.983 560.812 356.959 560.83 356.933 560.84C356.907 560.851 356.878 560.854 356.85 560.85V560.85Z" fill="#F29681"/>
<path d="M369 561.6C368.97 561.6 368.941 561.593 368.915 561.579C368.889 561.565 368.866 561.545 368.85 561.52C368.679 561.249 368.568 560.945 368.525 560.627C368.482 560.31 368.508 559.987 368.6 559.68C368.94 558.47 370.14 557.39 372.18 556.47L405.67 538.29C405.89 538.14 409.52 535.88 416.67 536.29C416.694 536.29 416.718 536.295 416.74 536.305C416.762 536.314 416.782 536.329 416.798 536.347C416.814 536.365 416.826 536.386 416.833 536.409C416.841 536.432 416.843 536.456 416.84 536.48C416.84 536.505 416.835 536.529 416.825 536.551C416.816 536.574 416.802 536.594 416.784 536.611C416.766 536.628 416.745 536.641 416.722 536.649C416.699 536.658 416.674 536.661 416.65 536.66C409.53 536.29 405.88 538.66 405.84 538.66L372.34 556.85C370.43 557.7 369.27 558.72 368.97 559.8C368.893 560.054 368.87 560.321 368.901 560.584C368.932 560.847 369.017 561.101 369.15 561.33C369.184 561.367 369.202 561.415 369.202 561.465C369.202 561.515 369.184 561.563 369.15 561.6C369.101 561.617 369.049 561.617 369 561.6Z" fill="#F29681"/>
<path d="M488.19 309.54C482.89 323.15 472.77 326.32 472.77 326.32C452.69 334.12 441.77 319.11 441.77 319.11C441.77 319.11 465.39 336.11 482.83 315C486.42 309.904 489.219 304.294 491.13 298.36C491.13 298.36 489.91 305.59 488.19 309.54Z" fill="#F29681"/>
<path opacity="0.2" d="M434.88 345.78C435.505 348.302 436.348 350.764 437.4 353.14C437.4 353.14 448.31 337.21 455.21 332.06C462.767 340.072 468.429 349.678 471.78 360.17C471.78 360.17 484.11 351.83 487.78 338.68C483.838 344.858 479.036 350.444 473.52 355.27C473.52 355.27 472.52 344.43 455.84 328.14L455.08 327.92C455.08 327.92 442.4 330.9 434.88 345.78Z" fill="black"/>
<path opacity="0.2" d="M398.34 487C398.34 487 412.82 384.76 430.63 342.5C430.63 342.5 426.39 331.93 431.33 316.9C422.541 336.633 416.055 357.312 412 378.53C412 378.53 401.1 432.42 400.07 462.41L398.34 487Z" fill="black"/>
<path d="M191.71 560.28L150.51 456.53C149.618 454.286 149.274 451.862 149.507 449.459C149.739 447.055 150.541 444.742 151.846 442.71C153.152 440.679 154.922 438.988 157.011 437.777C159.101 436.567 161.448 435.872 163.86 435.75L265.86 430.57C274.512 430.129 283.073 432.52 290.244 437.382C297.415 442.243 302.806 449.309 305.6 457.51L341.53 562.86C342.996 567.235 345.882 570.994 349.73 573.54C351.768 574.874 354.011 575.864 356.37 576.47H215.56C210.42 576.47 205.399 574.927 201.147 572.041C196.894 569.154 193.607 565.057 191.71 560.28V560.28Z" fill="#28262C"/>
<path d="M268.77 430.55L289.77 429.9C294.731 429.796 299.598 431.264 303.675 434.093C307.752 436.921 310.83 440.966 312.47 445.65L353.75 563.54H459.45C460.291 563.54 461.124 563.706 461.901 564.028C462.679 564.35 463.385 564.823 463.979 565.418C464.573 566.013 465.045 566.72 465.366 567.498C465.687 568.275 465.851 569.109 465.85 569.95C465.85 571.646 465.177 573.272 463.979 574.472C462.781 575.672 461.156 576.347 459.46 576.35L356.35 576.47C352.943 575.608 349.803 573.913 347.213 571.537C344.623 569.162 342.663 566.18 341.51 562.86L305.58 457.51C305.58 457.51 298.38 432.06 268.77 430.55Z" fill="#28262C"/>
<path opacity="0.2" d="M268.77 430.55L289.77 429.9C294.731 429.796 299.598 431.264 303.675 434.093C307.752 436.921 310.83 440.966 312.47 445.65L353.75 563.54H459.45C460.291 563.54 461.124 563.706 461.901 564.028C462.679 564.35 463.385 564.823 463.979 565.418C464.573 566.013 465.045 566.72 465.366 567.498C465.687 568.275 465.851 569.109 465.85 569.95C465.85 571.646 465.177 573.272 463.979 574.472C462.781 575.672 461.156 576.347 459.46 576.35L356.35 576.47C352.943 575.608 349.803 573.913 347.213 571.537C344.623 569.162 342.663 566.18 341.51 562.86L305.58 457.51C305.58 457.51 298.38 432.06 268.77 430.55Z" fill="black"/>
<path opacity="0.2" d="M247.01 519.13C253.002 519.13 257.86 514.272 257.86 508.28C257.86 502.288 253.002 497.43 247.01 497.43C241.018 497.43 236.16 502.288 236.16 508.28C236.16 514.272 241.018 519.13 247.01 519.13Z" fill="black"/>
<path d="M270.4 275.73H59.5C52.0828 275.73 46.07 281.743 46.07 289.16V457.52C46.07 464.937 52.0828 470.95 59.5 470.95H270.4C277.817 470.95 283.83 464.937 283.83 457.52V289.16C283.83 281.743 277.817 275.73 270.4 275.73Z" fill="#E6E6E6"/>
<path d="M255.66 311.36C253.462 311.36 251.314 310.708 249.487 309.487C247.659 308.266 246.235 306.53 245.395 304.499C244.554 302.469 244.335 300.234 244.764 298.079C245.194 295.923 246.253 293.944 247.808 292.391C249.362 290.837 251.343 289.78 253.499 289.352C255.654 288.925 257.889 289.146 259.919 289.989C261.948 290.831 263.683 292.257 264.902 294.085C266.122 295.913 266.772 298.062 266.77 300.26C266.767 303.205 265.596 306.028 263.512 308.11C261.429 310.191 258.605 311.36 255.66 311.36V311.36ZM255.66 289.65C253.561 289.648 251.509 290.269 249.763 291.433C248.017 292.598 246.655 294.254 245.851 296.193C245.046 298.131 244.834 300.265 245.243 302.324C245.651 304.383 246.661 306.274 248.144 307.759C249.627 309.244 251.518 310.255 253.576 310.665C255.635 311.076 257.769 310.866 259.708 310.063C261.647 309.261 263.305 307.901 264.471 306.156C265.637 304.411 266.26 302.359 266.26 300.26C266.257 297.449 265.14 294.753 263.153 292.764C261.166 290.775 258.471 289.655 255.66 289.65V289.65Z" fill="#D81E5B"/>
<path d="M153.1 334.44H121.73V365.93H153.1V334.44Z" fill="#D81E5B"/>
<path d="M241.8 334.44H163.76V345.61H241.8V334.44Z" fill="#CCCCCC"/>
<path opacity="0.25" d="M266.01 354.77H163.76V365.94H266.01V354.77Z" fill="#D81E5B"/>
<path d="M152.85 391.66H121.48V423.15H152.85V391.66Z" fill="#D81E5B"/>
<path d="M241.55 391.66H163.51V402.83H241.55V391.66Z" fill="#CCCCCC"/>
<path opacity="0.25" d="M265.76 411.98H163.51V423.15H265.76V411.98Z" fill="#D81E5B"/>
<path opacity="0.25" d="M266.02 437.83H121.48V458.78H266.02V437.83Z" fill="#D81E5B"/>
<path d="M275.42 323H119.42C119.354 323 119.29 322.974 119.243 322.927C119.196 322.88 119.17 322.816 119.17 322.75C119.17 322.684 119.196 322.62 119.243 322.573C119.29 322.526 119.354 322.5 119.42 322.5H275.42C275.486 322.5 275.55 322.526 275.597 322.573C275.644 322.62 275.67 322.684 275.67 322.75C275.67 322.816 275.644 322.88 275.597 322.927C275.55 322.974 275.486 323 275.42 323Z" fill="#CCCCCC"/>
<path d="M275 378.11H119C118.941 378.098 118.888 378.066 118.85 378.02C118.812 377.973 118.791 377.915 118.791 377.855C118.791 377.795 118.812 377.737 118.85 377.69C118.888 377.644 118.941 377.612 119 377.6H275C275.038 377.593 275.077 377.593 275.114 377.603C275.151 377.612 275.186 377.63 275.216 377.654C275.245 377.678 275.269 377.709 275.286 377.744C275.302 377.779 275.311 377.817 275.311 377.855C275.311 377.893 275.302 377.931 275.286 377.966C275.269 378.001 275.245 378.032 275.216 378.056C275.186 378.08 275.151 378.098 275.114 378.107C275.077 378.117 275.038 378.117 275 378.11V378.11Z" fill="#CCCCCC"/>
<path d="M147.7 528.79V554.26C147.763 557.216 147.235 560.154 146.147 562.903C145.059 565.652 143.434 568.156 141.366 570.269C139.297 572.381 136.828 574.059 134.103 575.205C131.378 576.351 128.451 576.941 125.495 576.941C122.539 576.941 119.612 576.351 116.887 575.205C114.162 574.059 111.693 572.381 109.624 570.269C107.556 568.156 105.931 565.652 104.843 562.903C103.755 560.154 103.227 557.216 103.29 554.26V528.79H147.7Z" fill="#28262C"/>
<path opacity="0.2" d="M147.7 538V554.28C147.693 559.045 146.153 563.682 143.308 567.505C140.463 571.328 136.463 574.135 131.901 575.51C127.338 576.886 122.454 576.757 117.97 575.144C113.486 573.53 109.64 570.517 107 566.55C113.38 567.33 137.41 568.11 147.7 537.98V538Z" fill="black"/>
<path d="M104.68 561.1H102.88C99.6693 561.009 96.6209 559.669 94.3822 557.366C92.1436 555.062 90.8912 551.977 90.8912 548.765C90.8912 545.553 92.1436 542.468 94.3822 540.164C96.6209 537.861 99.6693 536.521 102.88 536.43H103.27H103.6V554.28C103.61 556.461 103.947 558.629 104.6 560.71L104.68 561.1ZM102.88 537.1C99.8348 537.189 96.9443 538.461 94.8218 540.647C92.6994 542.832 91.5121 545.759 91.5121 548.805C91.5121 551.851 92.6994 554.778 94.8218 556.963C96.9443 559.149 99.8348 560.421 102.88 560.51H103.88C103.3 558.491 103.007 556.401 103.01 554.3V537.1H102.88Z" fill="#28262C"/>
<path d="M45.7 580.61H594.86V592.87C594.865 594.724 594.505 596.56 593.799 598.274C593.093 599.988 592.056 601.546 590.747 602.859C589.438 604.172 587.883 605.213 586.171 605.924C584.459 606.634 582.624 607 580.77 607H45.7V580.61Z" fill="#9EA0A3"/>
<path d="M831.92 575.84H594.42C590.018 575.84 586.45 579.406 586.45 583.805C586.45 588.204 590.018 591.77 594.42 591.77H831.92C836.322 591.77 839.89 588.204 839.89 583.805C839.89 579.406 836.322 575.84 831.92 575.84Z" fill="#9EA0A3"/>
<path d="M835.88 519.35V527.2C835.88 540.1 830.755 552.472 821.634 561.594C812.512 570.715 800.14 575.84 787.24 575.84H770.84C757.94 575.84 745.568 570.715 736.446 561.594C727.325 552.472 722.2 540.1 722.2 527.2V519.35C722.2 518.626 722.488 517.932 723 517.42C723.512 516.908 724.206 516.62 724.93 516.62H833.15C833.702 516.622 834.24 516.79 834.694 517.103C835.149 517.415 835.499 517.856 835.7 518.37C835.816 518.684 835.876 519.015 835.88 519.35Z" fill="#28262C"/>
<path opacity="0.2" d="M835.88 519.35V527.2C835.88 540.1 830.755 552.472 821.634 561.594C812.512 570.715 800.14 575.84 787.24 575.84H770.84C760.177 575.846 749.81 572.331 741.35 565.84C757.35 569.19 812.35 575.95 835.7 518.33C835.82 518.657 835.881 519.002 835.88 519.35V519.35Z" fill="black"/>
<g opacity="0.2">
<path d="M832.62 525.03H725.97V525.53H832.62V525.03Z" fill="black"/>
</g>
<g opacity="0.2">
<path d="M829.41 530.92H728.54V531.42H829.41V530.92Z" fill="black"/>
</g>
<path d="M734.37 516.62V476.26C734.36 475.094 734.626 473.942 735.148 472.899C735.669 471.856 736.431 470.951 737.37 470.26C739.138 469.04 741.31 468.552 743.43 468.9C743.43 468.9 748.43 468.78 750.96 476.06V416.62C750.973 412.74 752.523 409.023 755.271 406.283C758.018 403.543 761.74 402.003 765.62 402V402C769.511 402 773.242 403.546 775.993 406.297C778.744 409.048 780.29 412.779 780.29 416.67V516.59L734.37 516.62Z" fill="#D81E5B"/>
<path d="M794.41 426.79C798.152 426.79 801.741 428.277 804.387 430.923C807.033 433.569 808.52 437.158 808.52 440.9V516.49H780.29V440.9C780.29 439.046 780.655 437.211 781.365 435.498C782.075 433.785 783.115 432.23 784.426 430.919C785.738 429.609 787.294 428.57 789.007 427.861C790.72 427.153 792.556 426.789 794.41 426.79V426.79Z" fill="#D81E5B"/>
<path opacity="0.2" d="M794.41 426.79C798.152 426.79 801.741 428.277 804.387 430.923C807.033 433.569 808.52 437.158 808.52 440.9V516.49H780.29V440.9C780.29 439.046 780.655 437.211 781.365 435.498C782.075 433.785 783.115 432.23 784.426 430.919C785.738 429.609 787.294 428.57 789.007 427.861C790.72 427.153 792.556 426.789 794.41 426.79V426.79Z" fill="black"/>
<path d="M816.37 459.53C817.4 459.53 818.419 459.733 819.37 460.127C820.321 460.521 821.186 461.098 821.914 461.826C822.642 462.554 823.219 463.419 823.613 464.37C824.007 465.321 824.21 466.34 824.21 467.37V516.49H808.52V467.38C808.519 466.349 808.721 465.327 809.115 464.374C809.509 463.421 810.087 462.555 810.816 461.826C811.545 461.097 812.411 460.519 813.364 460.125C814.317 459.731 815.339 459.529 816.37 459.53V459.53Z" fill="#D81E5B"/>
<g opacity="0.2">
<path d="M742.78 477.22H742.28V516.11H742.78V477.22Z" fill="black"/>
</g>
<g opacity="0.2">
<path d="M765.86 418.32H765.36V516.68H765.86V418.32Z" fill="black"/>
</g>
<g opacity="0.2">
<path d="M816.43 469.13H815.93V516.68H816.43V469.13Z" fill="black"/>
</g>
<path d="M675.34 172.85C659.749 172.878 644.515 177.527 631.565 186.209C618.615 194.892 608.529 207.218 602.582 221.631C596.635 236.044 595.094 251.896 598.153 267.184C601.213 282.473 608.735 296.511 619.771 307.525C630.806 318.54 644.859 326.036 660.153 329.066C675.447 332.096 691.296 330.525 705.698 324.551C720.099 318.576 732.406 308.467 741.064 295.5C749.722 282.534 754.342 267.291 754.34 251.7C754.332 241.335 752.282 231.073 748.308 221.5C744.333 211.927 738.511 203.231 731.175 195.909C723.839 188.587 715.132 182.782 705.551 178.825C695.971 174.869 685.705 172.838 675.34 172.85V172.85ZM674.4 323.4C634.14 323.4 601.51 291.22 601.51 251.51C601.51 211.8 634.14 179.62 674.4 179.62C714.66 179.62 747.3 211.81 747.3 251.51C747.3 291.21 714.66 323.4 674.4 323.4Z" fill="#28262C"/>
<path d="M741.23 303.75C753.991 287.4 760.228 266.895 758.731 246.209C757.234 225.523 748.11 206.129 733.128 191.787C718.145 177.445 698.372 169.177 677.64 168.584C656.908 167.992 636.695 175.118 620.918 188.581C605.141 202.044 594.925 220.885 592.249 241.452C589.573 262.019 594.628 282.846 606.435 299.898C618.242 316.95 635.959 329.011 656.153 333.743C676.346 338.475 697.577 335.541 715.73 325.51L707.87 310.22C693.475 318.318 676.593 320.806 660.474 317.205C644.354 313.603 630.137 304.167 620.557 290.712C610.977 277.257 606.713 260.734 608.584 244.324C610.455 227.914 618.33 212.775 630.693 201.822C643.056 190.87 659.033 184.876 675.549 184.996C692.066 185.117 707.954 191.341 720.157 202.472C732.359 213.604 740.013 228.855 741.646 245.291C743.278 261.727 738.774 278.186 729 291.5L741.23 303.75Z" fill="#D81E5B"/>
<path d="M694.47 294.55H657.21C656.448 294.55 655.83 295.168 655.83 295.93C655.83 296.692 656.448 297.31 657.21 297.31H694.47C695.232 297.31 695.85 296.692 695.85 295.93C695.85 295.168 695.232 294.55 694.47 294.55Z" fill="#28262C"/>
<path d="M668 279.62H682.93L675.53 266.57L668 279.62Z" fill="#D81E5B"/>
<path d="M677.67 244.86H673.4V259.66H677.67V244.86Z" fill="#28262C"/>
<path d="M705.52 244.99H701.25V259.79H705.52V244.99Z" fill="#28262C"/>
<path d="M733.12 244.99H728.85V259.79H733.12V244.99Z" fill="#28262C"/>
<path d="M684.07 248.13H682.31V256.54H684.07V248.13Z" fill="#28262C"/>
<path d="M689.96 248.13H688.2V256.54H689.96V248.13Z" fill="#28262C"/>
<path d="M695.73 248.13H693.97V256.54H695.73V248.13Z" fill="#28262C"/>
<path d="M712.05 248H710.29V256.41H712.05V248Z" fill="#28262C"/>
<path d="M717.94 248H716.18V256.41H717.94V248Z" fill="#28262C"/>
<path d="M723.71 248H721.95V256.41H723.71V248Z" fill="#28262C"/>
<path d="M739.52 248.13H737.76V256.54H739.52V248.13Z" fill="#28262C"/>
<path d="M677.16 153.15H671.64V170.21H677.16V153.15Z" fill="#28262C"/>
<path d="M720.95 353.89H632.37C627.035 353.89 622.71 358.215 622.71 363.55C622.71 368.885 627.035 373.21 632.37 373.21H720.95C726.285 373.21 730.61 368.885 730.61 363.55C730.61 358.215 726.285 353.89 720.95 353.89Z" fill="#CCCCCC"/>
<path d="M619.45 378.17H619.39C619.342 378.154 619.303 378.12 619.28 378.075C619.258 378.03 619.254 377.978 619.27 377.93C630.39 345.3 616.39 321.42 602.7 307.13C596.117 300.383 588.728 294.471 580.7 289.53C577.244 287.364 573.657 285.414 569.96 283.69C551.69 274.74 532.71 256.1 532.52 255.91C532.487 255.875 532.469 255.828 532.469 255.78C532.469 255.732 532.487 255.685 532.52 255.65C532.537 255.631 532.558 255.616 532.581 255.605C532.604 255.594 532.629 255.589 532.655 255.589C532.681 255.589 532.706 255.594 532.729 255.605C532.752 255.616 532.773 255.631 532.79 255.65C532.98 255.83 551.91 274.43 570.12 283.35C573.831 285.072 577.428 287.029 580.89 289.21C588.959 294.156 596.386 300.081 603 306.85C611.76 315.99 617.83 325.94 621 336.43C625 349.55 624.55 363.55 619.62 378.04C619.608 378.076 619.585 378.108 619.555 378.131C619.525 378.154 619.488 378.168 619.45 378.17V378.17Z" fill="#28262C"/>
<path d="M571.57 170.96H391.29C385.64 170.96 381.06 175.538 381.06 181.185C381.06 186.832 385.64 191.41 391.29 191.41H571.57C577.22 191.41 581.8 186.832 581.8 181.185C581.8 175.538 577.22 170.96 571.57 170.96Z" fill="#CCCCCC"/>
<path d="M491.6 221.15L491.1 235.33V240.33C483.81 282.06 455 285.51 455 285.51C428.59 289.76 416.57 273.15 411.47 261.51C409.194 256.366 408.012 250.805 408 245.18V205.42L417.79 204.97C417.79 204.97 421.79 183.64 435.1 173.35C435.1 173.35 429.33 188.28 428.33 203.35H449.78C449.78 203.35 451.54 178.64 448.15 169.98C448.28 170.13 456.57 179.57 458.44 202.22H477.01C477.01 202.22 477.63 188.55 471.11 178.89C471.11 178.89 476.88 183.89 480.39 197.21C480.43 197.19 486.58 215.38 491.6 221.15Z" fill="#F9B499"/>
<path d="M491.6 221.15V222.25L491.53 222.39C482.65 218.87 476.71 207.98 476.71 207.98L458.27 208.48L453.87 198.32L453.37 208.73L425.52 209.11C424.823 206.157 424.758 203.09 425.33 200.11C422.522 202.771 420.675 206.288 420.08 210.11H408V205.38L417.79 204.93C417.79 204.93 421.79 183.6 435.1 173.31C435.1 173.31 429.33 188.24 428.33 203.31H449.78C449.78 203.31 451.54 178.6 448.15 169.94C448.28 170.09 456.57 179.53 458.44 202.18H477.01C477.01 202.18 477.63 188.51 471.11 178.85C471.11 178.85 476.88 183.85 480.39 197.17C480.43 197.19 486.58 215.38 491.6 221.15Z" fill="#F29681"/>
<path d="M605.15 379.24C565.62 312.99 491.15 302.08 491.15 302.08V235.33L491.65 221.15C486.65 215.38 480.48 197.15 480.48 197.15C476.97 183.85 471.2 178.83 471.2 178.83C477.72 188.49 477.1 202.16 477.1 202.16H458.48C456.61 179.51 448.32 170.07 448.19 169.92C451.58 178.58 449.82 203.29 449.82 203.29H428.37C429.37 188.24 435.14 173.29 435.14 173.29C421.84 183.64 417.83 205 417.83 205L408.04 205.45L396.12 206C399.01 180 409.17 168.48 409.17 168.48C394.96 180.61 392.74 200.76 392.41 205.48C392.394 205.764 392.273 206.031 392.07 206.23C391.875 206.437 391.613 206.568 391.33 206.6C391.158 206.619 390.984 206.6 390.82 206.546C390.655 206.492 390.505 206.403 390.378 206.285C390.251 206.168 390.15 206.024 390.083 205.865C390.017 205.705 389.985 205.533 389.99 205.36C390.63 177.22 414.56 160.7 414.56 160.7C430.87 146.64 444.42 152.29 444.42 152.29C432.76 139.74 445.3 131.46 445.3 131.46C442.3 146.27 452.58 150.78 452.58 150.78C509.16 130.08 518.45 207.87 518.45 207.87L520.33 228.32C522.08 246.64 542.2 267.75 554.33 278.91C558.459 282.696 562.825 286.217 567.4 289.45C583.58 300.94 596.14 318.66 596.14 318.66C623.21 351.76 605.15 379.24 605.15 379.24Z" fill="#28262C"/>
<path d="M479.37 223.22L494.37 219.06C494.535 219.016 494.708 219.007 494.877 219.035C495.046 219.063 495.207 219.126 495.35 219.22C495.493 219.315 495.614 219.439 495.705 219.583C495.796 219.728 495.856 219.891 495.88 220.06C495.925 220.35 495.863 220.646 495.704 220.893C495.546 221.14 495.302 221.32 495.02 221.4L480.37 225.62L479.37 223.22Z" fill="#D81E5B"/>
<path d="M498.63 247.5C506.252 247.5 512.43 241.236 512.43 233.51C512.43 225.784 506.252 219.52 498.63 219.52C491.008 219.52 484.83 225.784 484.83 233.51C484.83 241.236 491.008 247.5 498.63 247.5Z" fill="#F9B499"/>
<path d="M455.09 327.92C449.921 329.681 445.238 332.631 441.417 336.532C437.596 340.432 434.744 345.176 433.09 350.38C422.09 323.91 436.24 308.03 436.24 308.03C437.405 312.687 439.753 316.964 443.055 320.449C446.357 323.933 450.502 326.506 455.09 327.92V327.92Z" fill="#D81E5B"/>
<path opacity="0.4" d="M455.09 327.92C449.921 329.681 445.238 332.631 441.417 336.532C437.596 340.432 434.744 345.176 433.09 350.38C422.09 323.91 436.24 308.03 436.24 308.03C437.405 312.687 439.753 316.964 443.055 320.449C446.357 323.933 450.502 326.506 455.09 327.92V327.92Z" fill="white"/>
<path d="M455.85 328.14C455.85 328.14 471.78 343.35 473.53 355.27C473.53 355.27 487.37 343.19 490.8 332.27C490.8 332.27 495.36 315.27 490.34 301.74C490.34 301.7 486.6 332.13 455.85 328.14Z" fill="#D81E5B"/>
<path opacity="0.4" d="M455.85 328.14C455.85 328.14 471.78 343.35 473.53 355.27C473.53 355.27 487.37 343.19 490.8 332.27C490.8 332.27 495.36 315.27 490.34 301.74C490.34 301.7 486.6 332.13 455.85 328.14Z" fill="white"/>
<path d="M610.1 575.84H33.84C29.4383 575.84 25.87 579.406 25.87 583.805C25.87 588.204 29.4383 591.77 33.84 591.77H610.1C614.502 591.77 618.07 588.204 618.07 583.805C618.07 579.406 614.502 575.84 610.1 575.84Z" fill="#E1E1E2"/>
<path d="M103.47 275.79V471H58.31C54.7481 471 51.3322 469.585 48.8136 467.066C46.2949 464.548 44.88 461.132 44.88 457.57V289.22C44.88 285.658 46.2949 282.242 48.8136 279.724C51.3322 277.205 54.7481 275.79 58.31 275.79H103.47Z" fill="#D81E5B"/>
<path d="M78.88 315.63H53.91C51.8665 315.63 50.21 317.287 50.21 319.33C50.21 321.373 51.8665 323.03 53.91 323.03H78.88C80.9234 323.03 82.58 321.373 82.58 319.33C82.58 317.287 80.9234 315.63 78.88 315.63Z" fill="white"/>
<path d="M55.8 292.67C57.4292 292.67 58.75 291.349 58.75 289.72C58.75 288.091 57.4292 286.77 55.8 286.77C54.1708 286.77 52.85 288.091 52.85 289.72C52.85 291.349 54.1708 292.67 55.8 292.67Z" fill="white"/>
<path d="M64.96 292.79C66.5893 292.79 67.91 291.469 67.91 289.84C67.91 288.211 66.5893 286.89 64.96 286.89C63.3308 286.89 62.01 288.211 62.01 289.84C62.01 291.469 63.3308 292.79 64.96 292.79Z" fill="white"/>
<path d="M74.11 292.92C75.7392 292.92 77.06 291.599 77.06 289.97C77.06 288.341 75.7392 287.02 74.11 287.02C72.4808 287.02 71.16 288.341 71.16 289.97C71.16 291.599 72.4808 292.92 74.11 292.92Z" fill="white"/>
<path d="M79.07 333.06H58.37C58.3037 333.06 58.2401 333.034 58.1932 332.987C58.1463 332.94 58.12 332.876 58.12 332.81C58.12 332.744 58.1463 332.68 58.1932 332.633C58.2401 332.586 58.3037 332.56 58.37 332.56H79.07C79.1363 332.56 79.1999 332.586 79.2468 332.633C79.2937 332.68 79.32 332.744 79.32 332.81C79.32 332.876 79.2937 332.94 79.2468 332.987C79.1999 333.034 79.1363 333.06 79.07 333.06Z" fill="white"/>
<path d="M79 343.73H58.31C58.2437 343.73 58.1801 343.704 58.1332 343.657C58.0863 343.61 58.06 343.546 58.06 343.48C58.06 343.414 58.0863 343.35 58.1332 343.303C58.1801 343.256 58.2437 343.23 58.31 343.23H79C79.0663 343.23 79.1299 343.256 79.1768 343.303C79.2237 343.35 79.25 343.414 79.25 343.48C79.25 343.546 79.2237 343.61 79.1768 343.657C79.1299 343.704 79.0663 343.73 79 343.73Z" fill="white"/>
<path d="M79 354H58.31C58.2437 354 58.1801 353.974 58.1332 353.927C58.0863 353.88 58.06 353.816 58.06 353.75C58.06 353.684 58.0863 353.62 58.1332 353.573C58.1801 353.526 58.2437 353.5 58.31 353.5H79C79.0663 353.5 79.1299 353.526 79.1768 353.573C79.2237 353.62 79.25 353.684 79.25 353.75C79.25 353.816 79.2237 353.88 79.1768 353.927C79.1299 353.974 79.0663 354 79 354Z" fill="white"/>
<g opacity="0.2">
<path d="M794.79 440.4H794.66V516.31H794.79V440.4Z" fill="black"/>
</g>
<path d="M645.67 167.2L658.22 177.61L655.46 197.31L675.22 185.02L693.6 197.31L689.71 177.87L703.13 167.2H645.67Z" fill="#D81E5B"/>
<path opacity="0.2" d="M645.67 167.2L658.22 177.61L655.46 197.31L675.22 185.02L693.6 197.31L689.71 177.87L703.13 167.2H645.67Z" fill="black"/>
<path opacity="0.32" d="M431.788 228.05C431.849 218.424 424.063 210.571 414.398 210.511C404.733 210.45 396.85 218.204 396.789 227.83C396.729 237.457 404.514 245.309 414.179 245.37C423.844 245.431 431.728 237.676 431.788 228.05Z" fill="white"/>
<path opacity="0.32" d="M478.906 228.039C478.966 218.573 471.314 210.851 461.814 210.792C452.315 210.732 444.567 218.357 444.507 227.823C444.448 237.289 452.1 245.011 461.599 245.071C471.098 245.131 478.847 237.505 478.906 228.039Z" fill="white"/>
<path d="M461.74 208.86C457.132 208.854 452.677 210.518 449.202 213.544C445.727 216.571 443.467 220.754 442.84 225.32V225.32C438.84 222.06 433.84 224.65 433.2 225.03C432.438 220.181 429.83 215.814 425.92 212.846C422.011 209.877 417.104 208.537 412.228 209.106C407.353 209.675 402.886 212.109 399.765 215.897C396.644 219.686 395.11 224.536 395.486 229.43C395.861 234.325 398.116 238.884 401.778 242.153C405.44 245.421 410.225 247.146 415.131 246.965C420.036 246.784 424.681 244.711 428.092 241.182C431.504 237.652 433.417 232.939 433.43 228.03C438.08 224.2 442.72 227.9 442.72 227.9C442.706 231.675 443.813 235.368 445.9 238.514C447.987 241.659 450.96 244.114 454.444 245.568C457.927 247.022 461.763 247.41 465.467 246.682C469.171 245.954 472.576 244.143 475.25 241.479C477.924 238.815 479.747 235.417 480.488 231.716C481.23 228.015 480.856 224.177 479.415 220.688C477.974 217.2 475.53 214.217 472.392 212.119C469.254 210.02 465.565 208.9 461.79 208.9L461.74 208.86ZM414.31 244.61C411.023 244.598 407.813 243.612 405.085 241.777C402.358 239.941 400.236 237.339 398.987 234.298C397.738 231.257 397.418 227.914 398.068 224.692C398.718 221.469 400.309 218.512 402.639 216.193C404.969 213.874 407.934 212.297 411.16 211.663C414.386 211.028 417.727 211.364 420.762 212.627C423.797 213.891 426.389 216.026 428.211 218.762C430.033 221.498 431.004 224.713 431 228C430.995 230.187 430.559 232.351 429.717 234.369C428.876 236.387 427.645 238.219 426.095 239.762C424.545 241.304 422.707 242.526 420.685 243.358C418.663 244.19 416.497 244.615 414.31 244.61V244.61ZM461.74 244.49C458.453 244.478 455.244 243.493 452.517 241.658C449.79 239.824 447.668 237.222 446.419 234.183C445.169 231.143 444.848 227.801 445.497 224.579C446.145 221.357 447.734 218.4 450.062 216.08C452.39 213.76 455.353 212.182 458.578 211.545C461.802 210.908 465.143 211.241 468.178 212.502C471.213 213.762 473.807 215.894 475.631 218.627C477.456 221.361 478.43 224.573 478.43 227.86C478.426 230.048 477.991 232.213 477.15 234.233C476.309 236.253 475.079 238.087 473.529 239.632C471.979 241.176 470.141 242.4 468.118 243.233C466.095 244.067 463.928 244.494 461.74 244.49V244.49Z" fill="#D81E5B"/>
<path opacity="0.2" d="M579.66 487.11C577.087 486.57 574.6 485.678 572.27 484.46C565.402 480.719 559.992 474.777 556.91 467.59L547.81 434.32L548.94 473.08C549.31 502.82 520.33 512.23 520.33 512.23L457.22 534.06C480.43 552 467 576.47 467 576.47H487.78C501.91 546.1 479.54 528.93 479.54 528.93C512.92 514.5 566.37 502.2 566.37 502.2C595.22 494.2 607.77 500.32 607.77 500.32C599.473 493.924 589.879 489.416 579.66 487.11V487.11Z" fill="black"/>
<path d="M482.13 569.69C483.826 569.69 485.2 568.316 485.2 566.62C485.2 564.924 483.826 563.55 482.13 563.55C480.434 563.55 479.06 564.924 479.06 566.62C479.06 568.316 480.434 569.69 482.13 569.69Z" fill="#28262C"/>
</svg>
