<svg width="286" height="298" viewBox="0 0 286 298" fill="none" xmlns="http://www.w3.org/2000/svg">
<path d="M155 116.998L155 10.9998C155 7.13385 158.134 3.99985 162 3.99985L168.125 3.99985L177.717 3.99985C178.238 3.99985 178.756 4.05781 179.263 4.17265L190.559 6.73014C191.347 6.90858 192.098 7.22212 192.779 7.65687L202.429 13.8163C203.137 14.2683 203.758 14.8439 204.262 15.5158L210.484 23.808C210.941 24.4182 211.296 25.099 211.535 25.8237L218 45.4994M194.9 90.6379L202.745 90.6379C204.456 90.6379 206.107 90.0117 207.387 88.8776L215.642 81.5651C217.141 80.2365 218 78.329 218 76.3254L218 68.8457L218 56.6209L218 45.4994M194.9 90.6379L190.713 86.3985C189.68 85.3535 188.346 84.6596 186.897 84.4152L184.56 84.0209C183.421 83.8287 182.252 83.9214 181.157 84.2908L179.111 84.9816C177.448 85.5428 176.056 86.708 175.212 88.2466L174.763 89.0648C174.197 90.0968 173.9 91.255 173.9 92.4323L173.9 93.2008C173.9 94.6459 174.347 96.0555 175.18 97.2362L175.31 97.4197C176.102 98.5432 177.208 99.4084 178.489 99.9073L181.263 100.987C182.621 101.516 184.109 101.608 185.521 101.25L187.55 100.737L189.177 100.119C190.831 99.4913 192.185 98.2606 192.969 96.6746L193.513 95.5726C193.737 95.1189 193.911 94.6423 194.032 94.1511L194.9 90.6379ZM240 148L246.341 153.072C247.105 153.683 247.733 154.448 248.183 155.316L253.791 166.133C254.258 167.033 254.524 168.024 254.57 169.037L255.017 178.866C255.245 183.894 260.546 187.045 265.072 184.843L272.041 181.452C273.317 180.831 274.374 179.837 275.072 178.602L279.715 170.387C280.232 169.473 280.536 168.455 280.606 167.408L281.5 153.999L281.5 140.999L281.5 133.202C281.5 132.083 281.232 130.98 280.718 129.986L274.94 118.815C274.326 117.629 273.386 116.642 272.229 115.973L265.848 112.279C264.96 111.765 263.97 111.453 262.948 111.364L259.394 111.055C255.776 110.74 253 107.712 253 104.081L253 84.9862C253 84.1541 252.852 83.3287 252.562 82.5487L244.744 61.502C244.259 60.1966 243.396 59.0654 242.264 58.2532L226.33 46.8131C225.14 45.9589 223.712 45.4994 222.247 45.4994L218 45.4994M240 148L233.857 152.388C233.289 152.793 232.663 153.112 232.001 153.333L228.332 154.556C226.523 155.159 224.546 154.998 222.858 154.109L219.74 152.468C217.44 151.258 216 148.872 216 146.274L216 143.661C216 141.946 216.629 140.291 217.769 139.01L219.19 137.41C219.726 136.808 220.362 136.302 221.07 135.916L222.607 135.077C224.439 134.078 226.622 133.948 228.559 134.723L231.466 135.886C232.475 136.289 233.376 136.922 234.098 137.734L236.245 140.15C236.745 140.712 237.151 141.352 237.448 142.043L240 148ZM218 54.9993L218 45.4994" stroke="#DC2360" stroke-width="8"/>
<path d="M255.072 178.5L255.072 219.052C255.072 220.637 254.534 222.175 253.546 223.415L248.409 229.859C247.81 230.612 247.061 231.232 246.211 231.683L240.202 234.864C239.408 235.284 238.541 235.548 237.647 235.64L225.278 236.92C224.761 236.973 224.24 236.969 223.724 236.907L212.999 235.62C212.336 235.54 211.689 235.367 211.075 235.104L203.562 231.884C202.221 231.309 201.093 230.33 200.336 229.083L193 217M193 217L197.79 211.473C198.893 210.201 199.5 208.573 199.5 206.889L199.5 204.613C199.5 199.864 194.871 196.493 190.351 197.951L186.881 199.071C185.043 199.664 183.531 200.99 182.704 202.736L182.309 203.571C180.729 206.906 182.01 210.894 185.235 212.686L193 217Z" stroke="#DC2360" stroke-width="8"/>
<path d="M224 236L224 251.5L224 263.167C224 264.681 223.509 266.155 222.6 267.367L214.453 278.229C213.826 279.066 213.019 279.751 212.091 280.235L203.522 284.706C202.522 285.228 201.411 285.5 200.284 285.5L192.342 285.5C190.019 285.5 187.927 284.094 187.051 281.942V281.942C184.753 276.303 176.403 277.692 176.056 283.772L175.851 287.35C175.654 290.802 172.797 293.5 169.34 293.5L164 293.5C160.134 293.5 157 290.366 157 286.5L157 165.046C157 164.028 157.222 163.022 157.651 162.098L162.978 150.625C163.323 149.881 163.797 149.203 164.377 148.623L174.988 138.012C175.328 137.672 175.703 137.367 176.107 137.103L188.5 129M188.5 129L188.5 126.4C188.5 124.543 189.237 122.763 190.55 121.45L190.89 121.11C192.791 119.209 195.614 118.565 198.152 119.453L199.504 119.927C202.217 120.876 204.074 123.387 204.187 126.259L204.252 127.92C204.507 134.434 196.502 137.73 192.097 132.924L188.5 129Z" stroke="#DC2360" stroke-width="8"/>
<path d="M130.5 116.998L130.5 11C130.5 7.13401 127.366 4 123.5 4L117.375 4L107.783 4C107.262 4 106.744 4.05796 106.237 4.1728L94.9411 6.73029C94.153 6.90873 93.4017 7.22227 92.7206 7.65702L83.0707 13.8165C82.3627 14.2684 81.7418 14.8441 81.2377 15.516L75.0163 23.8082C74.5585 24.4183 74.2035 25.0992 73.9654 25.8239L67.5 45.4996M90.6 90.638L82.7546 90.638C81.0443 90.638 79.3932 90.0119 78.1129 88.8778L69.8583 81.5653C68.3585 80.2367 67.5 78.3291 67.5 76.3256L67.5 68.8458L67.5 56.6211L67.5 45.4996M90.6 90.638L94.7873 86.3987C95.8195 85.3536 97.1544 84.6598 98.6028 84.4154L100.94 84.0211C102.079 83.8288 103.248 83.9216 104.343 84.291L106.389 84.9817C108.052 85.5429 109.444 86.7082 110.288 88.2467L110.737 89.0649C111.303 90.097 111.6 91.2552 111.6 92.4324L111.6 93.201C111.6 94.646 111.153 96.0556 110.32 97.2364L110.19 97.4199C109.398 98.5433 108.292 99.4085 107.011 99.9074L104.237 100.988C102.879 101.516 101.391 101.608 99.9791 101.251L97.95 100.737L96.323 100.119C94.6693 99.4915 93.3146 98.2608 92.5313 96.6747L91.9871 95.5728C91.763 95.1191 91.5888 94.6425 91.4675 94.1512L90.6 90.638ZM45.5 148L39.1588 153.072C38.3947 153.683 37.7673 154.448 37.317 155.316L31.7085 166.133C31.2417 167.033 30.9761 168.024 30.9301 169.037L30.4833 178.866C30.2548 183.894 24.9537 187.045 20.4279 184.843L13.4592 181.452C12.1832 180.831 11.1261 179.837 10.4279 178.602L5.7845 170.387C5.2681 169.473 4.96374 168.455 4.89393 167.408L3.99999 153.999L3.99999 140.999L3.99999 133.202C3.99999 132.083 4.26829 130.98 4.78241 129.986L10.5601 118.816C11.1738 117.629 12.1144 116.643 13.2707 115.973L19.6516 112.279C20.5397 111.765 21.5299 111.453 22.5522 111.364L26.1064 111.055C29.7237 110.74 32.5 107.712 32.5 104.081L32.5 84.9863C32.5 84.1543 32.6483 83.3288 32.9381 82.5489L40.756 61.5022C41.241 60.1967 42.1043 59.0656 43.2355 58.2534L59.1702 46.8133C60.36 45.959 61.7878 45.4996 63.2526 45.4996L67.5 45.4996M45.5 148L51.6435 152.388C52.2113 152.794 52.8366 153.112 53.4986 153.333L57.1679 154.556C58.9771 155.159 60.9541 154.998 62.6417 154.109L65.7602 152.468C68.0601 151.258 69.5 148.873 69.5 146.274L69.5 143.661C69.5 141.946 68.8707 140.291 67.7315 139.01L66.3097 137.41C65.7739 136.808 65.1381 136.302 64.4302 135.916L62.8925 135.077C61.0606 134.078 58.8783 133.948 56.9408 134.723L54.034 135.886C53.0252 136.29 52.1242 136.922 51.4023 137.734L49.255 140.15C48.7549 140.712 48.3488 141.352 48.0524 142.043L45.5 148ZM67.5 54.9995L67.5 45.4996" stroke="#DC2360" stroke-width="8"/>
<path d="M30.4278 178.5L30.4278 219.052C30.4278 220.637 30.9659 222.175 31.9539 223.415L37.0907 229.859C37.6904 230.612 38.4389 231.233 39.2893 231.683L45.2979 234.864C46.0919 235.284 46.9593 235.548 47.8529 235.64L60.2221 236.92C60.7391 236.973 61.2604 236.969 61.7764 236.907L72.5012 235.62C73.1636 235.541 73.8113 235.367 74.4246 235.104L81.9381 231.884C83.2791 231.309 84.407 230.33 85.1642 229.083L92.5 217M92.5 217L87.7102 211.473C86.6072 210.201 86 208.573 86 206.889L86 204.613C86 199.864 90.629 196.493 95.149 197.951L98.6188 199.071C100.457 199.664 101.969 200.99 102.796 202.736L103.191 203.571C104.771 206.906 103.49 210.894 100.265 212.686L92.5 217Z" stroke="#DC2360" stroke-width="8"/>
<path d="M61.5 236L61.5 251.5L61.5 263.167C61.5 264.681 61.9912 266.155 62.9 267.367L71.0466 278.229C71.6742 279.066 72.4813 279.751 73.4087 280.235L81.9783 284.706C82.978 285.228 84.0888 285.5 85.2163 285.5L93.1585 285.5C95.4813 285.5 97.573 284.094 98.4494 281.943V281.943C100.747 276.303 109.097 277.692 109.444 283.772L109.649 287.35C109.846 290.802 112.703 293.5 116.16 293.5L121.5 293.5C125.366 293.5 128.5 290.366 128.5 286.5L128.5 165.046C128.5 164.028 128.278 163.022 127.849 162.098L122.522 150.625C122.177 149.881 121.703 149.203 121.123 148.623L110.512 138.013C110.172 137.672 109.797 137.367 109.393 137.104L97 129M97 129L97 126.4C97 124.543 96.2625 122.763 94.9498 121.45L94.6104 121.111C92.7089 119.209 89.8863 118.565 87.3482 119.453L85.9955 119.927C83.2827 120.876 81.426 123.387 81.3134 126.259L81.2483 127.92C80.9928 134.434 88.9978 137.73 93.403 132.924L97 129Z" stroke="#DC2360" stroke-width="8"/>
</svg>
