<svg width="866" height="683" viewBox="0 0 866 683" fill="none" xmlns="http://www.w3.org/2000/svg">
<path d="M515.85 27.68H282.43C274.786 27.68 268.59 33.8764 268.59 41.52V569.83C268.59 577.474 274.786 583.67 282.43 583.67H515.85C523.494 583.67 529.69 577.474 529.69 569.83V41.52C529.69 33.8764 523.494 27.68 515.85 27.68Z" fill="#28262C"/>
<path d="M516.38 53.79V560.64C516.38 564.032 515.033 567.285 512.634 569.684C510.235 572.082 506.982 573.43 503.59 573.43H296.76C293.374 573.419 290.13 572.068 287.738 569.67C285.347 567.273 284.003 564.026 284 560.64V53.79C284.005 50.4047 285.35 47.1591 287.741 44.7625C290.132 42.3659 293.375 41.0132 296.76 41H503.59C506.981 41.0026 510.233 42.351 512.631 44.749C515.029 47.147 516.377 50.3987 516.38 53.79V53.79Z" fill="white"/>
<path d="M516.38 53.79V64.37H284V53.79C284.005 50.4047 285.35 47.1591 287.741 44.7625C290.132 42.3659 293.375 41.0132 296.76 41H503.59C506.981 41.0026 510.233 42.351 512.631 44.749C515.029 47.147 516.377 50.3987 516.38 53.79V53.79Z" fill="#DE2562"/>
<path d="M335.81 97.18H491.83" stroke="#D1D3D4" stroke-miterlimit="10"/>
<path d="M308.59 109.33H491.83" stroke="#D1D3D4" stroke-miterlimit="10"/>
<path d="M308.59 121.48H491.83" stroke="#D1D3D4" stroke-miterlimit="10"/>
<path d="M309.81 131.93H457.15" stroke="#D1D3D4" stroke-miterlimit="10"/>
<path d="M465.89 134.73C467.006 134.73 467.91 133.826 467.91 132.71C467.91 131.594 467.006 130.69 465.89 130.69C464.774 130.69 463.87 131.594 463.87 132.71C463.87 133.826 464.774 134.73 465.89 134.73Z" fill="#D1D3D4"/>
<path d="M477.17 134.73C478.286 134.73 479.19 133.826 479.19 132.71C479.19 131.594 478.286 130.69 477.17 130.69C476.054 130.69 475.15 131.594 475.15 132.71C475.15 133.826 476.054 134.73 477.17 134.73Z" fill="#D1D3D4"/>
<path d="M487.65 134.73C488.766 134.73 489.67 133.826 489.67 132.71C489.67 131.594 488.766 130.69 487.65 130.69C486.534 130.69 485.63 131.594 485.63 132.71C485.63 133.826 486.534 134.73 487.65 134.73Z" fill="#D1D3D4"/>
<path d="M308.59 146.27H491.83" stroke="#D1D3D4" stroke-miterlimit="10"/>
<path d="M308.59 158.42H491.83" stroke="#D1D3D4" stroke-miterlimit="10"/>
<path d="M309.81 168.87H457.15" stroke="#D1D3D4" stroke-miterlimit="10"/>
<path d="M465.89 171.67C467.006 171.67 467.91 170.766 467.91 169.65C467.91 168.534 467.006 167.63 465.89 167.63C464.774 167.63 463.87 168.534 463.87 169.65C463.87 170.766 464.774 171.67 465.89 171.67Z" fill="#D1D3D4"/>
<path d="M477.17 171.67C478.286 171.67 479.19 170.766 479.19 169.65C479.19 168.534 478.286 167.63 477.17 167.63C476.054 167.63 475.15 168.534 475.15 169.65C475.15 170.766 476.054 171.67 477.17 171.67Z" fill="#D1D3D4"/>
<path d="M487.65 171.67C488.766 171.67 489.67 170.766 489.67 169.65C489.67 168.534 488.766 167.63 487.65 167.63C486.534 167.63 485.63 168.534 485.63 169.65C485.63 170.766 486.534 171.67 487.65 171.67Z" fill="#D1D3D4"/>
<path d="M334.74 396.83H490.77" stroke="#D1D3D4" stroke-miterlimit="10"/>
<path d="M307.52 408.98H490.77" stroke="#D1D3D4" stroke-miterlimit="10"/>
<path d="M307.52 421.14H490.77" stroke="#D1D3D4" stroke-miterlimit="10"/>
<path d="M308.74 431.59H456.08" stroke="#D1D3D4" stroke-miterlimit="10"/>
<path d="M464.82 434.38C465.936 434.38 466.84 433.476 466.84 432.36C466.84 431.244 465.936 430.34 464.82 430.34C463.704 430.34 462.8 431.244 462.8 432.36C462.8 433.476 463.704 434.38 464.82 434.38Z" fill="#D1D3D4"/>
<path d="M476.1 434.38C477.216 434.38 478.12 433.476 478.12 432.36C478.12 431.244 477.216 430.34 476.1 430.34C474.984 430.34 474.08 431.244 474.08 432.36C474.08 433.476 474.984 434.38 476.1 434.38Z" fill="#D1D3D4"/>
<path d="M486.58 434.38C487.696 434.38 488.6 433.476 488.6 432.36C488.6 431.244 487.696 430.34 486.58 430.34C485.464 430.34 484.56 431.244 484.56 432.36C484.56 433.476 485.464 434.38 486.58 434.38Z" fill="#D1D3D4"/>
<path d="M335.76 463.13H491.79" stroke="#D1D3D4" stroke-miterlimit="10"/>
<path d="M308.54 475.28H491.79" stroke="#D1D3D4" stroke-miterlimit="10"/>
<path d="M308.54 487.43H491.79" stroke="#D1D3D4" stroke-miterlimit="10"/>
<path d="M309.76 497.89H457.11" stroke="#D1D3D4" stroke-miterlimit="10"/>
<path d="M465.84 500.68C466.956 500.68 467.86 499.776 467.86 498.66C467.86 497.544 466.956 496.64 465.84 496.64C464.724 496.64 463.82 497.544 463.82 498.66C463.82 499.776 464.724 500.68 465.84 500.68Z" fill="#D1D3D4"/>
<path d="M477.13 500.68C478.246 500.68 479.15 499.776 479.15 498.66C479.15 497.544 478.246 496.64 477.13 496.64C476.014 496.64 475.11 497.544 475.11 498.66C475.11 499.776 476.014 500.68 477.13 500.68Z" fill="#D1D3D4"/>
<path d="M487.61 500.68C488.726 500.68 489.63 499.776 489.63 498.66C489.63 497.544 488.726 496.64 487.61 496.64C486.494 496.64 485.59 497.544 485.59 498.66C485.59 499.776 486.494 500.68 487.61 500.68Z" fill="#D1D3D4"/>
<path d="M399.48 567.37C401.717 567.37 403.53 565.557 403.53 563.32C403.53 561.083 401.717 559.27 399.48 559.27C397.243 559.27 395.43 561.083 395.43 563.32C395.43 565.557 397.243 567.37 399.48 567.37Z" stroke="#ED1C24" stroke-miterlimit="10"/>
<path d="M431.22 567.37L435.48 559.28L439.74 567.37H431.22Z" stroke="#ED1C24" stroke-miterlimit="10"/>
<path d="M516.38 552.14V560.64C516.38 564.032 515.033 567.285 512.634 569.684C510.235 572.082 506.982 573.43 503.59 573.43H296.76C293.374 573.419 290.13 572.068 287.738 569.67C285.347 567.273 284.003 564.026 284 560.64V552.14H516.38Z" fill="#DE2562"/>
<path d="M550.26 227.09H329.78C323.083 227.09 316.661 229.75 311.926 234.486C307.19 239.221 304.53 245.643 304.53 252.34V328.8C304.53 335.497 307.19 341.919 311.926 346.654C316.661 351.39 323.083 354.05 329.78 354.05H492.59L520.91 380V354.05H550.26C556.958 354.05 563.381 351.39 568.118 346.655C572.855 341.92 575.517 335.498 575.52 328.8V252.34C575.517 245.642 572.855 239.22 568.118 234.485C563.381 229.75 556.958 227.09 550.26 227.09V227.09Z" fill="#DE2562"/>
<path opacity="0.4" d="M550.26 227.09H329.78C323.083 227.09 316.661 229.75 311.926 234.486C307.19 239.221 304.53 245.643 304.53 252.34V328.8C304.53 335.497 307.19 341.919 311.926 346.654C316.661 351.39 323.083 354.05 329.78 354.05H492.59L520.91 380V354.05H550.26C556.958 354.05 563.381 351.39 568.118 346.655C572.855 341.92 575.517 335.498 575.52 328.8V252.34C575.517 245.642 572.855 239.22 568.118 234.485C563.381 229.75 556.958 227.09 550.26 227.09V227.09Z" fill="white"/>
<path d="M329.625 304.31V265.954H343.034C345.706 265.954 347.91 266.416 349.646 267.34C351.381 268.251 352.674 269.481 353.523 271.029C354.372 272.565 354.796 274.269 354.796 276.142C354.796 277.79 354.503 279.151 353.916 280.225C353.341 281.299 352.58 282.148 351.631 282.772C350.695 283.396 349.677 283.858 348.578 284.158V284.532C349.752 284.607 350.932 285.019 352.118 285.769C353.304 286.518 354.297 287.592 355.096 288.99C355.895 290.388 356.294 292.099 356.294 294.122C356.294 296.044 355.857 297.774 354.983 299.309C354.109 300.845 352.73 302.063 350.844 302.962C348.959 303.861 346.506 304.31 343.484 304.31H329.625ZM334.269 300.19H343.484C346.518 300.19 348.672 299.603 349.945 298.429C351.231 297.243 351.874 295.807 351.874 294.122C351.874 292.823 351.544 291.624 350.882 290.526C350.22 289.414 349.277 288.528 348.054 287.866C346.83 287.192 345.382 286.855 343.709 286.855H334.269V300.19ZM334.269 282.809H342.885C344.283 282.809 345.544 282.535 346.668 281.985C347.804 281.436 348.703 280.662 349.365 279.663C350.039 278.664 350.376 277.491 350.376 276.142C350.376 274.456 349.789 273.027 348.616 271.853C347.442 270.667 345.582 270.074 343.034 270.074H334.269V282.809ZM396.29 285.132C396.29 289.177 395.559 292.673 394.098 295.62C392.637 298.567 390.633 300.839 388.086 302.437C385.539 304.035 382.63 304.834 379.359 304.834C376.087 304.834 373.178 304.035 370.631 302.437C368.084 300.839 366.08 298.567 364.619 295.62C363.158 292.673 362.428 289.177 362.428 285.132C362.428 281.086 363.158 277.59 364.619 274.644C366.08 271.697 368.084 269.425 370.631 267.827C373.178 266.228 376.087 265.429 379.359 265.429C382.63 265.429 385.539 266.228 388.086 267.827C390.633 269.425 392.637 271.697 394.098 274.644C395.559 277.59 396.29 281.086 396.29 285.132ZM391.795 285.132C391.795 281.811 391.239 279.008 390.128 276.723C389.029 274.438 387.537 272.708 385.652 271.535C383.779 270.361 381.681 269.774 379.359 269.774C377.036 269.774 374.933 270.361 373.047 271.535C371.174 272.708 369.682 274.438 368.571 276.723C367.472 279.008 366.923 281.811 366.923 285.132C366.923 288.453 367.472 291.256 368.571 293.541C369.682 295.826 371.174 297.555 373.047 298.729C374.933 299.903 377.036 300.489 379.359 300.489C381.681 300.489 383.779 299.903 385.652 298.729C387.537 297.555 389.029 295.826 390.128 293.541C391.239 291.256 391.795 288.453 391.795 285.132ZM434.515 265.954V304.31H430.02L409.119 274.194H408.744V304.31H404.099V265.954H408.594L429.57 296.144H429.945V265.954H434.515ZM458.492 265.954H463.137V293.372C463.137 295.82 462.687 297.899 461.788 299.609C460.889 301.32 459.622 302.618 457.987 303.505C456.351 304.391 454.422 304.834 452.199 304.834C450.102 304.834 448.235 304.454 446.599 303.692C444.964 302.918 443.678 301.819 442.741 300.396C441.805 298.972 441.337 297.28 441.337 295.32H445.907C445.907 296.406 446.175 297.355 446.712 298.167C447.261 298.966 448.01 299.59 448.959 300.04C449.908 300.489 450.988 300.714 452.199 300.714C453.535 300.714 454.672 300.433 455.608 299.871C456.544 299.309 457.256 298.485 457.743 297.399C458.242 296.3 458.492 294.958 458.492 293.372V265.954ZM504.808 285.132C504.808 289.177 504.078 292.673 502.617 295.62C501.156 298.567 499.152 300.839 496.605 302.437C494.058 304.035 491.149 304.834 487.878 304.834C484.606 304.834 481.697 304.035 479.15 302.437C476.603 300.839 474.599 298.567 473.138 295.62C471.677 292.673 470.947 289.177 470.947 285.132C470.947 281.086 471.677 277.59 473.138 274.644C474.599 271.697 476.603 269.425 479.15 267.827C481.697 266.228 484.606 265.429 487.878 265.429C491.149 265.429 494.058 266.228 496.605 267.827C499.152 269.425 501.156 271.697 502.617 274.644C504.078 277.59 504.808 281.086 504.808 285.132ZM500.313 285.132C500.313 281.811 499.758 279.008 498.647 276.723C497.548 274.438 496.056 272.708 494.17 271.535C492.297 270.361 490.2 269.774 487.878 269.774C485.555 269.774 483.451 270.361 481.566 271.535C479.693 272.708 478.201 274.438 477.09 276.723C475.991 279.008 475.442 281.811 475.442 285.132C475.442 288.453 475.991 291.256 477.09 293.541C478.201 295.826 479.693 297.555 481.566 298.729C483.451 299.903 485.555 300.489 487.878 300.489C490.2 300.489 492.297 299.903 494.17 298.729C496.056 297.555 497.548 295.826 498.647 293.541C499.758 291.256 500.313 288.453 500.313 285.132ZM537.789 265.954H542.434V291.35C542.434 293.972 541.816 296.313 540.58 298.373C539.356 300.421 537.627 302.038 535.392 303.224C533.157 304.397 530.535 304.984 527.526 304.984C524.517 304.984 521.895 304.397 519.66 303.224C517.425 302.038 515.69 300.421 514.454 298.373C513.23 296.313 512.618 293.972 512.618 291.35V265.954H517.263V290.975C517.263 292.848 517.675 294.515 518.499 295.976C519.323 297.424 520.497 298.567 522.02 299.403C523.556 300.227 525.391 300.639 527.526 300.639C529.661 300.639 531.497 300.227 533.032 299.403C534.568 298.567 535.742 297.424 536.553 295.976C537.377 294.515 537.789 292.848 537.789 290.975V265.954ZM551.71 304.31V265.954H564.67C567.666 265.954 570.126 266.466 572.049 267.489C573.972 268.501 575.395 269.893 576.319 271.666C577.243 273.439 577.705 275.455 577.705 277.715C577.705 279.975 577.243 281.979 576.319 283.727C575.395 285.475 573.978 286.849 572.068 287.847C570.157 288.834 567.716 289.327 564.745 289.327H554.257V285.132H564.595C566.643 285.132 568.291 284.832 569.539 284.233C570.8 283.634 571.712 282.784 572.274 281.686C572.848 280.574 573.135 279.251 573.135 277.715C573.135 276.179 572.848 274.837 572.274 273.689C571.699 272.54 570.782 271.653 569.521 271.029C568.26 270.392 566.593 270.074 564.52 270.074H556.354V304.31H551.71ZM569.764 287.08L579.203 304.31H573.809L564.52 287.08H569.764ZM590.689 265.954L590.314 293.522H585.969L585.594 265.954H590.689ZM588.142 304.61C587.218 304.61 586.425 304.279 585.763 303.617C585.101 302.955 584.77 302.162 584.77 301.238C584.77 300.315 585.101 299.522 585.763 298.86C586.425 298.198 587.218 297.867 588.142 297.867C589.066 297.867 589.858 298.198 590.52 298.86C591.182 299.522 591.513 300.315 591.513 301.238C591.513 301.85 591.357 302.412 591.045 302.924C590.745 303.436 590.339 303.848 589.827 304.16C589.328 304.46 588.766 304.61 588.142 304.61Z" fill="white"/>
<path d="M409.38 193.9H249.32C243.129 193.9 238.11 198.919 238.11 205.11V239.07C238.11 245.261 243.129 250.28 249.32 250.28H409.38C415.571 250.28 420.59 245.261 420.59 239.07V205.11C420.59 198.919 415.571 193.9 409.38 193.9Z" fill="#DE2562"/>
<path d="M272.57 269.69V245.63H297.67L272.57 269.69Z" fill="#DE2562"/>
<path d="M275.25 208.23V219.74H288.56V208.23H292.15V235.75H288.56V222.84H275.25V235.75H271.7V208.23H275.25Z" fill="white"/>
<path d="M312.57 222.84H301.87V232.77H313.79V235.77H298.32V208.23H313.18V211.23H301.87V219.93H312.57V222.84Z" fill="white"/>
<path d="M318.4 208.23H322V232.77H333.76V235.77H318.4V208.23Z" fill="white"/>
<path d="M337.67 208.23H341.23V232.77H353V235.77H337.67V208.23Z" fill="white"/>
<path d="M378.87 221.7C378.87 231.17 373.11 236.2 366.09 236.2C358.82 236.2 353.72 230.56 353.72 222.2C353.72 213.46 359.15 207.75 366.5 207.75C374 207.78 378.87 213.54 378.87 221.7ZM357.52 222.15C357.52 228.03 360.7 233.3 366.29 233.3C371.88 233.3 375.11 228.11 375.11 221.86C375.11 216.39 372.26 210.68 366.33 210.68C360.4 210.68 357.52 216.11 357.52 222.15V222.15Z" fill="white"/>
<path d="M382.67 233.67C382.651 233.343 382.699 233.016 382.811 232.708C382.923 232.401 383.097 232.12 383.321 231.882C383.546 231.644 383.817 231.454 384.118 231.325C384.419 231.196 384.743 231.129 385.07 231.13C385.715 231.171 386.32 231.455 386.762 231.926C387.204 232.397 387.451 233.019 387.451 233.665C387.451 234.311 387.204 234.933 386.762 235.404C386.32 235.875 385.715 236.159 385.07 236.2C384.744 236.2 384.421 236.134 384.121 236.006C383.821 235.877 383.55 235.689 383.325 235.452C383.101 235.215 382.927 234.935 382.814 234.628C382.701 234.322 382.652 233.996 382.67 233.67V233.67ZM383.67 227.83L383.1 208.23H387L386.43 227.83H383.67Z" fill="white"/>
<path d="M104.2 610.61C104.2 610.61 88.73 620.1 96.5 631.75C98.22 634.33 106.89 655.05 126.5 639.97L104.2 610.61Z" fill="#28262C"/>
<path d="M139.15 528L129.82 543.12L90.39 575.61C90.39 575.61 114.19 602.25 154.73 609.74C154.73 609.74 170.91 605.88 198.11 605.33C238.11 604.53 271.74 620.33 329.47 558.13L257.71 545.13L253.71 536.37L229.81 524.87L139.15 528Z" fill="#28262C"/>
<path opacity="0.4" d="M139.15 528L129.82 543.12L90.39 575.61C90.39 575.61 114.19 602.25 154.73 609.74C154.73 609.74 170.91 605.88 198.11 605.33C238.11 604.53 271.74 620.33 329.47 558.13L257.71 545.13L253.71 536.37L229.81 524.87L139.15 528Z" fill="black"/>
<path d="M146.68 602.59L156.54 597.5L168.33 614.39L157.5 619.98L146.68 602.59Z" fill="#F9B499"/>
<path d="M106.37 609.74C106.37 609.74 97.15 611 104 625.32C104 625.32 109 639.32 121.75 640.85C123.37 641.043 125.01 640.736 126.45 639.97L156.11 624C156.11 624 164.69 620.08 157.51 616.79C157.51 616.79 161.69 616 157.51 609.71C157.51 609.71 154.26 599.56 151.01 603.21C151.01 603.21 151.78 595.39 142.6 599.56C142.6 599.59 118.8 607.24 106.37 609.74Z" fill="#DE2562"/>
<path d="M239 605.6C238.376 608.528 236.965 611.229 234.919 613.415C232.874 615.6 230.27 617.185 227.39 618L103.39 581.39C77.45 571.25 66.84 559.78 63 550.25C61.3052 546.14 60.7323 541.654 61.34 537.25C62.0017 532.836 64.1375 528.776 67.4 525.73C72.0469 521.28 78.1788 518.711 84.61 518.52C102.29 517.7 122.61 531.63 134.43 541.19C135.95 542.41 137.49 543.62 139.05 544.8C147.787 551.429 157.128 557.221 166.95 562.1C195.95 576.45 239.42 595.73 239.42 595.73C239.874 599.019 239.731 602.362 239 605.6V605.6Z" fill="#28262C"/>
<path d="M168.31 615.73L285.68 582.73C285.68 582.73 346.12 566.25 334.13 533.78C334.13 533.78 323.64 488.39 257.71 545.05L154.71 596.56C154.71 596.56 155.82 611.74 168.31 615.73Z" fill="#28262C"/>
<path d="M168.31 615.73L285.68 582.73C285.68 582.73 346.12 566.25 334.13 533.78C334.13 533.78 323.64 488.39 257.71 545.05L154.71 596.56C154.71 596.56 155.82 611.74 168.31 615.73Z" fill="#28262C"/>
<path opacity="0.2" d="M168.31 615.73L285.68 582.73C285.68 582.73 346.12 566.25 334.13 533.78C334.13 533.78 323.64 488.39 257.71 545.05L154.71 596.56C154.71 596.56 155.82 611.74 168.31 615.73Z" fill="black"/>
<path d="M306.16 511.34C305.661 514.423 304.822 517.441 303.66 520.34C299.73 529.67 293.66 530.34 290.81 530.09C289.481 529.964 288.143 529.937 286.81 530.01C259.06 531.82 258.22 501.01 258.22 497.21V496.84C258.036 496.672 257.807 496.561 257.562 496.52C257.316 496.479 257.064 496.51 256.835 496.61C256.607 496.709 256.412 496.872 256.274 497.08C256.137 497.288 256.062 497.531 256.06 497.78V528.28C253.68 546.46 239.06 546.28 229.14 543.94C228.47 543.78 227.82 543.61 227.2 543.43C222.007 541.992 216.498 542.188 211.42 543.99C197.1 549.05 188.83 549.76 188.83 549.76C187.07 549.76 185.36 549.69 183.7 549.55C143.07 547.15 133.58 527.78 133.58 527.78C102.17 544.09 91.85 530.22 88.51 520.78C87.6897 518.523 87.1588 516.171 86.93 513.78C83.93 457.34 110.93 424.38 110.93 424.38C143.93 386.92 170.69 387.43 170.69 387.43L180.09 394.24L212.23 400.57L222.53 392C269.76 409.12 292.18 466.59 292.18 466.59C294.06 471.69 296.38 478.83 298.04 484.07C299.152 487.679 300.588 491.18 302.33 494.53C307.49 504.3 306.16 511.34 306.16 511.34Z" fill="#DE2562"/>
<path opacity="0.2" d="M303.66 520.38C299.73 529.71 293.66 530.38 290.81 530.13C289.481 530.004 288.143 529.977 286.81 530.05C259.06 531.86 258.22 501.05 258.22 497.25V496.88C258.036 496.712 257.807 496.601 257.562 496.56C257.316 496.519 257.064 496.55 256.835 496.65C256.607 496.749 256.412 496.912 256.274 497.12C256.137 497.328 256.062 497.571 256.06 497.82V528.32C253.68 546.5 239.06 546.32 229.14 543.98C248.07 543.47 246.97 528.49 246.97 528.49L241.36 466.56C240.16 458.9 225.59 459.24 225.59 459.24C234.46 451.63 227 436.67 227 436.67L227.26 431.43L231.42 433.6C232.18 438.6 236.28 440.2 239.01 440.7C239.31 440.754 239.618 440.739 239.911 440.656C240.204 440.573 240.474 440.423 240.701 440.22C240.928 440.016 241.105 439.764 241.219 439.481C241.333 439.199 241.382 438.894 241.36 438.59C243.62 441.59 253.12 445.75 252.56 445.59L253.74 452.25C258.59 453.25 266.55 449.25 266.55 449.25L283.86 495.2C292.19 516.84 303.65 520.37 303.65 520.37L303.66 520.38Z" fill="black"/>
<path d="M127.35 375C127.795 364.511 129.015 354.069 131 343.76C132.907 333.396 135.924 323.268 140 313.55C142.072 308.674 144.621 304.014 147.61 299.64C150.596 295.194 154.284 291.263 158.53 288C162.862 284.717 167.88 282.457 173.21 281.39C175.872 280.877 178.579 280.633 181.29 280.66C183.974 280.728 186.649 281.005 189.29 281.49L188.74 284.25C186.249 283.728 183.721 283.393 181.18 283.25C178.649 283.173 176.117 283.347 173.62 283.77C168.607 284.657 163.861 286.671 159.74 289.66C155.585 292.717 151.957 296.433 149 300.66C145.978 304.885 143.379 309.396 141.24 314.13C137.004 323.683 133.805 333.664 131.7 343.9C129.485 354.145 128.031 364.54 127.35 375V375Z" fill="#28262C"/>
<path d="M158.37 388.49L167.82 394.3L193.62 388.49L185.64 372.5L170.63 341.43L153.59 329.37L145.21 363.43L158.37 388.49Z" fill="#28262C"/>
<path opacity="0.2" d="M158.37 388.49L167.82 394.3L193.62 388.49L185.64 372.5L170.63 341.43L153.59 329.37L145.21 363.43L158.37 388.49Z" fill="black"/>
<path d="M240.81 401.09L208.52 389.46L211.52 374.99L223.58 351.76L239 350.68C239 350.68 238.56 355.83 240.08 359.68C241.6 363.53 240.81 401.09 240.81 401.09Z" fill="#28262C"/>
<path opacity="0.2" d="M240.81 401.09L208.52 389.46L211.52 374.99L223.58 351.76L239 350.68C239 350.68 238.56 355.83 240.08 359.68C241.6 363.53 240.81 401.09 240.81 401.09Z" fill="black"/>
<path d="M180.29 377V385.66L170.64 387.51C170.64 387.51 169.51 409.91 198.71 410.96C201.678 411.079 204.649 410.841 207.56 410.25C214.81 408.74 227.33 404.25 222.56 391.99C222.56 391.99 217.28 388.66 211.62 388.99L212.2 384.19L207.6 377H180.29Z" fill="#F9B499"/>
<path d="M180.29 377V382.67C180.29 382.67 203.29 410.97 211.59 388.99L212.17 384.19L207.6 377H180.29Z" fill="#F7A48B"/>
<path opacity="0.2" d="M173.79 483.59C174.839 483.59 175.69 482.739 175.69 481.69C175.69 480.641 174.839 479.79 173.79 479.79C172.741 479.79 171.89 480.641 171.89 481.69C171.89 482.739 172.741 483.59 173.79 483.59Z" fill="black"/>
<path d="M199.24 387.5C219.172 387.5 235.33 365.016 235.33 337.28C235.33 309.544 219.172 287.06 199.24 287.06C179.308 287.06 163.15 309.544 163.15 337.28C163.15 365.016 179.308 387.5 199.24 387.5Z" fill="#F9B499"/>
<path d="M164.238 354.42C167.984 353.154 169.708 348.246 168.09 343.459C166.471 338.672 162.122 335.818 158.376 337.084C154.63 338.351 152.906 343.258 154.524 348.046C156.143 352.833 160.491 355.687 164.238 354.42Z" fill="#F9B499"/>
<path d="M157.32 343.93C157.32 343.93 161.6 341.08 165.32 343.93C165.32 343.93 161 349.08 163.16 351.76" stroke="#F7A48B" stroke-miterlimit="10"/>
<path d="M201.81 292.72C198.1 300.95 185.11 326.3 161.31 338.27C161.31 338.27 134.21 353.73 162.66 388.7C162.66 388.7 152.66 390.48 137.34 400.63C137.34 400.63 123.34 357.34 148.99 309.72C148.99 309.72 163.08 277.24 189.06 282.9C189.06 282.9 197.19 283.51 200.62 287.83C201.79 289.3 202.58 291 201.81 292.72Z" fill="#28262C"/>
<path d="M185 282.42C185 282.42 195.33 265.42 205.32 273.09C205.32 273.09 216.64 260.44 242.61 280.42C242.61 280.42 265.92 289.56 270.91 343.93L277.91 414.61C277.91 414.61 258.45 405.12 240.86 401.09C240.702 401.058 240.556 400.982 240.44 400.87C239.14 399.67 231.59 392 233.04 377.98C233.04 377.98 235.15 359.75 235.41 354.86C235.41 354.86 241.36 290.03 201.86 292.72C201.81 292.72 204.93 284.08 185 282.42Z" fill="#28262C"/>
<path opacity="0.2" d="M201.81 292.72C201.81 292.72 212.81 281.17 225.33 286.94C227.974 288.213 230.298 290.064 232.131 292.356C233.964 294.647 235.259 297.321 235.92 300.18C237.58 306.79 237.84 318.44 235.33 337.28C235.33 337.28 234.65 289.69 201.81 292.72Z" fill="black"/>
<path opacity="0.2" d="M222.53 285.93C225.676 286.142 228.702 287.215 231.28 289.03C233.861 290.855 236.087 293.136 237.85 295.76C241.35 301.04 243.18 307.2 244.32 313.33C244.53 314.88 244.87 316.41 244.97 317.99C245.07 319.57 245.17 321.15 245.12 322.69C245.12 325.8 245.12 328.92 245.03 332.03L244.85 341.36C244.75 344.46 244.69 347.57 244.56 350.68C244.43 347.57 244.38 344.46 244.28 341.35L244.13 332.03C244.06 328.92 244.13 325.81 244.06 322.71C244.06 321.14 243.97 319.62 243.86 318.1C243.75 316.58 243.39 315.05 243.18 313.53C242.286 307.433 240.225 301.566 237.11 296.25C235.496 293.651 233.426 291.364 231 289.5C228.545 287.577 225.621 286.345 222.53 285.93V285.93Z" fill="black"/>
<path opacity="0.2" d="M242.23 359.67C241.999 361.23 241.862 362.803 241.82 364.38C241.735 365.946 241.735 367.514 241.82 369.08C241.97 372.194 242.446 375.285 243.24 378.3C244.025 381.312 245.219 384.203 246.79 386.89C247.2 387.55 247.58 388.24 248.01 388.89L249.43 390.75C249.67 391.06 249.88 391.4 250.14 391.69L250.95 392.55C251.49 393.12 252.02 393.71 252.55 394.3C249.994 392.379 247.788 390.031 246.03 387.36L245.35 386.36L244.79 385.29C244.43 384.58 244.01 383.89 243.7 383.14L242.82 380.9C242.53 380.15 242.35 379.36 242.12 378.6C241.303 375.497 240.9 372.299 240.92 369.09C240.923 365.905 241.364 362.735 242.23 359.67V359.67Z" fill="black"/>
<path opacity="0.2" d="M248.89 320.71C251.262 326.882 252.975 333.288 254 339.82C255.083 346.353 255.588 352.968 255.51 359.59C255.209 366.15 255.42 372.723 256.14 379.25C256.479 382.509 257.118 385.729 258.05 388.87C258.502 390.439 259.129 391.952 259.92 393.38C260.692 394.829 261.817 396.06 263.19 396.96C261.728 396.153 260.507 394.973 259.65 393.54C258.77 392.127 258.049 390.621 257.5 389.05C256.453 385.9 255.699 382.659 255.25 379.37C254.386 372.808 254.085 366.184 254.35 359.57C254.43 356.29 254.35 353.01 254.14 349.74C253.93 346.47 253.57 343.2 253.14 339.95C252.71 336.7 252.14 333.46 251.42 330.25C250.737 327.03 249.892 323.846 248.89 320.71V320.71Z" fill="black"/>
<path opacity="0.2" d="M239.23 285.93C239.23 285.93 247.64 292.93 254.88 314.53C256.771 320.254 257.999 326.176 258.54 332.18C259.98 347.31 263.6 380.73 268.2 387.49C268.2 387.49 270.38 300.8 239.23 285.93Z" fill="black"/>
<path opacity="0.2" d="M150.45 306.79C150.45 306.79 158.17 297.9 164.15 295.51C164.5 295.381 164.879 295.353 165.245 295.429C165.61 295.504 165.947 295.68 166.217 295.937C166.488 296.194 166.681 296.522 166.775 296.883C166.869 297.244 166.861 297.624 166.75 297.98C165.02 303.22 163.48 312.26 181.04 296.09C181.602 295.558 182.274 295.155 183.008 294.91C183.742 294.664 184.521 294.583 185.29 294.67C185.734 294.706 186.166 294.831 186.56 295.039C186.953 295.247 187.3 295.533 187.58 295.88C187.763 296.104 187.995 296.284 188.258 296.405C188.521 296.526 188.808 296.586 189.097 296.579C189.387 296.572 189.671 296.5 189.928 296.366C190.185 296.233 190.408 296.043 190.58 295.81C193.66 291.81 197.45 284.34 184.96 282.42C185 282.42 166.55 278.55 150.45 306.79Z" fill="black"/>
<path opacity="0.2" d="M189 283.08C189 283.08 197.65 267.51 208 276.42C208 276.42 214.12 271.58 216.32 274.42C216.617 274.823 216.778 275.31 216.778 275.81C216.778 276.31 216.617 276.798 216.32 277.2C214.76 279.38 210.48 284.5 201.92 289.41C201.81 289.37 196.28 282.75 189 283.08Z" fill="black"/>
<path opacity="0.2" d="M167.11 316.32C165.74 316.6 163.94 317.53 162.3 320.18C161.517 321.464 160.535 322.615 159.39 323.59C155.63 326.76 148.06 333.92 152.66 336.71C152.66 336.71 156.56 338.41 174.66 323.71C174.66 323.71 184.98 314.59 185.66 308.37C185.711 307.919 185.643 307.462 185.464 307.044C185.285 306.627 185.001 306.263 184.639 305.989C184.277 305.715 183.849 305.539 183.399 305.48C182.949 305.42 182.491 305.479 182.07 305.65C180.02 306.47 176.72 308.65 171.61 313.94C170.392 315.18 168.82 316.011 167.11 316.32V316.32Z" fill="black"/>
<path opacity="0.2" d="M151.22 318.31C150.09 320.57 149.05 322.87 148.13 325.22C147.65 326.39 147.21 327.57 146.75 328.74L145.51 332.31C143.921 337.085 142.674 341.967 141.78 346.92C141.25 349.38 140.97 351.92 140.63 354.37C140.51 355.62 140.44 356.88 140.34 358.13L140.21 360.01V361.9C140.21 363.15 140.14 364.41 140.14 365.67L140.33 369.44C140.33 370.07 140.33 370.71 140.42 371.33L140.63 373.21C140.78 374.47 140.92 375.72 141.04 376.98C139.914 372.028 139.334 366.968 139.31 361.89V359.98L139.42 358.08C139.5 356.81 139.55 355.53 139.66 354.27C139.97 351.74 140.21 349.21 140.66 346.71C141.595 341.713 142.933 336.801 144.66 332.02C146.387 327.244 148.585 322.651 151.22 318.31V318.31Z" fill="black"/>
<path opacity="0.2" d="M145.45 356.67C145.698 357.514 145.852 358.382 145.91 359.26L146.12 361.86C146.26 363.59 146.39 365.31 146.6 367.01C146.769 368.715 147.04 370.408 147.41 372.08C147.764 373.772 148.297 375.421 149 377C147.896 375.614 147.062 374.033 146.54 372.34C145.998 370.656 145.633 368.92 145.45 367.16C145.257 365.417 145.183 363.663 145.23 361.91C145.23 361.03 145.29 360.16 145.35 359.29C145.449 358.42 145.483 357.545 145.45 356.67Z" fill="black"/>
<path opacity="0.2" d="M163.15 379.65C161.124 377.595 159.437 375.233 158.15 372.65C156.812 370.058 155.749 367.333 154.98 364.52C154.232 361.708 153.75 358.832 153.54 355.93C153.39 354.49 153.44 353.03 153.39 351.59C153.34 350.15 153.53 348.7 153.66 347.26C153.86 350.15 154.01 353.01 154.43 355.84C154.54 356.54 154.65 357.25 154.74 357.96C154.83 358.67 155.01 359.36 155.15 360.06C155.38 361.46 155.77 362.83 156.1 364.22C156.857 366.952 157.809 369.625 158.95 372.22C159.516 373.529 160.157 374.805 160.87 376.04C161.547 377.294 162.309 378.5 163.15 379.65V379.65Z" fill="black"/>
<path d="M163.15 337.28C163.15 337.28 186.7 325.66 201.81 292.72C201.81 292.72 230.42 284.91 235.33 337.28C235.33 337.28 236.73 370.04 212.17 384.17C212.17 384.17 235.92 356.67 230.3 326.71C229.527 322.452 227.73 318.446 225.065 315.037C222.399 311.628 218.945 308.918 215 307.14C209.956 304.955 204.648 303.442 199.21 302.64C199.21 302.64 188 327.53 163.15 337.28Z" fill="#F7A48B"/>
<path opacity="0.2" d="M221 463.29C218.486 469.335 215.614 475.226 212.4 480.93C211.159 483.074 209.377 484.855 207.233 486.095C205.089 487.336 202.657 487.992 200.18 488C194.63 488 187.82 488.52 187.62 490.88C187.62 490.88 184.96 496.19 170.36 507.31C167.75 509.252 165.548 511.689 163.88 514.483C162.212 517.276 161.111 520.371 160.64 523.59C159.8 529.92 161.3 536.83 170.64 539.16C170.64 539.16 179.92 541.91 183.64 549.6C143.01 547.2 133.52 527.83 133.52 527.83C102.11 544.14 91.79 530.27 88.45 520.83C94.8 519.31 106.63 518.15 114.34 527.51C114.34 527.51 168.74 503.92 175.67 496.89C175.67 496.89 185.94 490.89 184.93 486.21L214.93 468.66L221 463.29Z" fill="black"/>
<path opacity="0.2" d="M150 439.61C145.39 447.16 129.46 474.36 126 494.53C126 494.53 129.22 495.64 145.43 488.26C145.43 488.26 159.32 476.7 163.13 479.79L170.61 475.21L173.77 477.88L178.68 473.88C179.118 473.532 179.424 473.046 179.549 472.501C179.675 471.956 179.612 471.384 179.37 470.88C178.06 468.02 176.19 461.6 180.01 452.88C180.34 450.12 180.427 447.336 180.27 444.56C180.394 443.653 180.71 442.783 181.198 442.008C181.687 441.234 182.335 440.573 183.1 440.07L191.59 433.24L195.26 416.92C195.26 416.92 196.09 413.43 198.09 413.26C198.09 413.26 185.93 413.26 184.93 424.75C184.93 424.75 182.93 434.24 178.93 438.9C177.17 440.134 175.85 441.897 175.161 443.933C174.472 445.969 174.451 448.171 175.1 450.22C175.1 450.22 174.94 476.53 158.79 476.36C158.79 476.36 148.31 474.2 147.38 462.17C147.22 459.488 147.559 456.799 148.38 454.24C149.784 449.602 150.696 444.829 151.1 440C151.106 439.869 151.07 439.74 150.997 439.632C150.924 439.523 150.818 439.441 150.694 439.398C150.571 439.354 150.437 439.351 150.312 439.389C150.187 439.427 150.078 439.505 150 439.61Z" fill="black"/>
<path d="M270.15 445.5L266.54 449.24C257.34 453.08 253.73 452.24 253.73 452.24L252.55 445.58C243.55 441.88 241.35 438.58 241.35 438.58C241.366 438.88 241.315 439.181 241.199 439.459C241.084 439.736 240.907 439.985 240.682 440.184C240.457 440.384 240.19 440.531 239.9 440.613C239.611 440.696 239.306 440.712 239.01 440.66C231.41 439.35 231.41 433.59 231.41 433.59L227.25 431.42L229.82 420.16L231.39 413.27H217.29C219.35 409 227.37 405.45 227.37 405.45C237.89 399.98 239.21 405.22 239.21 405.22C243.21 401.38 251.36 406.76 254.97 409.52C256.14 410.403 257.02 411.615 257.5 413L264.61 433.1C265.71 441.56 269.43 444.79 270.14 445.34C270.161 445.361 270.174 445.389 270.176 445.418C270.177 445.448 270.168 445.477 270.15 445.5V445.5Z" fill="#F9B499"/>
<path d="M217.31 413.28H225.58C227.7 413.28 230.8 415.94 230.33 418L230.48 417.31L245.16 404.21C245.16 404.21 243.81 402.03 239.23 405.21C239.137 404.729 238.901 404.288 238.553 403.943C238.205 403.599 237.762 403.368 237.28 403.28C237.28 403.28 230.66 410.06 227.16 410.28C227.16 410.28 222.16 411.8 221.93 408.53C221.93 408.55 218.45 410.65 217.31 413.28Z" fill="#F7A48B"/>
<path d="M239.67 440.77C231.41 439.68 231.41 433.6 231.41 433.6L227.25 431.43L229.82 420.17L233.99 419.79L245.36 410.3L236.3 422.61C236.3 422.61 234.14 435.61 239.94 440.05C240.01 440.102 240.061 440.175 240.085 440.258C240.11 440.341 240.107 440.43 240.076 440.512C240.046 440.593 239.99 440.662 239.916 440.709C239.843 440.755 239.757 440.777 239.67 440.77V440.77Z" fill="#F7A48B"/>
<path d="M251.88 414.61L243.73 421.92C243.235 422.361 242.836 422.899 242.559 423.502C242.282 424.104 242.133 424.757 242.12 425.42C242.12 428.53 242.43 434.06 245.38 435.59C245.38 435.59 248.72 436.09 246.64 431.43C246.64 431.43 246.39 422.43 251.22 425.61C251.22 425.61 253.22 428.3 253.73 435.61C253.73 435.61 253.02 450.07 266.85 440.92C267.57 442.628 268.696 444.135 270.13 445.31C270.145 445.321 270.156 445.336 270.164 445.352C270.172 445.369 270.177 445.387 270.177 445.405C270.177 445.423 270.172 445.441 270.164 445.458C270.156 445.474 270.145 445.489 270.13 445.5L266.52 449.24C266.52 449.24 260.38 453.08 253.71 452.24L252.53 445.58C252.53 445.58 244.62 442.91 241.33 438.58C241.33 438.58 238.49 429.79 239.7 423.63C239.836 422.974 240.108 422.353 240.499 421.809C240.89 421.264 241.391 420.808 241.97 420.47L251.88 414.61Z" fill="#F7A48B"/>
<path d="M245.16 436.67C243.872 436.322 242.681 435.683 241.68 434.8C240.657 433.896 239.854 432.771 239.33 431.51C238.837 430.235 238.589 428.877 238.6 427.51C238.615 426.841 238.666 426.174 238.75 425.51L239.16 423.51V423.63C239.282 422.844 239.589 422.098 240.057 421.454C240.525 420.811 241.14 420.288 241.85 419.93C243.03 419.17 244.19 418.39 245.37 417.65L248.94 415.42C250.15 414.72 251.34 413.98 252.57 413.3C251.49 414.2 250.36 415.04 249.26 415.91L245.88 418.42C244.75 419.26 243.6 420.06 242.45 420.87C241.897 421.19 241.409 421.611 241.01 422.11C240.646 422.564 240.408 423.105 240.32 423.68V423.81L239.91 425.66C239.85 426.29 239.74 426.91 239.72 427.53C239.676 428.777 239.831 430.022 240.18 431.22C240.602 432.416 241.261 433.515 242.116 434.451C242.972 435.387 244.007 436.142 245.16 436.67Z" fill="#F4937D"/>
<path d="M198.11 413.28C198.11 413.28 196.01 413.67 195.28 416.94L188.38 443.88C188.38 443.88 188.29 451.22 195.06 453.93L220.06 445.33L226.97 436.67L230.24 418.55C230.46 417.402 230.217 416.213 229.563 415.244C228.908 414.275 227.897 413.605 226.75 413.38H226.64L198.11 413.28Z" fill="#28262C"/>
<path d="M196.49 479.45H210.74C211.487 479.447 212.219 479.234 212.852 478.837C213.484 478.439 213.993 477.872 214.32 477.2L221 463.29L214.92 468.65L196.49 479.45Z" fill="#28262C"/>
<path d="M202.83 422.13C203.995 422.13 204.94 421.185 204.94 420.02C204.94 418.855 203.995 417.91 202.83 417.91C201.665 417.91 200.72 418.855 200.72 420.02C200.72 421.185 201.665 422.13 202.83 422.13Z" fill="white"/>
<path d="M200.63 428.16C201.795 428.16 202.74 427.215 202.74 426.05C202.74 424.885 201.795 423.94 200.63 423.94C199.465 423.94 198.52 424.885 198.52 426.05C198.52 427.215 199.465 428.16 200.63 428.16Z" fill="white"/>
<path opacity="0.2" d="M212.833 439.826C213.508 437.653 212.733 435.481 211.103 434.975C209.473 434.47 207.606 435.821 206.931 437.995C206.257 440.168 207.031 442.339 208.661 442.845C210.291 443.351 212.159 441.999 212.833 439.826Z" fill="black"/>
<path d="M239 597.5L255.2 600.5L260.57 604.04L254 620L231.47 616.3C231.47 616.3 241.53 611.24 239 597.5Z" fill="#F9B499"/>
<path d="M303.66 621.23C303.66 621.23 301.8 630.31 290.21 635.33C287.929 636.306 285.366 636.398 283.02 635.59C272.02 631.94 238.65 620.52 249.51 619.25L251.94 619.65C251.94 619.65 244.84 615.65 247.36 610.74L251 603.5C251 603.5 251.62 601.5 256 602.12C256 602.12 252.37 597.88 257.49 597.5L300.2 602.5H300.53H300.67C302.34 603 307.92 605.43 303.66 621.23Z" fill="#DE2562"/>
<path d="M300.5 602.54H300.17C300.28 602.528 300.39 602.528 300.5 602.54V602.54Z" stroke="#3C4150" stroke-miterlimit="10"/>
<path d="M306.31 635.59C296.48 643.71 283.02 635.59 283.02 635.59C285.366 636.398 287.929 636.306 290.21 635.33C301.8 630.33 303.66 621.23 303.66 621.23C307.92 605.43 302.34 602.95 300.66 602.56C309.54 603.91 312.93 613.48 312.93 613.48C316.89 624.73 306.31 635.59 306.31 635.59Z" fill="#28262C"/>
<path d="M240.217 347.08C240.854 342 239.126 337.6 236.359 337.254C233.591 336.907 230.832 340.744 230.196 345.824C229.559 350.904 231.287 355.303 234.054 355.65C236.822 355.997 239.581 352.159 240.217 347.08Z" fill="#F7A48B"/>
<path d="M233 343C233.162 342.764 233.371 342.564 233.613 342.413C233.856 342.262 234.127 342.162 234.41 342.12C235.011 342.026 235.625 342.143 236.15 342.45C236.641 342.75 237.045 343.174 237.32 343.68C237.583 344.162 237.727 344.701 237.74 345.25C237.347 344.936 236.969 344.602 236.61 344.25C236.303 343.958 235.968 343.697 235.61 343.47C234.824 343.007 233.898 342.84 233 343V343Z" fill="#F4937D"/>
<path d="M235.19 351.76C234.68 351.583 234.225 351.277 233.87 350.87C233.513 350.475 233.225 350.022 233.02 349.53C232.812 349.038 232.705 348.509 232.705 347.975C232.705 347.441 232.812 346.912 233.02 346.42C233.27 346.91 233.43 347.37 233.61 347.81C233.79 348.25 233.95 348.67 234.13 349.09C234.44 350 234.81 350.75 235.19 351.76Z" fill="#F4937D"/>
<path d="M225.58 459.24L214.92 468.65L185 486.2C178.86 484.95 173.84 477.88 173.84 477.88L178.64 473.94C179.089 473.585 179.402 473.085 179.526 472.526C179.65 471.967 179.577 471.382 179.32 470.87C174.85 462.38 180.08 452.87 180.08 452.87L180.34 444.54C180.463 443.312 181.024 442.169 181.92 441.32C182.308 440.866 182.729 440.441 183.18 440.05L190.62 434.05L188.43 443.83C188.505 446.332 189.389 448.743 190.95 450.7C192.057 452.083 193.485 453.175 195.11 453.88L220.11 445.28L227.02 436.62C234.11 453.25 225.58 459.24 225.58 459.24Z" fill="#F9B499"/>
<path d="M190.9 450.75C187.37 450.32 186.51 444.49 186.51 444.49C186.92 439.49 181.87 441.36 181.87 441.36C182.258 440.906 182.679 440.481 183.13 440.09L190.57 434.09L188.38 443.87C188.452 446.376 189.337 448.79 190.9 450.75V450.75Z" fill="#F7A48B"/>
<path d="M178.76 483.05C180.553 484.591 182.695 485.673 185 486.2L215 468.65C215 468.65 186.93 482.76 178.76 483.05Z" fill="#F7A48B"/>
<path d="M220.08 445.33C220.08 445.33 224.74 451.7 222.73 461.76L225.58 459.24C225.58 459.24 234.32 454.08 226.99 436.67L220.08 445.33Z" fill="#F7A48B"/>
<path d="M212.17 456.6C213.543 455.447 214.953 454.367 216.4 453.36C217.12 452.83 217.86 452.36 218.59 451.84C219.32 451.32 220.08 450.89 220.75 450.38C222.121 449.354 223.343 448.142 224.38 446.78C224.9 446.1 225.38 445.36 225.85 444.61C226.32 443.86 226.85 443.14 227.38 442.43C226.758 444.106 226.005 445.731 225.13 447.29C224.162 448.843 222.91 450.2 221.44 451.29C219.93 452.35 218.44 453.2 216.89 454.1C215.34 455 213.79 455.83 212.17 456.6Z" fill="#F4937D"/>
<path d="M215.08 461.76C216.28 460.8 217.517 459.9 218.79 459.06C220.05 458.21 221.35 457.41 222.6 456.59L223.06 456.29C223.165 456.224 223.254 456.135 223.32 456.03C223.51 455.76 223.69 455.42 223.88 455.1L225 453.1C225.74 451.78 226.54 450.47 227.38 449.19C226.95 450.661 226.429 452.104 225.82 453.51C225.53 454.22 225.19 454.9 224.82 455.6C224.64 455.95 224.46 456.28 224.23 456.6C224.158 456.709 224.078 456.813 223.99 456.91C223.9 456.998 223.803 457.079 223.7 457.15L223.21 457.49C220.636 459.158 217.914 460.587 215.08 461.76V461.76Z" fill="#F4937D"/>
<path d="M231.41 413.28C232.395 411.671 233.567 410.184 234.9 408.85C236.198 407.48 237.651 406.265 239.23 405.23C238.245 406.839 237.073 408.326 235.74 409.66C234.442 411.03 232.989 412.245 231.41 413.28V413.28Z" fill="#F4937D"/>
<path d="M246.64 409.25C244.82 411.08 242.92 412.82 241 414.53C239.08 416.24 237.13 417.92 235.17 419.58L234.42 420.19C234.196 420.372 233.989 420.573 233.8 420.79C233.428 421.227 233.139 421.728 232.95 422.27C232.755 422.834 232.647 423.424 232.63 424.02C232.57 424.687 232.5 425.327 232.42 425.94L231.98 429.77C231.79 431.05 231.64 432.32 231.41 433.6C231.41 432.31 231.41 431.02 231.41 429.73L231.53 425.87C231.53 425.23 231.53 424.59 231.61 423.95C231.611 423.273 231.709 422.6 231.9 421.95C232.116 421.274 232.455 420.643 232.9 420.09C233.13 419.82 233.38 419.57 233.65 419.34L234.39 418.72C236.39 417.09 238.39 415.45 240.39 413.89C242.39 412.33 244.51 410.72 246.64 409.25Z" fill="#F4937D"/>
<path d="M775.39 419.38C772.065 417.815 768.336 417.326 764.72 417.98C763.671 418.037 762.619 418.037 761.57 417.98C759.06 417.82 755.94 417.24 755.64 415.38C755.64 415.38 754.75 379.71 752.84 372.01C752.84 372.01 744.61 361.17 739.54 359.07C739.54 359.07 742.74 371.55 745.17 387.97C745.49 390.12 745.79 392.34 746.07 394.6C746.53 398.28 746.93 402.08 747.24 405.94L749.51 438.46C749.51 438.46 717.51 443 710.87 445.27C710.87 445.27 691.99 447.18 679.87 444.83C675.21 443.92 671.54 442.37 670.32 439.83C670.32 439.83 666.82 432.83 667.32 421.3L666.87 409.3L666.45 398.55C666.45 398.55 652.91 416.81 639.6 412.6C638.131 412.128 636.744 411.43 635.49 410.53C633.18 409.335 631.044 407.831 629.14 406.06C626.86 403.9 626.22 402.54 624.02 400.8C622.185 399.366 620.095 398.294 617.86 397.64C616.713 396.931 615.782 395.921 615.166 394.721C614.551 393.521 614.276 392.175 614.37 390.83C614.51 389.11 615.45 387.21 617.86 385.28L625.5 374.5C625.5 374.5 655.22 378.7 654.96 362.65L652.59 330.56C652.59 330.56 651.52 314.78 671.79 312.56L678.61 317.7L706.47 309.7C706.47 309.7 730.08 309.2 735.15 313.57C749.64 325.032 762.469 338.45 773.27 353.44C774.109 354.888 774.802 356.415 775.34 358C776.46 361.73 777.74 368.38 778.34 380L780.44 410.76C780.44 410.76 783.61 419.57 775.39 419.38Z" fill="#DE2562"/>
<path opacity="0.3" d="M757.33 386C755.89 383.183 755.14 380.064 755.14 376.9C755.14 373.736 755.89 370.617 757.33 367.8C749.54 362.6 742.71 354.47 742.71 354.47C733.77 338.47 732.95 338.06 732.95 338.06C733.95 351.55 734.58 356.11 734.58 356.11C736.58 364.59 741.06 381.01 743.04 388.17C699.94 392.56 671.81 352.51 671.81 352.51C662.5 333.21 659.01 338.82 659.01 338.82L656.55 382.31C658.65 409.05 639.62 412.62 639.62 412.62C652.93 416.83 666.47 398.57 666.47 398.57L666.89 409.32L675.89 422.65C679.39 433.87 710.89 445.25 710.89 445.25C717.54 442.98 749.53 438.44 749.53 438.44L747.26 405.92C746.96 402.05 746.54 398.25 746.08 394.56C746.01 393.96 745.93 393.37 745.85 392.79C745.85 392.49 745.78 392.2 745.74 391.91C745.56 390.56 745.37 389.23 745.18 387.91C742.75 371.5 739.55 359.01 739.55 359.01C744.62 361.11 752.85 371.95 752.85 371.95C754.76 379.65 755.65 415.32 755.65 415.32C755.95 417.18 759.07 417.76 761.58 417.92C758.66 412.21 757.33 386 757.33 386Z" fill="black"/>
<path d="M677.6 301.13V311L688.2 321.53L697.94 312.41L696.85 299L695.75 299.53L693.9 292.53L692.46 292.4C692.46 292.4 681.28 302.19 677.6 301.13Z" fill="#F9B499"/>
<path d="M677.6 301.13V306.94C677.6 306.94 689.12 303.65 694.32 294.15L693.9 292.54L692.46 292.41C692.46 292.41 681.28 302.19 677.6 301.13Z" fill="#F7A48B"/>
<path d="M667.1 334C667.1 334 678.77 320.7 688.41 322.49C688.41 322.49 697.17 320.61 699.96 323.44L709 334C709 334 713.44 303.66 697.35 304.59L697.98 312.34L688.24 321.46L677.6 311V307.8C677.6 307.8 667.47 309.12 667.1 334Z" fill="#28262C"/>
<path d="M804.53 621.63C801.67 625.15 796.93 627.41 792.13 628.86C786.874 630.351 781.459 631.214 776 631.43C769.29 624.98 750.09 574.93 735.92 536.23C735.916 536.193 735.916 536.157 735.92 536.12C726.8 511.21 719.75 491.02 719.48 490.24V626.9C719.488 628.145 719.086 629.359 718.336 630.353C717.586 631.347 716.53 632.066 715.33 632.4C706.75 634.68 697.25 633.65 691.13 632.51C690.42 632.37 689.76 632.24 689.13 632.1C687.877 631.827 686.751 631.142 685.934 630.154C685.116 629.166 684.653 627.932 684.62 626.65L680.06 451.65L679.89 444.84C692.02 447.19 710.89 445.28 710.89 445.28C717.54 443.01 749.53 438.47 749.53 438.47C755.98 442.36 759.53 469.69 760.87 483.55C761.36 488.38 761.59 491.55 761.59 491.55C765.38 519.17 804.53 621.63 804.53 621.63Z" fill="#28262C"/>
<path opacity="0.3" d="M719.44 490.21V575.3C709.19 518.73 710.08 459.93 710.08 459.93L719.44 490.21Z" fill="black"/>
<path opacity="0.3" d="M792.14 628.85C786.881 630.346 781.463 631.212 776 631.43C769.29 624.98 750.09 574.93 735.92 536.23C737.65 539.62 774.39 612 792.14 628.85Z" fill="black"/>
<path opacity="0.3" d="M760.85 483.53C754.16 480.03 747.48 471.04 744.23 466.21C742.555 463.66 740.398 461.462 737.88 459.74C719.32 447.4 691.1 450 680 451.63L679.83 444.82C691.96 447.17 710.83 445.26 710.83 445.26C717.48 442.99 749.47 438.45 749.47 438.45C756 442.34 759.47 469.67 760.85 483.53Z" fill="black"/>
<path d="M798.62 453C798.625 454.395 798.481 455.786 798.19 457.15C797.864 458.775 797.34 460.353 796.63 461.85C795.361 464.543 793.528 466.933 791.255 468.857C788.983 470.781 786.323 472.194 783.458 473.002C780.592 473.81 777.586 473.993 774.643 473.539C771.7 473.085 768.889 472.004 766.4 470.37L578 346.69L586.16 324.69L609.4 337.37L787.78 434.76C791.056 436.549 793.791 439.187 795.698 442.396C797.605 445.604 798.614 449.267 798.62 453Z" fill="#28262C"/>
<path opacity="0.3" d="M797.87 457C797.547 458.625 797.023 460.204 796.31 461.7C795.042 464.395 793.21 466.785 790.937 468.71C788.665 470.635 786.005 472.049 783.139 472.857C780.272 473.665 777.266 473.848 774.323 473.393C771.38 472.938 768.569 471.856 766.08 470.22L577.68 346.52L585.84 324.52L609.08 337.21C609.08 337.21 608.22 354.08 627.93 367.54L771.37 460.83C775.761 462.423 780.477 462.907 785.1 462.239C789.723 461.571 794.11 459.771 797.87 457Z" fill="white"/>
<path d="M462.78 119.77C434.165 119.77 406.193 128.255 382.4 144.153C358.608 160.051 340.064 182.647 329.113 209.083C318.163 235.52 315.297 264.611 320.88 292.676C326.462 320.741 340.242 346.52 360.476 366.754C380.71 386.988 406.489 400.768 434.554 406.35C462.619 411.933 491.71 409.067 518.147 398.117C544.583 387.166 567.179 368.622 583.077 344.83C598.975 321.037 607.46 293.065 607.46 264.45C607.461 245.45 603.72 226.636 596.45 209.082C589.179 191.528 578.522 175.578 565.087 162.143C551.652 148.708 535.702 138.051 518.148 130.78C500.594 123.51 481.78 119.769 462.78 119.77V119.77ZM462.6 385.31C438.738 385.31 415.411 378.234 395.57 364.977C375.73 351.72 360.266 332.877 351.134 310.831C342.002 288.785 339.613 264.526 344.268 241.122C348.924 217.719 360.414 196.221 377.288 179.348C394.161 162.474 415.659 150.984 439.062 146.328C462.466 141.673 486.725 144.062 508.771 153.194C530.817 162.326 549.66 177.79 562.917 197.63C576.174 217.471 583.25 240.798 583.25 264.66C583.25 296.658 570.539 327.346 547.912 349.972C525.286 372.599 494.598 385.31 462.6 385.31V385.31Z" fill="#28262C"/>
<path opacity="0.47" d="M462.78 385.1C529.413 385.1 583.43 331.083 583.43 264.45C583.43 197.817 529.413 143.8 462.78 143.8C396.147 143.8 342.13 197.817 342.13 264.45C342.13 331.083 396.147 385.1 462.78 385.1Z" fill="white"/>
<path opacity="0.47" d="M540.82 188C473.95 127.19 393.51 189.05 393.51 189.05C393.51 189.05 448.44 157.26 506.84 183.94C522.512 191.072 535.638 202.81 544.47 217.59C555.63 236.34 567.47 267.33 561.86 309.69C561.86 309.72 589.41 232.22 540.82 188Z" fill="white"/>
<path d="M720.36 654L661.64 655.22C659.45 641.22 672.26 642.35 672.26 642.35C680.92 641.42 685.61 639.2 688.12 637.1C689.419 636.121 690.397 634.777 690.93 633.24C690.93 633.14 690.98 633.06 691.01 632.97C691.036 632.881 691.056 632.791 691.07 632.7C691.07 632.58 691.07 632.51 691.07 632.51C697.19 633.65 706.69 634.68 715.27 632.4C719 636.13 720.02 644.28 720.27 649.4C720.43 652.12 720.36 654 720.36 654Z" fill="#DE2562"/>
<path opacity="0.3" d="M720.3 649.43C707.1 651.19 688.12 637.1 688.12 637.1C689.491 636.193 690.488 634.823 690.93 633.24C690.93 633.14 690.98 633.06 691.01 632.97C691.04 632.88 691.01 632.78 691.07 632.7C691.13 632.62 691.07 632.51 691.07 632.51C697.19 633.65 706.69 634.68 715.27 632.4C719 636.13 720 644.28 720.3 649.43Z" fill="black"/>
<path d="M790.55 651.67C771.77 654.23 774.72 643.36 776.03 640.07C776.25 639.49 776.42 639.15 776.42 639.15C777.781 636.78 778.627 634.149 778.9 631.43C794.97 629.36 798.17 626.48 798.17 626.48L803.44 638.08C803.883 639.075 804.218 640.114 804.44 641.18C806.59 651.67 790.55 651.67 790.55 651.67Z" fill="#DE2562"/>
<path opacity="0.3" d="M790.55 651.67C771.77 654.23 774.72 643.36 776.03 640.07C785.395 641.946 794.998 642.32 804.48 641.18C806.59 651.67 790.55 651.67 790.55 651.67Z" fill="black"/>
<path d="M697.054 281.957C700.296 268.497 694.68 255.599 684.51 253.15C674.341 250.701 663.469 259.628 660.227 273.089C656.986 286.55 662.602 299.447 672.771 301.896C682.941 304.345 693.813 295.418 697.054 281.957Z" fill="#F9B499"/>
<path d="M714.69 277.52C713.895 280.846 712.517 284.005 710.62 286.85V286.85C706.878 292.325 701.746 296.706 695.75 299.54C694.17 296.66 692.91 285.85 692.91 285.85C688.91 283.34 692.06 277.51 692.06 277.51C693.65 272.03 692.06 268.51 692.06 268.51C688.565 268.241 685.249 266.856 682.6 264.56C679.44 260.09 674.18 264.56 674.18 264.56C673.198 265.457 672.015 266.106 670.73 266.45C665.59 267.61 662.87 260.36 662.87 260.36C657.35 246.94 672.59 244.04 672.59 244.04C670.47 249.26 677.14 246.82 680.83 245.15C682.908 244.2 685.121 243.579 687.39 243.31C713.03 240.41 712.32 270.08 712.32 270.08C712.826 270.396 713.263 270.811 713.606 271.298C713.95 271.786 714.192 272.337 714.32 272.92C714.692 274.423 714.817 275.977 714.69 277.52V277.52Z" fill="#28262C"/>
<path opacity="0.2" d="M672.6 244.05C672.23 244.839 672.169 245.738 672.43 246.57C672.661 247.374 672.997 248.144 673.43 248.86C673.88 249.6 674.37 250.34 674.89 251.09C675.434 251.856 675.938 252.651 676.4 253.47C674.64 252.618 673.159 251.283 672.13 249.62C671.601 248.737 671.295 247.738 671.24 246.71C671.194 246.184 671.297 245.655 671.537 245.184C671.778 244.714 672.146 244.321 672.6 244.05V244.05Z" fill="black"/>
<path opacity="0.2" d="M685 248.76C686.862 248.658 688.726 248.916 690.49 249.52C692.292 250.113 693.965 251.043 695.42 252.26C696.149 252.88 696.818 253.566 697.42 254.31C697.985 255.077 698.468 255.902 698.86 256.77C699.629 258.476 700.018 260.329 700 262.2C699.45 260.499 698.715 258.862 697.81 257.32C696.933 255.823 695.795 254.496 694.45 253.4C691.673 251.188 688.449 249.605 685 248.76V248.76Z" fill="black"/>
<path opacity="0.2" d="M710.62 286.85C706.878 292.325 701.746 296.706 695.75 299.54C694.17 296.66 692.91 285.85 692.91 285.85C688.91 283.34 692.06 277.51 692.06 277.51C693.65 272.03 692.06 268.51 692.06 268.51C688.565 268.241 685.249 266.856 682.6 264.56C679.44 260.09 674.18 264.56 674.18 264.56C673.198 265.457 672.015 266.106 670.73 266.45C670.83 266.45 669.92 263.18 671.24 260.36C671.291 260.255 671.367 260.163 671.461 260.093C671.555 260.023 671.665 259.977 671.781 259.958C671.896 259.94 672.015 259.949 672.126 259.986C672.237 260.023 672.338 260.086 672.42 260.17C673.42 261.1 675.52 262.41 679.78 261.56C681.122 261.277 682.519 261.413 683.782 261.95C685.044 262.486 686.112 263.397 686.84 264.56C686.842 264.593 686.842 264.627 686.84 264.66C687.303 265.382 687.964 265.955 688.745 266.309C689.525 266.664 690.392 266.786 691.24 266.66C692.17 266.567 693.103 266.794 693.887 267.303C694.67 267.812 695.257 268.573 695.55 269.46C696.07 271.09 696.21 273.62 695.44 277.54C695.44 277.54 692.98 283.27 698.94 280.29C698.94 280.29 704.2 277.47 705.26 282.91C705.31 282.89 705.59 288 710.62 286.85Z" fill="black"/>
<path opacity="0.2" d="M714.28 272.93C712.312 274.191 710.204 275.221 708 276C712.34 272.08 712.36 270 712.36 270C712.86 270.334 713.288 270.766 713.618 271.27C713.948 271.773 714.173 272.338 714.28 272.93V272.93Z" fill="black"/>
<path d="M699.067 286.096C701.113 282.815 700.979 279.037 698.768 277.659C696.557 276.28 693.106 277.822 691.06 281.104C689.014 284.385 689.147 288.163 691.358 289.542C693.57 290.92 697.021 289.378 699.067 286.096Z" fill="#F9B499"/>
<path d="M623.9 376.83L617.9 385.31L612.5 377.86L609.68 373.96C601.68 372.8 596.77 363.03 596.77 363.03C594.703 359.296 592.311 355.752 589.62 352.44C589.511 352.3 589.445 352.132 589.428 351.956C589.412 351.78 589.446 351.602 589.527 351.445C589.608 351.287 589.732 351.156 589.885 351.066C590.038 350.977 590.213 350.933 590.39 350.94C593.65 351.19 598 355.66 598 355.66V340.49C598 340.219 598.066 339.952 598.192 339.712C598.318 339.471 598.501 339.266 598.724 339.112C598.948 338.959 599.205 338.862 599.475 338.83C599.744 338.798 600.017 338.833 600.27 338.93L601.86 339.54V337C601.893 336.581 602.082 336.189 602.391 335.903C602.699 335.618 603.104 335.459 603.525 335.459C603.946 335.459 604.351 335.618 604.659 335.903C604.968 336.189 605.157 336.581 605.19 337V342.12C605.19 342.385 605.295 342.64 605.483 342.827C605.67 343.015 605.925 343.12 606.19 343.12H606.24C606.491 343.1 606.725 342.986 606.896 342.8C607.067 342.615 607.161 342.372 607.16 342.12L606.97 337.06C606.978 336.837 607.03 336.617 607.122 336.414C607.215 336.211 607.347 336.028 607.51 335.875C607.674 335.723 607.866 335.605 608.075 335.526C608.284 335.448 608.507 335.412 608.73 335.42C608.953 335.428 609.173 335.48 609.376 335.572C609.579 335.665 609.762 335.797 609.914 335.96C610.067 336.124 610.185 336.316 610.264 336.525C610.342 336.734 610.378 336.957 610.37 337.18L609.84 345.5V345.56C609.84 345.825 609.945 346.08 610.133 346.267C610.32 346.455 610.575 346.56 610.84 346.56C611.105 346.56 611.36 346.455 611.547 346.267C611.735 346.08 611.84 345.825 611.84 345.56L611.73 341.56V341.49C611.727 341.115 611.873 340.754 612.135 340.486C612.398 340.219 612.755 340.065 613.13 340.06C613.487 340.06 613.83 340.196 614.089 340.442C614.348 340.688 614.502 341.024 614.52 341.38L614.46 356.88C614.429 359.609 615.097 362.301 616.4 364.7C619.22 369.81 622.01 374.01 623.27 375.84L623.9 376.83Z" fill="#F9B499"/>
<path d="M601.84 339.54C602.371 341.882 602.623 344.279 602.59 346.68C602.628 349.085 602.376 351.485 601.84 353.83C601.308 351.485 601.057 349.085 601.09 346.68C601.063 344.279 601.314 341.883 601.84 339.54V339.54Z" fill="#F7A48B"/>
<path d="M606.19 343.08C606.71 344.581 606.964 346.162 606.94 347.75C606.97 349.342 606.716 350.927 606.19 352.43C605.659 350.928 605.405 349.343 605.44 347.75C605.411 346.161 605.665 344.58 606.19 343.08Z" fill="#F7A48B"/>
<path d="M610.78 346.51C611.296 347.424 611.555 348.461 611.53 349.51C611.564 350.56 611.304 351.599 610.78 352.51C610.261 351.597 610.001 350.56 610.03 349.51C610.005 348.461 610.264 347.424 610.78 346.51V346.51Z" fill="#F7A48B"/>
<path d="M592.1 351.4C592.1 351.4 597.75 357.4 598.42 362.03L597.98 355.67C596.294 353.903 594.302 352.457 592.1 351.4V351.4Z" fill="#F7A48B"/>
<path d="M623.9 376.83L617.9 385.31L612.5 377.86C616.148 377.717 619.756 377.043 623.21 375.86L623.9 376.83Z" fill="#F7A48B"/>
<path d="M775.39 419.38V421.43L775.13 435.29C775.13 440.9 767.42 447.74 767.42 447.74C764.97 449.67 763.04 448.61 763.04 448.61C760.23 448.97 760.4 447.21 760.4 447.21C756.2 445.45 763.94 431.9 763.94 431.9C765.58 425.16 758 421 758 421C751 415.1 755.65 415.42 755.65 415.42C755.95 417.28 759.07 417.86 761.58 418.02C762.629 418.077 763.681 418.077 764.73 418.02C768.338 417.356 772.064 417.831 775.39 419.38V419.38Z" fill="#F9B499"/>
<path d="M775.39 419.38V421.43C773.37 421.091 771.312 421.05 769.28 421.31C768.689 421.407 768.124 421.627 767.622 421.955C767.121 422.283 766.693 422.712 766.367 423.214C766.04 423.717 765.822 424.282 765.726 424.873C765.63 425.465 765.659 426.07 765.81 426.65C766.81 430.65 763.94 431.9 763.94 431.9C765.58 425.16 758 421 758 421C751 415.1 755.65 415.42 755.65 415.42C755.95 417.28 759.07 417.86 761.58 418.02C762.629 418.077 763.681 418.077 764.73 418.02C768.338 417.356 772.064 417.831 775.39 419.38V419.38Z" fill="#F7A48B"/>
<path d="M760.36 447.21C760.917 445.386 761.739 443.655 762.8 442.07C763.812 440.448 765.063 438.988 766.51 437.74C765.329 441.383 763.207 444.649 760.36 447.21V447.21Z" fill="#F7A48B"/>
<path d="M763 448.61C763.498 446.877 764.26 445.231 765.26 443.73C766.216 442.199 767.407 440.829 768.79 439.67C767.734 443.133 765.728 446.23 763 448.61V448.61Z" fill="#F7A48B"/>
</svg>
