<svg width="866" height="683" viewBox="0 0 866 683" fill="none" xmlns="http://www.w3.org/2000/svg">
<path d="M730.07 334H425.84V318.15H713.26C717.757 324.496 723.471 329.884 730.07 334V334Z" fill="#E6E6E6"/>
<path d="M745.09 341.31H425.84V334H730.07C730.47 334.25 730.88 334.51 731.3 334.75C731.3 334.75 736.66 337.07 745.09 341.31Z" fill="white"/>
<path d="M708.06 181.58H425.84V165.72H706.12C707.089 170.962 707.737 176.259 708.06 181.58Z" fill="#E6E6E6"/>
<path d="M708.36 188.89H425.84V181.58H708.06C708.2 183.87 708.31 186.31 708.36 188.89Z" fill="white"/>
<path d="M425.84 53.48V545H405.12V60.76C412.52 57.86 419.43 55.46 425.84 53.48Z" fill="white"/>
<path d="M24.67 390.09C24.67 390.09 122.22 383.99 152.67 398.62C152.67 398.62 136.9 359.53 106.38 346.15C99.054 343.03 91.0761 341.75 83.1418 342.421C75.2075 343.092 67.5579 345.694 60.86 350C41.54 362.2 3.26 388.23 24.67 390.09Z" fill="#DE2562"/>
<path d="M60 284C60 284 32.57 303.51 77.4 331.56C77.4 331.56 141.73 369.36 156.4 373.02C156.4 373.02 141.89 299.85 91.84 284.02C91.8 284 74.66 275.47 60 284Z" fill="#DE2562"/>
<path d="M194.82 464.19C194.685 464.19 194.553 464.144 194.446 464.061C194.339 463.978 194.263 463.861 194.23 463.73C185.23 429.16 166.97 392.03 166.79 391.66C136.58 332.17 101.57 316.24 88.4 310.24C85.55 308.94 83.83 308.16 83.2 307.4C83.1389 307.34 83.0909 307.269 83.0592 307.19C83.0275 307.11 83.0128 307.026 83.0159 306.94C83.0191 306.855 83.0401 306.771 83.0776 306.695C83.115 306.618 83.1682 306.55 83.2335 306.496C83.2989 306.441 83.375 306.4 83.4569 306.377C83.5389 306.353 83.6249 306.347 83.7094 306.359C83.7939 306.37 83.8749 306.4 83.9474 306.445C84.0198 306.49 84.082 306.549 84.13 306.62C84.59 307.17 86.49 308.03 88.9 309.13C102.18 315.13 137.47 331.24 167.9 391.13C168.09 391.51 186.42 428.74 195.43 463.44C195.469 463.596 195.445 463.762 195.363 463.901C195.28 464.04 195.146 464.14 194.99 464.18L194.82 464.19Z" fill="#2F2E41"/>
<path opacity="0.2" d="M24.67 390.09C24.67 390.09 122.22 383.99 152.67 398.62C152.67 398.62 136.9 359.53 106.38 346.15C99.054 343.03 91.0761 341.75 83.1418 342.421C75.2075 343.092 67.5579 345.694 60.86 350C41.54 362.2 3.26 388.23 24.67 390.09Z" fill="black"/>
<path d="M193.58 464.19C193.448 464.188 193.319 464.143 193.215 464.062C193.11 463.981 193.035 463.868 193 463.74C186.44 440.1 179.18 430.11 179.11 430.01C162.82 396.41 129.41 383.89 104.24 379.27C87.283 376.247 69.9906 375.574 52.85 377.27C52.6925 377.284 52.5357 377.236 52.4127 377.137C52.2897 377.038 52.2101 376.894 52.1907 376.737C52.1712 376.581 52.2135 376.422 52.3085 376.296C52.4035 376.169 52.5438 376.085 52.7 376.06C69.9532 374.344 87.3608 375.017 104.43 378.06C129.89 382.72 163.69 395.4 180.14 429.37C180.39 429.68 187.54 439.51 194.14 463.37C194.183 463.525 194.163 463.691 194.085 463.832C194.006 463.972 193.875 464.076 193.72 464.12L193.58 464.19Z" fill="#2F2E41"/>
<path d="M75.22 376.4C75.0871 376.4 74.9576 376.358 74.85 376.28C57.54 363.12 36.95 366.79 36.74 366.83C36.5826 366.857 36.421 366.822 36.2887 366.732C36.1564 366.643 36.0638 366.506 36.03 366.35C36.0032 366.19 36.0393 366.026 36.1305 365.892C36.2218 365.758 36.3613 365.664 36.52 365.63C36.73 365.63 57.84 361.81 75.59 375.31C75.7164 375.409 75.7988 375.553 75.8194 375.712C75.84 375.872 75.7971 376.032 75.7 376.16C75.6441 376.235 75.5716 376.295 75.4883 376.337C75.405 376.378 75.3131 376.4 75.22 376.4Z" fill="#2F2E41"/>
<path d="M100.59 378.64C100.463 378.641 100.338 378.602 100.234 378.528C100.13 378.455 100.052 378.35 100.01 378.23C90.82 351.06 62.19 350 61.9 350C61.8204 349.999 61.7418 349.982 61.6688 349.95C61.5958 349.918 61.53 349.871 61.475 349.814C61.4201 349.756 61.3772 349.688 61.3489 349.613C61.3206 349.539 61.3074 349.46 61.31 349.38C61.3242 349.222 61.3946 349.075 61.5084 348.965C61.6222 348.855 61.7719 348.789 61.93 348.78C62.23 348.78 91.7 349.9 101.17 377.89C101.218 378.044 101.204 378.21 101.131 378.354C101.058 378.498 100.932 378.607 100.78 378.66C100.716 378.663 100.652 378.656 100.59 378.64V378.64Z" fill="#2F2E41"/>
<path d="M123.18 384C123.045 384 122.913 383.954 122.806 383.871C122.699 383.788 122.623 383.671 122.59 383.54C115.09 355.17 92.78 343.17 91 343C90.8493 342.973 90.7145 342.889 90.6223 342.767C90.5302 342.645 90.4874 342.492 90.5025 342.34C90.5176 342.187 90.5895 342.046 90.7039 341.944C90.8183 341.842 90.9669 341.787 91.12 341.79C92.92 341.96 115.96 353.88 123.73 383.27C123.751 383.347 123.757 383.428 123.747 383.508C123.737 383.588 123.711 383.665 123.671 383.734C123.631 383.804 123.578 383.865 123.514 383.914C123.45 383.963 123.378 383.999 123.3 384.02L123.18 384Z" fill="#2F2E41"/>
<path d="M51.71 389.84C51.5959 389.839 51.4842 389.807 51.3872 389.747C51.2902 389.687 51.2115 389.602 51.16 389.5C51.1239 389.428 51.1021 389.35 51.0961 389.271C51.0901 389.191 51.0999 389.11 51.125 389.034C51.1501 388.958 51.1899 388.887 51.2423 388.827C51.2946 388.766 51.3584 388.716 51.43 388.68C51.62 388.59 70.75 378.94 85.43 375.68C85.5864 375.647 85.7494 375.677 85.884 375.763C86.0186 375.849 86.1142 375.984 86.15 376.14C86.1692 376.218 86.1724 376.299 86.1595 376.379C86.1466 376.458 86.1178 376.534 86.0749 376.603C86.0319 376.671 85.9757 376.729 85.9096 376.775C85.8435 376.821 85.7688 376.854 85.69 376.87C71.16 380.1 52.17 389.67 52 389.77C51.9097 389.815 51.8107 389.838 51.71 389.84V389.84Z" fill="#2F2E41"/>
<path d="M85.53 389.84C85.4199 389.839 85.3121 389.808 85.2173 389.752C85.1226 389.696 85.0442 389.616 84.99 389.52C84.9142 389.378 84.8968 389.211 84.9416 389.056C84.9864 388.901 85.0899 388.77 85.23 388.69C85.9 388.32 101.83 379.61 114.5 380.27C114.586 380.265 114.672 380.278 114.752 380.309C114.832 380.34 114.905 380.387 114.966 380.448C115.027 380.509 115.074 380.582 115.105 380.662C115.135 380.743 115.148 380.828 115.144 380.914C115.139 381 115.116 381.084 115.076 381.16C115.036 381.237 114.981 381.304 114.914 381.357C114.846 381.41 114.768 381.449 114.685 381.47C114.602 381.491 114.515 381.495 114.43 381.48C102.14 380.82 85.99 389.67 85.82 389.76C85.7317 389.811 85.6319 389.838 85.53 389.84V389.84Z" fill="#2F2E41"/>
<path d="M105.48 319.16C105.326 319.163 105.177 319.106 105.063 319.002C104.949 318.898 104.88 318.754 104.87 318.6C104 307.15 90.77 291.6 90.64 291.46C90.534 291.338 90.4808 291.179 90.4921 291.018C90.5033 290.856 90.5781 290.706 90.7 290.6C90.7611 290.548 90.8318 290.509 90.908 290.484C90.9843 290.46 91.0647 290.45 91.1445 290.457C91.2244 290.463 91.3022 290.486 91.3735 290.522C91.4448 290.559 91.5082 290.609 91.56 290.67C92.12 291.31 105.19 306.67 106.08 318.51C106.087 318.59 106.078 318.67 106.053 318.746C106.028 318.822 105.989 318.892 105.937 318.953C105.885 319.013 105.821 319.063 105.749 319.098C105.678 319.134 105.6 319.155 105.52 319.16H105.48Z" fill="#2F2E41"/>
<path d="M124.43 333.56C124.284 333.561 124.142 333.509 124.032 333.413C123.921 333.318 123.849 333.185 123.83 333.04C122.106 321.955 118.497 311.247 113.16 301.38C113.09 301.316 113.036 301.237 113.002 301.149C112.968 301.06 112.955 300.965 112.964 300.871C112.973 300.777 113.004 300.686 113.054 300.606C113.104 300.525 113.173 300.458 113.254 300.409C113.334 300.359 113.426 300.33 113.52 300.322C113.614 300.314 113.709 300.328 113.797 300.363C113.885 300.398 113.964 300.453 114.027 300.524C114.09 300.594 114.135 300.679 114.16 300.77C119.585 310.77 123.252 321.628 125 332.87C125.023 333.029 124.982 333.191 124.887 333.32C124.791 333.449 124.649 333.535 124.49 333.56H124.43Z" fill="#2F2E41"/>
<path d="M120.82 330.4C120.719 330.402 120.619 330.378 120.53 330.33C108.53 323.85 85.85 327.18 85.62 327.22C85.5404 327.233 85.459 327.229 85.3807 327.21C85.3024 327.19 85.2289 327.155 85.1645 327.107C85.1001 327.058 85.0461 326.997 85.0058 326.927C84.9655 326.857 84.9397 326.78 84.93 326.7C84.9158 326.621 84.9179 326.54 84.9362 326.462C84.9544 326.383 84.9885 326.31 85.0363 326.245C85.084 326.18 85.1444 326.126 85.2139 326.086C85.2833 326.045 85.3602 326.02 85.44 326.01C86.38 325.87 108.7 322.59 121.11 329.25C121.181 329.288 121.244 329.339 121.295 329.402C121.347 329.464 121.385 329.536 121.408 329.613C121.431 329.69 121.439 329.771 121.431 329.851C121.423 329.931 121.398 330.009 121.36 330.08C121.307 330.177 121.228 330.257 121.133 330.313C121.039 330.37 120.93 330.4 120.82 330.4V330.4Z" fill="#2F2E41"/>
<path d="M141.2 351.28C141.051 351.281 140.907 351.224 140.8 351.12C128.41 340.05 105.72 340.51 105.49 340.52C105.328 340.52 105.173 340.456 105.059 340.341C104.944 340.227 104.88 340.072 104.88 339.91C104.88 339.748 104.944 339.593 105.059 339.479C105.173 339.364 105.328 339.3 105.49 339.3C106.49 339.3 128.89 338.81 141.64 350.22C141.754 350.334 141.817 350.489 141.817 350.65C141.817 350.811 141.754 350.966 141.64 351.08C141.583 351.141 141.515 351.19 141.44 351.224C141.364 351.258 141.283 351.277 141.2 351.28V351.28Z" fill="#2F2E41"/>
<path d="M98.29 314.64H98.21C85.46 312.99 63.46 314.64 63.21 314.64C63.0497 314.651 62.8916 314.598 62.7699 314.494C62.6482 314.389 62.5728 314.24 62.56 314.08C62.5532 314 62.5623 313.92 62.5869 313.844C62.6115 313.768 62.6511 313.698 62.7032 313.637C62.7554 313.577 62.8191 313.527 62.8907 313.492C62.9623 313.456 63.0402 313.435 63.12 313.43C63.34 313.43 85.48 311.77 98.35 313.43C98.4979 313.456 98.6309 313.536 98.7235 313.654C98.8161 313.773 98.8618 313.921 98.8519 314.071C98.842 314.221 98.7771 314.362 98.6698 314.467C98.5624 314.572 98.42 314.633 98.27 314.64H98.29Z" fill="#2F2E41"/>
<path d="M253.91 313.27C253.91 313.27 235.81 352.47 201.83 354.49C200.162 354.576 198.508 354.141 197.097 353.245C195.687 352.35 194.591 351.037 193.96 349.49C191.549 343.705 189.798 337.667 188.74 331.49C185.261 311.797 188.897 291.508 199 274.25C199 274.25 211.45 252.18 229.8 240.04C237.61 234.88 246.48 231.52 255.92 232.41C256.835 232.501 257.711 232.825 258.465 233.35C259.219 233.875 259.827 234.584 260.23 235.41C264.11 243.18 272.83 268.47 253.91 313.27Z" fill="#DE2562"/>
<path opacity="0.2" d="M229.84 240C229.84 240 227.21 284 188.74 331.52C185.253 311.817 188.89 291.517 199 274.25C199 274.25 211.49 252.18 229.84 240Z" fill="black"/>
<path d="M200.73 464.05C200.607 464.048 200.488 464.009 200.387 463.94C200.286 463.871 200.207 463.773 200.16 463.66C197.67 457.12 193.37 427.66 191.64 415.27C191.021 410.909 190.784 406.502 190.93 402.1C193.88 313.7 237.15 258.56 237.58 258.02C237.63 257.957 237.691 257.904 237.762 257.865C237.832 257.825 237.909 257.8 237.989 257.791C238.069 257.782 238.15 257.788 238.227 257.81C238.305 257.833 238.377 257.87 238.44 257.92C238.566 258.022 238.646 258.169 238.665 258.33C238.684 258.49 238.639 258.652 238.54 258.78C238.1 259.32 195.08 314.17 192.15 402.14C192.003 406.485 192.238 410.835 192.85 415.14C194.57 427.47 198.85 456.84 201.3 463.26C201.329 463.335 201.343 463.415 201.341 463.495C201.339 463.575 201.321 463.654 201.289 463.728C201.256 463.801 201.21 463.867 201.152 463.923C201.093 463.978 201.025 464.021 200.95 464.05C200.877 464.06 200.803 464.06 200.73 464.05V464.05Z" fill="#2F2E41"/>
<path d="M215.55 298.22C215.401 298.221 215.257 298.164 215.15 298.06C215.089 298.008 215.04 297.943 215.004 297.871C214.968 297.799 214.948 297.721 214.943 297.641C214.938 297.56 214.95 297.48 214.977 297.404C215.004 297.329 215.046 297.259 215.1 297.2C215.28 297 233.1 277.3 252.69 277.3C252.77 277.3 252.849 277.316 252.923 277.346C252.997 277.377 253.065 277.422 253.121 277.479C253.178 277.535 253.223 277.603 253.254 277.677C253.284 277.751 253.3 277.83 253.3 277.91C253.3 277.99 253.284 278.069 253.254 278.143C253.223 278.217 253.178 278.285 253.121 278.341C253.065 278.398 252.997 278.443 252.923 278.474C252.849 278.504 252.77 278.52 252.69 278.52C233.69 278.52 216.18 297.82 216.01 298.02C215.951 298.083 215.88 298.133 215.801 298.168C215.722 298.202 215.636 298.22 215.55 298.22V298.22Z" fill="#2F2E41"/>
<path d="M203 332.17C202.882 332.171 202.767 332.136 202.67 332.07C202.535 331.982 202.441 331.844 202.407 331.687C202.373 331.53 202.403 331.365 202.49 331.23C202.67 330.96 220.33 304.11 246.35 306.56C246.51 306.575 246.658 306.653 246.761 306.777C246.864 306.9 246.914 307.06 246.9 307.22C246.894 307.301 246.871 307.379 246.834 307.451C246.797 307.523 246.745 307.587 246.682 307.638C246.62 307.689 246.547 307.728 246.47 307.75C246.392 307.773 246.31 307.78 246.23 307.77C220.95 305.39 203.69 331.62 203.51 331.89C203.456 331.976 203.38 332.047 203.291 332.096C203.202 332.145 203.102 332.17 203 332.17V332.17Z" fill="#2F2E41"/>
<path d="M218.18 367.63C218.18 367.63 233.18 330.25 259.43 322.98C259.43 322.98 279.19 318.8 293.38 324.57C293.38 324.57 307.79 330.57 305.24 340.81C305.24 340.81 305.13 366.92 263.67 364.48C263.67 364.48 233.66 362.24 218.18 367.63Z" fill="#DE2562"/>
<path d="M285 354.74C285 354.67 281.7 347.53 274.75 347.18L274.81 345.96C282.52 346.35 285.98 353.96 286.12 354.25L285 354.74Z" fill="#2F2E41"/>
<path d="M199 462.41C198.93 459.05 197.49 379.89 225.41 359.15C226.52 357.91 241.71 342.04 291.73 346.8L291.62 348.02C241.3 343.23 226.43 359.83 226.29 360.02L226.19 360.11C198.72 380.42 200.19 461.58 200.19 462.4L199 462.41Z" fill="#2F2E41"/>
<path d="M246.82 350.88L245.67 350.46C250.24 337.74 268.78 331.25 269.57 330.98L269.96 332.14C269.78 332.2 251.19 338.71 246.82 350.88Z" fill="#2F2E41"/>
<path d="M266.85 347L266.01 346.11C277.32 335.47 286.61 334.11 287.01 334.11L287.17 335.32C287.07 335.28 277.85 336.63 266.85 347Z" fill="#2F2E41"/>
<path d="M254.57 362.27C249.95 350.72 236.35 353.95 235.77 354.1L235.47 352.92C235.62 352.92 250.68 349.27 255.7 361.82L254.57 362.27Z" fill="#2F2E41"/>
<path d="M274.24 361.09C274.16 360.97 265.92 348.51 256.49 348.85L256.44 347.63C266.44 347.23 274.91 359.89 275.26 360.43L274.24 361.09Z" fill="#2F2E41"/>
<path d="M211.38 463.65C211.38 463.24 207.06 422.47 240.85 414.5L241.13 415.69C208.4 423.41 212.54 463.11 212.59 463.51L211.38 463.65Z" fill="#2F2E41"/>
<path d="M173.67 334.66C173.67 334.66 152.96 338.87 128.44 289.49C128.44 289.49 94.17 235.23 118.56 188.89C118.56 188.89 135.63 146.21 167.34 151.09C167.34 151.09 207.73 165.04 217.54 218.58C220.537 235.118 219.989 252.103 215.931 268.413C211.873 284.723 204.398 299.985 194 313.19C187.896 320.955 181.091 328.142 173.67 334.66Z" fill="#DE2562"/>
<path d="M198.16 464.19C198.035 464.191 197.913 464.153 197.811 464.081C197.709 464.009 197.632 463.908 197.59 463.79C183.43 425.48 174.14 357.93 174.05 357.25C166.81 314.97 164.05 174.95 164.05 173.54C164.049 173.46 164.063 173.38 164.093 173.306C164.122 173.231 164.166 173.163 164.222 173.106C164.277 173.048 164.344 173.002 164.417 172.97C164.491 172.938 164.57 172.921 164.65 172.92C164.73 172.914 164.811 172.926 164.887 172.953C164.962 172.98 165.032 173.023 165.09 173.078C165.148 173.134 165.194 173.201 165.225 173.275C165.256 173.35 165.272 173.429 165.27 173.51C165.27 174.92 168.05 314.86 175.27 357.06C175.37 357.76 184.64 425.18 198.75 463.37C198.805 463.521 198.798 463.688 198.731 463.834C198.663 463.98 198.541 464.094 198.39 464.15C198.317 464.181 198.239 464.194 198.16 464.19V464.19Z" fill="#2F2E41"/>
<path d="M164.9 202.91C164.776 202.912 164.655 202.875 164.553 202.805C164.451 202.735 164.373 202.636 164.33 202.52C152.5 170.59 137.4 174.08 137.25 174.12C137.094 174.159 136.928 174.135 136.789 174.053C136.65 173.97 136.55 173.836 136.51 173.68C136.487 173.603 136.481 173.523 136.49 173.443C136.5 173.364 136.526 173.287 136.566 173.218C136.606 173.148 136.66 173.088 136.724 173.04C136.789 172.993 136.862 172.958 136.94 172.94C137.59 172.76 152.65 169.17 164.78 200.28C166.45 194.17 172.56 175.46 185.36 172.93C185.442 172.904 185.529 172.896 185.614 172.906C185.699 172.916 185.782 172.944 185.856 172.988C185.929 173.032 185.993 173.091 186.043 173.161C186.092 173.232 186.126 173.312 186.142 173.396C186.159 173.48 186.157 173.567 186.137 173.651C186.118 173.735 186.081 173.813 186.028 173.882C185.976 173.95 185.91 174.007 185.835 174.048C185.759 174.089 185.676 174.113 185.59 174.12C171.37 176.94 165.59 202.18 165.49 202.44C165.46 202.567 165.391 202.681 165.292 202.765C165.193 202.85 165.07 202.901 164.94 202.91H164.9Z" fill="#2F2E41"/>
<path d="M167.48 264C167.361 264 167.244 263.965 167.145 263.899C167.045 263.833 166.967 263.74 166.92 263.63L160.92 249.58C156.171 238.24 149.123 228.008 140.22 219.53C135.221 214.801 129.898 210.428 124.29 206.44C124.224 206.395 124.167 206.337 124.123 206.27C124.078 206.203 124.048 206.127 124.033 206.048C124.018 205.969 124.019 205.888 124.036 205.809C124.052 205.731 124.084 205.656 124.13 205.59C124.174 205.524 124.231 205.467 124.298 205.423C124.364 205.379 124.438 205.349 124.516 205.334C124.595 205.319 124.675 205.32 124.753 205.336C124.831 205.353 124.905 205.385 124.97 205.43C130.636 209.447 136.01 213.861 141.05 218.64C150.079 227.234 157.229 237.605 162.05 249.1L167.2 261.24C177.2 204.73 209.59 200.49 209.92 200.45C210.002 200.435 210.087 200.438 210.168 200.457C210.25 200.476 210.327 200.512 210.394 200.562C210.461 200.612 210.517 200.676 210.558 200.749C210.599 200.821 210.625 200.902 210.634 200.985C210.643 201.068 210.635 201.153 210.61 201.233C210.585 201.313 210.544 201.386 210.489 201.45C210.434 201.513 210.367 201.564 210.291 201.601C210.216 201.637 210.134 201.657 210.05 201.66C209.73 201.66 177.47 206.01 168.05 263.49C168.028 263.62 167.964 263.74 167.869 263.832C167.773 263.924 167.651 263.983 167.52 264H167.48Z" fill="#2F2E41"/>
<path d="M169.31 300.05C169.166 300.05 169.027 299.998 168.917 299.905C168.807 299.811 168.734 299.682 168.71 299.54C162.28 263.31 115.17 245.73 114.71 245.54C114.557 245.484 114.432 245.369 114.363 245.221C114.293 245.073 114.285 244.904 114.34 244.75C114.396 244.599 114.51 244.477 114.656 244.409C114.802 244.342 114.969 244.335 115.12 244.39C115.59 244.56 160.92 261.48 169.33 296.48C171.66 286.95 181.61 255.82 214.52 239.48C214.665 239.411 214.831 239.401 214.982 239.454C215.134 239.506 215.259 239.616 215.33 239.76C215.366 239.832 215.388 239.91 215.394 239.989C215.4 240.069 215.39 240.15 215.365 240.226C215.34 240.302 215.3 240.373 215.248 240.433C215.195 240.494 215.132 240.544 215.06 240.58C176.65 259.66 169.98 299.12 169.92 299.52C169.895 299.662 169.821 299.792 169.712 299.886C169.603 299.981 169.464 300.035 169.32 300.04L169.31 300.05Z" fill="#2F2E41"/>
<path d="M93.17 419.66C93.17 419.66 130.76 396.11 152.7 419.32C152.7 419.32 164.94 429.65 175.28 456.21C175.28 456.21 130.88 448.79 111.92 432.21C106.345 427.097 100.022 422.865 93.17 419.66V419.66Z" fill="#DE2562"/>
<path opacity="0.2" d="M93.17 419.66C93.17 419.66 130.76 396.11 152.7 419.32C152.7 419.32 164.94 429.65 175.28 456.21C175.28 456.21 130.88 448.79 111.92 432.21C106.345 427.097 100.022 422.865 93.17 419.66V419.66Z" fill="black"/>
<path d="M93.17 419.66C93.17 419.66 49.06 395 34.43 441.3C34.43 441.3 31.04 456.53 35.55 464.43C36.3836 465.855 37.662 466.966 39.1888 467.593C40.7155 468.22 42.4059 468.328 44 467.9C49 466.66 57.76 462.02 69.83 446.18C69.79 446.18 86.07 423.63 93.17 419.66Z" fill="#DE2562"/>
<path d="M39.84 456.82C39.7703 456.829 39.6997 456.829 39.63 456.82C39.4791 456.764 39.356 456.651 39.2869 456.505C39.2179 456.359 39.2082 456.193 39.26 456.04C39.41 455.64 54.4 415.75 93.26 419.1C93.3451 419.099 93.4296 419.115 93.508 419.148C93.5864 419.182 93.6569 419.231 93.7151 419.293C93.7732 419.355 93.8177 419.429 93.8457 419.51C93.8737 419.59 93.8845 419.675 93.8775 419.76C93.8705 419.845 93.8458 419.928 93.805 420.002C93.7642 420.077 93.7082 420.142 93.6406 420.194C93.573 420.246 93.4954 420.283 93.4126 420.303C93.3298 420.323 93.2438 420.325 93.16 420.31C55.23 417 40.55 456 40.41 456.42C40.3672 456.537 40.2896 456.638 40.1877 456.709C40.0858 456.781 39.9645 456.819 39.84 456.82V456.82Z" fill="#2F2E41"/>
<path d="M278.05 486.11C278.05 486.11 245.38 264.49 385.61 226.69C385.61 226.69 420.56 210.16 503.88 247.42C515.06 252.42 524.62 266.12 531.02 276.56C538.07 288.07 546.69 305.61 552.93 329.73C552.93 329.73 574.93 387.45 583.32 467.42L278.05 486.11Z" fill="#B3B3B3"/>
<path opacity="0.2" d="M308.78 443.74C296.63 416.3 319.63 329.74 319.63 329.74C324.38 290.11 393.43 284.74 393.43 284.74C409.79 285.49 420.36 269.86 420.36 269.86C405.12 239.86 421.85 223.03 421.85 223.03L484 214.41L508.2 240.64L376.46 440.1L308.78 443.74Z" fill="black"/>
<path d="M777 359.45V551.14C770.413 556.113 763.183 561.053 755.31 565.96V346.69C761.87 350.24 769.29 354.52 777 359.45Z" fill="white"/>
<path d="M755.33 346.69V566C752.11 568 748.777 570 745.33 572V341.44C748.31 343 751.69 344.7 755.33 346.69Z" fill="#E6E6E6"/>
<path d="M746.71 525.44L741.22 535C740.994 535.387 740.926 535.846 741.03 536.282C741.135 536.718 741.403 537.097 741.78 537.34L742.64 537.91C742.991 538.138 743.413 538.234 743.828 538.181C744.244 538.128 744.627 537.929 744.91 537.62L752.61 529.12L746.5 523.12L746.71 525.44Z" fill="#2F2E41"/>
<path d="M799.31 526.66L804.8 536.2C805.026 536.587 805.094 537.046 804.99 537.482C804.885 537.918 804.617 538.297 804.24 538.54L803.38 539.11C803.03 539.337 802.611 539.433 802.197 539.38C801.783 539.327 801.401 539.128 801.12 538.82L793.42 530.32L799.52 524.32L799.31 526.66Z" fill="#2F2E41"/>
<path d="M508.18 522.35L502.48 506.41L517.97 501.95L554.41 498.24L627.53 509.37L652.04 535.8L508.18 522.35Z" fill="white"/>
<path d="M660.12 509.37H627.53L554.41 498.24L527.66 479.71L592.3 476.78L660.12 509.37Z" fill="#E6E6E6"/>
<path d="M227.7 550.44L839.82 545.56L716.66 469.96L118.16 462.39L227.7 550.44Z" fill="#999999"/>
<path d="M518 502L572.58 496.44C572.75 496.426 572.91 496.353 573.032 496.235C573.155 496.116 573.233 495.959 573.253 495.789C573.273 495.62 573.234 495.449 573.142 495.305C573.05 495.161 572.912 495.054 572.75 495L498.41 469.5L445.41 477.93L518 502Z" fill="#CCCCCC"/>
<path d="M227.7 550.44L224.04 580.92L114.53 490.5L118.16 462.39L227.7 550.44Z" fill="#666666"/>
<path d="M412.43 288.88C412.43 288.88 371.72 302.16 367.08 308.32L353.87 386.77C352.288 396.104 353.372 405.695 357 414.44L382.52 475.65L481.9 459.59C491.003 447.758 497.261 433.989 500.19 419.35C500.19 419.35 500.19 364.48 524.57 331.56C524.57 331.56 520.81 320.03 479.4 309.33L412.43 288.88Z" fill="#DE2562"/>
<path d="M367.53 308.41C365.387 306.908 362.788 306.201 360.18 306.41C352.11 307.13 333.43 314.31 324.03 352.86C324.03 352.86 310.61 408.95 325.25 419.92L381.34 433.34C381.34 433.34 367.92 429.68 371.58 404.07C371.58 404.11 393.63 326.33 367.53 308.41Z" fill="#DE2562"/>
<path opacity="0.2" d="M367 308C365.086 306.784 362.832 306.216 360.57 306.38C352.71 306.95 333.57 313.72 324.06 352.86C324.06 352.86 310.64 408.95 325.28 419.92L381.37 433.34C381.37 433.34 367.95 429.68 371.61 404.07C371.58 404.11 394 325.23 367 308Z" fill="black"/>
<path d="M478.65 475L471.65 452.11L458.98 450.68L445.98 441.93C438.67 438.27 433.15 440.28 433.15 440.28L419.29 443.28C409.67 444.58 408.18 464.44 408.18 464.44L410.62 465.14C410.62 465.14 432.77 453.55 437.55 457.52L448.4 465C448.4 465 451.74 466.19 452.51 471.12C452.51 471.12 459.86 481.12 467.95 477.86C469.082 477.394 470.249 477.016 471.44 476.73L478.65 475Z" fill="#F9B499"/>
<path d="M455 474.43C454.883 474.427 454.769 474.393 454.67 474.33C454.601 474.288 454.542 474.233 454.495 474.167C454.448 474.102 454.415 474.028 454.399 473.949C454.382 473.87 454.381 473.789 454.397 473.71C454.413 473.631 454.444 473.556 454.49 473.49L460.13 464.75C460.229 464.648 460.36 464.585 460.501 464.569C460.642 464.554 460.784 464.589 460.903 464.667C461.021 464.745 461.109 464.862 461.15 464.997C461.192 465.133 461.184 465.279 461.13 465.41L455.48 474.15C455.428 474.231 455.357 474.299 455.274 474.348C455.19 474.397 455.096 474.425 455 474.43Z" fill="#F7A48B"/>
<g opacity="0.2">
<path d="M406.726 297.481L376.234 308.435L376.647 309.583L407.139 298.629L406.726 297.481Z" fill="black"/>
</g>
<g opacity="0.2">
<path d="M517.62 328.94C509.34 322.94 476.88 315.09 476.56 315.01L476.84 313.83C478.18 314.15 509.84 321.83 518.33 327.95L517.62 328.94Z" fill="black"/>
</g>
<path d="M431.75 506.12L444.66 510.31L517.97 501.95L452.01 479.99L437.48 465.08L421.85 475.8L411.82 494.35L431.75 506.12Z" fill="#E6E6E6"/>
<path d="M444.66 510.31L406.33 496.05V506.03L444.66 516.78V510.31Z" fill="#2F2E41"/>
<path d="M224.04 580.92L839.82 568.42V545.56L227.7 550.44L224.04 580.92Z" fill="#808080"/>
<path d="M733.44 496.82L742.13 497.25" stroke="#FF0000" stroke-width="0.25" stroke-miterlimit="10"/>
<path d="M244.16 409.6C244.16 409.6 255.76 400.6 276.16 396.6L274.96 417.6C274.96 417.6 258.79 409.6 244.16 409.6Z" fill="#DE2562"/>
<path d="M468.82 312.16C468.66 331.86 463.44 339.9 458.55 343.16C456.076 344.841 453.05 345.504 450.1 345.01C415.2 340.74 411.83 289.53 411.83 289.53L430.7 269.93C427.33 288.71 433.16 305.93 446.49 312.12C453.35 315.28 461.17 315.1 468.82 312.16Z" fill="#F9B499"/>
<path d="M468.82 312.16C468.66 331.86 463.44 339.9 458.55 343.16L436.94 319.59C420.87 301.2 430.37 270.97 430.7 269.93C427.33 288.71 433.16 305.93 446.49 312.12C453.35 315.28 461.17 315.1 468.82 312.16Z" fill="#F7A48B"/>
<path d="M498.25 282.48C491.41 297.12 480.31 307.74 468.82 312.16C461.17 315.1 453.35 315.28 446.49 312.06C433.16 305.83 427.33 288.65 430.7 269.87C431.737 264.164 433.512 258.618 435.98 253.37C447.37 229 470.55 215.75 487.74 223.79C504.93 231.83 509.64 258.1 498.25 282.48Z" fill="#F9B499"/>
<path d="M442.31 244.37C442.31 244.91 442.31 245.43 442.23 245.96C441.65 253.3 436.99 258.96 431.33 258.96C425.27 258.96 420.33 252.41 420.33 244.32C420.33 238.75 422.66 233.91 426.09 231.45C427.594 230.321 429.42 229.704 431.3 229.69C437.39 229.74 442.31 236.29 442.31 244.37Z" fill="#F9B499"/>
<path d="M533.76 238.28C533.76 238.28 547.17 251.69 527.66 265.1C527.66 265.1 523.41 288.42 499.92 278.59C499.92 278.59 496.75 276.86 500.63 267.93C500.63 267.93 465.69 272.93 482.02 233.67C481.53 234.35 465.13 256.96 442.31 254.96C442.31 254.96 459.65 249.25 463.17 244.37C463.17 244.37 450.84 247.67 442.31 246.02L442.23 245.96C442.23 245.43 442.31 244.91 442.31 244.37C442.31 236.29 437.39 229.74 431.31 229.74C429.43 229.754 427.604 230.371 426.1 231.5C426.1 231.5 419.1 198.04 469.1 185.84C469.1 185.84 458.97 173.84 467.1 162.19C467.1 162.19 471.55 152.92 488.62 157.8C488.62 157.8 511.79 145.6 511.79 171.21C511.79 171.21 525.2 168.77 522.79 183.4C522.79 183.4 532.55 188.28 520.36 198.04C520.36 198.04 532.62 200.67 526.49 213.38C526.48 213.38 547.17 222.42 533.76 238.28Z" fill="#2F2E41"/>
<path d="M499.84 207.87C498.806 207.872 497.773 207.795 496.75 207.64C488.63 206.44 481.61 200.43 475.91 189.79C475.91 189.79 475.61 189.31 475.08 188.56C473.8 188.14 472.68 187.76 471.77 187.44C469.908 186.8 467.994 186.321 466.05 186.01C452.25 183.74 448.15 179.45 447.19 176.15C446.991 175.443 446.961 174.699 447.102 173.979C447.243 173.258 447.55 172.58 448 172C448.476 171.361 449.092 170.84 449.801 170.475C450.51 170.111 451.293 169.915 452.09 169.9H452.31C462.69 169.9 472.65 182.82 475.91 187.5C485.15 190.5 502.91 195.73 520.45 197.4L521.74 197.52L520.83 198.44C520.36 198.88 511.23 207.87 499.84 207.87ZM477 189.17C482.54 199.49 489.24 205.28 497 206.43C507 207.91 516.07 201.03 519 198.5C502.6 196.79 486.32 192.18 477 189.17ZM452.3 171.17H452.1C451.49 171.182 450.891 171.333 450.348 171.612C449.806 171.891 449.334 172.291 448.97 172.78C448.646 173.21 448.426 173.709 448.327 174.238C448.229 174.767 448.253 175.312 448.4 175.83C449.32 179.01 453.69 183.23 469.25 185.26H469.39C469.45 185.26 471.09 185.91 473.91 186.86C470 181.62 461.09 171.15 452.26 171.15L452.3 171.17Z" fill="#DE2562"/>
<path d="M472.32 186.99L465.47 213.89L460.6 212.67L466.46 195.51L450.09 225.75L444.75 221.21L467.3 185.23L472.32 186.99Z" fill="#DE2562"/>
<path d="M470.35 448L480.11 479.7L559.72 473.81C559.72 473.81 570.34 466.29 563.02 444.34L524.61 331.56C524.61 331.56 498.4 360.21 498.4 417.56L522.78 437.78L470.35 448Z" fill="#DE2562"/>
<path opacity="0.2" d="M498.4 417.52C497.66 396.52 503.49 374.08 517.97 358.31C516.86 359.87 515.59 361.58 514.46 363.13C503.9 379.13 499.25 398.49 498.4 417.52V417.52Z" fill="black"/>
<path d="M415.75 463C415.677 463.01 415.603 463.01 415.53 463C415.38 462.94 415.259 462.824 415.192 462.677C415.125 462.53 415.117 462.363 415.17 462.21C416.96 457.851 419.368 453.772 422.32 450.1C422.37 450.037 422.431 449.984 422.502 449.945C422.572 449.905 422.649 449.88 422.729 449.871C422.809 449.862 422.89 449.868 422.968 449.89C423.045 449.913 423.117 449.95 423.18 450C423.304 450.103 423.383 450.251 423.4 450.412C423.416 450.572 423.37 450.733 423.27 450.86C420.404 454.435 418.063 458.402 416.32 462.64C416.27 462.749 416.189 462.84 416.088 462.904C415.987 462.968 415.87 463.001 415.75 463V463Z" fill="#F7A48B"/>
<path d="M434.18 457C434.137 457.01 434.093 457.01 434.05 457C433.971 456.984 433.897 456.951 433.83 456.905C433.764 456.859 433.708 456.801 433.665 456.733C433.622 456.664 433.593 456.588 433.581 456.509C433.568 456.429 433.571 456.348 433.59 456.27C434.833 451.841 437.152 447.787 440.34 444.47C440.393 444.405 440.459 444.352 440.534 444.314C440.609 444.275 440.691 444.253 440.775 444.248C440.858 444.243 440.942 444.255 441.021 444.284C441.1 444.313 441.172 444.358 441.233 444.416C441.294 444.474 441.342 444.543 441.374 444.621C441.407 444.698 441.423 444.782 441.422 444.866C441.42 444.95 441.402 445.032 441.367 445.109C441.332 445.185 441.282 445.254 441.22 445.31C438.2 448.484 435.991 452.34 434.78 456.55C434.743 456.68 434.664 456.795 434.556 456.876C434.447 456.957 434.315 457.001 434.18 457V457Z" fill="#F7A48B"/>
<path d="M444.66 463C444.559 463.001 444.46 462.977 444.37 462.93C444.229 462.854 444.123 462.725 444.077 462.571C444.03 462.418 444.045 462.252 444.12 462.11L449.55 451.8C449.635 451.676 449.762 451.588 449.908 451.553C450.054 451.517 450.207 451.536 450.34 451.607C450.472 451.677 450.574 451.794 450.626 451.935C450.677 452.076 450.675 452.231 450.62 452.37L445.2 462.68C445.148 462.778 445.07 462.86 444.975 462.916C444.88 462.973 444.771 463.002 444.66 463V463Z" fill="#F7A48B"/>
<path d="M397.89 461.42L410.6 465.08C410.6 465.08 425.27 456.83 433.15 456.23C434.708 456.126 436.254 456.56 437.53 457.46L449.36 465.65C450.26 466.267 451.01 467.078 451.555 468.022C452.1 468.967 452.426 470.022 452.51 471.11C452.741 473.588 452.589 476.088 452.06 478.52C452.06 478.52 452.06 488.25 448.4 488.25C448.4 488.25 446.87 496.53 440.32 496.05C439.116 498.096 437.229 499.651 434.99 500.44C434.99 500.44 434.99 508.44 425.25 506.87C425.25 506.87 397.19 498 391.09 489.47L392.31 463.86L397.89 461.42Z" fill="#F7A48B"/>
<path d="M448.4 488.86C448.317 488.859 448.235 488.841 448.159 488.806C448.083 488.772 448.015 488.722 447.96 488.66L432.71 472.15C432.6 472.031 432.542 471.872 432.548 471.71C432.555 471.548 432.626 471.395 432.745 471.285C432.864 471.175 433.023 471.117 433.185 471.123C433.347 471.13 433.5 471.201 433.61 471.32L448.85 487.83C448.962 487.947 449.024 488.103 449.024 488.265C449.024 488.427 448.962 488.583 448.85 488.7C448.725 488.807 448.565 488.864 448.4 488.86V488.86Z" fill="#EF947F"/>
<path d="M408.16 487.64C408.087 487.65 408.013 487.65 407.94 487.64C407.79 487.58 407.671 487.463 407.607 487.315C407.543 487.167 407.541 487 407.6 486.85C407.6 486.7 413.53 471.97 424.6 461.03C424.656 460.973 424.723 460.927 424.797 460.896C424.87 460.865 424.95 460.848 425.03 460.848C425.11 460.848 425.19 460.865 425.263 460.896C425.337 460.927 425.404 460.973 425.46 461.03C425.572 461.147 425.634 461.303 425.634 461.465C425.634 461.627 425.572 461.783 425.46 461.9C414.54 472.65 408.76 487.15 408.7 487.29C408.652 487.393 408.575 487.48 408.48 487.542C408.385 487.604 408.274 487.638 408.16 487.64Z" fill="#EF947F"/>
<path d="M440.32 496.66C440.201 496.668 440.082 496.641 439.977 496.582C439.873 496.523 439.789 496.435 439.734 496.329C439.68 496.222 439.658 496.102 439.672 495.983C439.685 495.864 439.733 495.752 439.81 495.66C440.195 495.121 440.447 494.498 440.546 493.843C440.645 493.188 440.588 492.519 440.38 491.89C438.48 485.78 424.97 480.28 424.84 480.23C424.69 480.168 424.57 480.049 424.506 479.9C424.443 479.75 424.44 479.581 424.5 479.43C424.53 479.356 424.574 479.289 424.63 479.232C424.686 479.175 424.752 479.13 424.826 479.099C424.899 479.069 424.978 479.053 425.058 479.053C425.138 479.053 425.217 479.069 425.29 479.1C425.87 479.33 439.47 484.87 441.54 491.53C441.8 492.331 441.872 493.181 441.749 494.013C441.625 494.846 441.311 495.639 440.83 496.33C440.781 496.425 440.708 496.505 440.619 496.563C440.53 496.621 440.426 496.654 440.32 496.66V496.66Z" fill="#EF947F"/>
<path d="M435 501.05C434.867 501.05 434.738 501.008 434.63 500.93L421.48 491C421.347 490.902 421.259 490.755 421.235 490.592C421.21 490.429 421.252 490.263 421.35 490.13C421.448 489.997 421.595 489.909 421.758 489.885C421.921 489.86 422.087 489.902 422.22 490L435.36 500C435.488 500.097 435.572 500.241 435.595 500.4C435.617 500.559 435.576 500.721 435.48 500.85C435.419 500.916 435.345 500.968 435.262 501.003C435.179 501.037 435.09 501.053 435 501.05V501.05Z" fill="#EF947F"/>
<path opacity="0.2" d="M491.56 444.29L470.35 448.01" stroke="black" stroke-linecap="round" stroke-linejoin="round"/>
<path d="M343.54 505.32L346.29 481.64L206.28 462.39L203.31 483.02L343.54 505.32Z" fill="#525659"/>
<path d="M393.43 487.88L343.54 505.32L346.29 481.64L395.9 465.08L393.43 487.88Z" fill="#E6E6E6"/>
<g opacity="0.2">
<path d="M349.11 486.31C348.987 486.308 348.868 486.269 348.767 486.2C348.666 486.131 348.587 486.033 348.54 485.92C348.511 485.845 348.498 485.764 348.5 485.683C348.503 485.603 348.521 485.523 348.555 485.45C348.588 485.376 348.636 485.31 348.695 485.255C348.755 485.2 348.824 485.158 348.9 485.13L391.83 468.88C391.981 468.824 392.149 468.829 392.296 468.895C392.444 468.96 392.56 469.08 392.62 469.23C392.649 469.305 392.662 469.386 392.66 469.467C392.657 469.547 392.639 469.627 392.605 469.7C392.572 469.774 392.524 469.84 392.465 469.895C392.405 469.95 392.336 469.992 392.26 470.02L349.33 486.27C349.26 486.299 349.185 486.312 349.11 486.31Z" fill="black"/>
</g>
<g opacity="0.2">
<path d="M349.11 490C348.987 489.998 348.868 489.959 348.767 489.89C348.666 489.821 348.587 489.723 348.54 489.61C348.511 489.535 348.498 489.454 348.5 489.373C348.503 489.293 348.521 489.213 348.555 489.14C348.588 489.066 348.636 489 348.695 488.945C348.755 488.89 348.824 488.848 348.9 488.82L391.83 472.57C391.981 472.514 392.149 472.519 392.296 472.585C392.444 472.65 392.56 472.77 392.62 472.92C392.649 472.995 392.662 473.076 392.66 473.157C392.657 473.237 392.639 473.317 392.605 473.39C392.572 473.464 392.524 473.53 392.465 473.585C392.405 473.64 392.336 473.682 392.26 473.71L349.33 489.96C349.26 489.989 349.185 490.002 349.11 490V490Z" fill="black"/>
</g>
<g opacity="0.2">
<path d="M349.11 494.85C348.986 494.848 348.865 494.809 348.764 494.738C348.662 494.666 348.584 494.566 348.54 494.45C348.511 494.375 348.498 494.295 348.501 494.215C348.503 494.135 348.522 494.057 348.556 493.984C348.589 493.911 348.637 493.846 348.696 493.792C348.755 493.738 348.825 493.697 348.9 493.67L391.83 477.41C391.905 477.381 391.986 477.368 392.067 477.37C392.147 477.373 392.227 477.391 392.3 477.425C392.374 477.458 392.44 477.506 392.495 477.565C392.55 477.625 392.592 477.694 392.62 477.77C392.649 477.845 392.662 477.925 392.659 478.005C392.657 478.085 392.638 478.163 392.604 478.236C392.571 478.309 392.523 478.374 392.464 478.428C392.405 478.482 392.335 478.523 392.26 478.55L349.33 494.81C349.259 494.834 349.185 494.847 349.11 494.85V494.85Z" fill="black"/>
</g>
<g opacity="0.2">
<path d="M349.11 499.72C348.987 499.718 348.868 499.679 348.767 499.61C348.666 499.541 348.587 499.443 348.54 499.33C348.511 499.255 348.498 499.174 348.5 499.093C348.503 499.013 348.521 498.933 348.555 498.86C348.588 498.786 348.636 498.72 348.695 498.665C348.755 498.61 348.824 498.568 348.9 498.54L391.83 482.29C391.905 482.261 391.986 482.248 392.067 482.25C392.147 482.253 392.227 482.271 392.3 482.305C392.374 482.338 392.44 482.386 392.495 482.445C392.55 482.505 392.592 482.574 392.62 482.65C392.649 482.725 392.662 482.805 392.659 482.885C392.657 482.965 392.638 483.043 392.604 483.116C392.571 483.189 392.523 483.254 392.464 483.308C392.405 483.362 392.335 483.403 392.26 483.43L349.33 499.68C349.26 499.709 349.185 499.722 349.11 499.72V499.72Z" fill="black"/>
</g>
<path d="M206.28 462.39L346.29 481.64L395.9 465.08L326.51 449.06L266.72 439.47L206.28 462.39Z" fill="#5D6166"/>
<path d="M293.74 432.16L306.45 423.59C311.712 420.019 317.931 418.123 324.29 418.15C346.7 418.34 382.56 429.8 382.56 429.8L393.43 452.09C320.17 425.68 297.62 456.21 297.62 456.21C262.68 394.9 185.91 439.71 185.91 439.71L183.58 417.52L203.31 409C203.31 409 256.96 404.12 278.91 420L293.74 432.16Z" fill="#E6E6E6"/>
<g opacity="0.2">
<path d="M209.26 430.78C209.128 430.782 209 430.74 208.894 430.663C208.787 430.585 208.709 430.476 208.67 430.35L202.73 411C202.705 410.923 202.696 410.842 202.703 410.762C202.709 410.681 202.732 410.603 202.769 410.531C202.806 410.46 202.857 410.396 202.919 410.345C202.981 410.293 203.053 410.254 203.13 410.23C203.285 410.186 203.451 410.204 203.593 410.281C203.735 410.357 203.841 410.486 203.89 410.64L209.89 429.99C209.913 430.067 209.921 430.147 209.913 430.227C209.905 430.307 209.881 430.384 209.843 430.455C209.805 430.526 209.753 430.588 209.691 430.639C209.628 430.689 209.557 430.727 209.48 430.75L209.26 430.78Z" fill="black"/>
</g>
<g opacity="0.2">
<path d="M189.19 438.55C189.044 438.551 188.902 438.499 188.792 438.403C188.681 438.308 188.609 438.175 188.59 438.03L185.88 417.72C185.86 417.56 185.903 417.398 186 417.27C186.097 417.141 186.241 417.055 186.4 417.03C186.56 417.01 186.722 417.055 186.85 417.154C186.977 417.254 187.06 417.4 187.08 417.56L189.8 437.86C189.82 438.02 189.777 438.182 189.68 438.31C189.583 438.439 189.439 438.525 189.28 438.55H189.19Z" fill="black"/>
</g>
<g opacity="0.2">
<path d="M193.58 436.55C193.443 436.549 193.311 436.502 193.204 436.417C193.097 436.332 193.021 436.213 192.99 436.08L188.6 416.67C188.564 416.512 188.593 416.347 188.679 416.21C188.765 416.073 188.902 415.976 189.06 415.94C189.218 415.904 189.383 415.933 189.52 416.019C189.657 416.105 189.754 416.242 189.79 416.4L194.18 435.81C194.198 435.888 194.2 435.969 194.186 436.048C194.173 436.127 194.144 436.202 194.101 436.27C194.059 436.338 194.003 436.397 193.937 436.443C193.872 436.489 193.798 436.522 193.72 436.54L193.58 436.55Z" fill="black"/>
</g>
<g opacity="0.2">
<path d="M198.16 434.66C198.022 434.66 197.888 434.613 197.779 434.528C197.671 434.443 197.593 434.324 197.56 434.19L193 414.9C192.981 414.822 192.977 414.742 192.989 414.663C193.002 414.584 193.03 414.508 193.072 414.44C193.113 414.372 193.168 414.313 193.233 414.267C193.298 414.221 193.372 414.188 193.45 414.17C193.528 414.151 193.609 414.147 193.689 414.159C193.769 414.171 193.845 414.199 193.914 414.241C193.983 414.283 194.042 414.338 194.09 414.403C194.137 414.468 194.171 414.542 194.19 414.62L198.76 433.91C198.779 433.988 198.783 434.068 198.771 434.147C198.758 434.226 198.73 434.302 198.688 434.37C198.647 434.438 198.591 434.497 198.526 434.543C198.462 434.589 198.388 434.622 198.31 434.64C198.262 434.657 198.211 434.664 198.16 434.66Z" fill="black"/>
</g>
<g opacity="0.2">
<path d="M203.31 433.21C203.176 433.21 203.045 433.166 202.939 433.085C202.832 433.004 202.755 432.889 202.72 432.76L197.57 413.06C197.549 412.983 197.543 412.903 197.554 412.824C197.564 412.745 197.59 412.669 197.63 412.6C197.67 412.531 197.723 412.471 197.787 412.423C197.85 412.375 197.923 412.34 198 412.32C198.077 412.299 198.158 412.293 198.238 412.303C198.318 412.313 198.395 412.339 198.464 412.379C198.534 412.419 198.595 412.472 198.644 412.536C198.693 412.6 198.729 412.672 198.75 412.75L203.9 432.45C203.921 432.528 203.926 432.608 203.915 432.688C203.904 432.768 203.877 432.844 203.836 432.913C203.795 432.982 203.741 433.042 203.676 433.09C203.612 433.137 203.538 433.171 203.46 433.19C203.412 433.206 203.361 433.213 203.31 433.21V433.21Z" fill="black"/>
</g>
<path d="M185.91 439.71C185.91 439.71 260.19 433 276.91 452.09C276.91 452.09 284.33 457.66 289.57 471.73C289.57 471.73 291 472.29 301.57 473.8C302.376 473.912 303.197 473.766 303.915 473.384C304.634 473.001 305.213 472.401 305.57 471.67C308.06 466.51 315.82 455.39 336.36 456.42L400.84 466.3L393.42 452.09C322.6 425.68 297.61 456.21 297.61 456.21C297.61 456.21 279 410.27 215 427.92C204.992 431.035 195.262 434.978 185.91 439.71V439.71Z" fill="#2F2E41"/>
<path d="M344.15 505.32L341.71 528.49L203.92 503.43V483.02L344.15 505.32Z" fill="#DE2562"/>
<path d="M406.33 490.99L343.54 505.32L393.43 487.88L406.33 490.99Z" fill="#DE2562"/>
<path d="M341.1 528.49L343.54 505.32L408.16 490.99L406.33 509.37L341.1 528.49Z" fill="#E6E6E6"/>
<g opacity="0.2">
<path d="M349.11 510.35C348.961 510.351 348.817 510.298 348.705 510.201C348.593 510.103 348.52 509.968 348.5 509.821C348.481 509.673 348.515 509.524 348.598 509.4C348.681 509.277 348.806 509.188 348.95 509.15L406.18 493.65C406.329 493.626 406.481 493.658 406.607 493.739C406.734 493.821 406.826 493.946 406.865 494.091C406.905 494.236 406.89 494.391 406.822 494.526C406.755 494.66 406.64 494.765 406.5 494.82L349.27 510.33L349.11 510.35Z" fill="black"/>
</g>
<g opacity="0.2">
<path d="M347.9 516.44C347.757 516.434 347.621 516.377 347.515 516.281C347.41 516.184 347.342 516.054 347.323 515.912C347.303 515.77 347.335 515.626 347.411 515.505C347.487 515.384 347.604 515.294 347.74 515.25L405 499.75C405.076 499.727 405.156 499.72 405.235 499.729C405.314 499.738 405.39 499.763 405.459 499.802C405.529 499.842 405.589 499.894 405.637 499.958C405.685 500.021 405.72 500.093 405.74 500.17C405.783 500.325 405.763 500.491 405.685 500.632C405.606 500.772 405.475 500.876 405.32 500.92L348.09 516.42C348.029 516.442 347.964 516.449 347.9 516.44V516.44Z" fill="black"/>
</g>
<g opacity="0.2">
<path d="M347.9 521.32C347.751 521.321 347.607 521.268 347.495 521.171C347.383 521.073 347.31 520.938 347.29 520.791C347.271 520.643 347.305 520.494 347.388 520.37C347.471 520.247 347.596 520.158 347.74 520.12L405 504.62C405.077 504.599 405.157 504.593 405.236 504.604C405.315 504.614 405.391 504.64 405.46 504.68C405.529 504.72 405.589 504.773 405.637 504.837C405.685 504.9 405.72 504.973 405.74 505.05C405.783 505.205 405.763 505.371 405.685 505.512C405.606 505.652 405.475 505.756 405.32 505.8L348.09 521.3C348.029 521.322 347.964 521.329 347.9 521.32Z" fill="black"/>
</g>
<path d="M444.66 510.31V516.78L517.91 507.76L517.97 501.95L444.66 510.31Z" fill="#2F2E41"/>
<path opacity="0.2" d="M444.66 510.31V516.78L517.91 507.76L517.97 501.95L444.66 510.31Z" fill="black"/>
<path d="M663.39 471.87V487.69L762.3 493.07L761.78 469.96L663.39 471.87Z" fill="#DE2562"/>
<path d="M656.92 493.07L762.3 498.24V493.07L663.39 487.69L656.92 493.07Z" fill="#CCCCCC"/>
<path d="M656.92 493.07L658.13 506.42L761.78 513.86L762.3 498.24L656.92 493.07Z" fill="#B3B3B3"/>
<path d="M633 451.7L703.25 462.64L764.85 454.11L732.09 445.57L633 451.65V451.7Z" fill="#2F2E41"/>
<path d="M702.03 478.49L630.89 466.3L633 451.7L703.25 462.64L702.03 478.49Z" fill="white"/>
<path d="M698.92 468H698.82L633.66 458.39C633.5 458.363 633.356 458.275 633.259 458.145C633.162 458.014 633.12 457.851 633.14 457.69C633.152 457.61 633.18 457.534 633.222 457.465C633.264 457.396 633.319 457.337 633.384 457.289C633.449 457.242 633.523 457.208 633.601 457.189C633.679 457.17 633.761 457.167 633.84 457.18L699 466.77C699.148 466.796 699.281 466.876 699.373 466.994C699.466 467.113 699.512 467.261 699.502 467.411C699.492 467.561 699.427 467.702 699.32 467.807C699.212 467.912 699.07 467.973 698.92 467.98V468Z" fill="#E6E6E6"/>
<path d="M698.38 473H698.26L633.64 460.91C633.56 460.896 633.484 460.865 633.416 460.821C633.348 460.777 633.289 460.72 633.244 460.653C633.198 460.586 633.166 460.51 633.15 460.431C633.134 460.351 633.134 460.27 633.15 460.19C633.182 460.033 633.274 459.894 633.407 459.804C633.539 459.714 633.702 459.681 633.86 459.71L698.49 471.8C698.569 471.814 698.643 471.844 698.71 471.888C698.777 471.932 698.834 471.988 698.879 472.054C698.924 472.12 698.955 472.195 698.971 472.273C698.986 472.351 698.986 472.432 698.97 472.51C698.943 472.647 698.869 472.77 698.762 472.859C698.654 472.948 698.52 472.998 698.38 473V473Z" fill="#E6E6E6"/>
<path d="M628.87 423.62L658.13 445.57L756.55 439.71L728.86 421.18L628.87 423.62Z" fill="#5D6166"/>
<path d="M627.65 435.81C627.65 435.81 657.48 458.51 657.51 459.11C657.54 459.71 658.14 445.57 658.14 445.57L628.87 423.62L627.65 435.81Z" fill="#E6E6E6"/>
<g opacity="0.21">
<path d="M655.7 448.62C655.565 448.621 655.435 448.575 655.33 448.49L629.72 429C629.592 428.903 629.508 428.759 629.485 428.6C629.463 428.441 629.504 428.279 629.6 428.15C629.699 428.021 629.845 427.937 630.006 427.914C630.166 427.892 630.33 427.933 630.46 428.03L656.07 447.54C656.197 447.641 656.28 447.787 656.3 447.948C656.321 448.108 656.278 448.271 656.18 448.4C656.122 448.471 656.049 448.528 655.966 448.566C655.882 448.604 655.792 448.622 655.7 448.62V448.62Z" fill="black"/>
</g>
<g opacity="0.21">
<path d="M655.7 452.28C655.565 452.281 655.435 452.235 655.33 452.15L629.72 432.64C629.592 432.543 629.508 432.399 629.485 432.24C629.463 432.081 629.504 431.919 629.6 431.79C629.699 431.661 629.845 431.577 630.006 431.554C630.166 431.532 630.33 431.573 630.46 431.67L656.07 451.18C656.197 451.281 656.28 451.427 656.3 451.588C656.321 451.748 656.278 451.911 656.18 452.04C656.123 452.113 656.05 452.172 655.967 452.214C655.884 452.255 655.793 452.278 655.7 452.28V452.28Z" fill="black"/>
</g>
<g opacity="0.21">
<path d="M654.48 454.72C654.346 454.716 654.217 454.671 654.11 454.59L628.5 435.08C628.436 435.032 628.383 434.972 628.343 434.903C628.303 434.834 628.277 434.757 628.266 434.678C628.256 434.599 628.262 434.519 628.283 434.442C628.304 434.365 628.341 434.293 628.39 434.23C628.487 434.102 628.631 434.018 628.79 433.995C628.95 433.973 629.111 434.014 629.24 434.11L654.85 453.62C654.977 453.721 655.06 453.867 655.08 454.028C655.101 454.188 655.058 454.351 654.96 454.48C654.903 454.553 654.83 454.612 654.747 454.654C654.664 454.695 654.573 454.718 654.48 454.72V454.72Z" fill="black"/>
</g>
<path d="M657.51 459.11L658.13 445.57L756.55 439.71V453.62L657.51 459.11Z" fill="#525659"/>
<path d="M703.25 462.64L702.03 478.49L761.78 469.96L764.85 454.11L703.25 462.64Z" fill="#2F2E41"/>
<path opacity="0.2" d="M703.25 462.64L702.03 478.49L761.78 469.96L764.85 454.11L703.25 462.64Z" fill="black"/>
<path d="M697.16 475.44H697.06L633.65 464.87C633.566 464.862 633.485 464.838 633.412 464.797C633.338 464.757 633.273 464.702 633.222 464.635C633.171 464.569 633.134 464.493 633.113 464.411C633.093 464.33 633.089 464.245 633.103 464.162C633.117 464.079 633.148 464 633.193 463.93C633.239 463.859 633.299 463.799 633.369 463.753C633.439 463.707 633.518 463.676 633.601 463.661C633.684 463.647 633.768 463.65 633.85 463.67L697.26 474.23C697.418 474.259 697.558 474.349 697.651 474.479C697.744 474.61 697.783 474.771 697.76 474.93C697.736 475.072 697.663 475.201 697.553 475.295C697.444 475.388 697.304 475.44 697.16 475.44V475.44Z" fill="#E6E6E6"/>
<path d="M777.33 536.41C799.383 536.41 817.26 517.987 817.26 495.26C817.26 472.533 799.383 454.11 777.33 454.11C755.277 454.11 737.4 472.533 737.4 495.26C737.4 517.987 755.277 536.41 777.33 536.41Z" fill="#DE2562"/>
<path opacity="0.2" d="M777.33 536.41C799.383 536.41 817.26 517.987 817.26 495.26C817.26 472.533 799.383 454.11 777.33 454.11C755.277 454.11 737.4 472.533 737.4 495.26C737.4 517.987 755.277 536.41 777.33 536.41Z" fill="black"/>
<path d="M749.76 463C749.638 463.001 749.518 462.964 749.418 462.894C749.318 462.824 749.241 462.725 749.2 462.61C749.11 462.39 747.15 457.09 748.37 444.29C748.37 443.77 748.12 429.85 754.74 427.91L755.44 427.71C761.52 425.92 769.08 423.71 785.65 426.07C785.94 426.13 791.91 427.52 791.47 438.28L792.27 453.46C792.129 454.902 791.664 456.293 790.91 457.53C790.861 457.593 790.8 457.646 790.731 457.685C790.662 457.724 790.585 457.749 790.506 457.758C790.427 457.768 790.347 457.761 790.27 457.739C790.194 457.717 790.122 457.68 790.06 457.63C789.997 457.58 789.944 457.519 789.905 457.448C789.865 457.378 789.84 457.301 789.831 457.221C789.822 457.141 789.828 457.06 789.85 456.983C789.873 456.905 789.91 456.833 789.96 456.77C790.561 455.745 790.932 454.602 791.05 453.42L790.25 438.29C790.65 428.57 785.64 427.29 785.43 427.29C769.17 424.97 761.75 427.16 755.79 428.91L755.09 429.11C749.35 430.79 749.58 444.23 749.59 444.37C748.39 456.95 750.31 462.16 750.33 462.21C750.359 462.284 750.373 462.363 750.371 462.443C750.369 462.522 750.351 462.601 750.318 462.673C750.286 462.746 750.239 462.811 750.181 462.866C750.123 462.92 750.055 462.962 749.98 462.99C749.908 463.008 749.833 463.012 749.76 463V463Z" fill="#DE2562"/>
<path d="M741.54 449.74L739.26 444.15C739.14 443.849 739.143 443.512 739.269 443.213C739.394 442.914 739.631 442.676 739.93 442.55L742.41 441.55C742.709 441.43 743.042 441.432 743.34 441.555C743.637 441.679 743.874 441.914 744 442.21L746.19 447.47L741.54 449.74Z" fill="#2F2E41"/>
<path d="M751.42 465.69C751.188 465.69 750.96 465.624 750.764 465.5C750.567 465.377 750.41 465.2 750.31 464.99L746.7 457.29C746.613 457.142 746.558 456.978 746.539 456.808C746.519 456.638 746.536 456.465 746.587 456.302C746.639 456.139 746.725 455.988 746.838 455.86C746.952 455.732 747.092 455.629 747.248 455.558C747.404 455.488 747.573 455.451 747.744 455.45C747.916 455.449 748.085 455.484 748.242 455.553C748.399 455.622 748.539 455.724 748.655 455.85C748.77 455.977 748.857 456.127 748.91 456.29L752.52 463.98C752.657 464.272 752.673 464.606 752.564 464.91C752.456 465.213 752.231 465.461 751.94 465.6C751.775 465.667 751.598 465.698 751.42 465.69V465.69Z" fill="#2F2E41"/>
<path d="M735.09 462.58L761.64 450.46C761.024 448.884 760.001 447.499 758.677 446.445C757.353 445.392 755.774 444.707 754.1 444.46C751.881 444.183 749.632 444.632 747.69 445.74L740.69 448.74C738.608 449.592 736.852 451.084 735.674 453.001C734.497 454.917 733.96 457.158 734.14 459.4C734.14 459.67 734.21 459.95 734.25 460.22L735.09 462.58Z" fill="#DE2562"/>
<path opacity="0.2" d="M735.09 462.58L761.64 450.46C761.024 448.884 760.001 447.499 758.677 446.445C757.353 445.392 755.774 444.707 754.1 444.46C751.881 444.183 749.632 444.632 747.69 445.74L740.69 448.74C738.608 449.592 736.852 451.084 735.674 453.001C734.497 454.917 733.96 457.158 734.14 459.4C734.14 459.67 734.21 459.95 734.25 460.22L735.09 462.58Z" fill="black"/>
<path d="M770.62 533.36C792.336 533.36 809.94 516.163 809.94 494.95C809.94 473.737 792.336 456.54 770.62 456.54C748.904 456.54 731.3 473.737 731.3 494.95C731.3 516.163 748.904 533.36 770.62 533.36Z" fill="#DE2562"/>
<path opacity="0.2" d="M770.62 533.36C792.336 533.36 809.94 516.163 809.94 494.95C809.94 473.737 792.336 456.54 770.62 456.54C748.904 456.54 731.3 473.737 731.3 494.95C731.3 516.163 748.904 533.36 770.62 533.36Z" fill="white"/>
<path opacity="0.2" d="M770.62 529.09C789.928 529.09 805.58 513.805 805.58 494.95C805.58 476.095 789.928 460.81 770.62 460.81C751.312 460.81 735.66 476.095 735.66 494.95C735.66 513.805 751.312 529.09 770.62 529.09Z" fill="white"/>
<path d="M771.54 496.18C773.224 496.18 774.59 494.814 774.59 493.13C774.59 491.446 773.224 490.08 771.54 490.08C769.856 490.08 768.49 491.446 768.49 493.13C768.49 494.814 769.856 496.18 771.54 496.18Z" fill="#2F2E41"/>
<path d="M761.64 511.42C761.533 511.417 761.428 511.386 761.336 511.331C761.244 511.275 761.168 511.197 761.116 511.103C761.063 511.009 761.036 510.903 761.037 510.796C761.038 510.688 761.066 510.583 761.12 510.49L771.81 492.65C771.878 492.545 771.975 492.461 772.09 492.41L793 483.24C793.15 483.176 793.319 483.174 793.471 483.234C793.622 483.294 793.744 483.411 793.81 483.56C793.873 483.709 793.875 483.876 793.815 484.026C793.755 484.176 793.638 484.296 793.49 484.36L772.79 493.45L762.2 511.12C762.142 511.215 762.059 511.293 761.961 511.346C761.862 511.398 761.752 511.424 761.64 511.42V511.42Z" fill="#DE2562"/>
<path d="M787.42 473C787.277 472.997 787.139 472.944 787.03 472.85C786.915 472.74 786.848 472.59 786.842 472.431C786.837 472.272 786.893 472.118 787 472L792.15 465.91C792.255 465.787 792.403 465.711 792.564 465.696C792.724 465.681 792.884 465.729 793.01 465.83C793.071 465.882 793.121 465.945 793.158 466.017C793.194 466.088 793.217 466.166 793.223 466.245C793.23 466.325 793.22 466.406 793.196 466.482C793.171 466.558 793.132 466.629 793.08 466.69L787.93 472.79C787.867 472.862 787.788 472.918 787.7 472.955C787.611 472.991 787.515 473.007 787.42 473V473Z" fill="#DE2562"/>
<path d="M774.41 468C774.248 468 774.093 467.936 773.979 467.821C773.864 467.707 773.8 467.552 773.8 467.39V459.13C773.803 458.969 773.868 458.815 773.982 458.702C774.095 458.588 774.249 458.523 774.41 458.52C774.572 458.52 774.727 458.584 774.841 458.699C774.956 458.813 775.02 458.968 775.02 459.13V467.39C775.02 467.552 774.956 467.707 774.841 467.821C774.727 467.936 774.572 468 774.41 468Z" fill="#DE2562"/>
<path d="M743 517.63C742.887 517.625 742.777 517.588 742.683 517.524C742.59 517.459 742.516 517.37 742.47 517.266C742.424 517.162 742.409 517.048 742.425 516.935C742.44 516.823 742.487 516.717 742.56 516.63L748.56 510.41C748.616 510.353 748.683 510.307 748.757 510.276C748.83 510.245 748.91 510.228 748.99 510.228C749.07 510.228 749.15 510.245 749.223 510.276C749.297 510.307 749.364 510.353 749.42 510.41C749.534 510.524 749.597 510.679 749.597 510.84C749.597 511.001 749.534 511.156 749.42 511.27L743.42 517.49C743.302 517.587 743.152 517.637 743 517.63V517.63Z" fill="#DE2562"/>
<path d="M797.91 520.44C797.825 520.439 797.742 520.421 797.664 520.387C797.587 520.352 797.517 520.302 797.46 520.24L792.13 514.32C792.073 514.264 792.027 514.197 791.996 514.123C791.965 514.049 791.948 513.97 791.948 513.89C791.948 513.81 791.965 513.73 791.996 513.657C792.027 513.583 792.073 513.516 792.13 513.46C792.186 513.403 792.253 513.357 792.327 513.326C792.4 513.295 792.48 513.278 792.56 513.278C792.64 513.278 792.72 513.295 792.793 513.326C792.867 513.357 792.934 513.403 792.99 513.46L798.32 519.37C798.434 519.486 798.498 519.642 798.498 519.805C798.498 519.968 798.434 520.124 798.32 520.24C798.213 520.356 798.067 520.427 797.91 520.44V520.44Z" fill="#DE2562"/>
<path d="M796.53 483.37C796.384 483.364 796.244 483.306 796.137 483.207C796.03 483.107 795.963 482.972 795.947 482.826C795.931 482.681 795.968 482.534 796.051 482.414C796.135 482.293 796.258 482.207 796.4 482.17L805.45 480.17C805.608 480.137 805.772 480.169 805.907 480.257C806.042 480.345 806.136 480.482 806.17 480.64C806.189 480.718 806.192 480.798 806.179 480.877C806.166 480.956 806.137 481.031 806.094 481.099C806.051 481.166 805.995 481.224 805.929 481.269C805.863 481.314 805.788 481.345 805.71 481.36L796.71 483.36L796.53 483.37Z" fill="#DE2562"/>
<path d="M807.51 500.44H807.4L798.61 498.85C798.451 498.821 798.31 498.73 798.218 498.596C798.126 498.463 798.091 498.299 798.12 498.14C798.149 497.981 798.24 497.84 798.374 497.748C798.507 497.656 798.671 497.621 798.83 497.65L807.62 499.24C807.77 499.267 807.904 499.35 807.996 499.471C808.088 499.592 808.131 499.744 808.117 499.895C808.104 500.047 808.034 500.188 807.921 500.29C807.809 500.393 807.662 500.45 807.51 500.45V500.44Z" fill="#DE2562"/>
<path d="M742.88 496.78H742.77L734 495.18C733.841 495.151 733.7 495.06 733.608 494.926C733.516 494.793 733.481 494.629 733.51 494.47C733.539 494.311 733.63 494.17 733.763 494.078C733.897 493.986 734.061 493.951 734.22 493.98L743.01 495.57C743.169 495.599 743.31 495.69 743.402 495.824C743.494 495.957 743.529 496.121 743.5 496.28C743.476 496.425 743.399 496.556 743.285 496.648C743.171 496.74 743.027 496.787 742.88 496.78V496.78Z" fill="#DE2562"/>
<path d="M745.69 482.36C745.565 482.362 745.442 482.324 745.34 482.25L738.22 477.25C738.087 477.157 737.997 477.015 737.969 476.856C737.941 476.697 737.977 476.533 738.07 476.4C738.163 476.267 738.305 476.177 738.464 476.149C738.623 476.121 738.787 476.157 738.92 476.25L746.04 481.25C746.149 481.322 746.231 481.428 746.275 481.551C746.318 481.674 746.32 481.808 746.281 481.932C746.241 482.057 746.162 482.165 746.055 482.24C745.949 482.316 745.82 482.354 745.69 482.35V482.36Z" fill="#DE2562"/>
<path d="M757.51 529.71C757.415 529.711 757.322 529.687 757.24 529.64C757.168 529.604 757.105 529.554 757.052 529.493C757 529.433 756.96 529.362 756.935 529.286C756.91 529.21 756.9 529.129 756.906 529.05C756.912 528.97 756.934 528.892 756.97 528.82L760.63 521.51C760.709 521.378 760.834 521.28 760.982 521.237C761.129 521.193 761.287 521.207 761.425 521.275C761.563 521.343 761.67 521.461 761.724 521.605C761.779 521.748 761.777 521.907 761.72 522.05L758.06 529.37C758.008 529.472 757.93 529.557 757.833 529.617C757.736 529.677 757.624 529.709 757.51 529.71V529.71Z" fill="#DE2562"/>
<path d="M779.57 530.7C779.408 530.7 779.253 530.636 779.139 530.521C779.024 530.407 778.96 530.252 778.96 530.09V521.78C778.96 521.618 779.024 521.463 779.139 521.349C779.253 521.234 779.408 521.17 779.57 521.17C779.732 521.17 779.887 521.234 780.001 521.349C780.116 521.463 780.18 521.618 780.18 521.78V530.09C780.18 530.252 780.116 530.407 780.001 530.521C779.887 530.636 779.732 530.7 779.57 530.7V530.7Z" fill="#DE2562"/>
<path d="M757.51 471.18C757.417 471.19 757.323 471.179 757.235 471.148C757.146 471.116 757.066 471.066 757 471L751.81 464.7C751.759 464.638 751.72 464.567 751.696 464.49C751.673 464.414 751.664 464.333 751.672 464.253C751.679 464.174 751.702 464.096 751.74 464.025C751.777 463.954 751.828 463.891 751.89 463.84C752.016 463.739 752.176 463.691 752.336 463.706C752.497 463.721 752.645 463.797 752.75 463.92L757.94 470.22C757.991 470.282 758.03 470.353 758.054 470.43C758.077 470.506 758.086 470.587 758.078 470.667C758.071 470.746 758.048 470.824 758.01 470.895C757.973 470.966 757.922 471.029 757.86 471.08C757.756 471.148 757.634 471.182 757.51 471.18V471.18Z" fill="#DE2562"/>
<g opacity="0.2">
<path d="M787.42 473C787.277 472.997 787.139 472.944 787.03 472.85C786.915 472.74 786.848 472.59 786.842 472.431C786.837 472.272 786.893 472.118 787 472L792.15 465.91C792.255 465.787 792.403 465.711 792.564 465.696C792.724 465.681 792.884 465.729 793.01 465.83C793.071 465.882 793.121 465.945 793.158 466.017C793.194 466.088 793.217 466.166 793.223 466.245C793.23 466.325 793.22 466.406 793.196 466.482C793.171 466.558 793.132 466.629 793.08 466.69L787.93 472.79C787.867 472.862 787.788 472.918 787.7 472.955C787.611 472.991 787.515 473.007 787.42 473V473Z" fill="white"/>
<path d="M774.41 468C774.248 468 774.093 467.936 773.979 467.821C773.864 467.707 773.8 467.552 773.8 467.39V459.13C773.803 458.969 773.868 458.815 773.982 458.702C774.095 458.588 774.249 458.523 774.41 458.52C774.572 458.52 774.727 458.584 774.841 458.699C774.956 458.813 775.02 458.968 775.02 459.13V467.39C775.02 467.552 774.956 467.707 774.841 467.821C774.727 467.936 774.572 468 774.41 468Z" fill="white"/>
<path d="M743 517.63C742.887 517.625 742.777 517.588 742.683 517.524C742.59 517.459 742.516 517.37 742.47 517.266C742.424 517.162 742.409 517.048 742.425 516.935C742.44 516.823 742.487 516.717 742.56 516.63L748.56 510.41C748.616 510.353 748.683 510.307 748.757 510.276C748.83 510.245 748.91 510.228 748.99 510.228C749.07 510.228 749.15 510.245 749.223 510.276C749.297 510.307 749.364 510.353 749.42 510.41C749.534 510.524 749.597 510.679 749.597 510.84C749.597 511.001 749.534 511.156 749.42 511.27L743.42 517.49C743.302 517.587 743.152 517.637 743 517.63V517.63Z" fill="white"/>
<path d="M797.91 520.44C797.825 520.439 797.742 520.421 797.664 520.387C797.587 520.352 797.517 520.302 797.46 520.24L792.13 514.32C792.073 514.264 792.027 514.197 791.996 514.123C791.965 514.049 791.948 513.97 791.948 513.89C791.948 513.81 791.965 513.73 791.996 513.657C792.027 513.583 792.073 513.516 792.13 513.46C792.186 513.403 792.253 513.357 792.327 513.326C792.4 513.295 792.48 513.278 792.56 513.278C792.64 513.278 792.72 513.295 792.793 513.326C792.867 513.357 792.934 513.403 792.99 513.46L798.32 519.37C798.434 519.486 798.498 519.642 798.498 519.805C798.498 519.968 798.434 520.124 798.32 520.24C798.213 520.356 798.067 520.427 797.91 520.44V520.44Z" fill="white"/>
<path d="M796.53 483.37C796.384 483.364 796.244 483.306 796.137 483.207C796.03 483.107 795.963 482.972 795.947 482.826C795.931 482.681 795.968 482.534 796.051 482.414C796.135 482.293 796.258 482.207 796.4 482.17L805.45 480.17C805.608 480.137 805.772 480.169 805.907 480.257C806.042 480.345 806.136 480.482 806.17 480.64C806.189 480.718 806.192 480.798 806.179 480.877C806.166 480.956 806.137 481.031 806.094 481.099C806.051 481.166 805.995 481.224 805.929 481.269C805.863 481.314 805.788 481.345 805.71 481.36L796.71 483.36L796.53 483.37Z" fill="white"/>
<path d="M807.51 500.44H807.4L798.61 498.85C798.451 498.821 798.31 498.73 798.218 498.596C798.126 498.463 798.091 498.299 798.12 498.14C798.149 497.981 798.24 497.84 798.374 497.748C798.507 497.656 798.671 497.621 798.83 497.65L807.62 499.24C807.77 499.267 807.904 499.35 807.996 499.471C808.088 499.592 808.131 499.744 808.117 499.895C808.104 500.047 808.034 500.188 807.921 500.29C807.809 500.393 807.662 500.45 807.51 500.45V500.44Z" fill="white"/>
<path d="M742.88 496.78H742.77L734 495.18C733.841 495.151 733.7 495.06 733.608 494.926C733.516 494.793 733.481 494.629 733.51 494.47C733.539 494.311 733.63 494.17 733.763 494.078C733.897 493.986 734.061 493.951 734.22 493.98L743.01 495.57C743.169 495.599 743.31 495.69 743.402 495.824C743.494 495.957 743.529 496.121 743.5 496.28C743.476 496.425 743.399 496.556 743.285 496.648C743.171 496.74 743.027 496.787 742.88 496.78V496.78Z" fill="white"/>
<path d="M745.69 482.36C745.565 482.362 745.442 482.324 745.34 482.25L738.22 477.25C738.087 477.157 737.997 477.015 737.969 476.856C737.941 476.697 737.977 476.533 738.07 476.4C738.163 476.267 738.305 476.177 738.464 476.149C738.623 476.121 738.787 476.157 738.92 476.25L746.04 481.25C746.149 481.322 746.231 481.428 746.275 481.551C746.318 481.674 746.32 481.808 746.281 481.932C746.241 482.057 746.162 482.165 746.055 482.24C745.949 482.316 745.82 482.354 745.69 482.35V482.36Z" fill="white"/>
<path d="M757.51 529.71C757.415 529.711 757.322 529.687 757.24 529.64C757.168 529.604 757.105 529.554 757.052 529.493C757 529.433 756.96 529.362 756.935 529.286C756.91 529.21 756.9 529.129 756.906 529.05C756.912 528.97 756.934 528.892 756.97 528.82L760.63 521.51C760.709 521.378 760.834 521.28 760.982 521.237C761.129 521.193 761.287 521.207 761.425 521.275C761.563 521.343 761.67 521.461 761.724 521.605C761.779 521.748 761.777 521.907 761.72 522.05L758.06 529.37C758.008 529.472 757.93 529.557 757.833 529.617C757.736 529.677 757.624 529.709 757.51 529.71V529.71Z" fill="white"/>
<path d="M779.57 530.7C779.408 530.7 779.253 530.636 779.139 530.521C779.024 530.407 778.96 530.252 778.96 530.09V521.78C778.96 521.618 779.024 521.463 779.139 521.349C779.253 521.234 779.408 521.17 779.57 521.17C779.732 521.17 779.887 521.234 780.001 521.349C780.116 521.463 780.18 521.618 780.18 521.78V530.09C780.18 530.252 780.116 530.407 780.001 530.521C779.887 530.636 779.732 530.7 779.57 530.7V530.7Z" fill="white"/>
<path d="M757.51 471.18C757.417 471.19 757.323 471.179 757.235 471.148C757.146 471.116 757.066 471.066 757 471L751.81 464.7C751.759 464.638 751.72 464.567 751.696 464.49C751.673 464.414 751.664 464.333 751.672 464.253C751.679 464.174 751.702 464.096 751.74 464.025C751.777 463.954 751.828 463.891 751.89 463.84C752.016 463.739 752.176 463.691 752.336 463.706C752.497 463.721 752.645 463.797 752.75 463.92L757.94 470.22C757.991 470.282 758.03 470.353 758.054 470.43C758.077 470.506 758.086 470.587 758.078 470.667C758.071 470.746 758.048 470.824 758.01 470.895C757.973 470.966 757.922 471.029 757.86 471.08C757.756 471.148 757.634 471.182 757.51 471.18V471.18Z" fill="white"/>
</g>
<path d="M795.49 444L798.39 438.7C798.546 438.416 798.808 438.205 799.119 438.114C799.43 438.022 799.765 438.056 800.05 438.21L802.39 439.49C802.674 439.646 802.885 439.908 802.976 440.219C803.068 440.53 803.034 440.865 802.88 441.15L800.19 446.15L795.49 444Z" fill="#2F2E41"/>
<path d="M790.44 459.59C790.261 459.593 790.083 459.555 789.92 459.48C789.627 459.343 789.4 459.096 789.29 458.792C789.179 458.488 789.194 458.153 789.33 457.86L792.11 451.86C792.255 451.586 792.499 451.378 792.792 451.278C793.086 451.178 793.406 451.193 793.688 451.32C793.971 451.447 794.194 451.677 794.314 451.963C794.433 452.249 794.439 452.57 794.33 452.86L791.54 458.86C791.447 459.075 791.294 459.259 791.098 459.388C790.903 459.518 790.674 459.588 790.44 459.59V459.59Z" fill="#2F2E41"/>
<path d="M780.68 446.18L806.86 459.11C807.692 457.636 808.121 455.968 808.101 454.275C808.082 452.582 807.616 450.925 806.75 449.47C805.569 447.584 803.817 446.123 801.75 445.3L792.62 441.56C792.62 441.56 787 437 782 444L780.68 446.18Z" fill="#DE2562"/>
<path opacity="0.2" d="M780.68 446.18L806.86 459.11C807.692 457.636 808.121 455.968 808.101 454.275C808.082 452.582 807.616 450.925 806.75 449.47C805.569 447.584 803.817 446.123 801.75 445.3L792.62 441.56C792.62 441.56 787 437 782 444L780.68 446.18Z" fill="black"/>
<path d="M174.4 425.45C174.4 425.45 155.14 386.45 168.56 362.04C168.56 362.04 181.19 341.23 204.56 342.41C206.366 342.509 208.071 343.273 209.347 344.554C210.622 345.836 211.379 347.544 211.47 349.35C211.66 353.51 210.37 359.92 204.75 369.26C204.76 369.26 179 410.82 174.4 425.45Z" fill="#DE2562"/>
<path opacity="0.2" d="M174.4 425.45C174.4 425.45 155.14 386.45 168.56 362.04C168.56 362.04 181.19 341.23 204.56 342.41C206.366 342.509 208.071 343.273 209.347 344.554C210.622 345.836 211.379 347.544 211.47 349.35C211.66 353.51 210.37 359.92 204.75 369.26C204.76 369.26 179 410.82 174.4 425.45Z" fill="black"/>
<path d="M187.84 464.19C187.727 464.19 187.616 464.16 187.519 464.102C187.422 464.043 187.343 463.96 187.29 463.86L176.55 442.8C164.36 418.42 188.9 365.26 190 363C190.071 362.856 190.195 362.746 190.347 362.692C190.498 362.638 190.664 362.644 190.81 362.71C190.883 362.743 190.949 362.791 191.003 362.85C191.058 362.909 191.1 362.978 191.128 363.053C191.156 363.128 191.169 363.208 191.166 363.288C191.162 363.368 191.144 363.447 191.11 363.52C190.85 364.07 165.77 418.4 177.69 442.25L188.43 463.3C188.466 463.372 188.488 463.45 188.494 463.53C188.5 463.609 188.49 463.69 188.465 463.766C188.44 463.842 188.4 463.913 188.348 463.973C188.295 464.034 188.232 464.084 188.16 464.12C188.064 464.177 187.951 464.202 187.84 464.19V464.19Z" fill="#2F2E41"/>
<path d="M179.6 393.11C179.463 393.108 179.33 393.062 179.22 392.98C179.157 392.93 179.104 392.869 179.065 392.798C179.025 392.728 179 392.651 178.991 392.571C178.982 392.491 178.988 392.41 179.01 392.333C179.033 392.255 179.07 392.183 179.12 392.12C179.59 391.51 190.88 377.17 197.92 374.19C198.067 374.135 198.229 374.139 198.373 374.201C198.517 374.263 198.631 374.378 198.693 374.522C198.755 374.665 198.759 374.828 198.704 374.974C198.65 375.121 198.541 375.241 198.4 375.31C191.64 378.17 180.19 392.73 180.08 392.87C180.024 392.945 179.952 393.005 179.868 393.047C179.785 393.088 179.693 393.11 179.6 393.11V393.11Z" fill="#2F2E41"/>
<path d="M181 388.65C180.862 388.651 180.727 388.606 180.618 388.52C180.509 388.435 180.432 388.315 180.4 388.18C176.97 372.73 182.96 353.68 183.02 353.49C183.04 353.409 183.077 353.333 183.128 353.267C183.178 353.201 183.242 353.146 183.315 353.105C183.388 353.065 183.468 353.04 183.551 353.031C183.634 353.023 183.718 353.032 183.797 353.057C183.876 353.083 183.95 353.124 184.013 353.179C184.075 353.233 184.126 353.301 184.162 353.376C184.198 353.451 184.218 353.533 184.221 353.616C184.224 353.699 184.21 353.782 184.18 353.86C184.12 354.05 178.24 372.8 181.59 387.91C181.608 387.988 181.61 388.069 181.596 388.148C181.583 388.227 181.554 388.303 181.511 388.37C181.469 388.438 181.413 388.497 181.347 388.543C181.282 388.589 181.208 388.622 181.13 388.64L181 388.65Z" fill="#2F2E41"/>
<path d="M177.09 402.39C176.921 402.389 176.759 402.32 176.64 402.2C166.77 391.81 170.37 376.68 170.4 376.53C170.442 376.375 170.543 376.241 170.68 376.158C170.818 376.074 170.982 376.046 171.14 376.08C171.218 376.099 171.292 376.133 171.357 376.18C171.422 376.228 171.477 376.287 171.519 376.356C171.561 376.425 171.589 376.501 171.601 376.581C171.613 376.661 171.609 376.742 171.59 376.82C171.59 376.97 168.12 391.46 177.53 401.36C177.644 401.474 177.707 401.629 177.707 401.79C177.707 401.951 177.644 402.106 177.53 402.22C177.411 402.332 177.253 402.392 177.09 402.39V402.39Z" fill="#2F2E41"/>
<path d="M179.32 464.19C179.186 464.189 179.057 464.144 178.95 464.063C178.844 463.982 178.767 463.869 178.73 463.74C172.59 441.5 94.41 420.51 93.62 420.31C93.5424 420.289 93.4697 420.253 93.4061 420.204C93.3425 420.155 93.2892 420.094 93.2492 420.024C93.2093 419.955 93.1835 419.878 93.1733 419.798C93.1631 419.718 93.1688 419.637 93.19 419.56C93.2097 419.483 93.2447 419.41 93.2927 419.347C93.3407 419.283 93.401 419.23 93.4699 419.19C93.5387 419.15 93.6149 419.124 93.6939 419.114C93.7729 419.103 93.8532 419.109 93.93 419.13C97.18 419.99 173.58 440.5 179.93 463.42C179.951 463.498 179.957 463.578 179.947 463.658C179.937 463.738 179.911 463.815 179.871 463.884C179.831 463.954 179.778 464.015 179.714 464.064C179.65 464.113 179.578 464.149 179.5 464.17L179.32 464.19Z" fill="#2F2E41"/>
<path d="M685.41 210.84L560.17 211.84L550.82 211.92L610 134V71.16C611.37 71.77 612.73 72.4 614.1 73.05C615.1 73.53 616.1 74.05 617.1 74.5C619.39 75.62 621.68 76.78 623.95 77.99V132.8L685.41 210.84Z" fill="#DE2562"/>
<path opacity="0.2" d="M641.06 183.75C641.06 183.75 632.77 197.34 600.06 199.21L560.17 211.8L550.82 211.88L610 134V71.16C611.37 71.77 612.73 72.4 614.1 73.05C615.1 73.53 616.1 74.05 617.1 74.5V133.72C617.1 133.72 651.43 168.85 641.06 183.75Z" fill="black"/>
<path d="M686.79 213.89C686.734 215.048 686.241 216.141 685.41 216.95C679.07 223.95 651.53 229.13 618.51 229.13C580.79 229.13 550.22 222.3 550.22 213.89C550.22 207.79 566.3 202.51 589.53 200.09C599.165 199.106 608.845 198.625 618.53 198.65C627.53 198.65 636.05 199.04 643.89 199.73C669 202 686.79 207.47 686.79 213.89Z" fill="white"/>
<path d="M686.79 213.89C686.734 215.048 686.241 216.141 685.41 216.95C645.01 201.11 617.29 202.3 617.29 202.3C586.8 202.3 550.22 213.89 550.22 213.89C550.22 207.79 566.3 202.51 589.53 200.09C599.165 199.106 608.845 198.625 618.53 198.65C627.53 198.65 636.05 199.04 643.89 199.73C669 202 686.79 207.47 686.79 213.89Z" fill="#CCCCCC"/>
<path d="M643.87 199.73C642.861 206.184 639.589 212.069 634.639 216.333C629.69 220.597 623.386 222.962 616.853 223.006C610.32 223.049 603.985 220.768 598.98 216.57C593.974 212.372 590.625 206.53 589.53 200.09C599.165 199.106 608.845 198.625 618.53 198.65C627.47 198.65 636 199 643.87 199.73Z" fill="#2F2E41"/>
<path d="M614.07 73.05H425.84V64.52H593.78C600.53 67 607.32 69.86 614.07 73.05Z" fill="white"/>
<path d="M593.78 64.52H425.84V53.52C454.56 44.66 473 44.29 477.77 44.36C478.66 44.36 479.53 44.36 480.41 44.36C489.48 44.24 540.51 44.63 593.78 64.52Z" fill="#E6E6E6"/>
</svg>
