<svg width="866" height="683" viewBox="0 0 866 683" fill="none" xmlns="http://www.w3.org/2000/svg">
<rect width="866" height="683" fill="transparent"/>
<path d="M675.2 328.69H502.32V96.52H675.2V328.69ZM503.8 327.21H673.73V98H503.8V327.21Z" fill="white"/>
<path opacity="0.7" d="M668 319H509.51V106.07H668V319ZM511 317.52H666.54V107.52H511V317.52Z" fill="white"/>
<path opacity="0.7" d="M630.47 268.47H547.05V156.66H630.47V268.47ZM548.53 267H629V158.14H548.53V267Z" fill="white"/>
<path d="M411.33 643.97C573.696 643.97 705.32 625.018 705.32 601.64C705.32 578.262 573.696 559.31 411.33 559.31C248.964 559.31 117.34 578.262 117.34 601.64C117.34 625.018 248.964 643.97 411.33 643.97Z" fill="#D81E5B"/>
<path opacity="0.7" d="M411.33 643.97C573.696 643.97 705.32 625.018 705.32 601.64C705.32 578.262 573.696 559.31 411.33 559.31C248.964 559.31 117.34 578.262 117.34 601.64C117.34 625.018 248.964 643.97 411.33 643.97Z" fill="white"/>
<path d="M338 633.17C338 633.17 335.4 639.61 346.09 637.55C346.09 637.55 357.33 634.4 364.59 627.96L359.42 624.9L338 633.17Z" fill="#28262C"/>
<path opacity="0.2" d="M338 633.17C338 633.17 335.4 639.61 346.09 637.55C346.09 637.55 357.33 634.4 364.59 627.96L359.42 624.9L338 633.17Z" fill="black"/>
<path d="M349.68 565.47L353.92 588.45L369.69 601.37L374.55 590.83L370.1 559.31L349.68 565.47Z" fill="#F9B499"/>
<path d="M350.89 572C350.89 572 364.98 580.15 372.2 574.16L374.55 590.8L369.69 601.34L353.92 588.42L350.89 572Z" fill="#E6E7E8"/>
<path d="M384.77 609.74C368.92 623.87 355.97 629.82 348.13 632.32C345.486 633.249 342.739 633.856 339.95 634.13C333.65 633.85 344.89 621.54 344.89 621.54C353.38 609.22 352.01 593.7 352.01 593.7L352.19 590.61C352.221 589.995 352.489 589.415 352.939 588.994C353.388 588.572 353.984 588.341 354.6 588.35C357.5 588.43 361.46 590.51 364.6 592.51C366.398 593.641 368.137 594.862 369.81 596.17C370.743 594.247 372.072 592.543 373.71 591.17C373.933 590.99 374.2 590.872 374.484 590.829C374.768 590.787 375.057 590.821 375.324 590.928C375.59 591.035 375.822 591.211 375.998 591.438C376.173 591.666 376.284 591.935 376.32 592.22L376.52 593.69C376.8 597.12 379.95 601.97 379.95 601.97L384.77 609.74Z" fill="#D81E5B"/>
<path opacity="0.2" d="M384.77 609.74C368.92 623.87 355.97 629.82 348.13 632.32C348.13 632.32 358.86 622.62 361.4 610.01C361.4 610.01 362.4 596.25 364.62 592.51C366.418 593.641 368.157 594.862 369.83 596.17C370.754 594.25 372.073 592.546 373.7 591.17C373.921 590.986 374.186 590.864 374.469 590.816C374.753 590.768 375.044 590.797 375.312 590.899C375.581 591 375.818 591.172 375.998 591.395C376.179 591.619 376.297 591.886 376.34 592.17L376.54 593.64C376.82 597.07 379.97 601.92 379.97 601.92L384.77 609.74Z" fill="black"/>
<path d="M499.19 605.43H505.76L501 499.22L488.15 500.95L499.19 605.43Z" fill="#BCBEC0"/>
<path d="M523.65 580.06L513.91 490.79L525.92 477.93L530.45 580.06H523.65Z" fill="#BCBEC0"/>
<path d="M381.88 598.77H388.66L400.54 497.05L386.6 495.6L381.88 598.77Z" fill="#BCBEC0"/>
<path d="M427.55 558.31L423.3 572.82L416.3 596.82L413 600.91C412.742 601.254 412.405 601.531 412.016 601.716C411.627 601.9 411.2 601.988 410.77 601.97C408.13 601.76 408.66 597.56 408.66 597.56C410.08 591.28 396.37 591.13 396.37 591.13C398.6 583.58 400.09 572.88 400.98 564.63C401.75 557.56 402.08 552.28 402.08 552.28L410.23 547.85L427.55 558.31Z" fill="#F9B499"/>
<path d="M423.3 572.82L416.3 596.82L413 600.91C412.742 601.254 412.405 601.531 412.016 601.716C411.627 601.9 411.2 601.988 410.77 601.97C408.13 601.76 408.66 597.56 408.66 597.56C410.08 591.28 396.37 591.13 396.37 591.13C398.6 583.58 400.09 572.88 400.98 564.63C407.62 569.18 415.293 571.996 423.3 572.82V572.82Z" fill="#E6E7E8"/>
<path d="M396.34 289.16C396.34 289.16 369.28 288.45 365.78 312.06C365.78 312.06 359.23 337.29 355.49 344.77L375.44 366H501.15L499.68 341.46C499.68 341.46 499.26 299.2 485.19 291.92L477.05 288.67L427.8 283.04L411.58 269.72L396.34 289.16Z" fill="#D81E5B"/>
<path d="M526.25 476.66C526.167 477.09 526.057 477.514 525.92 477.93C523 486.79 508.14 496.73 507.68 497.04C502.47 504.74 486.39 502.93 486.39 502.93L386.61 499.21C375.16 497.31 381.97 485.07 381.97 485.07L405.08 426.59L397.6 412.33C397.6 412.33 465.4 405.42 507.09 406.03C525.3 406.29 538.53 408.03 538.94 412.33C540.29 426.61 526.25 476.66 526.25 476.66Z" fill="#D1D3D4"/>
<path opacity="0.1" d="M525.91 477.91C522.91 486.91 507.66 497.03 507.66 497.03C507.66 497.03 493.17 497.2 497.66 490.77L509.43 475.77C509.43 475.77 510.34 472.14 516.68 471.92H525.29C525.771 473.879 525.98 475.894 525.91 477.91V477.91Z" fill="black"/>
<path opacity="0.1" d="M519.22 471.91L507.68 497C502.47 504.7 486.39 502.89 486.39 502.89L386.61 499.17C375.16 497.27 381.97 485.03 381.97 485.03L405.08 426.55L397.6 412.29C397.6 412.29 465.4 405.38 507.09 405.99L508.59 416.14L509.49 458.49C509.49 458.49 507.22 468.74 519.22 471.91Z" fill="black"/>
<path d="M396.34 410.57C396.34 410.57 397.18 415.43 396.34 425.46C396.34 425.46 391.45 432.26 402.7 431.61L424.95 431.66C424.95 431.66 427.95 418.34 443.76 423.52L494.54 442.62C494.54 442.62 497.46 420.93 496.16 410.57H396.34Z" fill="#D81E5B"/>
<path d="M494.67 456.79C494.67 490.52 479.67 493.86 479.67 493.86H453.67C450 501.54 427.62 558.31 427.62 558.31C418.74 560.09 413.94 559.18 411.5 558.14C411.096 557.964 410.705 557.76 410.33 557.53C408.394 556.261 406.252 555.337 404 554.8C401.77 554.299 399.477 554.144 397.2 554.34C396.971 554.363 396.739 554.334 396.522 554.255C396.306 554.176 396.11 554.049 395.949 553.883C395.789 553.718 395.668 553.519 395.595 553.3C395.522 553.081 395.5 552.849 395.53 552.62L398.81 527.92C400.15 511.92 405.35 502.54 405.35 502.54L417.03 460.26L424.93 431.66C429.01 417.55 443.74 423.52 443.74 423.52L494.52 442.62L494.67 456.79Z" fill="#28262C"/>
<path opacity="0.3" d="M455.94 474.82L448.07 506.94L453.6 493.86H479.6C479.6 493.86 491.81 491.58 494.38 463.86C494.43 463.83 485.32 487.18 455.94 474.82Z" fill="black"/>
<path opacity="0.1" d="M427.55 558.31L448.07 506.94L455.94 474.82L448.07 485.39C444.21 491.27 443.25 494.86 443.25 494.86C429.25 539.61 411.44 558.14 411.44 558.14C411.44 558.14 416.69 560.62 427.55 558.31Z" fill="black"/>
<path opacity="0.2" d="M455.94 474.83L448.07 485.39C448.07 485.39 444.28 491.65 443.25 494.86C443.25 494.86 434.05 529.16 411.45 558.14C411.046 557.964 410.655 557.76 410.28 557.53C408.359 556.266 406.235 555.342 404 554.8C401.77 554.299 399.477 554.144 397.2 554.34C396.971 554.363 396.739 554.334 396.522 554.255C396.306 554.176 396.11 554.049 395.949 553.883C395.789 553.718 395.668 553.519 395.595 553.3C395.522 553.081 395.5 552.849 395.53 552.62L398.81 527.92C400.15 511.92 405.35 502.54 405.35 502.54L417.03 460.26C420.345 456.59 423.246 452.565 425.68 448.26C425.68 448.26 434.35 427.4 445.87 434.54C445.89 434.56 467 443.09 455.94 474.83Z" fill="black"/>
<path d="M425 431.66L410.16 485.39C400 487.64 372 484 372 484C362.34 482.57 366.23 488.57 366.23 488.57C367.906 496.78 369.039 505.091 369.62 513.45C369.87 516.79 369.94 518.86 369.94 518.86L372 558.14C372.91 564 352.23 566.28 352.23 566.28C350.423 566.689 348.528 566.365 346.96 565.38L346.81 565.28C342.44 562.28 341.94 554.56 341.94 554.56C337.66 533.42 326.23 490.79 326.23 490.79C318.8 467.02 319.08 449.99 319.08 449.99C320.08 442.17 323.4 436.77 327.78 433.07C337.24 425.07 351.84 425.07 359.96 425.78C361.973 425.948 363.976 426.222 365.96 426.6C376.25 429.49 399.38 431.6 399.38 431.6L404.82 431.7C423.12 428.19 425 431.66 425 431.66Z" fill="#28262C"/>
<path opacity="0.1" d="M409.41 461.42C409.41 487.58 361.47 470.36 359.75 469.73C359.89 470.35 365.75 495.41 369.75 513.45C370 516.79 370.07 518.86 370.07 518.86L372 558.14C372.91 564 352.23 566.28 352.23 566.28C350.423 566.689 348.528 566.365 346.96 565.38L346.81 565.28C342.44 562.28 341.94 554.56 341.94 554.56C337.66 533.42 326.23 490.79 326.23 490.79C318.8 467.02 319.08 449.99 319.08 449.99C320.08 442.17 323.4 436.77 327.78 433.07C337.24 425.07 351.84 425.07 359.96 425.78C367.247 429.56 374.895 432.599 382.79 434.85C414.55 440.85 409.41 461.42 409.41 461.42Z" fill="black"/>
<path opacity="0.1" d="M368.64 472.05L359.75 469.73C359.75 469.73 352 466 355.12 481.13C355.12 481.13 371.12 544.63 347 565.38L346.85 565.28C342.48 562.28 341.98 554.56 341.98 554.56C337.7 533.42 326.27 490.79 326.27 490.79C318.84 467.02 319.12 449.99 319.12 449.99C320.12 442.17 323.44 436.77 327.82 433.07C327.82 433.07 386.55 433.96 386.55 463.83C386.55 463.83 388.44 476.11 368.64 472.05Z" fill="black"/>
<path d="M177 621.53C178.24 621.546 179.461 621.231 180.54 620.62C181.876 619.857 182.929 618.682 183.54 617.27V416.5H592.24V616.62C593.114 618.075 594.338 619.289 595.8 620.15C597.29 621.027 598.982 621.502 600.71 621.53V416.53C602.13 415.115 603.303 413.472 604.18 411.67C605.564 408.786 606.168 405.59 605.93 402.4L177 406V621.53Z" fill="#A7A9AC"/>
<path d="M633.42 368L605.93 402.39L506.66 403.23L490.57 403.37L177 406L200.3 369.2C201.142 367.873 202.306 366.78 203.684 366.023C205.062 365.266 206.608 364.87 208.18 364.87L632.18 365.48C632.476 365.47 632.77 365.545 633.024 365.698C633.279 365.85 633.484 366.073 633.615 366.339C633.746 366.605 633.797 366.904 633.762 367.198C633.728 367.493 633.609 367.771 633.42 368Z" fill="#939598"/>
<path d="M427.8 336.1C439.299 336.1 448.62 322.31 448.62 305.3C448.62 288.29 439.299 274.5 427.8 274.5C416.301 274.5 406.98 288.29 406.98 305.3C406.98 322.31 416.301 336.1 427.8 336.1Z" fill="#F9B499"/>
<path d="M415.68 283.74C415.68 283.74 416.27 302.81 436.68 300.11C436.68 300.11 441.95 299.63 444.16 309.72L450.08 302.72L437.36 287.29L415.68 283.74Z" fill="#F7A48B"/>
<path d="M408.33 343.21C408.33 343.21 395.06 339.42 397.2 325.21L398.14 310.52C398.14 310.52 386.77 248.68 421.14 249.39C421.14 249.39 424.22 245.83 436.54 250.81L447.2 253.65C447.2 253.65 462.84 257.92 461.2 279.95C462.172 281.665 463.648 283.04 465.428 283.888C467.208 284.736 469.206 285.016 471.15 284.69C471.15 284.69 475.89 283.27 477.08 288.69C477.08 288.69 459.08 296.98 456.46 315.47C456.46 315.47 455.75 343.66 440.59 342C440.59 342 446.51 338.69 446.27 326.37C446.27 326.37 443.43 312.62 444.38 305.28C444.38 305.28 445.56 296.51 439.17 298.17C439.17 298.17 427.08 299.83 421.87 294.38C421.87 294.38 416.42 290.11 415.71 283.72C415.71 283.72 414.02 283.53 414.15 285.48C414.212 286.205 414.178 286.934 414.05 287.65C413.036 292.054 411.274 296.252 408.84 300.06C408.84 300.06 410.02 312.39 405.76 317.12C405.73 317.14 397.2 335.39 408.33 343.21Z" fill="#28262C"/>
<path d="M463.57 364.87L451.83 320.77C451.83 320.77 450.7 312.94 447.44 310.44C447.44 310.44 441.35 305.68 441.51 294.01C441.51 294.01 442.81 283.34 440.8 281.24C440.8 281.24 435.67 275.77 435.93 272.34C435.961 272.122 436.045 271.916 436.173 271.737C436.302 271.559 436.471 271.414 436.668 271.316C436.865 271.218 437.082 271.169 437.302 271.173C437.522 271.177 437.737 271.234 437.93 271.34L439.81 272.27C439.81 272.27 437.9 267.27 440.57 265.01C440.57 265.01 440.38 261.18 444.21 264.01L448.63 267.64C448.63 267.64 447.84 260 452.63 265.54L459.7 276.43C459.7 276.43 464 280 462 292.48C462 292.48 459.71 303.21 461.24 305.3L484.17 345.42L463.57 364.87Z" fill="#F9B499"/>
<path d="M421.74 265.59C421.91 271 409.34 275.72 409.34 275.72L408.34 284.28C408.265 286.587 407.967 288.881 407.45 291.13C407.004 293.145 406.333 295.104 405.45 296.97V296.97C404.916 298.111 404.245 299.182 403.45 300.16L399.6 307.85L391.43 326.14C390.122 329.069 388.993 332.074 388.05 335.14C385.62 343.09 379.82 360.31 372.36 371.05C363.29 384.1 355.66 373.37 354.36 371.36C354.23 371.16 354.17 371.05 354.17 371.05C348.06 359.53 355.53 344.75 355.53 344.75C356.62 342.98 357.862 341.307 359.24 339.75C368.85 331.75 386.77 295.61 386.77 295.61C389.15 288.33 388.77 267.44 388.77 267.44C387.37 261.15 397.67 259.44 397.67 259.44C408.33 253.85 410.6 256.44 410.6 256.44C414.6 255.21 415.84 258.53 415.84 258.53C418.98 256.26 420.03 258.53 420.03 258.53C421.68 261.53 415.08 266.65 414.34 267.22C420.87 263.16 421.74 265.59 421.74 265.59Z" fill="#F9B499"/>
<path d="M405.37 297C404.836 298.141 404.165 299.212 403.37 300.19L399.52 307.88L391.35 326.17C390.042 329.099 388.913 332.104 387.97 335.17C385.54 343.12 379.74 360.34 372.28 371.08C363.21 384.13 355.58 373.4 354.28 371.39C358.96 370.52 374.01 366.86 379.59 354.84C383.716 345.751 386.709 336.19 388.5 326.37L392.5 311.65C392.86 310.31 393.13 308.96 393.37 307.65C393.628 306.141 394.314 304.738 395.345 303.607C396.377 302.476 397.711 301.665 399.19 301.27C401.525 300.293 403.63 298.839 405.37 297V297Z" fill="#F7A48B"/>
<path d="M409.34 275.72L408.34 284.28C408.265 286.587 407.967 288.881 407.45 291.13C407.45 291.13 403.35 278.6 409.34 275.72Z" fill="#F7A48B"/>
<path d="M394.84 266.28C395.523 264.842 396.554 263.598 397.84 262.66C399.082 261.676 400.403 260.797 401.79 260.03C403.175 259.285 404.601 258.617 406.06 258.03C407.516 257.435 409.009 256.934 410.53 256.53C407.78 258.07 404.98 259.42 402.27 260.92C400.92 261.68 399.59 262.45 398.27 263.3C397.64 263.74 396.99 264.17 396.4 264.66C395.805 265.123 395.28 265.668 394.84 266.28V266.28Z" fill="#F7A48B"/>
<path d="M399.55 269.76C400.527 268.405 401.692 267.196 403.01 266.17C404.29 265.119 405.625 264.138 407.01 263.23C408.41 262.34 409.83 261.49 411.29 260.71C412.753 259.93 414.255 259.226 415.79 258.6C413.1 260.54 410.3 262.27 407.56 264.07C406.18 264.957 404.817 265.863 403.47 266.79C402.102 267.696 400.793 268.688 399.55 269.76Z" fill="#F7A48B"/>
<path d="M403.57 274.49C404.021 273.454 404.647 272.504 405.42 271.68C406.177 270.839 407.038 270.097 407.98 269.47C408.912 268.841 409.92 268.334 410.98 267.96C412.038 267.577 413.147 267.352 414.27 267.29C413.27 267.76 412.27 268.17 411.27 268.68C409.352 269.65 407.556 270.845 405.92 272.24C405.096 272.946 404.312 273.698 403.57 274.49Z" fill="#F7A48B"/>
<path d="M439.79 272.22C442.229 273.79 444.28 275.893 445.79 278.37C446.541 279.62 447.12 280.965 447.51 282.37C447.865 283.785 447.933 285.258 447.71 286.7C447.535 285.3 447.199 283.924 446.71 282.6C446.213 281.306 445.604 280.058 444.89 278.87C444.153 277.685 443.348 276.543 442.48 275.45C441.67 274.36 440.77 273.27 439.79 272.22Z" fill="#F7A48B"/>
<path d="M442 266.28C444.826 268.793 447.177 271.794 448.94 275.14C449.846 276.804 450.595 278.548 451.18 280.35C451.765 282.145 452.144 284 452.31 285.88C451.73 284.09 451.18 282.32 450.44 280.62C449.742 278.91 448.947 277.24 448.06 275.62C447.2 274 446.24 272.41 445.23 270.86C444.22 269.31 443.11 267.77 442 266.28Z" fill="#F7A48B"/>
<path d="M450.09 268.93C451.927 270.93 453.487 273.166 454.73 275.58C455.364 276.79 455.886 278.055 456.29 279.36C456.756 280.66 456.894 282.054 456.69 283.42C456.503 282.104 456.122 280.824 455.56 279.62C455.03 278.41 454.47 277.21 453.84 276.04C452.63 273.67 451.3 271.36 450.09 268.93Z" fill="#F7A48B"/>
<path d="M463.57 364.87C463.57 364.87 464.16 333.41 472.03 324.24L484.13 345.42L463.57 364.87Z" fill="#F7A48B"/>
<path d="M424 613.37V618.23C424 619.287 423.636 620.313 422.97 621.134C422.303 621.955 421.375 622.522 420.34 622.74C417.01 623.44 410.79 624.74 399.41 627.06L398.76 627.19C377.52 631.42 362.76 629.04 362.76 629.04C357.89 628.11 359.71 624.11 359.71 624.11C372.448 625.541 385.329 625.049 397.92 622.65C397.92 622.65 416.35 618.82 424 613.37Z" fill="#28262C"/>
<path d="M600.71 621.53L632.41 583.3V369.3L605.93 402.4C606.161 404.995 605.813 407.609 604.91 410.052C604.007 412.496 602.573 414.709 600.71 416.53V621.53Z" fill="#BCBEC0"/>
<path opacity="0.1" d="M600.71 416.5V418.13L632.41 398.2V369.27L605.93 402.37C606.144 404.963 605.787 407.572 604.885 410.013C603.984 412.454 602.559 414.668 600.71 416.5V416.5Z" fill="black"/>
<path d="M183.53 416.5H208.84L209.41 584.56L183.53 617.27V416.5Z" fill="#BCBEC0"/>
<path opacity="0.1" d="M183.53 416.5V459.99L209.05 478.27L208.84 416.5H183.53Z" fill="black"/>
<path d="M259.46 362.42V376.05L244.77 373.94C244.069 373.848 243.357 373.906 242.68 374.109C242.004 374.313 241.378 374.657 240.844 375.12C240.31 375.583 239.88 376.154 239.583 376.795C239.286 377.436 239.128 378.133 239.12 378.84V378.84C239.12 380.03 239.551 381.181 240.331 382.079C241.112 382.977 242.191 383.564 243.37 383.73L298.53 391.54C299.172 391.632 299.825 391.584 300.447 391.401C301.069 391.218 301.644 390.904 302.133 390.479C302.623 390.054 303.015 389.529 303.284 388.939C303.552 388.349 303.691 387.708 303.69 387.06C303.693 385.971 303.302 384.917 302.589 384.093C301.876 383.27 300.889 382.732 299.81 382.58L283.69 380.27L283.41 362.42H259.46Z" fill="#D81E5B"/>
<path opacity="0.2" d="M259.46 362.42V376.05L244.77 373.94C244.069 373.848 243.357 373.906 242.68 374.109C242.004 374.313 241.378 374.657 240.844 375.12C240.31 375.583 239.88 376.154 239.583 376.795C239.286 377.436 239.128 378.133 239.12 378.84V378.84C239.12 380.03 239.551 381.181 240.331 382.079C241.112 382.977 242.191 383.564 243.37 383.73L298.53 391.54C299.172 391.632 299.825 391.584 300.447 391.401C301.069 391.218 301.644 390.904 302.133 390.479C302.623 390.054 303.015 389.529 303.284 388.939C303.552 388.349 303.691 387.708 303.69 387.06C303.693 385.971 303.302 384.917 302.589 384.093C301.876 383.27 300.889 382.732 299.81 382.58L283.69 380.27L283.41 362.42H259.46Z" fill="black"/>
<path d="M461.8 373.01H536.12L554.58 351.93H516.34L461.8 373.01Z" fill="#28262C"/>
<path d="M536.12 373.01V393.7L551.19 384.27L553.03 366.7L544.33 363.64L536.12 373.01Z" fill="#28262C"/>
<path opacity="0.2" d="M536.12 373.01V393.7L551.19 384.27L553.03 366.7L544.33 363.64L536.12 373.01Z" fill="black"/>
<path d="M461.8 373.01V391.99L536.12 393.7V373.01H461.8Z" fill="white"/>
<path d="M183.12 258.6V355.97L344.23 379.02V281.61L183.12 258.6Z" fill="#D81E5B"/>
<path d="M191.54 254.35L183.12 258.6L344.23 281.61V379.02L351.74 376.3V278.39L191.54 254.35Z" fill="#D81E5B"/>
<path opacity="0.2" d="M191.54 254.35L183.12 258.6L344.23 281.61V379.02L351.74 376.3V278.39L191.54 254.35Z" fill="black"/>
<path d="M424 613.37C416.35 618.82 397.9 622.65 397.9 622.65C385.308 625.049 372.428 625.541 359.69 624.11C359.536 624.089 359.39 624.03 359.266 623.937C359.142 623.844 359.043 623.722 358.98 623.58C356.54 617.95 381.88 606.87 381.88 606.87C391.88 601.19 396.41 591.13 396.41 591.13C396.41 591.13 410.12 591.28 408.7 597.56C408.7 597.56 408.17 601.76 410.81 601.97C411.239 601.988 411.666 601.902 412.054 601.719C412.442 601.536 412.781 601.262 413.04 600.92L416.27 596.85C421.06 589.14 422.03 597.01 422.03 597.01L424 613.37Z" fill="#D81E5B"/>
<path d="M452.9 374.35L520.13 375.68C520.13 375.68 538.83 358.18 541.94 336.1C541.94 336.1 501.08 349.05 490.57 336.1C490.57 336.1 487.36 342.37 484.13 345.42L463.57 364.87L452.9 374.35Z" fill="white"/>
<path d="M549.14 369.27V389.1H553C553 389.1 552.18 397.49 549.92 401.18H605.92C605.92 401.18 606.03 380.18 601.73 369.27H549.14Z" fill="white"/>
<path d="M543.16 348.88C543.16 348.88 584.43 353.72 605.16 351.2C605.16 351.2 608.16 350.49 622.47 330.36L634.35 313.9H571.75C571.75 313.9 567.49 315.71 560.4 327.21C559.593 328.543 558.743 329.82 557.85 331.04C554.78 335.32 548 344.49 543.16 348.88Z" fill="#D81E5B"/>
<path opacity="0.4" d="M543.16 348.88C543.16 348.88 584.43 353.72 605.16 351.2C605.16 351.2 608.16 350.49 622.47 330.36L634.35 313.9H571.75C571.75 313.9 567.49 315.71 560.4 327.21C559.593 328.543 558.743 329.82 557.85 331.04C554.78 335.32 548 344.49 543.16 348.88Z" fill="white"/>
<path d="M543.16 348.88L544.77 369.27H608.59C608.59 369.27 607.38 355.94 605.17 351.2C605.17 351.2 581.62 353.51 543.16 348.88Z" fill="white"/>
<path d="M634.36 313.9L637.5 338.62C637.588 339.305 637.515 340.002 637.288 340.654C637.061 341.307 636.685 341.898 636.19 342.38L608.59 369.27C608.59 369.27 607.38 357.95 605.17 351.2C605.17 351.2 607.51 350.2 612.83 343.26L634.36 313.9Z" fill="#D81E5B"/>
<path opacity="0.5" d="M634.36 313.9L637.5 338.62C637.588 339.305 637.515 340.002 637.288 340.654C637.061 341.307 636.685 341.898 636.19 342.38L608.59 369.27C608.59 369.27 607.38 357.95 605.17 351.2C605.17 351.2 607.51 350.2 612.83 343.26L634.36 313.9Z" fill="white"/>
<path d="M601.58 387.87C597.58 388.17 593.5 388.37 589.46 388.56C585.42 388.75 581.37 388.84 577.32 388.98C573.27 389.12 569.23 389.15 565.18 389.17H559.11C557.11 389.17 555.06 389.17 553.04 389.08C555.04 388.91 557.04 388.81 559.1 388.68L565.16 388.38C569.21 388.2 573.25 388.1 577.3 387.96C581.35 387.82 585.39 387.79 589.44 387.77C593.49 387.75 597.53 387.76 601.58 387.87Z" fill="#E6E7E8"/>
<path d="M605.17 387.05C605.17 387.05 622.48 370.64 630.88 359.05L630.28 348.11L608.59 369.24H601.79C601.79 369.24 604.38 374.55 605.17 387.05Z" fill="#28262C"/>
<path d="M605.17 387.05C605.703 391.741 605.974 396.459 605.98 401.18H606.88L631.88 369.85C631.88 369.85 631.66 361.85 630.88 359.08C630.88 359.08 622.61 370.64 605.17 387.05Z" fill="#D81E5B"/>
<path d="M377.36 374.8L373.36 371.14L364.21 373.63L359.22 385.78L370.37 391.11L378.69 389.44L381.02 380.95L377.36 374.8Z" fill="white"/>
<path d="M370.37 391.44C370.324 391.45 370.276 391.45 370.23 391.44L359.07 386.11C358.994 386.071 358.935 386.006 358.904 385.927C358.873 385.848 358.871 385.76 358.9 385.68L363.9 373.53C363.919 373.482 363.949 373.439 363.987 373.405C364.025 373.37 364.071 373.344 364.12 373.33L373.3 370.84C373.354 370.825 373.411 370.824 373.466 370.838C373.52 370.852 373.57 370.881 373.61 370.92L377.61 374.58C377.61 374.58 377.66 374.58 377.67 374.65L381.33 380.82C381.349 380.861 381.36 380.905 381.36 380.95C381.36 380.995 381.349 381.039 381.33 381.08L379 389.54C378.985 389.599 378.954 389.651 378.909 389.692C378.865 389.733 378.81 389.76 378.75 389.77L370.43 391.43L370.37 391.44ZM359.64 385.62L370.41 390.76L378.41 389.16L380.65 381.01L377.08 375.01L373.3 371.5L364.48 373.91L359.64 385.62Z" fill="#28262C"/>
<path d="M374.7 389.44H374.63L366.31 388.28C366.236 388.271 366.166 388.24 366.11 388.19C366.055 388.139 366.016 388.073 366 388L364.83 380.51C364.825 380.455 364.833 380.4 364.852 380.348C364.871 380.296 364.901 380.249 364.94 380.21L370.94 374.71C371.002 374.659 371.08 374.631 371.16 374.63L377.32 374.46V375.13L371.32 375.29L365.55 380.58L366.65 387.65L374.52 388.75L378.52 382.09L372.36 378.7L370.27 380.53L376.78 383.32L376.52 383.93L369.52 380.93C369.466 380.911 369.419 380.878 369.384 380.834C369.348 380.79 369.326 380.736 369.32 380.68C369.31 380.626 369.314 380.57 369.332 380.517C369.349 380.465 369.38 380.418 369.42 380.38L372.09 378.05C372.146 378.011 372.212 377.99 372.28 377.99C372.348 377.99 372.414 378.011 372.47 378.05L379.13 381.71C379.17 381.73 379.206 381.759 379.235 381.793C379.264 381.827 379.286 381.867 379.3 381.91C379.33 381.994 379.33 382.086 379.3 382.17L375 389.31C374.967 389.357 374.922 389.395 374.869 389.418C374.816 389.441 374.757 389.448 374.7 389.44Z" fill="#28262C"/>
<path d="M371.3 386.64L366.47 385.98C366.415 385.969 366.364 385.947 366.319 385.914C366.274 385.881 366.237 385.839 366.21 385.79C366.185 385.74 366.172 385.686 366.172 385.63C366.172 385.574 366.185 385.52 366.21 385.47L369.37 380.47L369.94 380.82L367.05 385.38L371.37 385.97L371.3 386.64Z" fill="#28262C"/>
<path d="M373.36 371.13L376.36 371.8L379.7 374.63L382.53 377.79C382.53 377.79 384.03 381.79 383.53 382.46C382.98 383.526 382.531 384.641 382.19 385.79L379.36 386.79L381 381L377.33 374.84L373.36 371.13Z" fill="white"/>
<path d="M379.36 387.12C379.269 387.117 379.182 387.079 379.119 387.014C379.055 386.949 379.02 386.861 379.02 386.77C379.02 386.77 379.02 386.77 379.02 386.69L380.64 381L377.08 375L373.08 371.37C373.049 371.339 373.024 371.303 373.007 371.262C372.99 371.222 372.982 371.179 372.982 371.135C372.982 371.091 372.99 371.048 373.007 371.008C373.024 370.967 373.049 370.931 373.08 370.9C373.12 370.859 373.169 370.829 373.223 370.812C373.277 370.794 373.334 370.79 373.39 370.8L376.39 371.47C376.445 371.481 376.497 371.505 376.54 371.54L379.87 374.37L382.73 377.56C382.756 377.593 382.776 377.63 382.79 377.67C383.26 378.92 384.29 381.91 383.79 382.67C383.26 383.706 382.831 384.791 382.51 385.91C382.492 385.958 382.464 386.001 382.428 386.038C382.391 386.074 382.348 386.102 382.3 386.12L379.47 387.12H379.36ZM374.5 371.73L377.58 374.55C377.608 374.565 377.629 374.59 377.64 374.62L381.31 380.79C381.34 380.874 381.34 380.966 381.31 381.05L379.82 386.25L381.89 385.52C382.218 384.386 382.664 383.29 383.22 382.25C383.41 381.94 382.95 379.98 382.22 377.97L379.44 374.85L376.21 372.1L374.5 371.73Z" fill="#28262C"/>
<path d="M399.83 370.09L391.74 374.09V380.72C391.74 381.11 392 384.05 392 384.05L398.89 388.56L405.78 388.02L410.56 385.5L413.08 381.8L414.27 379.28C414.27 379.28 414.53 375.03 414.67 374.61C414.602 373.324 414.468 372.042 414.27 370.77C413.738 369.577 413.12 368.424 412.42 367.32L407.91 367.72L405.66 367.45L399.83 370.09Z" fill="white"/>
<path d="M398.89 388.84C398.831 388.853 398.769 388.853 398.71 388.84L391.82 384.33C391.779 384.302 391.744 384.265 391.718 384.221C391.692 384.178 391.676 384.13 391.67 384.08C391.67 383.78 391.4 381.14 391.4 380.75V374.12C391.404 374.058 391.423 373.998 391.457 373.946C391.49 373.893 391.536 373.85 391.59 373.82L399.67 369.82L405.5 367.15C405.56 367.14 405.62 367.14 405.68 367.15L407.9 367.41L412.37 367.02C412.431 367.015 412.493 367.027 412.548 367.056C412.603 367.084 412.648 367.127 412.68 367.18C413.452 368.31 414.093 369.525 414.59 370.8C414.59 370.92 414.66 371.47 414.73 371.93C414.93 372.856 415.011 373.804 414.97 374.75C414.87 375.04 414.71 377.29 414.59 379.3C414.6 379.339 414.6 379.381 414.59 379.42L413.39 381.94L410.86 385.7L410.74 385.81L406 388.28C405.957 388.289 405.913 388.289 405.87 388.28L398.98 388.81L398.89 388.84ZM392.32 383.84L398.99 388.2L405.7 387.68L410.36 385.23L412.84 381.6L413.97 379.18C414.04 378.1 414.25 374.92 414.38 374.51C414.35 373.668 414.26 372.829 414.11 372C414.02 371.33 413.97 370.93 413.97 370.77C413.475 369.702 412.907 368.67 412.27 367.68L408 368H407.93L405.77 367.75L400 370.39L392.11 374.27V380.69C392.07 381 392.24 382.91 392.32 383.81V383.84Z" fill="#28262C"/>
<path d="M399 384.7C398.746 384.708 398.493 384.66 398.26 384.56C397.46 384.16 393.12 380.31 392.63 379.9C392.581 379.856 392.546 379.798 392.528 379.734C392.51 379.671 392.511 379.603 392.53 379.54C393.28 377.43 394.25 374.87 394.65 374.6C395.05 374.33 397.86 371.6 399.65 369.87C399.713 369.812 399.795 369.78 399.88 369.78C399.965 369.78 400.047 369.812 400.11 369.87L405.11 374.53C405.149 374.567 405.179 374.611 405.2 374.66L406.93 379.33C406.949 379.386 406.953 379.447 406.94 379.505C406.928 379.563 406.9 379.616 406.86 379.66C405.53 381.23 403.14 383.87 402.58 384.01L402.2 384.12C401.16 384.44 400.086 384.635 399 384.7V384.7ZM393.24 379.53C394.939 381.101 396.718 382.583 398.57 383.97C399.12 384.24 401.32 383.61 402.04 383.4L402.45 383.28C403.815 382.044 405.085 380.707 406.25 379.28L404.64 374.9L399.88 370.53C398.76 371.61 395.4 374.87 395.03 375.12C394.328 376.542 393.73 378.012 393.24 379.52V379.53Z" fill="#28262C"/>
<path d="M404.33 386.72H404.22L398.22 384.6C398.149 384.575 398.089 384.526 398.049 384.462C398.009 384.398 397.993 384.323 398.002 384.248C398.011 384.173 398.046 384.104 398.1 384.051C398.154 383.999 398.225 383.967 398.3 383.96L403.19 383.44L406.19 379.33L404.57 374.93L399.57 370.35C399.527 370.316 399.494 370.271 399.475 370.22C399.455 370.169 399.45 370.114 399.46 370.06C399.469 370.005 399.491 369.953 399.524 369.908C399.557 369.862 399.6 369.826 399.65 369.8L405.48 367.14C405.541 367.114 405.608 367.106 405.674 367.116C405.739 367.127 405.8 367.156 405.85 367.2L409.7 370.92L409.75 370.98L412.93 376.28C412.971 376.345 412.989 376.423 412.98 376.5L412.45 380.61C412.438 380.658 412.421 380.705 412.4 380.75L409.73 384.85C409.694 384.917 409.633 384.967 409.56 384.99L404.39 386.71L404.33 386.72ZM399.86 384.44L404.33 386.04L409.28 384.38L411.83 380.44L412.34 376.52L409.24 371.36L405.58 367.83L400.42 370.18L405.09 374.48C405.122 374.52 405.149 374.563 405.17 374.61L406.9 379.27C406.924 379.32 406.936 379.375 406.936 379.43C406.936 379.485 406.924 379.54 406.9 379.59L403.67 384C403.645 384.039 403.611 384.072 403.571 384.096C403.531 384.121 403.486 384.135 403.44 384.14L399.86 384.44Z" fill="#28262C"/>
<path d="M398.66 384.42L398.07 384.12L400.07 380.2L400.19 378.87L398.89 374.95C398.876 374.91 398.87 374.868 398.872 374.825C398.875 374.783 398.885 374.741 398.904 374.703C398.923 374.665 398.949 374.631 398.981 374.603C399.013 374.575 399.05 374.554 399.09 374.54H399.19L404.89 374.41V375.07L399.65 375.19L400.83 378.74C400.84 378.786 400.84 378.834 400.83 378.88L400.69 380.33C400.7 380.369 400.7 380.411 400.69 380.45L398.66 384.42Z" fill="#28262C"/>
<path d="M434.61 375.37L424.34 386.02L425.48 388.88L429.86 391.73L438.04 394.01L443.17 389.63L442.22 382.22L442.03 379.37L442.98 377.85L436.71 373.85L434.61 375.37Z" fill="white"/>
<path d="M438 394.35L429.82 392.07L429.73 392.02L425.33 389.16C425.273 389.119 425.229 389.064 425.2 389L424 386.14C423.977 386.081 423.971 386.017 423.984 385.955C423.996 385.893 424.026 385.835 424.07 385.79L434.34 375.13L436.44 373.61C436.496 373.571 436.562 373.55 436.63 373.55C436.698 373.55 436.764 373.571 436.82 373.61L443.09 377.61C443.127 377.633 443.159 377.664 443.184 377.7C443.209 377.736 443.227 377.776 443.236 377.819C443.246 377.862 443.246 377.906 443.238 377.949C443.23 377.992 443.214 378.033 443.19 378.07L442.3 379.5L442.48 382.25L443.48 389.64C443.487 389.695 443.48 389.751 443.461 389.803C443.442 389.855 443.411 389.902 443.37 389.94L438.23 394.31C438.161 394.351 438.079 394.365 438 394.35V394.35ZM430 391.42L437.95 393.65L442.81 389.5L441.89 382.26L441.69 379.39C441.69 379.319 441.711 379.249 441.75 379.19L442.52 377.95L436.72 374.25L434.83 375.62L424.73 386.1L425.73 388.66L430 391.42Z" fill="#28262C"/>
<path d="M433.15 391.24H433C432.74 391.11 426.66 388.17 426.16 387.87L426.51 387.3C426.88 387.52 431.13 389.6 433.04 390.52L434.45 388.58C434.485 388.524 434.538 388.482 434.6 388.46L439.6 386.4L438.69 383.14C438.677 383.089 438.675 383.035 438.685 382.983C438.696 382.931 438.718 382.882 438.75 382.84L441.75 379.19L442.27 379.61L439.41 383.12L440.35 386.51C440.369 386.588 440.361 386.671 440.326 386.744C440.292 386.817 440.233 386.875 440.16 386.91L434.94 389L433.41 391.09C433.384 391.136 433.346 391.174 433.3 391.2C433.254 391.226 433.203 391.24 433.15 391.24V391.24Z" fill="#28262C"/>
<path d="M438 392.82H437.9L433 391.24L433.21 390.61L437.82 392.11L441.23 387.78L440.28 383.12L441 383L442 387.84C442.009 387.889 442.007 387.939 441.995 387.988C441.983 388.036 441.961 388.081 441.93 388.12L438.28 392.78C438.239 392.807 438.193 392.825 438.145 392.832C438.096 392.838 438.047 392.835 438 392.82Z" fill="#28262C"/>
<path d="M442.12 381L445.18 382L447.93 388.91C447.93 388.91 446.85 391.96 446.65 392.36C446.45 392.76 441.42 395.42 441.42 395.42L434.22 396.5C434.22 396.5 431.07 395.61 430.97 395.12C430.87 394.63 423.17 391.37 423.17 391.37L425.48 388.85L429.85 391.7L438 394L443.13 389.63L442.12 381Z" fill="white"/>
<path d="M434.23 396.87H434.14C431.14 396.03 430.75 395.53 430.67 395.3C428.208 393.948 425.663 392.752 423.05 391.72C422.969 391.687 422.905 391.623 422.871 391.542C422.837 391.462 422.837 391.371 422.87 391.29C422.88 391.252 422.901 391.217 422.93 391.19L425.24 388.66C425.292 388.602 425.363 388.565 425.441 388.556C425.518 388.547 425.596 388.566 425.66 388.61L429.99 391.43L437.94 393.65L442.8 389.5L441.8 381.08C441.791 381.025 441.798 380.969 441.819 380.918C441.84 380.867 441.875 380.823 441.92 380.79C441.96 380.751 442.011 380.725 442.066 380.714C442.121 380.703 442.178 380.709 442.23 380.73L445.29 381.73C445.338 381.746 445.381 381.772 445.417 381.806C445.454 381.841 445.482 381.883 445.5 381.93L448.26 388.83C448.289 388.904 448.289 388.986 448.26 389.06C448.15 389.38 447.16 392.15 446.93 392.55C446.7 392.95 444.93 393.96 441.56 395.76C441.524 395.769 441.486 395.769 441.45 395.76L434.25 396.85L434.23 396.87ZM423.74 391.31C431.17 394.47 431.26 394.92 431.3 395.12C432.239 395.598 433.228 395.971 434.25 396.23L441.32 395.16C443.067 394.291 444.757 393.313 446.38 392.23C446.49 392 447.15 390.23 447.59 388.98L444.92 382.31L442.51 381.53L443.51 389.61C443.516 389.664 443.508 389.72 443.487 389.77C443.466 389.821 443.433 389.865 443.39 389.9L438.25 394.28C438.21 394.316 438.161 394.341 438.109 394.353C438.057 394.366 438.002 394.365 437.95 394.35L429.77 392.07L429.68 392.02L425.55 389.31L423.74 391.31Z" fill="#28262C"/>
<path d="M319.14 228.74V228.87C319.14 235.87 326.33 241.51 335.21 241.51C335.95 241.51 336.68 241.51 337.39 241.39C342.013 243.98 347.231 245.321 352.53 245.28C360.64 245.28 367.83 242.35 372.53 237.76C381.04 237.44 387.82 231.91 387.82 225.14V225C393.13 222 396.59 217.09 396.59 211.56C396.59 205.78 392.86 200.78 387.21 197.78C387.609 196.663 387.819 195.486 387.83 194.3C387.83 187.3 380.63 181.66 371.76 181.66C370.82 181.657 369.88 181.723 368.95 181.86C365.28 177.24 358.76 174.17 351.33 174.17C342.01 174.17 334.12 179 331.49 185.65C322.8 185.81 315.8 191.4 315.8 198.29C315.798 198.983 315.872 199.673 316.02 200.35C311.71 203.71 309.02 208.35 309.02 213.54C309 219.82 313.06 225.41 319.14 228.74Z" fill="#D81E5B"/>
<path d="M419.33 226.51C421.56 226.51 423.33 227.75 423.33 229.28C423.33 230.81 421.56 232.05 419.33 232.05C417.1 232.05 415.33 230.81 415.33 229.28C415.33 227.75 417.1 226.51 419.33 226.51Z" fill="#D81E5B"/>
<path d="M407.84 214.94C411.18 214.94 413.9 216.83 413.9 219.16C413.9 221.49 411.19 223.38 407.84 223.38C404.49 223.38 401.78 221.49 401.78 219.16C401.78 216.83 404.5 214.94 407.84 214.94Z" fill="#D81E5B"/>
<path opacity="0.6" d="M319.14 228.74V228.87C319.14 235.87 326.33 241.51 335.21 241.51C335.95 241.51 336.68 241.51 337.39 241.39C342.013 243.98 347.231 245.321 352.53 245.28C360.64 245.28 367.83 242.35 372.53 237.76C381.04 237.44 387.82 231.91 387.82 225.14V225C393.13 222 396.59 217.09 396.59 211.56C396.59 205.78 392.86 200.78 387.21 197.78C387.609 196.663 387.819 195.486 387.83 194.3C387.83 187.3 380.63 181.66 371.76 181.66C370.82 181.657 369.88 181.723 368.95 181.86C365.28 177.24 358.76 174.17 351.33 174.17C342.01 174.17 334.12 179 331.49 185.65C322.8 185.81 315.8 191.4 315.8 198.29C315.798 198.983 315.872 199.673 316.02 200.35C311.71 203.71 309.02 208.35 309.02 213.54C309 219.82 313.06 225.41 319.14 228.74Z" fill="white"/>
<path opacity="0.6" d="M419.33 226.51C421.56 226.51 423.33 227.75 423.33 229.28C423.33 230.81 421.56 232.05 419.33 232.05C417.1 232.05 415.33 230.81 415.33 229.28C415.33 227.75 417.1 226.51 419.33 226.51Z" fill="white"/>
<path opacity="0.6" d="M407.84 214.94C411.18 214.94 413.9 216.83 413.9 219.16C413.9 221.49 411.19 223.38 407.84 223.38C404.49 223.38 401.78 221.49 401.78 219.16C401.78 216.83 404.5 214.94 407.84 214.94Z" fill="white"/>
<path d="M362 202.43C361.92 199.26 359.2 197.15 354.93 197.22C350.83 197.28 347.88 198.9 346.02 201.7L340.56 198.23C343.56 193.89 348.46 191.23 355.39 191.11C363.53 191 369.07 194.71 369.25 201.2C369.51 210.42 360.06 211.4 360.25 218.07L353.25 218.17C352.94 209.8 362.15 208.08 362 202.43ZM352.56 227.28C352.511 226.165 352.903 225.076 353.652 224.248C354.401 223.421 355.446 222.922 356.56 222.86C356.653 222.855 356.747 222.855 356.84 222.86C357.99 222.817 359.109 223.232 359.953 224.014C360.797 224.796 361.296 225.88 361.34 227.03V227.15C361.397 228.271 361.009 229.369 360.259 230.205C359.51 231.04 358.461 231.545 357.34 231.61H357.12C356.542 231.631 355.966 231.539 355.424 231.337C354.882 231.136 354.385 230.829 353.961 230.435C353.538 230.041 353.196 229.568 352.955 229.042C352.715 228.516 352.581 227.948 352.56 227.37V227.28Z" fill="#D81E5B"/>
</svg>
